M48
;DRILL file {KiCad 4.0.1-stable} date 10-Mar-16 11:29:37
;FORMAT={-:-/ absolute / metric / decimal}
FMAT,2
METRIC,TZ
T1C0.381
T2C0.400
T3C0.500
T4C0.700
T5C0.701
T6C0.800
T7C0.800
T8C1.000
T9C1.001
T10C1.016
T11C2.000
T12C3.048
%
G90
G05
M71
T1
X125.127Y-31.008
X126.397Y-31.008
X127.667Y-31.008
X128.938Y-31.008
X153.794Y-60.296
X155.064Y-60.296
X156.115Y-29.992
X156.115Y-31.262
X156.334Y-60.296
X157.385Y-29.992
X157.385Y-31.262
X157.605Y-60.296
X165.792Y-32.314
X165.792Y-33.584
X165.792Y-34.855
X165.792Y-36.124
X165.792Y-37.395
X165.792Y-43.314
X165.792Y-44.584
X165.792Y-45.854
X165.792Y-47.124
X165.792Y-48.395
X173.416Y-83.346
X173.48Y-81.251
X174.686Y-83.346
X174.749Y-81.251
X175.956Y-83.346
X176.019Y-81.251
X177.226Y-83.346
X177.29Y-81.251
X177.746Y-32.322
X177.746Y-33.591
X177.746Y-34.861
X177.746Y-36.131
X177.746Y-37.401
X177.792Y-43.314
X177.792Y-44.584
X177.792Y-45.854
X177.792Y-47.124
X177.792Y-48.395
X178.496Y-83.346
X178.559Y-81.251
T2
X111.792Y-44.343
X112.999Y-47.645
X113.Y-49.
X114.142Y-47.2
X114.968Y-47.2
X115.666Y-31.262
X116.174Y-46.947
X116.301Y-38.501
X116.555Y-31.262
X116.774Y-109.968
X117.38Y-31.262
X117.5Y-54.3
X117.5Y-55.9
X118.523Y-31.008
X118.869Y-110.031
X119.285Y-43.073
X119.441Y-85.442
X119.857Y-46.629
X120.006Y-149.528
X120.111Y-31.008
X120.133Y-147.877
X120.555Y-41.358
X123.477Y-39.644
X123.603Y-36.596
X125.889Y-46.629
X126.108Y-61.185
X126.108Y-64.487
X126.108Y-67.789
X126.108Y-71.091
X126.108Y-74.393
X126.108Y-77.695
X127.124Y-138.796
X127.188Y-125.588
X127.188Y-128.891
X127.188Y-132.192
X127.188Y-135.558
X127.251Y-142.035
X130.172Y-120.
X131.414Y-29.801
X131.414Y-48.216
X131.951Y-115.238
X132.204Y-73.567
X132.332Y-119.937
X132.43Y-46.502
X132.966Y-76.806
X133.3Y-81.1
X133.411Y-136.32
X133.856Y-145.4
X133.919Y-74.393
X133.982Y-72.869
X134.109Y-118.349
X134.49Y-81.06
X134.49Y-113.777
X134.999Y-137.463
X135.16Y-36.977
X135.189Y-61.883
X135.351Y-38.247
X135.761Y-125.525
X135.887Y-115.238
X136.078Y-89.252
X136.459Y-118.349
X137.2Y-66.
X137.221Y-89.252
X138.046Y-89.252
X138.681Y-130.224
X139.634Y-79.473
X139.761Y-144.004
X139.761Y-144.829
X140.015Y-72.107
X140.015Y-88.998
X140.587Y-136.764
X141.158Y-133.145
X141.539Y-130.668
X141.602Y-88.998
X141.701Y-36.913
X141.701Y-40.343
X142.492Y-132.446
X143.098Y-46.566
X143.761Y-67.916
X144.358Y-127.786
X145.222Y-143.432
X145.54Y-68.742
X145.54Y-69.567
X145.6Y-128.4
X146.365Y-67.916
X146.527Y-40.025
X146.9Y-130.6
X147.051Y-131.392
X147.3Y-73.
X147.3Y-73.9
X147.305Y-129.919
X147.349Y-147.401
X147.4Y-78.1
X147.4Y-79.
X147.813Y-131.24
X148.238Y-147.401
X149.445Y-147.401
X150.1Y-84.1
X150.112Y-143.051
X150.429Y-69.44
X151.064Y-86.522
X151.572Y-123.683
X151.572Y-124.636
X151.572Y-128.7
X151.635Y-129.716
X151.826Y-142.924
X152.207Y-120.381
X152.461Y-132.764
X152.842Y-95.108
X153.159Y-120.445
X153.223Y-106.665
X153.223Y-131.684
X153.413Y-132.701
X153.54Y-66.837
X153.54Y-142.924
X154.048Y-79.473
X154.048Y-138.479
X154.493Y-66.9
X154.81Y-136.574
X155.001Y-79.473
X155.509Y-130.16
X156.906Y-125.779
X157.096Y-120.572
X157.858Y-140.066
X157.922Y-138.479
X158.112Y-120.572
X158.493Y-66.963
X158.493Y-100.506
X158.557Y-104.697
X158.811Y-79.473
X159.192Y-125.779
X159.255Y-76.108
X159.51Y-66.963
X159.51Y-100.506
X160.208Y-79.473
X160.208Y-104.76
X160.335Y-85.505
X160.335Y-122.604
X161.16Y-96.95
X161.605Y-121.334
X162.113Y-122.604
X162.24Y-132.827
X162.303Y-99.871
X162.6Y-77.1
X162.875Y-67.471
X162.875Y-68.424
X162.875Y-124.572
X162.939Y-123.048
X163.129Y-132.827
X163.4Y-87.7
X163.891Y-129.144
X164.018Y-128.319
X164.272Y-117.27
X164.463Y-89.887
X165.034Y-101.585
X165.4Y-82.2
X166.367Y-83.918
X166.748Y-77.377
X166.748Y-78.266
X167.1Y-73.9
X167.2Y-83.6
X167.256Y-69.948
X168.653Y-68.614
X168.971Y-89.252
X169.542Y-101.712
X169.542Y-105.014
X170.261Y-143.833
X170.454Y-37.822
X170.454Y-48.822
X170.685Y-125.588
X171.194Y-88.299
X171.394Y-115.22
X171.539Y-121.39
X172.463Y-87.283
X172.662Y-123.188
X172.669Y-121.489
X172.745Y-119.675
X173.035Y-69.123
X173.035Y-71.345
X173.121Y-35.154
X173.121Y-46.154
X174.8Y-90.3
X175.448Y-88.617
X176.1Y-90.3
X177.48Y-88.236
X177.48Y-143.813
X178.623Y-99.998
X179.067Y-88.236
X180.401Y-143.813
X181.489Y-113.425
X182.409Y-37.828
X182.454Y-48.822
X183.573Y-115.176
X184.211Y-143.813
X185.076Y-35.161
X185.121Y-46.154
X185.478Y-112.763
X185.544Y-109.634
X186.37Y-99.744
X186.941Y-116.508
X186.941Y-117.778
T3
X112.11Y-28.214
X112.11Y-29.464
X144.904Y-148.195
X146.154Y-148.195
X146.683Y-84.87
X147.933Y-84.87
X185.544Y-107.634
T4
X169.476Y-146.022
X169.476Y-150.621
X172.276Y-146.022
X172.276Y-150.621
T5
X110.014Y-24.978
X120.174Y-24.978
X133.666Y-87.604
X143.826Y-87.604
X152.718Y-140.893
X152.718Y-151.053
X154.619Y-95.868
X164.779Y-95.868
T6
X175.209Y-114.534
X175.209Y-117.074
X175.209Y-119.614
X178.897Y-114.537
X178.897Y-117.077
X182.877Y-119.302
X182.877Y-121.842
X182.877Y-124.826
X182.877Y-127.366
X184.147Y-120.572
X184.147Y-126.096
T7
X137.193Y-76.234
X138.4Y-140.575
X142.075Y-76.234
X143.281Y-140.575
T8
X152.651Y-102.983
X170.939Y-102.919
X176.654Y-96.569
X179.195Y-96.569
T9
X156.462Y-102.983
X167.129Y-102.919
T10
X111.157Y-35.199
X111.157Y-37.739
X111.157Y-40.279
X113.697Y-35.199
X113.697Y-37.739
X113.697Y-40.279
X123.4Y-146.8
X123.4Y-149.34
X124.292Y-82.089
X124.292Y-84.629
X127.Y-146.8
X127.Y-149.34
X127.899Y-82.089
X127.899Y-84.629
X129.128Y-25.483
X129.284Y-97.712
X129.41Y-105.268
X129.41Y-107.808
X130.6Y-146.8
X130.6Y-149.34
X131.506Y-82.089
X131.506Y-84.629
X131.668Y-25.483
X131.823Y-97.712
X131.951Y-105.268
X131.951Y-107.808
X134.208Y-25.483
X134.363Y-97.712
X134.49Y-105.268
X134.49Y-107.808
X136.748Y-25.483
X136.903Y-97.712
X137.03Y-105.268
X137.03Y-107.808
X139.288Y-25.483
X139.444Y-97.712
X139.57Y-105.268
X139.57Y-107.808
X141.828Y-25.483
X141.983Y-97.712
X144.368Y-25.483
X144.523Y-97.712
X145.13Y-29.865
X146.908Y-25.483
X147.064Y-97.712
X147.67Y-29.865
X147.698Y-58.391
X147.698Y-60.931
X149.448Y-25.483
X149.603Y-97.712
X151.699Y-108.444
X151.699Y-110.983
X151.988Y-25.483
X152.143Y-97.712
X153.731Y-85.124
X153.731Y-87.664
X154.239Y-108.444
X154.239Y-110.983
X156.271Y-85.124
X156.271Y-87.664
X156.525Y-142.861
X156.525Y-145.4
X156.779Y-108.444
X156.779Y-110.983
X157.16Y-56.422
X158.811Y-85.124
X158.811Y-87.664
X159.065Y-142.861
X159.065Y-145.4
X159.319Y-108.444
X159.319Y-110.983
X159.7Y-56.422
X161.605Y-142.861
X161.605Y-145.4
X161.859Y-108.444
X161.859Y-110.983
X162.24Y-56.422
X164.145Y-142.861
X164.145Y-145.4
X164.78Y-56.422
X166.685Y-142.861
X166.685Y-145.4
X167.32Y-56.422
X169.86Y-56.422
X172.4Y-56.422
X174.94Y-56.422
X176.718Y-146.988
X176.718Y-149.528
X177.48Y-56.422
X179.258Y-146.988
X179.258Y-149.528
X180.02Y-56.422
X180.909Y-132.129
X180.909Y-134.669
X180.909Y-137.209
X183.Y-81.9
X183.Y-84.44
X183.449Y-132.129
X183.449Y-134.669
X183.449Y-137.209
X185.54Y-81.9
X185.54Y-84.44
T11
X109.443Y-48.153
X109.9Y-89.2
X140.Y-54.6
X159.227Y-24.785
X185.9Y-54.6
X185.9Y-88.8
T12
X109.789Y-150.671
X186.688Y-96.188
X186.688Y-150.671
T0
M30
