M48
;DRILL file {KiCad (2015-08-05 BZR 6055, Git fa29c62)-product} date 20/04/2016 17:38:00
;FORMAT={-:-/ absolute / metric / decimal}
FMAT,2
METRIC,TZ
T1C0.381
T2C0.400
T3C0.700
T4C0.701
T5C0.800
T6C0.800
T7C0.900
T8C1.000
T9C1.016
T10C1.270
T11C3.048
%
G90
G05
M71
T1
X201.867Y-31.623
X203.136Y-31.623
X204.406Y-31.623
X205.677Y-31.623
X230.95Y-62.166
X232.219Y-62.166
X233.489Y-62.166
X234.76Y-62.166
X234.823Y-29.4
X234.823Y-30.67
X236.093Y-29.4
X236.093Y-30.67
X242.225Y-32.91
X242.225Y-34.18
X242.225Y-35.45
X242.225Y-36.721
X242.225Y-37.99
X242.225Y-43.896
X242.225Y-45.166
X242.225Y-46.436
X242.225Y-47.706
X242.225Y-48.976
X250.063Y-84.01
X250.126Y-81.915
X251.333Y-84.01
X251.396Y-81.915
X252.603Y-84.01
X252.666Y-81.915
X253.873Y-84.01
X253.936Y-81.915
X254.227Y-32.91
X254.227Y-34.18
X254.227Y-35.45
X254.227Y-36.721
X254.227Y-37.99
X254.227Y-43.896
X254.227Y-45.166
X254.227Y-46.436
X254.227Y-47.706
X254.227Y-48.976
X255.143Y-84.01
X255.206Y-81.915
T2
X142.036Y-118.526
X142.036Y-119.669
X142.036Y-120.812
X142.925Y-115.733
X142.925Y-117.51
X144.258Y-133.639
X145.655Y-130.719
X147.052Y-130.719
X148.463Y-118.787
X148.576Y-135.417
X149.262Y-114.087
X149.262Y-115.737
X149.262Y-117.387
X149.463Y-70.212
X149.5Y-35.225
X149.974Y-106.906
X150.005Y-132.465
X150.037Y-139.481
X150.1Y-137.767
X150.213Y-111.438
X150.237Y-125.612
X150.463Y-68.212
X150.5Y-33.225
X151.37Y-132.369
X151.751Y-106.906
X152.831Y-135.1
X154.037Y-136.052
X154.037Y-139.608
X154.291Y-130.719
X154.863Y-140.942
X155.561Y-130.719
X156.963Y-75.212
X156.963Y-77.212
X157.Y-40.225
X157.Y-42.225
X157.276Y-135.163
X157.657Y-114.145
X158.463Y-71.712
X158.482Y-104.683
X158.482Y-132.369
X158.482Y-138.719
X158.482Y-144.053
X158.5Y-36.725
X159.054Y-103.286
X159.879Y-132.369
X159.963Y-84.712
X160.Y-49.725
X160.963Y-81.212
X161.Y-46.225
X161.149Y-103.35
X161.467Y-135.163
X162.886Y-81.115
X162.924Y-46.127
X162.927Y-130.845
X162.963Y-75.712
X162.963Y-88.712
X163.Y-40.725
X163.Y-53.725
X163.88Y-104.683
X164.197Y-130.845
X164.41Y-81.115
X164.448Y-46.127
X164.832Y-100.365
X164.963Y-75.712
X165.Y-40.725
X165.34Y-114.716
X165.785Y-135.29
X165.975Y-109.128
X166.963Y-83.712
X167.Y-48.725
X167.245Y-132.369
X168.071Y-144.244
X168.388Y-111.16
X168.642Y-132.369
X170.103Y-135.1
X170.611Y-148.244
X171.69Y-130.719
X172.389Y-146.149
X172.389Y-151.356
X172.707Y-110.779
X172.707Y-112.494
X173.088Y-130.719
X173.278Y-115.605
X173.278Y-121.066
X173.405Y-118.272
X173.963Y-78.212
X174.Y-43.225
X174.484Y-135.29
X175.881Y-132.369
X177.151Y-132.369
X178.675Y-135.163
X188.531Y-44.958
X189.738Y-48.26
X189.738Y-49.657
X190.881Y-47.816
X191.707Y-47.816
X192.913Y-32.385
X192.913Y-47.561
X193.802Y-110.68
X194.147Y-54.964
X194.147Y-56.564
X195.897Y-110.68
X195.961Y-43.815
X196.088Y-86.106
X196.596Y-47.244
X197.034Y-150.177
X197.167Y-46.038
X197.739Y-54.927
X197.802Y-33.465
X198.247Y-24.892
X198.628Y-54.927
X199.263Y-58.864
X199.263Y-121.92
X199.326Y-122.809
X199.39Y-116.713
X199.453Y-47.117
X199.707Y-39.497
X199.898Y-24.13
X199.898Y-119.062
X200.279Y-58.864
X200.343Y-116.713
X200.724Y-24.13
X201.549Y-24.13
X201.549Y-61.849
X201.549Y-65.151
X201.549Y-68.453
X201.549Y-71.755
X201.549Y-75.057
X201.549Y-78.359
X201.803Y-126.238
X201.803Y-129.54
X201.803Y-132.842
X201.803Y-136.144
X201.803Y-139.446
X201.803Y-142.748
X202.629Y-47.244
X205.232Y-38.735
X205.232Y-39.56
X205.93Y-56.388
X206.819Y-126.365
X207.264Y-131.953
X207.391Y-120.84
X207.899Y-126.365
X208.153Y-30.416
X208.153Y-48.831
X209.169Y-47.117
X209.232Y-121.031
X209.804Y-60.579
X211.137Y-141.986
X211.391Y-75.692
X211.899Y-37.592
X212.09Y-38.862
X213.074Y-114.014
X213.614Y-71.31
X213.931Y-137.224
X215.328Y-64.846
X215.456Y-131.508
X216.103Y-76.073
X216.725Y-55.816
X216.852Y-136.207
X217.233Y-40.132
X217.805Y-38.798
X218.567Y-131.318
X219.392Y-133.985
X219.71Y-68.174
X219.837Y-47.18
X221.132Y-77.292
X221.132Y-78.156
X221.336Y-69.317
X221.386Y-128.435
X221.666Y-70.104
X222.123Y-67.64
X222.174Y-85.725
X222.174Y-87.503
X222.186Y-69.406
X222.301Y-76.073
X222.628Y-129.049
X222.987Y-38.43
X223.393Y-139.446
X223.928Y-131.249
X223.947Y-73.664
X223.947Y-74.564
X224.047Y-78.764
X224.047Y-79.664
X224.333Y-130.569
X224.841Y-131.889
X225.107Y-134.302
X225.52Y-143.415
X226.409Y-143.415
X226.822Y-134.302
X227.Y-68.148
X227.076Y-70.079
X227.616Y-143.415
X228.028Y-84.582
X228.282Y-139.065
X228.6Y-124.333
X228.6Y-125.285
X228.6Y-129.35
X228.663Y-130.365
X229.235Y-121.031
X229.489Y-133.413
X229.87Y-95.758
X230.188Y-67.501
X230.188Y-121.094
X230.251Y-107.315
X230.314Y-140.653
X230.314Y-141.922
X230.441Y-133.35
X230.695Y-80.137
X231.076Y-139.129
X231.14Y-67.564
X231.584Y-86.042
X231.648Y-80.137
X231.838Y-137.224
X232.537Y-130.81
X232.715Y-83.134
X233.172Y-97.282
X233.934Y-126.428
X234.124Y-78.803
X234.124Y-121.221
X234.188Y-80.264
X234.886Y-140.716
X234.95Y-139.129
X235.141Y-67.627
X235.141Y-121.221
X235.585Y-105.346
X235.839Y-101.282
X235.903Y-76.454
X236.156Y-67.627
X236.22Y-126.428
X237.045Y-83.121
X237.172Y-101.346
X237.236Y-105.41
X237.363Y-123.253
X237.553Y-78.74
X237.553Y-79.629
X237.871Y-89.344
X238.188Y-97.599
X238.633Y-121.983
X239.141Y-123.253
X239.247Y-77.764
X239.268Y-133.477
X239.331Y-100.52
X239.522Y-68.135
X239.522Y-69.088
X239.903Y-125.222
X239.966Y-123.698
X240.157Y-133.477
X240.919Y-129.794
X241.046Y-128.969
X241.109Y-90.551
X241.3Y-117.919
X241.681Y-89.218
X242.047Y-82.864
X242.062Y-102.235
X243.014Y-84.582
X243.395Y-78.041
X243.395Y-78.93
X243.747Y-74.564
X243.847Y-84.264
X244.221Y-70.167
X245.237Y-69.151
X246.57Y-102.362
X246.57Y-105.664
X246.761Y-125.793
X246.888Y-32.194
X246.888Y-43.18
X247.078Y-115.697
X247.289Y-144.482
X247.777Y-85.026
X248.602Y-112.585
X248.92Y-86.296
X248.92Y-122.047
X248.92Y-123.888
X249.618Y-35.052
X249.618Y-46.038
X249.745Y-118.427
X249.873Y-69.787
X250.126Y-88.9
X251.206Y-96.901
X251.206Y-100.203
X252.095Y-89.281
X252.603Y-109.474
X253.873Y-124.269
X254.127Y-88.9
X254.508Y-144.463
X255.333Y-103.06
X255.714Y-88.9
X257.429Y-144.463
X258.381Y-114.744
X258.572Y-117.729
X258.889Y-32.194
X258.889Y-43.18
X259.334Y-116.014
X259.533Y-124.933
X259.969Y-119.126
X259.969Y-120.713
X261.239Y-144.463
X261.617Y-126.684
X261.62Y-35.052
X261.62Y-46.038
X263.398Y-100.393
X263.522Y-124.271
T3
X208.824Y-57.912
X213.705Y-57.912
X215.369Y-80.595
X215.369Y-90.755
X229.679Y-103.632
X231.647Y-96.517
X233.489Y-103.632
X241.807Y-96.517
X244.157Y-103.569
X246.504Y-146.671
X246.504Y-151.271
X247.968Y-103.569
X249.304Y-146.671
X249.304Y-151.271
X252.237Y-115.184
X252.237Y-117.724
X252.237Y-120.264
X255.925Y-115.186
X255.925Y-117.726
T4
X186.029Y-25.326
X196.189Y-25.326
T5
X261.81Y-113.093
X261.81Y-115.633
X261.81Y-118.554
X261.81Y-121.094
X263.08Y-114.363
X263.08Y-119.825
T6
X208.189Y-124.46
X213.07Y-124.46
T7
X262.318Y-107.775
X262.318Y-109.775
T8
X224.536Y-145.478
X260.794Y-96.774
X263.334Y-96.774
T9
X141.972Y-135.544
X141.972Y-138.084
X143.306Y-124.368
X143.624Y-107.731
X143.624Y-110.271
X144.131Y-98.651
X145.846Y-124.368
X146.671Y-98.651
X147.306Y-107.731
X147.306Y-110.271
X151.624Y-146.847
X152.996Y-149.387
X153.044Y-78.511
X153.044Y-81.051
X153.044Y-83.591
X153.044Y-86.132
X153.044Y-88.671
X153.082Y-43.524
X153.082Y-46.064
X153.082Y-48.604
X153.082Y-51.144
X153.082Y-53.684
X153.91Y-99.096
X153.91Y-101.635
X154.418Y-146.847
X155.739Y-149.387
X156.451Y-99.096
X156.451Y-101.635
X157.085Y-146.847
X158.533Y-149.387
X158.99Y-99.096
X158.99Y-101.635
X159.879Y-146.847
X161.276Y-149.387
X161.53Y-99.096
X161.53Y-101.635
X162.673Y-146.847
X164.02Y-149.387
X164.07Y-99.096
X164.07Y-101.635
X165.468Y-146.847
X166.611Y-99.096
X166.611Y-101.635
X166.814Y-149.387
X167.332Y-67.78
X167.332Y-70.32
X167.332Y-72.86
X167.369Y-32.792
X167.369Y-35.332
X167.369Y-37.872
X168.135Y-146.847
X169.15Y-99.096
X169.15Y-101.635
X169.354Y-149.387
X170.928Y-146.847
X171.69Y-99.096
X171.69Y-101.635
X178.929Y-118.145
X178.929Y-120.685
X187.897Y-35.814
X187.897Y-38.354
X187.897Y-40.894
X190.436Y-35.814
X190.436Y-38.354
X190.436Y-40.894
X195.631Y-28.524
X195.631Y-31.064
X200.428Y-147.45
X200.428Y-149.989
X200.939Y-82.753
X200.939Y-85.293
X204.028Y-147.45
X204.028Y-149.989
X204.546Y-82.753
X204.546Y-85.293
X205.867Y-26.098
X206.311Y-98.361
X206.439Y-105.918
X206.439Y-108.458
X207.628Y-147.45
X207.628Y-149.989
X208.153Y-82.753
X208.153Y-85.293
X208.407Y-26.098
X208.851Y-98.361
X208.978Y-105.918
X208.978Y-108.458
X210.947Y-26.098
X211.391Y-98.361
X211.518Y-105.918
X211.518Y-108.458
X213.487Y-26.098
X213.931Y-98.361
X214.058Y-105.918
X214.058Y-108.458
X216.027Y-26.098
X216.471Y-98.361
X216.599Y-105.918
X216.599Y-108.458
X218.376Y-80.518
X218.567Y-26.098
X218.567Y-143.002
X219.011Y-98.361
X220.916Y-80.518
X221.107Y-26.098
X221.107Y-143.002
X221.551Y-98.361
X221.869Y-30.48
X223.647Y-26.098
X224.091Y-98.361
X224.345Y-59.055
X224.345Y-61.595
X224.409Y-30.48
X226.187Y-26.098
X226.631Y-98.361
X228.727Y-26.098
X228.727Y-109.093
X228.727Y-111.633
X229.171Y-98.361
X230.378Y-87.947
X230.378Y-90.487
X231.267Y-109.093
X231.267Y-111.633
X232.918Y-87.947
X232.918Y-90.487
X233.553Y-143.51
X233.553Y-146.05
X233.807Y-57.087
X233.807Y-109.093
X233.807Y-111.633
X235.458Y-87.947
X235.458Y-90.487
X236.093Y-143.51
X236.093Y-146.05
X236.347Y-57.087
X236.347Y-109.093
X236.347Y-111.633
X238.633Y-143.51
X238.633Y-146.05
X238.887Y-57.087
X238.887Y-109.093
X238.887Y-111.633
X241.173Y-143.51
X241.173Y-146.05
X241.427Y-57.087
X243.713Y-143.51
X243.713Y-146.05
X243.967Y-57.087
X246.507Y-57.087
X249.047Y-57.087
X251.587Y-57.087
X253.047Y-128.333
X253.746Y-147.637
X253.746Y-150.177
X254.127Y-57.087
X255.587Y-128.333
X256.286Y-147.637
X256.286Y-150.177
X256.667Y-57.087
X257.937Y-132.779
X257.937Y-135.319
X257.937Y-137.858
X259.647Y-82.564
X259.647Y-85.104
X260.477Y-132.779
X260.477Y-135.319
X260.477Y-137.858
X262.187Y-82.564
X262.187Y-85.104
T10
X224.536Y-149.288
T11
X144.512Y-149.133
X178.04Y-149.387
T0
M30
