%FSLAX45Y45*%
G04 Gerber Fmt 4.5, Leading zero omitted, Abs format (unit mm)*
G04 Created by KiCad (PCBNEW (2015-08-05 BZR 6055, Git fa29c62)-product) date 20/04/2016 17:38:01*
%MOMM*%
G01*
G04 APERTURE LIST*
%ADD10C,0.127000*%
%ADD11C,0.150000*%
%ADD12C,0.200000*%
%ADD13C,0.300000*%
G04 APERTURE END LIST*
D10*
D11*
X18197500Y-2622500D02*
X14500000Y-2622500D01*
X18197500Y-3177500D02*
X18197500Y-2622500D01*
X18197500Y-5922500D02*
X16710000Y-5922500D01*
X18197500Y-3732500D02*
X18197500Y-5922500D01*
X18197500Y-6272500D02*
X18197500Y-6122500D01*
X16710000Y-6122500D02*
X18197500Y-6122500D01*
X14500000Y-5922500D02*
X16157500Y-5922500D01*
X16157500Y-6122500D02*
X14497500Y-6122500D01*
X18397500Y-6270000D02*
X18397500Y-5490000D01*
X18397500Y-6822500D02*
X18397500Y-8355000D01*
X18197500Y-8355000D02*
X18197500Y-6822500D01*
X18197500Y-8907500D02*
X18197500Y-9420000D01*
X18400000Y-9017500D02*
X18400000Y-8910000D01*
X16007500Y-9420000D02*
X14497500Y-9420000D01*
X16837500Y-9420000D02*
X16557500Y-9420000D01*
X18197500Y-9420000D02*
X16837500Y-9420000D01*
X18596000Y-5290100D02*
G75*
G03X18396000Y-5490100I0J-200000D01*
G01*
X18195000Y-9620000D02*
X18195000Y-10740000D01*
X18395000Y-10737500D02*
X18395000Y-9612500D01*
X18195000Y-11290000D02*
X18195000Y-13465000D01*
X18395000Y-13465000D02*
X18395000Y-11287500D01*
X18195000Y-15417500D02*
X18195000Y-14012500D01*
X18395000Y-14012500D02*
X18395000Y-15215000D01*
X13922500Y-15417500D02*
X13922500Y-9620000D01*
X18195000Y-15417500D02*
X13922500Y-15417500D01*
X18195000Y-9620000D02*
X13922500Y-9620000D01*
X18297600Y-6721500D02*
G75*
G03X18197600Y-6821500I0J-100000D01*
G01*
X18397600Y-6821500D02*
G75*
G03X18297600Y-6721500I-100000J0D01*
G01*
X18247600Y-6671500D02*
G75*
G03X18247600Y-6671500I-25000J0D01*
G01*
X18247600Y-6596500D02*
G75*
G03X18247600Y-6596500I-25000J0D01*
G01*
X18247600Y-6521500D02*
G75*
G03X18247600Y-6521500I-25000J0D01*
G01*
X18247600Y-6446500D02*
G75*
G03X18247600Y-6446500I-25000J0D01*
G01*
X18397600Y-6671500D02*
G75*
G03X18397600Y-6671500I-25000J0D01*
G01*
X18397600Y-6596500D02*
G75*
G03X18397600Y-6596500I-25000J0D01*
G01*
X18397600Y-6521500D02*
G75*
G03X18397600Y-6521500I-25000J0D01*
G01*
X18397600Y-6446500D02*
G75*
G03X18397600Y-6446500I-25000J0D01*
G01*
X18197600Y-6271500D02*
G75*
G03X18297600Y-6371500I100000J0D01*
G01*
X18297600Y-6371500D02*
G75*
G03X18397600Y-6271500I0J100000D01*
G01*
X18297600Y-8456500D02*
G75*
G03X18397600Y-8356500I0J100000D01*
G01*
X18197600Y-8356500D02*
G75*
G03X18297600Y-8456500I100000J0D01*
G01*
X18397600Y-8531500D02*
G75*
G03X18397600Y-8531500I-25000J0D01*
G01*
X18397600Y-8606500D02*
G75*
G03X18397600Y-8606500I-25000J0D01*
G01*
X18397600Y-8681500D02*
G75*
G03X18397600Y-8681500I-25000J0D01*
G01*
X18397600Y-8756500D02*
G75*
G03X18397600Y-8756500I-25000J0D01*
G01*
X18247600Y-8531500D02*
G75*
G03X18247600Y-8531500I-25000J0D01*
G01*
X18247600Y-8606500D02*
G75*
G03X18247600Y-8606500I-25000J0D01*
G01*
X18247600Y-8681500D02*
G75*
G03X18247600Y-8681500I-25000J0D01*
G01*
X18247600Y-8756500D02*
G75*
G03X18247600Y-8756500I-25000J0D01*
G01*
X18397600Y-8906500D02*
G75*
G03X18297600Y-8806500I-100000J0D01*
G01*
X18297600Y-8806500D02*
G75*
G03X18197600Y-8906500I0J-100000D01*
G01*
X18297600Y-3631500D02*
G75*
G03X18197600Y-3731500I0J-100000D01*
G01*
X18397600Y-3731500D02*
G75*
G03X18297600Y-3631500I-100000J0D01*
G01*
X18247600Y-3581500D02*
G75*
G03X18247600Y-3581500I-25000J0D01*
G01*
X18247600Y-3506500D02*
G75*
G03X18247600Y-3506500I-25000J0D01*
G01*
X18247600Y-3431500D02*
G75*
G03X18247600Y-3431500I-25000J0D01*
G01*
X18247600Y-3356500D02*
G75*
G03X18247600Y-3356500I-25000J0D01*
G01*
X18397600Y-3581500D02*
G75*
G03X18397600Y-3581500I-25000J0D01*
G01*
X18397600Y-3506500D02*
G75*
G03X18397600Y-3506500I-25000J0D01*
G01*
X18397600Y-3431500D02*
G75*
G03X18397600Y-3431500I-25000J0D01*
G01*
X18397600Y-3356500D02*
G75*
G03X18397600Y-3356500I-25000J0D01*
G01*
X18197600Y-3181500D02*
G75*
G03X18297600Y-3281500I100000J0D01*
G01*
X18297600Y-3281500D02*
G75*
G03X18397600Y-3181500I0J100000D01*
G01*
X18295100Y-11189000D02*
G75*
G03X18195100Y-11289000I0J-100000D01*
G01*
X18395100Y-11289000D02*
G75*
G03X18295100Y-11189000I-100000J0D01*
G01*
X18245100Y-11139000D02*
G75*
G03X18245100Y-11139000I-25000J0D01*
G01*
X18245100Y-11064000D02*
G75*
G03X18245100Y-11064000I-25000J0D01*
G01*
X18245100Y-10989000D02*
G75*
G03X18245100Y-10989000I-25000J0D01*
G01*
X18245100Y-10914000D02*
G75*
G03X18245100Y-10914000I-25000J0D01*
G01*
X18395100Y-11139000D02*
G75*
G03X18395100Y-11139000I-25000J0D01*
G01*
X18395100Y-11064000D02*
G75*
G03X18395100Y-11064000I-25000J0D01*
G01*
X18395100Y-10989000D02*
G75*
G03X18395100Y-10989000I-25000J0D01*
G01*
X18395100Y-10914000D02*
G75*
G03X18395100Y-10914000I-25000J0D01*
G01*
X18195100Y-10739000D02*
G75*
G03X18295100Y-10839000I100000J0D01*
G01*
X18295100Y-10839000D02*
G75*
G03X18395100Y-10739000I0J100000D01*
G01*
X18295100Y-13564000D02*
G75*
G03X18395100Y-13464000I0J100000D01*
G01*
X18195100Y-13464000D02*
G75*
G03X18295100Y-13564000I100000J0D01*
G01*
X18395100Y-13639000D02*
G75*
G03X18395100Y-13639000I-25000J0D01*
G01*
X18395100Y-13714000D02*
G75*
G03X18395100Y-13714000I-25000J0D01*
G01*
X18395100Y-13789000D02*
G75*
G03X18395100Y-13789000I-25000J0D01*
G01*
X18395100Y-13864000D02*
G75*
G03X18395100Y-13864000I-25000J0D01*
G01*
X18245100Y-13639000D02*
G75*
G03X18245100Y-13639000I-25000J0D01*
G01*
X18245100Y-13714000D02*
G75*
G03X18245100Y-13714000I-25000J0D01*
G01*
X18245100Y-13789000D02*
G75*
G03X18245100Y-13789000I-25000J0D01*
G01*
X18245100Y-13864000D02*
G75*
G03X18245100Y-13864000I-25000J0D01*
G01*
X18395100Y-14014000D02*
G75*
G03X18295100Y-13914000I-100000J0D01*
G01*
X18295100Y-13914000D02*
G75*
G03X18195100Y-14014000I0J-100000D01*
G01*
X16258500Y-6022600D02*
G75*
G03X16158500Y-5922600I-100000J0D01*
G01*
X16158500Y-6122600D02*
G75*
G03X16258500Y-6022600I0J100000D01*
G01*
X16333500Y-5947600D02*
G75*
G03X16333500Y-5947600I-25000J0D01*
G01*
X16408500Y-5947600D02*
G75*
G03X16408500Y-5947600I-25000J0D01*
G01*
X16483500Y-5947600D02*
G75*
G03X16483500Y-5947600I-25000J0D01*
G01*
X16558500Y-5947600D02*
G75*
G03X16558500Y-5947600I-25000J0D01*
G01*
X16333500Y-6097600D02*
G75*
G03X16333500Y-6097600I-25000J0D01*
G01*
X16408500Y-6097600D02*
G75*
G03X16408500Y-6097600I-25000J0D01*
G01*
X16483500Y-6097600D02*
G75*
G03X16483500Y-6097600I-25000J0D01*
G01*
X16558500Y-6097600D02*
G75*
G03X16558500Y-6097600I-25000J0D01*
G01*
X16708500Y-5922600D02*
G75*
G03X16608500Y-6022600I0J-100000D01*
G01*
X16608500Y-6022600D02*
G75*
G03X16708500Y-6122600I100000J0D01*
G01*
X16458500Y-9520100D02*
G75*
G03X16558500Y-9620100I100000J0D01*
G01*
X16558500Y-9420100D02*
G75*
G03X16458500Y-9520100I0J-100000D01*
G01*
X16408500Y-9595100D02*
G75*
G03X16408500Y-9595100I-25000J0D01*
G01*
X16333500Y-9595100D02*
G75*
G03X16333500Y-9595100I-25000J0D01*
G01*
X16258500Y-9595100D02*
G75*
G03X16258500Y-9595100I-25000J0D01*
G01*
X16183500Y-9595100D02*
G75*
G03X16183500Y-9595100I-25000J0D01*
G01*
X16408500Y-9445100D02*
G75*
G03X16408500Y-9445100I-25000J0D01*
G01*
X16333500Y-9445100D02*
G75*
G03X16333500Y-9445100I-25000J0D01*
G01*
X16258500Y-9445100D02*
G75*
G03X16258500Y-9445100I-25000J0D01*
G01*
X16183500Y-9445100D02*
G75*
G03X16183500Y-9445100I-25000J0D01*
G01*
X16008500Y-9620100D02*
G75*
G03X16108500Y-9520100I0J100000D01*
G01*
X16108500Y-9520100D02*
G75*
G03X16008500Y-9420100I-100000J0D01*
G01*
X23246000Y-9415100D02*
X24246000Y-9415100D01*
X24246000Y-9215100D02*
X23246000Y-9215100D01*
X21146000Y-9415100D02*
X21696000Y-9415100D01*
X21696000Y-9215100D02*
X21146000Y-9215100D01*
X25421000Y-3090100D02*
X25446000Y-3090100D01*
X25421000Y-3090100D02*
G75*
G03X25221000Y-3290100I0J-200000D01*
G01*
X25446000Y-4190100D02*
X25421000Y-4190100D01*
X25421000Y-4190100D02*
G75*
G03X25221000Y-4390100I0J-200000D01*
G01*
X24196000Y-4190100D02*
X24246000Y-4190100D01*
X24196000Y-4190100D02*
G75*
G03X24021000Y-4415100I25000J-200000D01*
G01*
X24246000Y-3090100D02*
X24221000Y-3090100D01*
X24221000Y-3090100D02*
G75*
G03X24021000Y-3290100I0J-200000D01*
G01*
X24246000Y-3990100D02*
X24196000Y-3990100D01*
X24796000Y-4190100D02*
X24821000Y-4190100D01*
X24796000Y-3990100D02*
X24821000Y-3990100D01*
X25446000Y-3990100D02*
X25396000Y-3990100D01*
X26021000Y-3990100D02*
X25996000Y-3990100D01*
X26021000Y-4190100D02*
X25996000Y-4190100D01*
X25396000Y-5090100D02*
X25446000Y-5090100D01*
X25446000Y-5290100D02*
X24821000Y-5290100D01*
X25996000Y-5090100D02*
X26021000Y-5090100D01*
X26296000Y-5290100D02*
X25996000Y-5290100D01*
X24196000Y-5090100D02*
X24271000Y-5090100D01*
X23246000Y-5290100D02*
X23271000Y-5290100D01*
X23246000Y-5090100D02*
X23621000Y-5090100D01*
X25796000Y-9415100D02*
X26321000Y-9415100D01*
X26321000Y-9215100D02*
X25796000Y-9215100D01*
X26446000Y-9415100D02*
X26321000Y-9415100D01*
X24721000Y-5190100D02*
G75*
G03X24821000Y-5290100I100000J0D01*
G01*
X24821000Y-5090100D02*
G75*
G03X24721000Y-5190100I0J-100000D01*
G01*
X24671000Y-5265100D02*
G75*
G03X24671000Y-5265100I-25000J0D01*
G01*
X24596000Y-5265100D02*
G75*
G03X24596000Y-5265100I-25000J0D01*
G01*
X24521000Y-5265100D02*
G75*
G03X24521000Y-5265100I-25000J0D01*
G01*
X24446000Y-5265100D02*
G75*
G03X24446000Y-5265100I-25000J0D01*
G01*
X24671000Y-5115100D02*
G75*
G03X24671000Y-5115100I-25000J0D01*
G01*
X24596000Y-5115100D02*
G75*
G03X24596000Y-5115100I-25000J0D01*
G01*
X24521000Y-5115100D02*
G75*
G03X24521000Y-5115100I-25000J0D01*
G01*
X24446000Y-5115100D02*
G75*
G03X24446000Y-5115100I-25000J0D01*
G01*
X24271000Y-5290100D02*
G75*
G03X24371000Y-5190100I0J100000D01*
G01*
X24371000Y-5190100D02*
G75*
G03X24271000Y-5090100I-100000J0D01*
G01*
X24271000Y-5290100D02*
X23271000Y-5290100D01*
X25546000Y-4090100D02*
G75*
G03X25446000Y-3990100I-100000J0D01*
G01*
X25446000Y-4190100D02*
G75*
G03X25546000Y-4090100I0J100000D01*
G01*
X25621000Y-4015100D02*
G75*
G03X25621000Y-4015100I-25000J0D01*
G01*
X25696000Y-4015100D02*
G75*
G03X25696000Y-4015100I-25000J0D01*
G01*
X25771000Y-4015100D02*
G75*
G03X25771000Y-4015100I-25000J0D01*
G01*
X25846000Y-4015100D02*
G75*
G03X25846000Y-4015100I-25000J0D01*
G01*
X25621000Y-4165100D02*
G75*
G03X25621000Y-4165100I-25000J0D01*
G01*
X25696000Y-4165100D02*
G75*
G03X25696000Y-4165100I-25000J0D01*
G01*
X25771000Y-4165100D02*
G75*
G03X25771000Y-4165100I-25000J0D01*
G01*
X25846000Y-4165100D02*
G75*
G03X25846000Y-4165100I-25000J0D01*
G01*
X25996000Y-3990100D02*
G75*
G03X25896000Y-4090100I0J-100000D01*
G01*
X25896000Y-4090100D02*
G75*
G03X25996000Y-4190100I100000J0D01*
G01*
X25896000Y-5190100D02*
G75*
G03X25996000Y-5290100I100000J0D01*
G01*
X25996000Y-5090100D02*
G75*
G03X25896000Y-5190100I0J-100000D01*
G01*
X25846000Y-5265100D02*
G75*
G03X25846000Y-5265100I-25000J0D01*
G01*
X25771000Y-5265100D02*
G75*
G03X25771000Y-5265100I-25000J0D01*
G01*
X25696000Y-5265100D02*
G75*
G03X25696000Y-5265100I-25000J0D01*
G01*
X25621000Y-5265100D02*
G75*
G03X25621000Y-5265100I-25000J0D01*
G01*
X25846000Y-5115100D02*
G75*
G03X25846000Y-5115100I-25000J0D01*
G01*
X25771000Y-5115100D02*
G75*
G03X25771000Y-5115100I-25000J0D01*
G01*
X25696000Y-5115100D02*
G75*
G03X25696000Y-5115100I-25000J0D01*
G01*
X25621000Y-5115100D02*
G75*
G03X25621000Y-5115100I-25000J0D01*
G01*
X25446000Y-5290100D02*
G75*
G03X25546000Y-5190100I0J100000D01*
G01*
X25546000Y-5190100D02*
G75*
G03X25446000Y-5090100I-100000J0D01*
G01*
X25796000Y-9415100D02*
X24796000Y-9415100D01*
X24796000Y-9215100D02*
X25796000Y-9215100D01*
X22246000Y-9215100D02*
X23246000Y-9215100D01*
X23246000Y-9415100D02*
X22246000Y-9415100D01*
X24346000Y-9315100D02*
G75*
G03X24246000Y-9215100I-100000J0D01*
G01*
X24246000Y-9415100D02*
G75*
G03X24346000Y-9315100I0J100000D01*
G01*
X24421000Y-9240100D02*
G75*
G03X24421000Y-9240100I-25000J0D01*
G01*
X24496000Y-9240100D02*
G75*
G03X24496000Y-9240100I-25000J0D01*
G01*
X24571000Y-9240100D02*
G75*
G03X24571000Y-9240100I-25000J0D01*
G01*
X24646000Y-9240100D02*
G75*
G03X24646000Y-9240100I-25000J0D01*
G01*
X24421000Y-9390100D02*
G75*
G03X24421000Y-9390100I-25000J0D01*
G01*
X24496000Y-9390100D02*
G75*
G03X24496000Y-9390100I-25000J0D01*
G01*
X24571000Y-9390100D02*
G75*
G03X24571000Y-9390100I-25000J0D01*
G01*
X24646000Y-9390100D02*
G75*
G03X24646000Y-9390100I-25000J0D01*
G01*
X24796000Y-9215100D02*
G75*
G03X24696000Y-9315100I0J-100000D01*
G01*
X24696000Y-9315100D02*
G75*
G03X24796000Y-9415100I100000J0D01*
G01*
X22146000Y-9315100D02*
G75*
G03X22246000Y-9415100I100000J0D01*
G01*
X22246000Y-9215100D02*
G75*
G03X22146000Y-9315100I0J-100000D01*
G01*
X22096000Y-9390100D02*
G75*
G03X22096000Y-9390100I-25000J0D01*
G01*
X22021000Y-9390100D02*
G75*
G03X22021000Y-9390100I-25000J0D01*
G01*
X21946000Y-9390100D02*
G75*
G03X21946000Y-9390100I-25000J0D01*
G01*
X21871000Y-9390100D02*
G75*
G03X21871000Y-9390100I-25000J0D01*
G01*
X22096000Y-9240100D02*
G75*
G03X22096000Y-9240100I-25000J0D01*
G01*
X22021000Y-9240100D02*
G75*
G03X22021000Y-9240100I-25000J0D01*
G01*
X21946000Y-9240100D02*
G75*
G03X21946000Y-9240100I-25000J0D01*
G01*
X21871000Y-9240100D02*
G75*
G03X21871000Y-9240100I-25000J0D01*
G01*
X21696000Y-9415100D02*
G75*
G03X21796000Y-9315100I0J100000D01*
G01*
X21796000Y-9315100D02*
G75*
G03X21696000Y-9215100I-100000J0D01*
G01*
X21696000Y-9415100D02*
X20696000Y-9415100D01*
X20696000Y-9215100D02*
X21696000Y-9215100D01*
X18596000Y-9215100D02*
X19596000Y-9215100D01*
X19596000Y-9415100D02*
X18596000Y-9415100D01*
X19696000Y-9315100D02*
G75*
G03X19596000Y-9215100I-100000J0D01*
G01*
X19596000Y-9415100D02*
G75*
G03X19696000Y-9315100I0J100000D01*
G01*
X19771000Y-9240100D02*
G75*
G03X19771000Y-9240100I-25000J0D01*
G01*
X19846000Y-9240100D02*
G75*
G03X19846000Y-9240100I-25000J0D01*
G01*
X19921000Y-9240100D02*
G75*
G03X19921000Y-9240100I-25000J0D01*
G01*
X19996000Y-9240100D02*
G75*
G03X19996000Y-9240100I-25000J0D01*
G01*
X19771000Y-9390100D02*
G75*
G03X19771000Y-9390100I-25000J0D01*
G01*
X19846000Y-9390100D02*
G75*
G03X19846000Y-9390100I-25000J0D01*
G01*
X19921000Y-9390100D02*
G75*
G03X19921000Y-9390100I-25000J0D01*
G01*
X19996000Y-9390100D02*
G75*
G03X19996000Y-9390100I-25000J0D01*
G01*
X20146000Y-9215100D02*
G75*
G03X20046000Y-9315100I0J-100000D01*
G01*
X20046000Y-9315100D02*
G75*
G03X20146000Y-9415100I100000J0D01*
G01*
X21146000Y-9415100D02*
X20146000Y-9415100D01*
X20146000Y-9215100D02*
X21146000Y-9215100D01*
X20146000Y-5090100D02*
X21146000Y-5090100D01*
X21146000Y-5290100D02*
X20146000Y-5290100D01*
X21246000Y-5190100D02*
G75*
G03X21146000Y-5090100I-100000J0D01*
G01*
X21146000Y-5290100D02*
G75*
G03X21246000Y-5190100I0J100000D01*
G01*
X21321000Y-5115100D02*
G75*
G03X21321000Y-5115100I-25000J0D01*
G01*
X21396000Y-5115100D02*
G75*
G03X21396000Y-5115100I-25000J0D01*
G01*
X21471000Y-5115100D02*
G75*
G03X21471000Y-5115100I-25000J0D01*
G01*
X21546000Y-5115100D02*
G75*
G03X21546000Y-5115100I-25000J0D01*
G01*
X21321000Y-5265100D02*
G75*
G03X21321000Y-5265100I-25000J0D01*
G01*
X21396000Y-5265100D02*
G75*
G03X21396000Y-5265100I-25000J0D01*
G01*
X21471000Y-5265100D02*
G75*
G03X21471000Y-5265100I-25000J0D01*
G01*
X21546000Y-5265100D02*
G75*
G03X21546000Y-5265100I-25000J0D01*
G01*
X21696000Y-5090100D02*
G75*
G03X21596000Y-5190100I0J-100000D01*
G01*
X21596000Y-5190100D02*
G75*
G03X21696000Y-5290100I100000J0D01*
G01*
X20046000Y-5190100D02*
G75*
G03X20146000Y-5290100I100000J0D01*
G01*
X20146000Y-5090100D02*
G75*
G03X20046000Y-5190100I0J-100000D01*
G01*
X19996000Y-5265100D02*
G75*
G03X19996000Y-5265100I-25000J0D01*
G01*
X19921000Y-5265100D02*
G75*
G03X19921000Y-5265100I-25000J0D01*
G01*
X19846000Y-5265100D02*
G75*
G03X19846000Y-5265100I-25000J0D01*
G01*
X19771000Y-5265100D02*
G75*
G03X19771000Y-5265100I-25000J0D01*
G01*
X19996000Y-5115100D02*
G75*
G03X19996000Y-5115100I-25000J0D01*
G01*
X19921000Y-5115100D02*
G75*
G03X19921000Y-5115100I-25000J0D01*
G01*
X19846000Y-5115100D02*
G75*
G03X19846000Y-5115100I-25000J0D01*
G01*
X19771000Y-5115100D02*
G75*
G03X19771000Y-5115100I-25000J0D01*
G01*
X19596000Y-5290100D02*
G75*
G03X19696000Y-5190100I0J100000D01*
G01*
X19696000Y-5190100D02*
G75*
G03X19596000Y-5090100I-100000J0D01*
G01*
X19596000Y-5290100D02*
X18596000Y-5290100D01*
X18596000Y-5090100D02*
X19596000Y-5090100D01*
X21696000Y-5090100D02*
X22696000Y-5090100D01*
X22696000Y-5290100D02*
X21696000Y-5290100D01*
X22796000Y-5190100D02*
G75*
G03X22696000Y-5090100I-100000J0D01*
G01*
X22696000Y-5290100D02*
G75*
G03X22796000Y-5190100I0J100000D01*
G01*
X22871000Y-5115100D02*
G75*
G03X22871000Y-5115100I-25000J0D01*
G01*
X22946000Y-5115100D02*
G75*
G03X22946000Y-5115100I-25000J0D01*
G01*
X23021000Y-5115100D02*
G75*
G03X23021000Y-5115100I-25000J0D01*
G01*
X23096000Y-5115100D02*
G75*
G03X23096000Y-5115100I-25000J0D01*
G01*
X22871000Y-5265100D02*
G75*
G03X22871000Y-5265100I-25000J0D01*
G01*
X22946000Y-5265100D02*
G75*
G03X22946000Y-5265100I-25000J0D01*
G01*
X23021000Y-5265100D02*
G75*
G03X23021000Y-5265100I-25000J0D01*
G01*
X23096000Y-5265100D02*
G75*
G03X23096000Y-5265100I-25000J0D01*
G01*
X23246000Y-5090100D02*
G75*
G03X23146000Y-5190100I0J-100000D01*
G01*
X23146000Y-5190100D02*
G75*
G03X23246000Y-5290100I100000J0D01*
G01*
X24696000Y-4090100D02*
G75*
G03X24796000Y-4190100I100000J0D01*
G01*
X24796000Y-3990100D02*
G75*
G03X24696000Y-4090100I0J-100000D01*
G01*
X24646000Y-4165100D02*
G75*
G03X24646000Y-4165100I-25000J0D01*
G01*
X24571000Y-4165100D02*
G75*
G03X24571000Y-4165100I-25000J0D01*
G01*
X24496000Y-4165100D02*
G75*
G03X24496000Y-4165100I-25000J0D01*
G01*
X24421000Y-4165100D02*
G75*
G03X24421000Y-4165100I-25000J0D01*
G01*
X24646000Y-4015100D02*
G75*
G03X24646000Y-4015100I-25000J0D01*
G01*
X24571000Y-4015100D02*
G75*
G03X24571000Y-4015100I-25000J0D01*
G01*
X24496000Y-4015100D02*
G75*
G03X24496000Y-4015100I-25000J0D01*
G01*
X24421000Y-4015100D02*
G75*
G03X24421000Y-4015100I-25000J0D01*
G01*
X24246000Y-4190100D02*
G75*
G03X24346000Y-4090100I0J100000D01*
G01*
X24346000Y-4090100D02*
G75*
G03X24246000Y-3990100I-100000J0D01*
G01*
X26646000Y-9615100D02*
X26646000Y-15215100D01*
X26446000Y-15415100D02*
X18596000Y-15415100D01*
X26446000Y-15415100D02*
G75*
G03X26646000Y-15215100I0J200000D01*
G01*
X26646000Y-9615100D02*
G75*
G03X26446000Y-9415100I-200000J0D01*
G01*
X18596000Y-9415100D02*
G75*
G03X18396000Y-9615100I0J-200000D01*
G01*
X23821000Y-2515100D02*
X23821000Y-4890100D01*
X18596000Y-2315100D02*
X23621000Y-2315100D01*
X18396000Y-4890100D02*
X18396000Y-2515100D01*
X23621000Y-5090100D02*
G75*
G03X23821000Y-4890100I0J200000D01*
G01*
X18396000Y-4890100D02*
G75*
G03X18596000Y-5090100I200000J0D01*
G01*
X18596000Y-2315100D02*
G75*
G03X18396000Y-2515100I0J-200000D01*
G01*
X23821000Y-2515100D02*
G75*
G03X23621000Y-2315100I-200000J0D01*
G01*
X26496000Y-8990100D02*
X26496000Y-5490100D01*
X26496000Y-5490100D02*
G75*
G03X26296000Y-5290100I-200000J0D01*
G01*
X26321000Y-9215100D02*
G75*
G03X26496000Y-8990100I-25000J200000D01*
G01*
X24021000Y-4365100D02*
X24021000Y-4865100D01*
X25021000Y-4890100D02*
X25021000Y-4390100D01*
X25021000Y-4390100D02*
G75*
G03X24821000Y-4190100I-200000J0D01*
G01*
X24821000Y-5090100D02*
G75*
G03X25021000Y-4890100I0J200000D01*
G01*
X24021000Y-4865100D02*
G75*
G03X24196000Y-5090100I200000J-25000D01*
G01*
X25221000Y-4365100D02*
X25221000Y-4865100D01*
X26221000Y-4890100D02*
X26221000Y-4390100D01*
X26221000Y-4390100D02*
G75*
G03X26021000Y-4190100I-200000J0D01*
G01*
X26021000Y-5090100D02*
G75*
G03X26221000Y-4890100I0J200000D01*
G01*
X25221000Y-4865100D02*
G75*
G03X25396000Y-5090100I200000J-25000D01*
G01*
X24021000Y-3265100D02*
X24021000Y-3765100D01*
X24821000Y-3090100D02*
X24246000Y-3090100D01*
X25021000Y-3790100D02*
X25021000Y-3290100D01*
X25021000Y-3290100D02*
G75*
G03X24821000Y-3090100I-200000J0D01*
G01*
X24821000Y-3990100D02*
G75*
G03X25021000Y-3790100I0J200000D01*
G01*
X24021000Y-3765100D02*
G75*
G03X24196000Y-3990100I200000J-25000D01*
G01*
X25221000Y-3265100D02*
X25221000Y-3765100D01*
X26021000Y-3090100D02*
X25446000Y-3090100D01*
X26221000Y-3790100D02*
X26221000Y-3290100D01*
X26221000Y-3290100D02*
G75*
G03X26021000Y-3090100I-200000J0D01*
G01*
X26021000Y-3990100D02*
G75*
G03X26221000Y-3790100I0J200000D01*
G01*
X25221000Y-3765100D02*
G75*
G03X25396000Y-3990100I200000J-25000D01*
G01*
X26642800Y-9614950D02*
X26642800Y-15214950D01*
X26442800Y-15414950D02*
X18592800Y-15414950D01*
X26442800Y-15414950D02*
G75*
G03X26642800Y-15214950I0J200000D01*
G01*
X26642800Y-9614950D02*
G75*
G03X26442800Y-9414950I-200000J0D01*
G01*
X18392800Y-15214950D02*
G75*
G03X18592800Y-15414950I200000J0D01*
G01*
X26499700Y-8991400D02*
X26499700Y-5491400D01*
X26499700Y-5491400D02*
G75*
G03X26299700Y-5291400I-200000J0D01*
G01*
X26324700Y-9216400D02*
G75*
G03X26499700Y-8991400I-25000J200000D01*
G01*
X18399700Y-9016400D02*
G75*
G03X18599700Y-9216400I200000J0D01*
G01*
X18599700Y-5291400D02*
G75*
G03X18399700Y-5491400I0J-200000D01*
G01*
X23823900Y-2516500D02*
X23823900Y-4891500D01*
X18598900Y-2316500D02*
X23623900Y-2316500D01*
X18398900Y-4891500D02*
X18398900Y-2516500D01*
X23623900Y-5091500D02*
G75*
G03X23823900Y-4891500I0J200000D01*
G01*
X18398900Y-4891500D02*
G75*
G03X18598900Y-5091500I200000J0D01*
G01*
X18598900Y-2316500D02*
G75*
G03X18398900Y-2516500I0J-200000D01*
G01*
X23823900Y-2516500D02*
G75*
G03X23623900Y-2316500I-200000J0D01*
G01*
X24023350Y-4363150D02*
X24023350Y-4863150D01*
X25023350Y-4888150D02*
X25023350Y-4388150D01*
X25023350Y-4388150D02*
G75*
G03X24823350Y-4188150I-200000J0D01*
G01*
X24823350Y-5088150D02*
G75*
G03X25023350Y-4888150I0J200000D01*
G01*
X24023350Y-4863150D02*
G75*
G03X24198350Y-5088150I200000J-25000D01*
G01*
X25223500Y-3264600D02*
X25223500Y-3764600D01*
X26023500Y-3089600D02*
X25448500Y-3089600D01*
X26223500Y-3789600D02*
X26223500Y-3289600D01*
X26223500Y-3289600D02*
G75*
G03X26023500Y-3089600I-200000J0D01*
G01*
X26023500Y-3989600D02*
G75*
G03X26223500Y-3789600I0J200000D01*
G01*
X25223500Y-3764600D02*
G75*
G03X25398500Y-3989600I200000J-25000D01*
G01*
X25223500Y-4363150D02*
X25223500Y-4863150D01*
X26223500Y-4888150D02*
X26223500Y-4388150D01*
X26223500Y-4388150D02*
G75*
G03X26023500Y-4188150I-200000J0D01*
G01*
X26023500Y-5088150D02*
G75*
G03X26223500Y-4888150I0J200000D01*
G01*
X25223500Y-4863150D02*
G75*
G03X25398500Y-5088150I200000J-25000D01*
G01*
X24023350Y-3264600D02*
X24023350Y-3764600D01*
X24823350Y-3089600D02*
X24248350Y-3089600D01*
X25023350Y-3789600D02*
X25023350Y-3289600D01*
X25023350Y-3289600D02*
G75*
G03X24823350Y-3089600I-200000J0D01*
G01*
X24823350Y-3989600D02*
G75*
G03X25023350Y-3789600I0J200000D01*
G01*
X24023350Y-3764600D02*
G75*
G03X24198350Y-3989600I200000J-25000D01*
G01*
X26642800Y-9614950D02*
X26642800Y-15214950D01*
X26442800Y-15414950D02*
X18592800Y-15414950D01*
X26442800Y-15414950D02*
G75*
G03X26642800Y-15214950I0J200000D01*
G01*
X26642800Y-9614950D02*
G75*
G03X26442800Y-9414950I-200000J0D01*
G01*
X18392800Y-15214950D02*
G75*
G03X18592800Y-15414950I200000J0D01*
G01*
X14496250Y-6121250D02*
X14496250Y-9421250D01*
X14500000Y-2622500D02*
X14500000Y-5922500D01*
D12*
X17623650Y-7802050D02*
X17713650Y-7892050D01*
X17713650Y-7802050D02*
X17623650Y-7892050D01*
X17623650Y-8242050D02*
X17713650Y-8332050D01*
X17713650Y-8242050D02*
X17623650Y-8332050D01*
X17627400Y-4303300D02*
X17717400Y-4393300D01*
X17717400Y-4303300D02*
X17627400Y-4393300D01*
X17627400Y-4743300D02*
X17717400Y-4833300D01*
X17717400Y-4743300D02*
X17627400Y-4833300D01*
D13*
X14186428Y-15890714D02*
X14186428Y-15590714D01*
X14257857Y-15590714D01*
X14300714Y-15605000D01*
X14329286Y-15633571D01*
X14343571Y-15662143D01*
X14357857Y-15719286D01*
X14357857Y-15762143D01*
X14343571Y-15819286D01*
X14329286Y-15847857D01*
X14300714Y-15876429D01*
X14257857Y-15890714D01*
X14186428Y-15890714D01*
X14486428Y-15890714D02*
X14486428Y-15690714D01*
X14486428Y-15747857D02*
X14500714Y-15719286D01*
X14515000Y-15705000D01*
X14543571Y-15690714D01*
X14572143Y-15690714D01*
X14672143Y-15890714D02*
X14672143Y-15690714D01*
X14672143Y-15590714D02*
X14657857Y-15605000D01*
X14672143Y-15619286D01*
X14686428Y-15605000D01*
X14672143Y-15590714D01*
X14672143Y-15619286D01*
X14857857Y-15890714D02*
X14829286Y-15876429D01*
X14815000Y-15847857D01*
X14815000Y-15590714D01*
X15015000Y-15890714D02*
X14986428Y-15876429D01*
X14972143Y-15847857D01*
X14972143Y-15590714D01*
X15357857Y-15890714D02*
X15357857Y-15590714D01*
X15457857Y-15805000D01*
X15557857Y-15590714D01*
X15557857Y-15890714D01*
X15829286Y-15890714D02*
X15829286Y-15733571D01*
X15815000Y-15705000D01*
X15786428Y-15690714D01*
X15729286Y-15690714D01*
X15700714Y-15705000D01*
X15829286Y-15876429D02*
X15800714Y-15890714D01*
X15729286Y-15890714D01*
X15700714Y-15876429D01*
X15686428Y-15847857D01*
X15686428Y-15819286D01*
X15700714Y-15790714D01*
X15729286Y-15776429D01*
X15800714Y-15776429D01*
X15829286Y-15762143D01*
X15972143Y-15690714D02*
X15972143Y-15990714D01*
X15972143Y-15705000D02*
X16000714Y-15690714D01*
X16057857Y-15690714D01*
X16086428Y-15705000D01*
X16100714Y-15719286D01*
X16115000Y-15747857D01*
X16115000Y-15833571D01*
X16100714Y-15862143D01*
X16086428Y-15876429D01*
X16057857Y-15890714D01*
X16000714Y-15890714D01*
X15972143Y-15876429D01*
X16243571Y-15862143D02*
X16257857Y-15876429D01*
X16243571Y-15890714D01*
X16229286Y-15876429D01*
X16243571Y-15862143D01*
X16243571Y-15890714D01*
X16243571Y-15705000D02*
X16257857Y-15719286D01*
X16243571Y-15733571D01*
X16229286Y-15719286D01*
X16243571Y-15705000D01*
X16243571Y-15733571D01*
X13825000Y-16340000D02*
X13915000Y-16430000D01*
X13915000Y-16340000D02*
X13825000Y-16430000D01*
X14243571Y-16220714D02*
X14272143Y-16220714D01*
X14300714Y-16235000D01*
X14315000Y-16249286D01*
X14329286Y-16277857D01*
X14343571Y-16335000D01*
X14343571Y-16406429D01*
X14329286Y-16463571D01*
X14315000Y-16492143D01*
X14300714Y-16506429D01*
X14272143Y-16520714D01*
X14243571Y-16520714D01*
X14215000Y-16506429D01*
X14200714Y-16492143D01*
X14186428Y-16463571D01*
X14172143Y-16406429D01*
X14172143Y-16335000D01*
X14186428Y-16277857D01*
X14200714Y-16249286D01*
X14215000Y-16235000D01*
X14243571Y-16220714D01*
X14472143Y-16492143D02*
X14486428Y-16506429D01*
X14472143Y-16520714D01*
X14457857Y-16506429D01*
X14472143Y-16492143D01*
X14472143Y-16520714D01*
X14629286Y-16520714D02*
X14686428Y-16520714D01*
X14715000Y-16506429D01*
X14729286Y-16492143D01*
X14757857Y-16449286D01*
X14772143Y-16392143D01*
X14772143Y-16277857D01*
X14757857Y-16249286D01*
X14743571Y-16235000D01*
X14715000Y-16220714D01*
X14657857Y-16220714D01*
X14629286Y-16235000D01*
X14615000Y-16249286D01*
X14600714Y-16277857D01*
X14600714Y-16349286D01*
X14615000Y-16377857D01*
X14629286Y-16392143D01*
X14657857Y-16406429D01*
X14715000Y-16406429D01*
X14743571Y-16392143D01*
X14757857Y-16377857D01*
X14772143Y-16349286D01*
X14957857Y-16220714D02*
X14986428Y-16220714D01*
X15015000Y-16235000D01*
X15029286Y-16249286D01*
X15043571Y-16277857D01*
X15057857Y-16335000D01*
X15057857Y-16406429D01*
X15043571Y-16463571D01*
X15029286Y-16492143D01*
X15015000Y-16506429D01*
X14986428Y-16520714D01*
X14957857Y-16520714D01*
X14929286Y-16506429D01*
X14915000Y-16492143D01*
X14900714Y-16463571D01*
X14886428Y-16406429D01*
X14886428Y-16335000D01*
X14900714Y-16277857D01*
X14915000Y-16249286D01*
X14929286Y-16235000D01*
X14957857Y-16220714D01*
X15186428Y-16520714D02*
X15186428Y-16320714D01*
X15186428Y-16349286D02*
X15200714Y-16335000D01*
X15229286Y-16320714D01*
X15272143Y-16320714D01*
X15300714Y-16335000D01*
X15315000Y-16363571D01*
X15315000Y-16520714D01*
X15315000Y-16363571D02*
X15329286Y-16335000D01*
X15357857Y-16320714D01*
X15400714Y-16320714D01*
X15429286Y-16335000D01*
X15443571Y-16363571D01*
X15443571Y-16520714D01*
X15586428Y-16520714D02*
X15586428Y-16320714D01*
X15586428Y-16349286D02*
X15600714Y-16335000D01*
X15629286Y-16320714D01*
X15672143Y-16320714D01*
X15700714Y-16335000D01*
X15715000Y-16363571D01*
X15715000Y-16520714D01*
X15715000Y-16363571D02*
X15729286Y-16335000D01*
X15757857Y-16320714D01*
X15800714Y-16320714D01*
X15829286Y-16335000D01*
X15843571Y-16363571D01*
X15843571Y-16520714D01*
X16429286Y-16206429D02*
X16172143Y-16592143D01*
X16815000Y-16220714D02*
X16843571Y-16220714D01*
X16872143Y-16235000D01*
X16886428Y-16249286D01*
X16900714Y-16277857D01*
X16915000Y-16335000D01*
X16915000Y-16406429D01*
X16900714Y-16463571D01*
X16886428Y-16492143D01*
X16872143Y-16506429D01*
X16843571Y-16520714D01*
X16815000Y-16520714D01*
X16786428Y-16506429D01*
X16772143Y-16492143D01*
X16757857Y-16463571D01*
X16743571Y-16406429D01*
X16743571Y-16335000D01*
X16757857Y-16277857D01*
X16772143Y-16249286D01*
X16786428Y-16235000D01*
X16815000Y-16220714D01*
X17043571Y-16492143D02*
X17057857Y-16506429D01*
X17043571Y-16520714D01*
X17029286Y-16506429D01*
X17043571Y-16492143D01*
X17043571Y-16520714D01*
X17243571Y-16220714D02*
X17272143Y-16220714D01*
X17300714Y-16235000D01*
X17315000Y-16249286D01*
X17329286Y-16277857D01*
X17343571Y-16335000D01*
X17343571Y-16406429D01*
X17329286Y-16463571D01*
X17315000Y-16492143D01*
X17300714Y-16506429D01*
X17272143Y-16520714D01*
X17243571Y-16520714D01*
X17215000Y-16506429D01*
X17200714Y-16492143D01*
X17186428Y-16463571D01*
X17172143Y-16406429D01*
X17172143Y-16335000D01*
X17186428Y-16277857D01*
X17200714Y-16249286D01*
X17215000Y-16235000D01*
X17243571Y-16220714D01*
X17443571Y-16220714D02*
X17629286Y-16220714D01*
X17529286Y-16335000D01*
X17572143Y-16335000D01*
X17600714Y-16349286D01*
X17615000Y-16363571D01*
X17629286Y-16392143D01*
X17629286Y-16463571D01*
X17615000Y-16492143D01*
X17600714Y-16506429D01*
X17572143Y-16520714D01*
X17486428Y-16520714D01*
X17457857Y-16506429D01*
X17443571Y-16492143D01*
X17900714Y-16220714D02*
X17757857Y-16220714D01*
X17743571Y-16363571D01*
X17757857Y-16349286D01*
X17786428Y-16335000D01*
X17857857Y-16335000D01*
X17886428Y-16349286D01*
X17900714Y-16363571D01*
X17915000Y-16392143D01*
X17915000Y-16463571D01*
X17900714Y-16492143D01*
X17886428Y-16506429D01*
X17857857Y-16520714D01*
X17786428Y-16520714D01*
X17757857Y-16506429D01*
X17743571Y-16492143D01*
X18029286Y-16220714D02*
X18029286Y-16277857D01*
X18143571Y-16220714D02*
X18143571Y-16277857D01*
X18586428Y-16635000D02*
X18572143Y-16620714D01*
X18543571Y-16577857D01*
X18529286Y-16549286D01*
X18515000Y-16506429D01*
X18500714Y-16435000D01*
X18500714Y-16377857D01*
X18515000Y-16306429D01*
X18529286Y-16263571D01*
X18543571Y-16235000D01*
X18572143Y-16192143D01*
X18586428Y-16177857D01*
X18829286Y-16320714D02*
X18829286Y-16520714D01*
X18757857Y-16206429D02*
X18686428Y-16420714D01*
X18872143Y-16420714D01*
X19215000Y-16520714D02*
X19215000Y-16220714D01*
X19343571Y-16520714D02*
X19343571Y-16363571D01*
X19329286Y-16335000D01*
X19300714Y-16320714D01*
X19257857Y-16320714D01*
X19229286Y-16335000D01*
X19215000Y-16349286D01*
X19529286Y-16520714D02*
X19500714Y-16506429D01*
X19486428Y-16492143D01*
X19472143Y-16463571D01*
X19472143Y-16377857D01*
X19486428Y-16349286D01*
X19500714Y-16335000D01*
X19529286Y-16320714D01*
X19572143Y-16320714D01*
X19600714Y-16335000D01*
X19615000Y-16349286D01*
X19629286Y-16377857D01*
X19629286Y-16463571D01*
X19615000Y-16492143D01*
X19600714Y-16506429D01*
X19572143Y-16520714D01*
X19529286Y-16520714D01*
X19800714Y-16520714D02*
X19772143Y-16506429D01*
X19757857Y-16477857D01*
X19757857Y-16220714D01*
X20029286Y-16506429D02*
X20000714Y-16520714D01*
X19943571Y-16520714D01*
X19915000Y-16506429D01*
X19900714Y-16477857D01*
X19900714Y-16363571D01*
X19915000Y-16335000D01*
X19943571Y-16320714D01*
X20000714Y-16320714D01*
X20029286Y-16335000D01*
X20043571Y-16363571D01*
X20043571Y-16392143D01*
X19900714Y-16420714D01*
X20157857Y-16506429D02*
X20186429Y-16520714D01*
X20243571Y-16520714D01*
X20272143Y-16506429D01*
X20286429Y-16477857D01*
X20286429Y-16463571D01*
X20272143Y-16435000D01*
X20243571Y-16420714D01*
X20200714Y-16420714D01*
X20172143Y-16406429D01*
X20157857Y-16377857D01*
X20157857Y-16363571D01*
X20172143Y-16335000D01*
X20200714Y-16320714D01*
X20243571Y-16320714D01*
X20272143Y-16335000D01*
X20386428Y-16635000D02*
X20400714Y-16620714D01*
X20429286Y-16577857D01*
X20443571Y-16549286D01*
X20457857Y-16506429D01*
X20472143Y-16435000D01*
X20472143Y-16377857D01*
X20457857Y-16306429D01*
X20443571Y-16263571D01*
X20429286Y-16235000D01*
X20400714Y-16192143D01*
X20386428Y-16177857D01*
M02*
