%FSLAX45Y45*%
G04 Gerber Fmt 4.5, Leading zero omitted, Abs format (unit mm)*
G04 Created by KiCad (PCBNEW (2015-08-05 BZR 6055, Git fa29c62)-product) date 20/04/2016 17:38:01*
%MOMM*%
G01*
G04 APERTURE LIST*
%ADD10C,0.127000*%
%ADD11C,0.150000*%
%ADD12C,0.200000*%
%ADD13C,0.300000*%
G04 APERTURE END LIST*
D10*
D11*
X18197500Y-2622500D02*
X14500000Y-2622500D01*
X18197500Y-3177500D02*
X18197500Y-2622500D01*
X18197500Y-5922500D02*
X16710000Y-5922500D01*
X18197500Y-3732500D02*
X18197500Y-5922500D01*
X18197500Y-6272500D02*
X18197500Y-6122500D01*
X16710000Y-6122500D02*
X18197500Y-6122500D01*
X14500000Y-5922500D02*
X16157500Y-5922500D01*
X16157500Y-6122500D02*
X14497500Y-6122500D01*
X18397500Y-6270000D02*
X18397500Y-5490000D01*
X18397500Y-6822500D02*
X18397500Y-8355000D01*
X18197500Y-8355000D02*
X18197500Y-6822500D01*
X18197500Y-8907500D02*
X18197500Y-9420000D01*
X18400000Y-9017500D02*
X18400000Y-8910000D01*
X16007500Y-9420000D02*
X14497500Y-9420000D01*
X16837500Y-9420000D02*
X16557500Y-9420000D01*
X18197500Y-9420000D02*
X16837500Y-9420000D01*
X18596000Y-5290100D02*
G75*
G03X18396000Y-5490100I0J-200000D01*
G01*
X18195000Y-9620000D02*
X18195000Y-10740000D01*
X18395000Y-10737500D02*
X18395000Y-9612500D01*
X18195000Y-11290000D02*
X18195000Y-13465000D01*
X18395000Y-13465000D02*
X18395000Y-11287500D01*
X18195000Y-15417500D02*
X18195000Y-14012500D01*
X18395000Y-14012500D02*
X18395000Y-15215000D01*
X13922500Y-15417500D02*
X13922500Y-9620000D01*
X18195000Y-15417500D02*
X13922500Y-15417500D01*
X18195000Y-9620000D02*
X13922500Y-9620000D01*
X18297600Y-6721500D02*
G75*
G03X18197600Y-6821500I0J-100000D01*
G01*
X18397600Y-6821500D02*
G75*
G03X18297600Y-6721500I-100000J0D01*
G01*
X18247600Y-6671500D02*
G75*
G03X18247600Y-6671500I-25000J0D01*
G01*
X18247600Y-6596500D02*
G75*
G03X18247600Y-6596500I-25000J0D01*
G01*
X18247600Y-6521500D02*
G75*
G03X18247600Y-6521500I-25000J0D01*
G01*
X18247600Y-6446500D02*
G75*
G03X18247600Y-6446500I-25000J0D01*
G01*
X18397600Y-6671500D02*
G75*
G03X18397600Y-6671500I-25000J0D01*
G01*
X18397600Y-6596500D02*
G75*
G03X18397600Y-6596500I-25000J0D01*
G01*
X18397600Y-6521500D02*
G75*
G03X18397600Y-6521500I-25000J0D01*
G01*
X18397600Y-6446500D02*
G75*
G03X18397600Y-6446500I-25000J0D01*
G01*
X18197600Y-6271500D02*
G75*
G03X18297600Y-6371500I100000J0D01*
G01*
X18297600Y-6371500D02*
G75*
G03X18397600Y-6271500I0J100000D01*
G01*
X18297600Y-8456500D02*
G75*
G03X18397600Y-8356500I0J100000D01*
G01*
X18197600Y-8356500D02*
G75*
G03X18297600Y-8456500I100000J0D01*
G01*
X18397600Y-8531500D02*
G75*
G03X18397600Y-8531500I-25000J0D01*
G01*
X18397600Y-8606500D02*
G75*
G03X18397600Y-8606500I-25000J0D01*
G01*
X18397600Y-8681500D02*
G75*
G03X18397600Y-8681500I-25000J0D01*
G01*
X18397600Y-8756500D02*
G75*
G03X18397600Y-8756500I-25000J0D01*
G01*
X18247600Y-8531500D02*
G75*
G03X18247600Y-8531500I-25000J0D01*
G01*
X18247600Y-8606500D02*
G75*
G03X18247600Y-8606500I-25000J0D01*
G01*
X18247600Y-8681500D02*
G75*
G03X18247600Y-8681500I-25000J0D01*
G01*
X18247600Y-8756500D02*
G75*
G03X18247600Y-8756500I-25000J0D01*
G01*
X18397600Y-8906500D02*
G75*
G03X18297600Y-8806500I-100000J0D01*
G01*
X18297600Y-8806500D02*
G75*
G03X18197600Y-8906500I0J-100000D01*
G01*
X18297600Y-3631500D02*
G75*
G03X18197600Y-3731500I0J-100000D01*
G01*
X18397600Y-3731500D02*
G75*
G03X18297600Y-3631500I-100000J0D01*
G01*
X18247600Y-3581500D02*
G75*
G03X18247600Y-3581500I-25000J0D01*
G01*
X18247600Y-3506500D02*
G75*
G03X18247600Y-3506500I-25000J0D01*
G01*
X18247600Y-3431500D02*
G75*
G03X18247600Y-3431500I-25000J0D01*
G01*
X18247600Y-3356500D02*
G75*
G03X18247600Y-3356500I-25000J0D01*
G01*
X18397600Y-3581500D02*
G75*
G03X18397600Y-3581500I-25000J0D01*
G01*
X18397600Y-3506500D02*
G75*
G03X18397600Y-3506500I-25000J0D01*
G01*
X18397600Y-3431500D02*
G75*
G03X18397600Y-3431500I-25000J0D01*
G01*
X18397600Y-3356500D02*
G75*
G03X18397600Y-3356500I-25000J0D01*
G01*
X18197600Y-3181500D02*
G75*
G03X18297600Y-3281500I100000J0D01*
G01*
X18297600Y-3281500D02*
G75*
G03X18397600Y-3181500I0J100000D01*
G01*
X18295100Y-11189000D02*
G75*
G03X18195100Y-11289000I0J-100000D01*
G01*
X18395100Y-11289000D02*
G75*
G03X18295100Y-11189000I-100000J0D01*
G01*
X18245100Y-11139000D02*
G75*
G03X18245100Y-11139000I-25000J0D01*
G01*
X18245100Y-11064000D02*
G75*
G03X18245100Y-11064000I-25000J0D01*
G01*
X18245100Y-10989000D02*
G75*
G03X18245100Y-10989000I-25000J0D01*
G01*
X18245100Y-10914000D02*
G75*
G03X18245100Y-10914000I-25000J0D01*
G01*
X18395100Y-11139000D02*
G75*
G03X18395100Y-11139000I-25000J0D01*
G01*
X18395100Y-11064000D02*
G75*
G03X18395100Y-11064000I-25000J0D01*
G01*
X18395100Y-10989000D02*
G75*
G03X18395100Y-10989000I-25000J0D01*
G01*
X18395100Y-10914000D02*
G75*
G03X18395100Y-10914000I-25000J0D01*
G01*
X18195100Y-10739000D02*
G75*
G03X18295100Y-10839000I100000J0D01*
G01*
X18295100Y-10839000D02*
G75*
G03X18395100Y-10739000I0J100000D01*
G01*
X18295100Y-13564000D02*
G75*
G03X18395100Y-13464000I0J100000D01*
G01*
X18195100Y-13464000D02*
G75*
G03X18295100Y-13564000I100000J0D01*
G01*
X18395100Y-13639000D02*
G75*
G03X18395100Y-13639000I-25000J0D01*
G01*
X18395100Y-13714000D02*
G75*
G03X18395100Y-13714000I-25000J0D01*
G01*
X18395100Y-13789000D02*
G75*
G03X18395100Y-13789000I-25000J0D01*
G01*
X18395100Y-13864000D02*
G75*
G03X18395100Y-13864000I-25000J0D01*
G01*
X18245100Y-13639000D02*
G75*
G03X18245100Y-13639000I-25000J0D01*
G01*
X18245100Y-13714000D02*
G75*
G03X18245100Y-13714000I-25000J0D01*
G01*
X18245100Y-13789000D02*
G75*
G03X18245100Y-13789000I-25000J0D01*
G01*
X18245100Y-13864000D02*
G75*
G03X18245100Y-13864000I-25000J0D01*
G01*
X18395100Y-14014000D02*
G75*
G03X18295100Y-13914000I-100000J0D01*
G01*
X18295100Y-13914000D02*
G75*
G03X18195100Y-14014000I0J-100000D01*
G01*
X16258500Y-6022600D02*
G75*
G03X16158500Y-5922600I-100000J0D01*
G01*
X16158500Y-6122600D02*
G75*
G03X16258500Y-6022600I0J100000D01*
G01*
X16333500Y-5947600D02*
G75*
G03X16333500Y-5947600I-25000J0D01*
G01*
X16408500Y-5947600D02*
G75*
G03X16408500Y-5947600I-25000J0D01*
G01*
X16483500Y-5947600D02*
G75*
G03X16483500Y-5947600I-25000J0D01*
G01*
X16558500Y-5947600D02*
G75*
G03X16558500Y-5947600I-25000J0D01*
G01*
X16333500Y-6097600D02*
G75*
G03X16333500Y-6097600I-25000J0D01*
G01*
X16408500Y-6097600D02*
G75*
G03X16408500Y-6097600I-25000J0D01*
G01*
X16483500Y-6097600D02*
G75*
G03X16483500Y-6097600I-25000J0D01*
G01*
X16558500Y-6097600D02*
G75*
G03X16558500Y-6097600I-25000J0D01*
G01*
X16708500Y-5922600D02*
G75*
G03X16608500Y-6022600I0J-100000D01*
G01*
X16608500Y-6022600D02*
G75*
G03X16708500Y-6122600I100000J0D01*
G01*
X16458500Y-9520100D02*
G75*
G03X16558500Y-9620100I100000J0D01*
G01*
X16558500Y-9420100D02*
G75*
G03X16458500Y-9520100I0J-100000D01*
G01*
X16408500Y-9595100D02*
G75*
G03X16408500Y-9595100I-25000J0D01*
G01*
X16333500Y-9595100D02*
G75*
G03X16333500Y-9595100I-25000J0D01*
G01*
X16258500Y-9595100D02*
G75*
G03X16258500Y-9595100I-25000J0D01*
G01*
X16183500Y-9595100D02*
G75*
G03X16183500Y-9595100I-25000J0D01*
G01*
X16408500Y-9445100D02*
G75*
G03X16408500Y-9445100I-25000J0D01*
G01*
X16333500Y-9445100D02*
G75*
G03X16333500Y-9445100I-25000J0D01*
G01*
X16258500Y-9445100D02*
G75*
G03X16258500Y-9445100I-25000J0D01*
G01*
X16183500Y-9445100D02*
G75*
G03X16183500Y-9445100I-25000J0D01*
G01*
X16008500Y-9620100D02*
G75*
G03X16108500Y-9520100I0J100000D01*
G01*
X16108500Y-9520100D02*
G75*
G03X16008500Y-9420100I-100000J0D01*
G01*
X23246000Y-9415100D02*
X24246000Y-9415100D01*
X24246000Y-9215100D02*
X23246000Y-9215100D01*
X21146000Y-9415100D02*
X21696000Y-9415100D01*
X21696000Y-9215100D02*
X21146000Y-9215100D01*
X25421000Y-3090100D02*
X25446000Y-3090100D01*
X25421000Y-3090100D02*
G75*
G03X25221000Y-3290100I0J-200000D01*
G01*
X25446000Y-4190100D02*
X25421000Y-4190100D01*
X25421000Y-4190100D02*
G75*
G03X25221000Y-4390100I0J-200000D01*
G01*
X24196000Y-4190100D02*
X24246000Y-4190100D01*
X24196000Y-4190100D02*
G75*
G03X24021000Y-4415100I25000J-200000D01*
G01*
X24246000Y-3090100D02*
X24221000Y-3090100D01*
X24221000Y-3090100D02*
G75*
G03X24021000Y-3290100I0J-200000D01*
G01*
X24246000Y-3990100D02*
X24196000Y-3990100D01*
X24796000Y-4190100D02*
X24821000Y-4190100D01*
X24796000Y-3990100D02*
X24821000Y-3990100D01*
X25446000Y-3990100D02*
X25396000Y-3990100D01*
X26021000Y-3990100D02*
X25996000Y-3990100D01*
X26021000Y-4190100D02*
X25996000Y-4190100D01*
X25396000Y-5090100D02*
X25446000Y-5090100D01*
X25446000Y-5290100D02*
X24821000Y-5290100D01*
X25996000Y-5090100D02*
X26021000Y-5090100D01*
X26296000Y-5290100D02*
X25996000Y-5290100D01*
X24196000Y-5090100D02*
X24271000Y-5090100D01*
X23246000Y-5290100D02*
X23271000Y-5290100D01*
X23246000Y-5090100D02*
X23621000Y-5090100D01*
X25796000Y-9415100D02*
X26321000Y-9415100D01*
X26321000Y-9215100D02*
X25796000Y-9215100D01*
X26446000Y-9415100D02*
X26321000Y-9415100D01*
X24721000Y-5190100D02*
G75*
G03X24821000Y-5290100I100000J0D01*
G01*
X24821000Y-5090100D02*
G75*
G03X24721000Y-5190100I0J-100000D01*
G01*
X24671000Y-5265100D02*
G75*
G03X24671000Y-5265100I-25000J0D01*
G01*
X24596000Y-5265100D02*
G75*
G03X24596000Y-5265100I-25000J0D01*
G01*
X24521000Y-5265100D02*
G75*
G03X24521000Y-5265100I-25000J0D01*
G01*
X24446000Y-5265100D02*
G75*
G03X24446000Y-5265100I-25000J0D01*
G01*
X24671000Y-5115100D02*
G75*
G03X24671000Y-5115100I-25000J0D01*
G01*
X24596000Y-5115100D02*
G75*
G03X24596000Y-5115100I-25000J0D01*
G01*
X24521000Y-5115100D02*
G75*
G03X24521000Y-5115100I-25000J0D01*
G01*
X24446000Y-5115100D02*
G75*
G03X24446000Y-5115100I-25000J0D01*
G01*
X24271000Y-5290100D02*
G75*
G03X24371000Y-5190100I0J100000D01*
G01*
X24371000Y-5190100D02*
G75*
G03X24271000Y-5090100I-100000J0D01*
G01*
X24271000Y-5290100D02*
X23271000Y-5290100D01*
X25546000Y-4090100D02*
G75*
G03X25446000Y-3990100I-100000J0D01*
G01*
X25446000Y-4190100D02*
G75*
G03X25546000Y-4090100I0J100000D01*
G01*
X25621000Y-4015100D02*
G75*
G03X25621000Y-4015100I-25000J0D01*
G01*
X25696000Y-4015100D02*
G75*
G03X25696000Y-4015100I-25000J0D01*
G01*
X25771000Y-4015100D02*
G75*
G03X25771000Y-4015100I-25000J0D01*
G01*
X25846000Y-4015100D02*
G75*
G03X25846000Y-4015100I-25000J0D01*
G01*
X25621000Y-4165100D02*
G75*
G03X25621000Y-4165100I-25000J0D01*
G01*
X25696000Y-4165100D02*
G75*
G03X25696000Y-4165100I-25000J0D01*
G01*
X25771000Y-4165100D02*
G75*
G03X25771000Y-4165100I-25000J0D01*
G01*
X25846000Y-4165100D02*
G75*
G03X25846000Y-4165100I-25000J0D01*
G01*
X25996000Y-3990100D02*
G75*
G03X25896000Y-4090100I0J-100000D01*
G01*
X25896000Y-4090100D02*
G75*
G03X25996000Y-4190100I100000J0D01*
G01*
X25896000Y-5190100D02*
G75*
G03X25996000Y-5290100I100000J0D01*
G01*
X25996000Y-5090100D02*
G75*
G03X25896000Y-5190100I0J-100000D01*
G01*
X25846000Y-5265100D02*
G75*
G03X25846000Y-5265100I-25000J0D01*
G01*
X25771000Y-5265100D02*
G75*
G03X25771000Y-5265100I-25000J0D01*
G01*
X25696000Y-5265100D02*
G75*
G03X25696000Y-5265100I-25000J0D01*
G01*
X25621000Y-5265100D02*
G75*
G03X25621000Y-5265100I-25000J0D01*
G01*
X25846000Y-5115100D02*
G75*
G03X25846000Y-5115100I-25000J0D01*
G01*
X25771000Y-5115100D02*
G75*
G03X25771000Y-5115100I-25000J0D01*
G01*
X25696000Y-5115100D02*
G75*
G03X25696000Y-5115100I-25000J0D01*
G01*
X25621000Y-5115100D02*
G75*
G03X25621000Y-5115100I-25000J0D01*
G01*
X25446000Y-5290100D02*
G75*
G03X25546000Y-5190100I0J100000D01*
G01*
X25546000Y-5190100D02*
G75*
G03X25446000Y-5090100I-100000J0D01*
G01*
X25796000Y-9415100D02*
X24796000Y-9415100D01*
X24796000Y-9215100D02*
X25796000Y-9215100D01*
X22246000Y-9215100D02*
X23246000Y-9215100D01*
X23246000Y-9415100D02*
X22246000Y-9415100D01*
X24346000Y-9315100D02*
G75*
G03X24246000Y-9215100I-100000J0D01*
G01*
X24246000Y-9415100D02*
G75*
G03X24346000Y-9315100I0J100000D01*
G01*
X24421000Y-9240100D02*
G75*
G03X24421000Y-9240100I-25000J0D01*
G01*
X24496000Y-9240100D02*
G75*
G03X24496000Y-9240100I-25000J0D01*
G01*
X24571000Y-9240100D02*
G75*
G03X24571000Y-9240100I-25000J0D01*
G01*
X24646000Y-9240100D02*
G75*
G03X24646000Y-9240100I-25000J0D01*
G01*
X24421000Y-9390100D02*
G75*
G03X24421000Y-9390100I-25000J0D01*
G01*
X24496000Y-9390100D02*
G75*
G03X24496000Y-9390100I-25000J0D01*
G01*
X24571000Y-9390100D02*
G75*
G03X24571000Y-9390100I-25000J0D01*
G01*
X24646000Y-9390100D02*
G75*
G03X24646000Y-9390100I-25000J0D01*
G01*
X24796000Y-9215100D02*
G75*
G03X24696000Y-9315100I0J-100000D01*
G01*
X24696000Y-9315100D02*
G75*
G03X24796000Y-9415100I100000J0D01*
G01*
X22146000Y-9315100D02*
G75*
G03X22246000Y-9415100I100000J0D01*
G01*
X22246000Y-9215100D02*
G75*
G03X22146000Y-9315100I0J-100000D01*
G01*
X22096000Y-9390100D02*
G75*
G03X22096000Y-9390100I-25000J0D01*
G01*
X22021000Y-9390100D02*
G75*
G03X22021000Y-9390100I-25000J0D01*
G01*
X21946000Y-9390100D02*
G75*
G03X21946000Y-9390100I-25000J0D01*
G01*
X21871000Y-9390100D02*
G75*
G03X21871000Y-9390100I-25000J0D01*
G01*
X22096000Y-9240100D02*
G75*
G03X22096000Y-9240100I-25000J0D01*
G01*
X22021000Y-9240100D02*
G75*
G03X22021000Y-9240100I-25000J0D01*
G01*
X21946000Y-9240100D02*
G75*
G03X21946000Y-9240100I-25000J0D01*
G01*
X21871000Y-9240100D02*
G75*
G03X21871000Y-9240100I-25000J0D01*
G01*
X21696000Y-9415100D02*
G75*
G03X21796000Y-9315100I0J100000D01*
G01*
X21796000Y-9315100D02*
G75*
G03X21696000Y-9215100I-100000J0D01*
G01*
X21696000Y-9415100D02*
X20696000Y-9415100D01*
X20696000Y-9215100D02*
X21696000Y-9215100D01*
X18596000Y-9215100D02*
X19596000Y-9215100D01*
X19596000Y-9415100D02*
X18596000Y-9415100D01*
X19696000Y-9315100D02*
G75*
G03X19596000Y-9215100I-100000J0D01*
G01*
X19596000Y-9415100D02*
G75*
G03X19696000Y-9315100I0J100000D01*
G01*
X19771000Y-9240100D02*
G75*
G03X19771000Y-9240100I-25000J0D01*
G01*
X19846000Y-9240100D02*
G75*
G03X19846000Y-9240100I-25000J0D01*
G01*
X19921000Y-9240100D02*
G75*
G03X19921000Y-9240100I-25000J0D01*
G01*
X19996000Y-9240100D02*
G75*
G03X19996000Y-9240100I-25000J0D01*
G01*
X19771000Y-9390100D02*
G75*
G03X19771000Y-9390100I-25000J0D01*
G01*
X19846000Y-9390100D02*
G75*
G03X19846000Y-9390100I-25000J0D01*
G01*
X19921000Y-9390100D02*
G75*
G03X19921000Y-9390100I-25000J0D01*
G01*
X19996000Y-9390100D02*
G75*
G03X19996000Y-9390100I-25000J0D01*
G01*
X20146000Y-9215100D02*
G75*
G03X20046000Y-9315100I0J-100000D01*
G01*
X20046000Y-9315100D02*
G75*
G03X20146000Y-9415100I100000J0D01*
G01*
X21146000Y-9415100D02*
X20146000Y-9415100D01*
X20146000Y-9215100D02*
X21146000Y-9215100D01*
X20146000Y-5090100D02*
X21146000Y-5090100D01*
X21146000Y-5290100D02*
X20146000Y-5290100D01*
X21246000Y-5190100D02*
G75*
G03X21146000Y-5090100I-100000J0D01*
G01*
X21146000Y-5290100D02*
G75*
G03X21246000Y-5190100I0J100000D01*
G01*
X21321000Y-5115100D02*
G75*
G03X21321000Y-5115100I-25000J0D01*
G01*
X21396000Y-5115100D02*
G75*
G03X21396000Y-5115100I-25000J0D01*
G01*
X21471000Y-5115100D02*
G75*
G03X21471000Y-5115100I-25000J0D01*
G01*
X21546000Y-5115100D02*
G75*
G03X21546000Y-5115100I-25000J0D01*
G01*
X21321000Y-5265100D02*
G75*
G03X21321000Y-5265100I-25000J0D01*
G01*
X21396000Y-5265100D02*
G75*
G03X21396000Y-5265100I-25000J0D01*
G01*
X21471000Y-5265100D02*
G75*
G03X21471000Y-5265100I-25000J0D01*
G01*
X21546000Y-5265100D02*
G75*
G03X21546000Y-5265100I-25000J0D01*
G01*
X21696000Y-5090100D02*
G75*
G03X21596000Y-5190100I0J-100000D01*
G01*
X21596000Y-5190100D02*
G75*
G03X21696000Y-5290100I100000J0D01*
G01*
X20046000Y-5190100D02*
G75*
G03X20146000Y-5290100I100000J0D01*
G01*
X20146000Y-5090100D02*
G75*
G03X20046000Y-5190100I0J-100000D01*
G01*
X19996000Y-5265100D02*
G75*
G03X19996000Y-5265100I-25000J0D01*
G01*
X19921000Y-5265100D02*
G75*
G03X19921000Y-5265100I-25000J0D01*
G01*
X19846000Y-5265100D02*
G75*
G03X19846000Y-5265100I-25000J0D01*
G01*
X19771000Y-5265100D02*
G75*
G03X19771000Y-5265100I-25000J0D01*
G01*
X19996000Y-5115100D02*
G75*
G03X19996000Y-5115100I-25000J0D01*
G01*
X19921000Y-5115100D02*
G75*
G03X19921000Y-5115100I-25000J0D01*
G01*
X19846000Y-5115100D02*
G75*
G03X19846000Y-5115100I-25000J0D01*
G01*
X19771000Y-5115100D02*
G75*
G03X19771000Y-5115100I-25000J0D01*
G01*
X19596000Y-5290100D02*
G75*
G03X19696000Y-5190100I0J100000D01*
G01*
X19696000Y-5190100D02*
G75*
G03X19596000Y-5090100I-100000J0D01*
G01*
X19596000Y-5290100D02*
X18596000Y-5290100D01*
X18596000Y-5090100D02*
X19596000Y-5090100D01*
X21696000Y-5090100D02*
X22696000Y-5090100D01*
X22696000Y-5290100D02*
X21696000Y-5290100D01*
X22796000Y-5190100D02*
G75*
G03X22696000Y-5090100I-100000J0D01*
G01*
X22696000Y-5290100D02*
G75*
G03X22796000Y-5190100I0J100000D01*
G01*
X22871000Y-5115100D02*
G75*
G03X22871000Y-5115100I-25000J0D01*
G01*
X22946000Y-5115100D02*
G75*
G03X22946000Y-5115100I-25000J0D01*
G01*
X23021000Y-5115100D02*
G75*
G03X23021000Y-5115100I-25000J0D01*
G01*
X23096000Y-5115100D02*
G75*
G03X23096000Y-5115100I-25000J0D01*
G01*
X22871000Y-5265100D02*
G75*
G03X22871000Y-5265100I-25000J0D01*
G01*
X22946000Y-5265100D02*
G75*
G03X22946000Y-5265100I-25000J0D01*
G01*
X23021000Y-5265100D02*
G75*
G03X23021000Y-5265100I-25000J0D01*
G01*
X23096000Y-5265100D02*
G75*
G03X23096000Y-5265100I-25000J0D01*
G01*
X23246000Y-5090100D02*
G75*
G03X23146000Y-5190100I0J-100000D01*
G01*
X23146000Y-5190100D02*
G75*
G03X23246000Y-5290100I100000J0D01*
G01*
X24696000Y-4090100D02*
G75*
G03X24796000Y-4190100I100000J0D01*
G01*
X24796000Y-3990100D02*
G75*
G03X24696000Y-4090100I0J-100000D01*
G01*
X24646000Y-4165100D02*
G75*
G03X24646000Y-4165100I-25000J0D01*
G01*
X24571000Y-4165100D02*
G75*
G03X24571000Y-4165100I-25000J0D01*
G01*
X24496000Y-4165100D02*
G75*
G03X24496000Y-4165100I-25000J0D01*
G01*
X24421000Y-4165100D02*
G75*
G03X24421000Y-4165100I-25000J0D01*
G01*
X24646000Y-4015100D02*
G75*
G03X24646000Y-4015100I-25000J0D01*
G01*
X24571000Y-4015100D02*
G75*
G03X24571000Y-4015100I-25000J0D01*
G01*
X24496000Y-4015100D02*
G75*
G03X24496000Y-4015100I-25000J0D01*
G01*
X24421000Y-4015100D02*
G75*
G03X24421000Y-4015100I-25000J0D01*
G01*
X24246000Y-4190100D02*
G75*
G03X24346000Y-4090100I0J100000D01*
G01*
X24346000Y-4090100D02*
G75*
G03X24246000Y-3990100I-100000J0D01*
G01*
X26646000Y-9615100D02*
X26646000Y-15215100D01*
X26446000Y-15415100D02*
X18596000Y-15415100D01*
X26446000Y-15415100D02*
G75*
G03X26646000Y-15215100I0J200000D01*
G01*
X26646000Y-9615100D02*
G75*
G03X26446000Y-9415100I-200000J0D01*
G01*
X18596000Y-9415100D02*
G75*
G03X18396000Y-9615100I0J-200000D01*
G01*
X23821000Y-2515100D02*
X23821000Y-4890100D01*
X18596000Y-2315100D02*
X23621000Y-2315100D01*
X18396000Y-4890100D02*
X18396000Y-2515100D01*
X23621000Y-5090100D02*
G75*
G03X23821000Y-4890100I0J200000D01*
G01*
X18396000Y-4890100D02*
G75*
G03X18596000Y-5090100I200000J0D01*
G01*
X18596000Y-2315100D02*
G75*
G03X18396000Y-2515100I0J-200000D01*
G01*
X23821000Y-2515100D02*
G75*
G03X23621000Y-2315100I-200000J0D01*
G01*
X26496000Y-8990100D02*
X26496000Y-5490100D01*
X26496000Y-5490100D02*
G75*
G03X26296000Y-5290100I-200000J0D01*
G01*
X26321000Y-9215100D02*
G75*
G03X26496000Y-8990100I-25000J200000D01*
G01*
X24021000Y-4365100D02*
X24021000Y-4865100D01*
X25021000Y-4890100D02*
X25021000Y-4390100D01*
X25021000Y-4390100D02*
G75*
G03X24821000Y-4190100I-200000J0D01*
G01*
X24821000Y-5090100D02*
G75*
G03X25021000Y-4890100I0J200000D01*
G01*
X24021000Y-4865100D02*
G75*
G03X24196000Y-5090100I200000J-25000D01*
G01*
X25221000Y-4365100D02*
X25221000Y-4865100D01*
X26221000Y-4890100D02*
X26221000Y-4390100D01*
X26221000Y-4390100D02*
G75*
G03X26021000Y-4190100I-200000J0D01*
G01*
X26021000Y-5090100D02*
G75*
G03X26221000Y-4890100I0J200000D01*
G01*
X25221000Y-4865100D02*
G75*
G03X25396000Y-5090100I200000J-25000D01*
G01*
X24021000Y-3265100D02*
X24021000Y-3765100D01*
X24821000Y-3090100D02*
X24246000Y-3090100D01*
X25021000Y-3790100D02*
X25021000Y-3290100D01*
X25021000Y-3290100D02*
G75*
G03X24821000Y-3090100I-200000J0D01*
G01*
X24821000Y-3990100D02*
G75*
G03X25021000Y-3790100I0J200000D01*
G01*
X24021000Y-3765100D02*
G75*
G03X24196000Y-3990100I200000J-25000D01*
G01*
X25221000Y-3265100D02*
X25221000Y-3765100D01*
X26021000Y-3090100D02*
X25446000Y-3090100D01*
X26221000Y-3790100D02*
X26221000Y-3290100D01*
X26221000Y-3290100D02*
G75*
G03X26021000Y-3090100I-200000J0D01*
G01*
X26021000Y-3990100D02*
G75*
G03X26221000Y-3790100I0J200000D01*
G01*
X25221000Y-3765100D02*
G75*
G03X25396000Y-3990100I200000J-25000D01*
G01*
X26642800Y-9614950D02*
X26642800Y-15214950D01*
X26442800Y-15414950D02*
X18592800Y-15414950D01*
X26442800Y-15414950D02*
G75*
G03X26642800Y-15214950I0J200000D01*
G01*
X26642800Y-9614950D02*
G75*
G03X26442800Y-9414950I-200000J0D01*
G01*
X18392800Y-15214950D02*
G75*
G03X18592800Y-15414950I200000J0D01*
G01*
X26499700Y-8991400D02*
X26499700Y-5491400D01*
X26499700Y-5491400D02*
G75*
G03X26299700Y-5291400I-200000J0D01*
G01*
X26324700Y-9216400D02*
G75*
G03X26499700Y-8991400I-25000J200000D01*
G01*
X18399700Y-9016400D02*
G75*
G03X18599700Y-9216400I200000J0D01*
G01*
X18599700Y-5291400D02*
G75*
G03X18399700Y-5491400I0J-200000D01*
G01*
X23823900Y-2516500D02*
X23823900Y-4891500D01*
X18598900Y-2316500D02*
X23623900Y-2316500D01*
X18398900Y-4891500D02*
X18398900Y-2516500D01*
X23623900Y-5091500D02*
G75*
G03X23823900Y-4891500I0J200000D01*
G01*
X18398900Y-4891500D02*
G75*
G03X18598900Y-5091500I200000J0D01*
G01*
X18598900Y-2316500D02*
G75*
G03X18398900Y-2516500I0J-200000D01*
G01*
X23823900Y-2516500D02*
G75*
G03X23623900Y-2316500I-200000J0D01*
G01*
X24023350Y-4363150D02*
X24023350Y-4863150D01*
X25023350Y-4888150D02*
X25023350Y-4388150D01*
X25023350Y-4388150D02*
G75*
G03X24823350Y-4188150I-200000J0D01*
G01*
X24823350Y-5088150D02*
G75*
G03X25023350Y-4888150I0J200000D01*
G01*
X24023350Y-4863150D02*
G75*
G03X24198350Y-5088150I200000J-25000D01*
G01*
X25223500Y-3264600D02*
X25223500Y-3764600D01*
X26023500Y-3089600D02*
X25448500Y-3089600D01*
X26223500Y-3789600D02*
X26223500Y-3289600D01*
X26223500Y-3289600D02*
G75*
G03X26023500Y-3089600I-200000J0D01*
G01*
X26023500Y-3989600D02*
G75*
G03X26223500Y-3789600I0J200000D01*
G01*
X25223500Y-3764600D02*
G75*
G03X25398500Y-3989600I200000J-25000D01*
G01*
X25223500Y-4363150D02*
X25223500Y-4863150D01*
X26223500Y-4888150D02*
X26223500Y-4388150D01*
X26223500Y-4388150D02*
G75*
G03X26023500Y-4188150I-200000J0D01*
G01*
X26023500Y-5088150D02*
G75*
G03X26223500Y-4888150I0J200000D01*
G01*
X25223500Y-4863150D02*
G75*
G03X25398500Y-5088150I200000J-25000D01*
G01*
X24023350Y-3264600D02*
X24023350Y-3764600D01*
X24823350Y-3089600D02*
X24248350Y-3089600D01*
X25023350Y-3789600D02*
X25023350Y-3289600D01*
X25023350Y-3289600D02*
G75*
G03X24823350Y-3089600I-200000J0D01*
G01*
X24823350Y-3989600D02*
G75*
G03X25023350Y-3789600I0J200000D01*
G01*
X24023350Y-3764600D02*
G75*
G03X24198350Y-3989600I200000J-25000D01*
G01*
X26642800Y-9614950D02*
X26642800Y-15214950D01*
X26442800Y-15414950D02*
X18592800Y-15414950D01*
X26442800Y-15414950D02*
G75*
G03X26642800Y-15214950I0J200000D01*
G01*
X26642800Y-9614950D02*
G75*
G03X26442800Y-9414950I-200000J0D01*
G01*
X18392800Y-15214950D02*
G75*
G03X18592800Y-15414950I200000J0D01*
G01*
X14496250Y-6121250D02*
X14496250Y-9421250D01*
X14500000Y-2622500D02*
X14500000Y-5922500D01*
D12*
X20167600Y-3143250D02*
X20205700Y-3181350D01*
X20205700Y-3143250D02*
X20167600Y-3181350D01*
X20294600Y-3143250D02*
X20332700Y-3181350D01*
X20332700Y-3143250D02*
X20294600Y-3181350D01*
X20421600Y-3143250D02*
X20459700Y-3181350D01*
X20459700Y-3143250D02*
X20421600Y-3181350D01*
X20548600Y-3143250D02*
X20586700Y-3181350D01*
X20586700Y-3143250D02*
X20548600Y-3181350D01*
X23075900Y-6197600D02*
X23114000Y-6235700D01*
X23114000Y-6197600D02*
X23075900Y-6235700D01*
X23202900Y-6197600D02*
X23241000Y-6235700D01*
X23241000Y-6197600D02*
X23202900Y-6235700D01*
X23329900Y-6197600D02*
X23368000Y-6235700D01*
X23368000Y-6197600D02*
X23329900Y-6235700D01*
X23456900Y-6197600D02*
X23495000Y-6235700D01*
X23495000Y-6197600D02*
X23456900Y-6235700D01*
X23463250Y-2921000D02*
X23501350Y-2959100D01*
X23501350Y-2921000D02*
X23463250Y-2959100D01*
X23463250Y-3048000D02*
X23501350Y-3086100D01*
X23501350Y-3048000D02*
X23463250Y-3086100D01*
X23590250Y-2921000D02*
X23628350Y-2959100D01*
X23628350Y-2921000D02*
X23590250Y-2959100D01*
X23590250Y-3048000D02*
X23628350Y-3086100D01*
X23628350Y-3048000D02*
X23590250Y-3086100D01*
X24203500Y-3272000D02*
X24241600Y-3310100D01*
X24241600Y-3272000D02*
X24203500Y-3310100D01*
X24203500Y-3399000D02*
X24241600Y-3437100D01*
X24241600Y-3399000D02*
X24203500Y-3437100D01*
X24203500Y-3526000D02*
X24241600Y-3564100D01*
X24241600Y-3526000D02*
X24203500Y-3564100D01*
X24203500Y-3653000D02*
X24241600Y-3691100D01*
X24241600Y-3653000D02*
X24203500Y-3691100D01*
X24203500Y-3780000D02*
X24241600Y-3818100D01*
X24241600Y-3780000D02*
X24203500Y-3818100D01*
X24203500Y-4370550D02*
X24241600Y-4408650D01*
X24241600Y-4370550D02*
X24203500Y-4408650D01*
X24203500Y-4497550D02*
X24241600Y-4535650D01*
X24241600Y-4497550D02*
X24203500Y-4535650D01*
X24203500Y-4624550D02*
X24241600Y-4662650D01*
X24241600Y-4624550D02*
X24203500Y-4662650D01*
X24203500Y-4751550D02*
X24241600Y-4789650D01*
X24241600Y-4751550D02*
X24203500Y-4789650D01*
X24203500Y-4878550D02*
X24241600Y-4916650D01*
X24241600Y-4878550D02*
X24203500Y-4916650D01*
X24987250Y-8382000D02*
X25025350Y-8420100D01*
X25025350Y-8382000D02*
X24987250Y-8420100D01*
X24993600Y-8172450D02*
X25031700Y-8210550D01*
X25031700Y-8172450D02*
X24993600Y-8210550D01*
X25114250Y-8382000D02*
X25152350Y-8420100D01*
X25152350Y-8382000D02*
X25114250Y-8420100D01*
X25120600Y-8172450D02*
X25158700Y-8210550D01*
X25158700Y-8172450D02*
X25120600Y-8210550D01*
X25241250Y-8382000D02*
X25279350Y-8420100D01*
X25279350Y-8382000D02*
X25241250Y-8420100D01*
X25247600Y-8172450D02*
X25285700Y-8210550D01*
X25285700Y-8172450D02*
X25247600Y-8210550D01*
X25368250Y-8382000D02*
X25406350Y-8420100D01*
X25406350Y-8382000D02*
X25368250Y-8420100D01*
X25374600Y-8172450D02*
X25412700Y-8210550D01*
X25412700Y-8172450D02*
X25374600Y-8210550D01*
X25403650Y-3272000D02*
X25441750Y-3310100D01*
X25441750Y-3272000D02*
X25403650Y-3310100D01*
X25403650Y-3399000D02*
X25441750Y-3437100D01*
X25441750Y-3399000D02*
X25403650Y-3437100D01*
X25403650Y-3526000D02*
X25441750Y-3564100D01*
X25441750Y-3526000D02*
X25403650Y-3564100D01*
X25403650Y-3653000D02*
X25441750Y-3691100D01*
X25441750Y-3653000D02*
X25403650Y-3691100D01*
X25403650Y-3780000D02*
X25441750Y-3818100D01*
X25441750Y-3780000D02*
X25403650Y-3818100D01*
X25403650Y-4370550D02*
X25441750Y-4408650D01*
X25441750Y-4370550D02*
X25403650Y-4408650D01*
X25403650Y-4497550D02*
X25441750Y-4535650D01*
X25441750Y-4497550D02*
X25403650Y-4535650D01*
X25403650Y-4624550D02*
X25441750Y-4662650D01*
X25441750Y-4624550D02*
X25403650Y-4662650D01*
X25403650Y-4751550D02*
X25441750Y-4789650D01*
X25441750Y-4751550D02*
X25403650Y-4789650D01*
X25403650Y-4878550D02*
X25441750Y-4916650D01*
X25441750Y-4878550D02*
X25403650Y-4916650D01*
X25495250Y-8382000D02*
X25533350Y-8420100D01*
X25533350Y-8382000D02*
X25495250Y-8420100D01*
X25501600Y-8172450D02*
X25539700Y-8210550D01*
X25539700Y-8172450D02*
X25501600Y-8210550D01*
X14223600Y-11852650D02*
G75*
G03X14223600Y-11852650I-20000J0D01*
G01*
X14223600Y-11966950D02*
G75*
G03X14223600Y-11966950I-20000J0D01*
G01*
X14223600Y-12081250D02*
G75*
G03X14223600Y-12081250I-20000J0D01*
G01*
X14312500Y-11573250D02*
G75*
G03X14312500Y-11573250I-20000J0D01*
G01*
X14312500Y-11751050D02*
G75*
G03X14312500Y-11751050I-20000J0D01*
G01*
X14445850Y-13363950D02*
G75*
G03X14445850Y-13363950I-20000J0D01*
G01*
X14585550Y-13071850D02*
G75*
G03X14585550Y-13071850I-20000J0D01*
G01*
X14725250Y-13071850D02*
G75*
G03X14725250Y-13071850I-20000J0D01*
G01*
X14866250Y-11878750D02*
G75*
G03X14866250Y-11878750I-20000J0D01*
G01*
X14877650Y-13541750D02*
G75*
G03X14877650Y-13541750I-20000J0D01*
G01*
X14946250Y-11408750D02*
G75*
G03X14946250Y-11408750I-20000J0D01*
G01*
X14946250Y-11573750D02*
G75*
G03X14946250Y-11573750I-20000J0D01*
G01*
X14946250Y-11738750D02*
G75*
G03X14946250Y-11738750I-20000J0D01*
G01*
X14966250Y-7021250D02*
G75*
G03X14966250Y-7021250I-20000J0D01*
G01*
X14970000Y-3522500D02*
G75*
G03X14970000Y-3522500I-20000J0D01*
G01*
X15017350Y-10690600D02*
G75*
G03X15017350Y-10690600I-20000J0D01*
G01*
X15020525Y-13246475D02*
G75*
G03X15020525Y-13246475I-20000J0D01*
G01*
X15023700Y-13948150D02*
G75*
G03X15023700Y-13948150I-20000J0D01*
G01*
X15030050Y-13776700D02*
G75*
G03X15030050Y-13776700I-20000J0D01*
G01*
X15041250Y-11143750D02*
G75*
G03X15041250Y-11143750I-20000J0D01*
G01*
X15043750Y-12561250D02*
G75*
G03X15043750Y-12561250I-20000J0D01*
G01*
X15066250Y-6821250D02*
G75*
G03X15066250Y-6821250I-20000J0D01*
G01*
X15070000Y-3322500D02*
G75*
G03X15070000Y-3322500I-20000J0D01*
G01*
X15157050Y-13236950D02*
G75*
G03X15157050Y-13236950I-20000J0D01*
G01*
X15195150Y-10690600D02*
G75*
G03X15195150Y-10690600I-20000J0D01*
G01*
X15303100Y-13510000D02*
G75*
G03X15303100Y-13510000I-20000J0D01*
G01*
X15423750Y-13605250D02*
G75*
G03X15423750Y-13605250I-20000J0D01*
G01*
X15423750Y-13960850D02*
G75*
G03X15423750Y-13960850I-20000J0D01*
G01*
X15449150Y-13071850D02*
G75*
G03X15449150Y-13071850I-20000J0D01*
G01*
X15506300Y-14094200D02*
G75*
G03X15506300Y-14094200I-20000J0D01*
G01*
X15576150Y-13071850D02*
G75*
G03X15576150Y-13071850I-20000J0D01*
G01*
X15716250Y-7521250D02*
G75*
G03X15716250Y-7521250I-20000J0D01*
G01*
X15716250Y-7721250D02*
G75*
G03X15716250Y-7721250I-20000J0D01*
G01*
X15720000Y-4022500D02*
G75*
G03X15720000Y-4022500I-20000J0D01*
G01*
X15720000Y-4222500D02*
G75*
G03X15720000Y-4222500I-20000J0D01*
G01*
X15747600Y-13516350D02*
G75*
G03X15747600Y-13516350I-20000J0D01*
G01*
X15785700Y-11414500D02*
G75*
G03X15785700Y-11414500I-20000J0D01*
G01*
X15866250Y-7171250D02*
G75*
G03X15866250Y-7171250I-20000J0D01*
G01*
X15868250Y-10468350D02*
G75*
G03X15868250Y-10468350I-20000J0D01*
G01*
X15868250Y-13236950D02*
G75*
G03X15868250Y-13236950I-20000J0D01*
G01*
X15868250Y-13871950D02*
G75*
G03X15868250Y-13871950I-20000J0D01*
G01*
X15868250Y-14405350D02*
G75*
G03X15868250Y-14405350I-20000J0D01*
G01*
X15870000Y-3672500D02*
G75*
G03X15870000Y-3672500I-20000J0D01*
G01*
X15925400Y-10328650D02*
G75*
G03X15925400Y-10328650I-20000J0D01*
G01*
X16007950Y-13236950D02*
G75*
G03X16007950Y-13236950I-20000J0D01*
G01*
X16016250Y-8471250D02*
G75*
G03X16016250Y-8471250I-20000J0D01*
G01*
X16020000Y-4972500D02*
G75*
G03X16020000Y-4972500I-20000J0D01*
G01*
X16116250Y-8121250D02*
G75*
G03X16116250Y-8121250I-20000J0D01*
G01*
X16120000Y-4622500D02*
G75*
G03X16120000Y-4622500I-20000J0D01*
G01*
X16134950Y-10335000D02*
G75*
G03X16134950Y-10335000I-20000J0D01*
G01*
X16166700Y-13516350D02*
G75*
G03X16166700Y-13516350I-20000J0D01*
G01*
X16308650Y-8111500D02*
G75*
G03X16308650Y-8111500I-20000J0D01*
G01*
X16312400Y-4612750D02*
G75*
G03X16312400Y-4612750I-20000J0D01*
G01*
X16312750Y-13084550D02*
G75*
G03X16312750Y-13084550I-20000J0D01*
G01*
X16316250Y-7571250D02*
G75*
G03X16316250Y-7571250I-20000J0D01*
G01*
X16316250Y-8871250D02*
G75*
G03X16316250Y-8871250I-20000J0D01*
G01*
X16320000Y-4072500D02*
G75*
G03X16320000Y-4072500I-20000J0D01*
G01*
X16320000Y-5372500D02*
G75*
G03X16320000Y-5372500I-20000J0D01*
G01*
X16408000Y-10468350D02*
G75*
G03X16408000Y-10468350I-20000J0D01*
G01*
X16439750Y-13084550D02*
G75*
G03X16439750Y-13084550I-20000J0D01*
G01*
X16461050Y-8111500D02*
G75*
G03X16461050Y-8111500I-20000J0D01*
G01*
X16464800Y-4612750D02*
G75*
G03X16464800Y-4612750I-20000J0D01*
G01*
X16503250Y-10036550D02*
G75*
G03X16503250Y-10036550I-20000J0D01*
G01*
X16516250Y-7571250D02*
G75*
G03X16516250Y-7571250I-20000J0D01*
G01*
X16520000Y-4072500D02*
G75*
G03X16520000Y-4072500I-20000J0D01*
G01*
X16554050Y-11471650D02*
G75*
G03X16554050Y-11471650I-20000J0D01*
G01*
X16598500Y-13529050D02*
G75*
G03X16598500Y-13529050I-20000J0D01*
G01*
X16617550Y-10912850D02*
G75*
G03X16617550Y-10912850I-20000J0D01*
G01*
X16716250Y-8371250D02*
G75*
G03X16716250Y-8371250I-20000J0D01*
G01*
X16720000Y-4872500D02*
G75*
G03X16720000Y-4872500I-20000J0D01*
G01*
X16744550Y-13236950D02*
G75*
G03X16744550Y-13236950I-20000J0D01*
G01*
X16827100Y-14424400D02*
G75*
G03X16827100Y-14424400I-20000J0D01*
G01*
X16858850Y-11116050D02*
G75*
G03X16858850Y-11116050I-20000J0D01*
G01*
X16884250Y-13236950D02*
G75*
G03X16884250Y-13236950I-20000J0D01*
G01*
X17030300Y-13510000D02*
G75*
G03X17030300Y-13510000I-20000J0D01*
G01*
X17081100Y-14824450D02*
G75*
G03X17081100Y-14824450I-20000J0D01*
G01*
X17189050Y-13071850D02*
G75*
G03X17189050Y-13071850I-20000J0D01*
G01*
X17258900Y-14614900D02*
G75*
G03X17258900Y-14614900I-20000J0D01*
G01*
X17258900Y-15135600D02*
G75*
G03X17258900Y-15135600I-20000J0D01*
G01*
X17290650Y-11077950D02*
G75*
G03X17290650Y-11077950I-20000J0D01*
G01*
X17290650Y-11249400D02*
G75*
G03X17290650Y-11249400I-20000J0D01*
G01*
X17328750Y-13071850D02*
G75*
G03X17328750Y-13071850I-20000J0D01*
G01*
X17347800Y-11560550D02*
G75*
G03X17347800Y-11560550I-20000J0D01*
G01*
X17347800Y-12106650D02*
G75*
G03X17347800Y-12106650I-20000J0D01*
G01*
X17360500Y-11827250D02*
G75*
G03X17360500Y-11827250I-20000J0D01*
G01*
X17416250Y-7821250D02*
G75*
G03X17416250Y-7821250I-20000J0D01*
G01*
X17420000Y-4322500D02*
G75*
G03X17420000Y-4322500I-20000J0D01*
G01*
X17468450Y-13529050D02*
G75*
G03X17468450Y-13529050I-20000J0D01*
G01*
X17608150Y-13236950D02*
G75*
G03X17608150Y-13236950I-20000J0D01*
G01*
X17735150Y-13236950D02*
G75*
G03X17735150Y-13236950I-20000J0D01*
G01*
X17887550Y-13516350D02*
G75*
G03X17887550Y-13516350I-20000J0D01*
G01*
X18873150Y-4495800D02*
G75*
G03X18873150Y-4495800I-20000J0D01*
G01*
X18993800Y-4826000D02*
G75*
G03X18993800Y-4826000I-20000J0D01*
G01*
X18993800Y-4965700D02*
G75*
G03X18993800Y-4965700I-20000J0D01*
G01*
X19108100Y-4781550D02*
G75*
G03X19108100Y-4781550I-20000J0D01*
G01*
X19190650Y-4781550D02*
G75*
G03X19190650Y-4781550I-20000J0D01*
G01*
X19311300Y-3238500D02*
G75*
G03X19311300Y-3238500I-20000J0D01*
G01*
X19311300Y-4756150D02*
G75*
G03X19311300Y-4756150I-20000J0D01*
G01*
X19400200Y-11068050D02*
G75*
G03X19400200Y-11068050I-20000J0D01*
G01*
X19434700Y-5496400D02*
G75*
G03X19434700Y-5496400I-20000J0D01*
G01*
X19434700Y-5656400D02*
G75*
G03X19434700Y-5656400I-20000J0D01*
G01*
X19609750Y-11068050D02*
G75*
G03X19609750Y-11068050I-20000J0D01*
G01*
X19616100Y-4381500D02*
G75*
G03X19616100Y-4381500I-20000J0D01*
G01*
X19628800Y-8610600D02*
G75*
G03X19628800Y-8610600I-20000J0D01*
G01*
X19679600Y-4724400D02*
G75*
G03X19679600Y-4724400I-20000J0D01*
G01*
X19723400Y-15017750D02*
G75*
G03X19723400Y-15017750I-20000J0D01*
G01*
X19736750Y-4603750D02*
G75*
G03X19736750Y-4603750I-20000J0D01*
G01*
X19793900Y-5492750D02*
G75*
G03X19793900Y-5492750I-20000J0D01*
G01*
X19800250Y-3346450D02*
G75*
G03X19800250Y-3346450I-20000J0D01*
G01*
X19844700Y-2489200D02*
G75*
G03X19844700Y-2489200I-20000J0D01*
G01*
X19882800Y-5492750D02*
G75*
G03X19882800Y-5492750I-20000J0D01*
G01*
X19946300Y-5886450D02*
G75*
G03X19946300Y-5886450I-20000J0D01*
G01*
X19946300Y-12192000D02*
G75*
G03X19946300Y-12192000I-20000J0D01*
G01*
X19952650Y-12280900D02*
G75*
G03X19952650Y-12280900I-20000J0D01*
G01*
X19959000Y-11671300D02*
G75*
G03X19959000Y-11671300I-20000J0D01*
G01*
X19965350Y-4711700D02*
G75*
G03X19965350Y-4711700I-20000J0D01*
G01*
X19990750Y-3949700D02*
G75*
G03X19990750Y-3949700I-20000J0D01*
G01*
X20009800Y-2413000D02*
G75*
G03X20009800Y-2413000I-20000J0D01*
G01*
X20009800Y-11906250D02*
G75*
G03X20009800Y-11906250I-20000J0D01*
G01*
X20047900Y-5886450D02*
G75*
G03X20047900Y-5886450I-20000J0D01*
G01*
X20054250Y-11671300D02*
G75*
G03X20054250Y-11671300I-20000J0D01*
G01*
X20092350Y-2413000D02*
G75*
G03X20092350Y-2413000I-20000J0D01*
G01*
X20174900Y-2413000D02*
G75*
G03X20174900Y-2413000I-20000J0D01*
G01*
X20174900Y-6184900D02*
G75*
G03X20174900Y-6184900I-20000J0D01*
G01*
X20174900Y-6515100D02*
G75*
G03X20174900Y-6515100I-20000J0D01*
G01*
X20174900Y-6845300D02*
G75*
G03X20174900Y-6845300I-20000J0D01*
G01*
X20174900Y-7175500D02*
G75*
G03X20174900Y-7175500I-20000J0D01*
G01*
X20174900Y-7505700D02*
G75*
G03X20174900Y-7505700I-20000J0D01*
G01*
X20174900Y-7835900D02*
G75*
G03X20174900Y-7835900I-20000J0D01*
G01*
X20200300Y-12623800D02*
G75*
G03X20200300Y-12623800I-20000J0D01*
G01*
X20200300Y-12954000D02*
G75*
G03X20200300Y-12954000I-20000J0D01*
G01*
X20200300Y-13284200D02*
G75*
G03X20200300Y-13284200I-20000J0D01*
G01*
X20200300Y-13614400D02*
G75*
G03X20200300Y-13614400I-20000J0D01*
G01*
X20200300Y-13944600D02*
G75*
G03X20200300Y-13944600I-20000J0D01*
G01*
X20200300Y-14274800D02*
G75*
G03X20200300Y-14274800I-20000J0D01*
G01*
X20282850Y-4724400D02*
G75*
G03X20282850Y-4724400I-20000J0D01*
G01*
X20543200Y-3873500D02*
G75*
G03X20543200Y-3873500I-20000J0D01*
G01*
X20543200Y-3956050D02*
G75*
G03X20543200Y-3956050I-20000J0D01*
G01*
X20613050Y-5638800D02*
G75*
G03X20613050Y-5638800I-20000J0D01*
G01*
X20701950Y-12636500D02*
G75*
G03X20701950Y-12636500I-20000J0D01*
G01*
X20746400Y-13195300D02*
G75*
G03X20746400Y-13195300I-20000J0D01*
G01*
X20759100Y-12084050D02*
G75*
G03X20759100Y-12084050I-20000J0D01*
G01*
X20809900Y-12636500D02*
G75*
G03X20809900Y-12636500I-20000J0D01*
G01*
X20835300Y-3041650D02*
G75*
G03X20835300Y-3041650I-20000J0D01*
G01*
X20835300Y-4883150D02*
G75*
G03X20835300Y-4883150I-20000J0D01*
G01*
X20936900Y-4711700D02*
G75*
G03X20936900Y-4711700I-20000J0D01*
G01*
X20943250Y-12103100D02*
G75*
G03X20943250Y-12103100I-20000J0D01*
G01*
X21000400Y-6057900D02*
G75*
G03X21000400Y-6057900I-20000J0D01*
G01*
X21133750Y-14198600D02*
G75*
G03X21133750Y-14198600I-20000J0D01*
G01*
X21159150Y-7569200D02*
G75*
G03X21159150Y-7569200I-20000J0D01*
G01*
X21209950Y-3759200D02*
G75*
G03X21209950Y-3759200I-20000J0D01*
G01*
X21229000Y-3886200D02*
G75*
G03X21229000Y-3886200I-20000J0D01*
G01*
X21327425Y-11401425D02*
G75*
G03X21327425Y-11401425I-20000J0D01*
G01*
X21381400Y-7131050D02*
G75*
G03X21381400Y-7131050I-20000J0D01*
G01*
X21413150Y-13722350D02*
G75*
G03X21413150Y-13722350I-20000J0D01*
G01*
X21552850Y-6484620D02*
G75*
G03X21552850Y-6484620I-20000J0D01*
G01*
X21565550Y-13150850D02*
G75*
G03X21565550Y-13150850I-20000J0D01*
G01*
X21630320Y-7607300D02*
G75*
G03X21630320Y-7607300I-20000J0D01*
G01*
X21692550Y-5581650D02*
G75*
G03X21692550Y-5581650I-20000J0D01*
G01*
X21705250Y-13620750D02*
G75*
G03X21705250Y-13620750I-20000J0D01*
G01*
X21743350Y-4013200D02*
G75*
G03X21743350Y-4013200I-20000J0D01*
G01*
X21800500Y-3879850D02*
G75*
G03X21800500Y-3879850I-20000J0D01*
G01*
X21876700Y-13131800D02*
G75*
G03X21876700Y-13131800I-20000J0D01*
G01*
X21959250Y-13398500D02*
G75*
G03X21959250Y-13398500I-20000J0D01*
G01*
X21991000Y-6817360D02*
G75*
G03X21991000Y-6817360I-20000J0D01*
G01*
X22003700Y-4718050D02*
G75*
G03X22003700Y-4718050I-20000J0D01*
G01*
X22133240Y-7729220D02*
G75*
G03X22133240Y-7729220I-20000J0D01*
G01*
X22133240Y-7815580D02*
G75*
G03X22133240Y-7815580I-20000J0D01*
G01*
X22153560Y-6931660D02*
G75*
G03X22153560Y-6931660I-20000J0D01*
G01*
X22158640Y-12843510D02*
G75*
G03X22158640Y-12843510I-20000J0D01*
G01*
X22186580Y-7010400D02*
G75*
G03X22186580Y-7010400I-20000J0D01*
G01*
X22232300Y-6764020D02*
G75*
G03X22232300Y-6764020I-20000J0D01*
G01*
X22237380Y-8572500D02*
G75*
G03X22237380Y-8572500I-20000J0D01*
G01*
X22237380Y-8750300D02*
G75*
G03X22237380Y-8750300I-20000J0D01*
G01*
X22238650Y-6940550D02*
G75*
G03X22238650Y-6940550I-20000J0D01*
G01*
X22250080Y-7607300D02*
G75*
G03X22250080Y-7607300I-20000J0D01*
G01*
X22282800Y-12904950D02*
G75*
G03X22282800Y-12904950I-20000J0D01*
G01*
X22318660Y-3843020D02*
G75*
G03X22318660Y-3843020I-20000J0D01*
G01*
X22359300Y-13944600D02*
G75*
G03X22359300Y-13944600I-20000J0D01*
G01*
X22412800Y-13124950D02*
G75*
G03X22412800Y-13124950I-20000J0D01*
G01*
X22414700Y-7366400D02*
G75*
G03X22414700Y-7366400I-20000J0D01*
G01*
X22414700Y-7456400D02*
G75*
G03X22414700Y-7456400I-20000J0D01*
G01*
X22424700Y-7876400D02*
G75*
G03X22424700Y-7876400I-20000J0D01*
G01*
X22424700Y-7966400D02*
G75*
G03X22424700Y-7966400I-20000J0D01*
G01*
X22453280Y-13056870D02*
G75*
G03X22453280Y-13056870I-20000J0D01*
G01*
X22504080Y-13188950D02*
G75*
G03X22504080Y-13188950I-20000J0D01*
G01*
X22530750Y-13430250D02*
G75*
G03X22530750Y-13430250I-20000J0D01*
G01*
X22572025Y-14341475D02*
G75*
G03X22572025Y-14341475I-20000J0D01*
G01*
X22660925Y-14341475D02*
G75*
G03X22660925Y-14341475I-20000J0D01*
G01*
X22702200Y-13430250D02*
G75*
G03X22702200Y-13430250I-20000J0D01*
G01*
X22719980Y-6814820D02*
G75*
G03X22719980Y-6814820I-20000J0D01*
G01*
X22727600Y-7007860D02*
G75*
G03X22727600Y-7007860I-20000J0D01*
G01*
X22781575Y-14341475D02*
G75*
G03X22781575Y-14341475I-20000J0D01*
G01*
X22822850Y-8458200D02*
G75*
G03X22822850Y-8458200I-20000J0D01*
G01*
X22848250Y-13906500D02*
G75*
G03X22848250Y-13906500I-20000J0D01*
G01*
X22880000Y-12433300D02*
G75*
G03X22880000Y-12433300I-20000J0D01*
G01*
X22880000Y-12528550D02*
G75*
G03X22880000Y-12528550I-20000J0D01*
G01*
X22880000Y-12934950D02*
G75*
G03X22880000Y-12934950I-20000J0D01*
G01*
X22886350Y-13036550D02*
G75*
G03X22886350Y-13036550I-20000J0D01*
G01*
X22943500Y-12103100D02*
G75*
G03X22943500Y-12103100I-20000J0D01*
G01*
X22968900Y-13341350D02*
G75*
G03X22968900Y-13341350I-20000J0D01*
G01*
X23007000Y-9575800D02*
G75*
G03X23007000Y-9575800I-20000J0D01*
G01*
X23038750Y-6750050D02*
G75*
G03X23038750Y-6750050I-20000J0D01*
G01*
X23038750Y-12109450D02*
G75*
G03X23038750Y-12109450I-20000J0D01*
G01*
X23045100Y-10731500D02*
G75*
G03X23045100Y-10731500I-20000J0D01*
G01*
X23051450Y-14065250D02*
G75*
G03X23051450Y-14065250I-20000J0D01*
G01*
X23051450Y-14192250D02*
G75*
G03X23051450Y-14192250I-20000J0D01*
G01*
X23064150Y-13335000D02*
G75*
G03X23064150Y-13335000I-20000J0D01*
G01*
X23089550Y-8013700D02*
G75*
G03X23089550Y-8013700I-20000J0D01*
G01*
X23127650Y-13912850D02*
G75*
G03X23127650Y-13912850I-20000J0D01*
G01*
X23134000Y-6756400D02*
G75*
G03X23134000Y-6756400I-20000J0D01*
G01*
X23178450Y-8604250D02*
G75*
G03X23178450Y-8604250I-20000J0D01*
G01*
X23184800Y-8013700D02*
G75*
G03X23184800Y-8013700I-20000J0D01*
G01*
X23203850Y-13722350D02*
G75*
G03X23203850Y-13722350I-20000J0D01*
G01*
X23273700Y-13081000D02*
G75*
G03X23273700Y-13081000I-20000J0D01*
G01*
X23291480Y-8313420D02*
G75*
G03X23291480Y-8313420I-20000J0D01*
G01*
X23337200Y-9728200D02*
G75*
G03X23337200Y-9728200I-20000J0D01*
G01*
X23413400Y-12642850D02*
G75*
G03X23413400Y-12642850I-20000J0D01*
G01*
X23432450Y-7880350D02*
G75*
G03X23432450Y-7880350I-20000J0D01*
G01*
X23432450Y-12122150D02*
G75*
G03X23432450Y-12122150I-20000J0D01*
G01*
X23438800Y-8026400D02*
G75*
G03X23438800Y-8026400I-20000J0D01*
G01*
X23508650Y-14071600D02*
G75*
G03X23508650Y-14071600I-20000J0D01*
G01*
X23515000Y-13912850D02*
G75*
G03X23515000Y-13912850I-20000J0D01*
G01*
X23534050Y-6762750D02*
G75*
G03X23534050Y-6762750I-20000J0D01*
G01*
X23534050Y-12122150D02*
G75*
G03X23534050Y-12122150I-20000J0D01*
G01*
X23578500Y-10534650D02*
G75*
G03X23578500Y-10534650I-20000J0D01*
G01*
X23603900Y-10128250D02*
G75*
G03X23603900Y-10128250I-20000J0D01*
G01*
X23610250Y-7645400D02*
G75*
G03X23610250Y-7645400I-20000J0D01*
G01*
X23635650Y-6762750D02*
G75*
G03X23635650Y-6762750I-20000J0D01*
G01*
X23642000Y-12642850D02*
G75*
G03X23642000Y-12642850I-20000J0D01*
G01*
X23724550Y-8312150D02*
G75*
G03X23724550Y-8312150I-20000J0D01*
G01*
X23737250Y-10134600D02*
G75*
G03X23737250Y-10134600I-20000J0D01*
G01*
X23743600Y-10541000D02*
G75*
G03X23743600Y-10541000I-20000J0D01*
G01*
X23756300Y-12325350D02*
G75*
G03X23756300Y-12325350I-20000J0D01*
G01*
X23775350Y-7874000D02*
G75*
G03X23775350Y-7874000I-20000J0D01*
G01*
X23775350Y-7962900D02*
G75*
G03X23775350Y-7962900I-20000J0D01*
G01*
X23807100Y-8934450D02*
G75*
G03X23807100Y-8934450I-20000J0D01*
G01*
X23838850Y-9759950D02*
G75*
G03X23838850Y-9759950I-20000J0D01*
G01*
X23883300Y-12198350D02*
G75*
G03X23883300Y-12198350I-20000J0D01*
G01*
X23934100Y-12325350D02*
G75*
G03X23934100Y-12325350I-20000J0D01*
G01*
X23944700Y-7776400D02*
G75*
G03X23944700Y-7776400I-20000J0D01*
G01*
X23946800Y-13347700D02*
G75*
G03X23946800Y-13347700I-20000J0D01*
G01*
X23953150Y-10052050D02*
G75*
G03X23953150Y-10052050I-20000J0D01*
G01*
X23972200Y-6813550D02*
G75*
G03X23972200Y-6813550I-20000J0D01*
G01*
X23972200Y-6908800D02*
G75*
G03X23972200Y-6908800I-20000J0D01*
G01*
X24010300Y-12522200D02*
G75*
G03X24010300Y-12522200I-20000J0D01*
G01*
X24016650Y-12369800D02*
G75*
G03X24016650Y-12369800I-20000J0D01*
G01*
X24035700Y-13347700D02*
G75*
G03X24035700Y-13347700I-20000J0D01*
G01*
X24111900Y-12979400D02*
G75*
G03X24111900Y-12979400I-20000J0D01*
G01*
X24124600Y-12896850D02*
G75*
G03X24124600Y-12896850I-20000J0D01*
G01*
X24130950Y-9055100D02*
G75*
G03X24130950Y-9055100I-20000J0D01*
G01*
X24150000Y-11791950D02*
G75*
G03X24150000Y-11791950I-20000J0D01*
G01*
X24188100Y-8921750D02*
G75*
G03X24188100Y-8921750I-20000J0D01*
G01*
X24224700Y-8286400D02*
G75*
G03X24224700Y-8286400I-20000J0D01*
G01*
X24226200Y-10223500D02*
G75*
G03X24226200Y-10223500I-20000J0D01*
G01*
X24321450Y-8458200D02*
G75*
G03X24321450Y-8458200I-20000J0D01*
G01*
X24359550Y-7804150D02*
G75*
G03X24359550Y-7804150I-20000J0D01*
G01*
X24359550Y-7893050D02*
G75*
G03X24359550Y-7893050I-20000J0D01*
G01*
X24394700Y-7456400D02*
G75*
G03X24394700Y-7456400I-20000J0D01*
G01*
X24404700Y-8426400D02*
G75*
G03X24404700Y-8426400I-20000J0D01*
G01*
X24442100Y-7016750D02*
G75*
G03X24442100Y-7016750I-20000J0D01*
G01*
X24543700Y-6915150D02*
G75*
G03X24543700Y-6915150I-20000J0D01*
G01*
X24677050Y-10236200D02*
G75*
G03X24677050Y-10236200I-20000J0D01*
G01*
X24677050Y-10566400D02*
G75*
G03X24677050Y-10566400I-20000J0D01*
G01*
X24696100Y-12579350D02*
G75*
G03X24696100Y-12579350I-20000J0D01*
G01*
X24708800Y-3219450D02*
G75*
G03X24708800Y-3219450I-20000J0D01*
G01*
X24708800Y-4318000D02*
G75*
G03X24708800Y-4318000I-20000J0D01*
G01*
X24727850Y-11569700D02*
G75*
G03X24727850Y-11569700I-20000J0D01*
G01*
X24748875Y-14448225D02*
G75*
G03X24748875Y-14448225I-20000J0D01*
G01*
X24797700Y-8502650D02*
G75*
G03X24797700Y-8502650I-20000J0D01*
G01*
X24880250Y-11258550D02*
G75*
G03X24880250Y-11258550I-20000J0D01*
G01*
X24912000Y-8629650D02*
G75*
G03X24912000Y-8629650I-20000J0D01*
G01*
X24912000Y-12204700D02*
G75*
G03X24912000Y-12204700I-20000J0D01*
G01*
X24912000Y-12388850D02*
G75*
G03X24912000Y-12388850I-20000J0D01*
G01*
X24981850Y-3505200D02*
G75*
G03X24981850Y-3505200I-20000J0D01*
G01*
X24981850Y-4603750D02*
G75*
G03X24981850Y-4603750I-20000J0D01*
G01*
X24994550Y-11842750D02*
G75*
G03X24994550Y-11842750I-20000J0D01*
G01*
X25007250Y-6978650D02*
G75*
G03X25007250Y-6978650I-20000J0D01*
G01*
X25032650Y-8890000D02*
G75*
G03X25032650Y-8890000I-20000J0D01*
G01*
X25140600Y-9690100D02*
G75*
G03X25140600Y-9690100I-20000J0D01*
G01*
X25140600Y-10020300D02*
G75*
G03X25140600Y-10020300I-20000J0D01*
G01*
X25229500Y-8928100D02*
G75*
G03X25229500Y-8928100I-20000J0D01*
G01*
X25280300Y-10947400D02*
G75*
G03X25280300Y-10947400I-20000J0D01*
G01*
X25407300Y-12426950D02*
G75*
G03X25407300Y-12426950I-20000J0D01*
G01*
X25432700Y-8890000D02*
G75*
G03X25432700Y-8890000I-20000J0D01*
G01*
X25470800Y-14446250D02*
G75*
G03X25470800Y-14446250I-20000J0D01*
G01*
X25553350Y-10306050D02*
G75*
G03X25553350Y-10306050I-20000J0D01*
G01*
X25591450Y-8890000D02*
G75*
G03X25591450Y-8890000I-20000J0D01*
G01*
X25762900Y-14446250D02*
G75*
G03X25762900Y-14446250I-20000J0D01*
G01*
X25858150Y-11474450D02*
G75*
G03X25858150Y-11474450I-20000J0D01*
G01*
X25877200Y-11772900D02*
G75*
G03X25877200Y-11772900I-20000J0D01*
G01*
X25908950Y-3219450D02*
G75*
G03X25908950Y-3219450I-20000J0D01*
G01*
X25908950Y-4318000D02*
G75*
G03X25908950Y-4318000I-20000J0D01*
G01*
X25953400Y-11601450D02*
G75*
G03X25953400Y-11601450I-20000J0D01*
G01*
X25973290Y-12493270D02*
G75*
G03X25973290Y-12493270I-20000J0D01*
G01*
X26016900Y-11912600D02*
G75*
G03X26016900Y-11912600I-20000J0D01*
G01*
X26016900Y-12071350D02*
G75*
G03X26016900Y-12071350I-20000J0D01*
G01*
X26143900Y-14446250D02*
G75*
G03X26143900Y-14446250I-20000J0D01*
G01*
X26181690Y-12668370D02*
G75*
G03X26181690Y-12668370I-20000J0D01*
G01*
X26182000Y-3505200D02*
G75*
G03X26182000Y-3505200I-20000J0D01*
G01*
X26182000Y-4603750D02*
G75*
G03X26182000Y-4603750I-20000J0D01*
G01*
X26359800Y-10039350D02*
G75*
G03X26359800Y-10039350I-20000J0D01*
G01*
X26372190Y-12427070D02*
G75*
G03X26372190Y-12427070I-20000J0D01*
G01*
X20882356Y-5756200D02*
X20882356Y-5826200D01*
X20847356Y-5791200D02*
X20917356Y-5791200D01*
X21370544Y-5756200D02*
X21370544Y-5826200D01*
X21335544Y-5791200D02*
X21405544Y-5791200D01*
X21536914Y-8024472D02*
X21536914Y-8094472D01*
X21501914Y-8059472D02*
X21571914Y-8059472D01*
X21536914Y-9040472D02*
X21536914Y-9110472D01*
X21501914Y-9075472D02*
X21571914Y-9075472D01*
X22967950Y-10328200D02*
X22967950Y-10398200D01*
X22932950Y-10363200D02*
X23002950Y-10363200D01*
X23164748Y-9616746D02*
X23164748Y-9686746D01*
X23129748Y-9651746D02*
X23199748Y-9651746D01*
X23348950Y-10328200D02*
X23348950Y-10398200D01*
X23313950Y-10363200D02*
X23383950Y-10363200D01*
X24180748Y-9616746D02*
X24180748Y-9686746D01*
X24145748Y-9651746D02*
X24215748Y-9651746D01*
X24415750Y-10321850D02*
X24415750Y-10391850D01*
X24380750Y-10356850D02*
X24450750Y-10356850D01*
X24650400Y-14632100D02*
X24650400Y-14702100D01*
X24615400Y-14667100D02*
X24685400Y-14667100D01*
X24650400Y-15092100D02*
X24650400Y-15162100D01*
X24615400Y-15127100D02*
X24685400Y-15127100D01*
X24796750Y-10321850D02*
X24796750Y-10391850D01*
X24761750Y-10356850D02*
X24831750Y-10356850D01*
X24930400Y-14632100D02*
X24930400Y-14702100D01*
X24895400Y-14667100D02*
X24965400Y-14667100D01*
X24930400Y-15092100D02*
X24930400Y-15162100D01*
X24895400Y-15127100D02*
X24965400Y-15127100D01*
X25223724Y-11483392D02*
X25223724Y-11553392D01*
X25188724Y-11518392D02*
X25258724Y-11518392D01*
X25223724Y-11737392D02*
X25223724Y-11807392D01*
X25188724Y-11772392D02*
X25258724Y-11772392D01*
X25223724Y-11991392D02*
X25223724Y-12061392D01*
X25188724Y-12026392D02*
X25258724Y-12026392D01*
X25592532Y-11483646D02*
X25592532Y-11553646D01*
X25557532Y-11518646D02*
X25627532Y-11518646D01*
X25592532Y-11737646D02*
X25592532Y-11807646D01*
X25557532Y-11772646D02*
X25627532Y-11772646D01*
X18627694Y-2557420D02*
X18627694Y-2507848D01*
X18578122Y-2507848D01*
X18578122Y-2557420D01*
X18627694Y-2557420D01*
X19643694Y-2557420D02*
X19643694Y-2507848D01*
X19594122Y-2507848D01*
X19594122Y-2557420D01*
X19643694Y-2557420D01*
X26181050Y-11349350D02*
X26221050Y-11309350D01*
X26181050Y-11269350D01*
X26141050Y-11309350D01*
X26181050Y-11349350D01*
X26181050Y-11603350D02*
X26221050Y-11563350D01*
X26181050Y-11523350D01*
X26141050Y-11563350D01*
X26181050Y-11603350D01*
X26181050Y-11895450D02*
X26221050Y-11855450D01*
X26181050Y-11815450D01*
X26141050Y-11855450D01*
X26181050Y-11895450D01*
X26181050Y-12149450D02*
X26221050Y-12109450D01*
X26181050Y-12069450D01*
X26141050Y-12109450D01*
X26181050Y-12149450D01*
X26308050Y-11476350D02*
X26348050Y-11436350D01*
X26308050Y-11396350D01*
X26268050Y-11436350D01*
X26308050Y-11476350D01*
X26308050Y-12022450D02*
X26348050Y-11982450D01*
X26308050Y-11942450D01*
X26268050Y-11982450D01*
X26308050Y-12022450D01*
X20778851Y-12405995D02*
X20858861Y-12486005D01*
X20858861Y-12405995D02*
X20778851Y-12486005D01*
X20858861Y-12446000D02*
G75*
G03X20858861Y-12446000I-40005J0D01*
G01*
X21267039Y-12405995D02*
X21347049Y-12486005D01*
X21347049Y-12405995D02*
X21267039Y-12486005D01*
X21347049Y-12446000D02*
G75*
G03X21347049Y-12446000I-40005J0D01*
G01*
X26186850Y-10732550D02*
X26276850Y-10822550D01*
X26276850Y-10732550D02*
X26186850Y-10822550D01*
X26231850Y-10732550D02*
X26231850Y-10822550D01*
X26186850Y-10777550D02*
X26276850Y-10777550D01*
X26186850Y-10932550D02*
X26276850Y-11022550D01*
X26276850Y-10932550D02*
X26186850Y-11022550D01*
X26231850Y-10932550D02*
X26231850Y-11022550D01*
X26186850Y-10977550D02*
X26276850Y-10977550D01*
X22403600Y-14497850D02*
X22503600Y-14597850D01*
X22503600Y-14497850D02*
X22403600Y-14597850D01*
X22488956Y-14583206D02*
X22488956Y-14512494D01*
X22418244Y-14512494D01*
X22418244Y-14583206D01*
X22488956Y-14583206D01*
X26029450Y-9627400D02*
X26129450Y-9727400D01*
X26129450Y-9627400D02*
X26029450Y-9727400D01*
X26114806Y-9712756D02*
X26114806Y-9642044D01*
X26044094Y-9642044D01*
X26044094Y-9712756D01*
X26114806Y-9712756D01*
X26283450Y-9627400D02*
X26383450Y-9727400D01*
X26383450Y-9627400D02*
X26283450Y-9727400D01*
X26368806Y-9712756D02*
X26368806Y-9642044D01*
X26298094Y-9642044D01*
X26298094Y-9712756D01*
X26368806Y-9712756D01*
X14146450Y-13503650D02*
X14248050Y-13605250D01*
X14248050Y-13503650D02*
X14146450Y-13605250D01*
X14197250Y-13605250D02*
X14248050Y-13554450D01*
X14197250Y-13503650D01*
X14146450Y-13554450D01*
X14197250Y-13605250D01*
X14146450Y-13757650D02*
X14248050Y-13859250D01*
X14248050Y-13757650D02*
X14146450Y-13859250D01*
X14197250Y-13859250D02*
X14248050Y-13808450D01*
X14197250Y-13757650D01*
X14146450Y-13808450D01*
X14197250Y-13859250D01*
X14279800Y-12386050D02*
X14381400Y-12487650D01*
X14381400Y-12386050D02*
X14279800Y-12487650D01*
X14330600Y-12487650D02*
X14381400Y-12436850D01*
X14330600Y-12386050D01*
X14279800Y-12436850D01*
X14330600Y-12487650D01*
X14311550Y-10722350D02*
X14413150Y-10823950D01*
X14413150Y-10722350D02*
X14311550Y-10823950D01*
X14362350Y-10823950D02*
X14413150Y-10773150D01*
X14362350Y-10722350D01*
X14311550Y-10773150D01*
X14362350Y-10823950D01*
X14311550Y-10976350D02*
X14413150Y-11077950D01*
X14413150Y-10976350D02*
X14311550Y-11077950D01*
X14362350Y-11077950D02*
X14413150Y-11027150D01*
X14362350Y-10976350D01*
X14311550Y-11027150D01*
X14362350Y-11077950D01*
X14362350Y-9814300D02*
X14463950Y-9915900D01*
X14463950Y-9814300D02*
X14362350Y-9915900D01*
X14413150Y-9915900D02*
X14463950Y-9865100D01*
X14413150Y-9814300D01*
X14362350Y-9865100D01*
X14413150Y-9915900D01*
X14533800Y-12386050D02*
X14635400Y-12487650D01*
X14635400Y-12386050D02*
X14533800Y-12487650D01*
X14584600Y-12487650D02*
X14635400Y-12436850D01*
X14584600Y-12386050D01*
X14533800Y-12436850D01*
X14584600Y-12487650D01*
X14616350Y-9814300D02*
X14717950Y-9915900D01*
X14717950Y-9814300D02*
X14616350Y-9915900D01*
X14667150Y-9915900D02*
X14717950Y-9865100D01*
X14667150Y-9814300D01*
X14616350Y-9865100D01*
X14667150Y-9915900D01*
X14679850Y-10722350D02*
X14781450Y-10823950D01*
X14781450Y-10722350D02*
X14679850Y-10823950D01*
X14730650Y-10823950D02*
X14781450Y-10773150D01*
X14730650Y-10722350D01*
X14679850Y-10773150D01*
X14730650Y-10823950D01*
X14679850Y-10976350D02*
X14781450Y-11077950D01*
X14781450Y-10976350D02*
X14679850Y-11077950D01*
X14730650Y-11077950D02*
X14781450Y-11027150D01*
X14730650Y-10976350D01*
X14679850Y-11027150D01*
X14730650Y-11077950D01*
X15111650Y-14633950D02*
X15213250Y-14735550D01*
X15213250Y-14633950D02*
X15111650Y-14735550D01*
X15162450Y-14735550D02*
X15213250Y-14684750D01*
X15162450Y-14633950D01*
X15111650Y-14684750D01*
X15162450Y-14735550D01*
X15248810Y-14887950D02*
X15350410Y-14989550D01*
X15350410Y-14887950D02*
X15248810Y-14989550D01*
X15299610Y-14989550D02*
X15350410Y-14938750D01*
X15299610Y-14887950D01*
X15248810Y-14938750D01*
X15299610Y-14989550D01*
X15253600Y-7800350D02*
X15355200Y-7901950D01*
X15355200Y-7800350D02*
X15253600Y-7901950D01*
X15304400Y-7901950D02*
X15355200Y-7851150D01*
X15304400Y-7800350D01*
X15253600Y-7851150D01*
X15304400Y-7901950D01*
X15253600Y-8054350D02*
X15355200Y-8155950D01*
X15355200Y-8054350D02*
X15253600Y-8155950D01*
X15304400Y-8155950D02*
X15355200Y-8105150D01*
X15304400Y-8054350D01*
X15253600Y-8105150D01*
X15304400Y-8155950D01*
X15253600Y-8308350D02*
X15355200Y-8409950D01*
X15355200Y-8308350D02*
X15253600Y-8409950D01*
X15304400Y-8409950D02*
X15355200Y-8359150D01*
X15304400Y-8308350D01*
X15253600Y-8359150D01*
X15304400Y-8409950D01*
X15253600Y-8562350D02*
X15355200Y-8663950D01*
X15355200Y-8562350D02*
X15253600Y-8663950D01*
X15304400Y-8663950D02*
X15355200Y-8613150D01*
X15304400Y-8562350D01*
X15253600Y-8613150D01*
X15304400Y-8663950D01*
X15253600Y-8816350D02*
X15355200Y-8917950D01*
X15355200Y-8816350D02*
X15253600Y-8917950D01*
X15304400Y-8917950D02*
X15355200Y-8867150D01*
X15304400Y-8816350D01*
X15253600Y-8867150D01*
X15304400Y-8917950D01*
X15257350Y-4301600D02*
X15358950Y-4403200D01*
X15358950Y-4301600D02*
X15257350Y-4403200D01*
X15308150Y-4403200D02*
X15358950Y-4352400D01*
X15308150Y-4301600D01*
X15257350Y-4352400D01*
X15308150Y-4403200D01*
X15257350Y-4555600D02*
X15358950Y-4657200D01*
X15358950Y-4555600D02*
X15257350Y-4657200D01*
X15308150Y-4657200D02*
X15358950Y-4606400D01*
X15308150Y-4555600D01*
X15257350Y-4606400D01*
X15308150Y-4657200D01*
X15257350Y-4809600D02*
X15358950Y-4911200D01*
X15358950Y-4809600D02*
X15257350Y-4911200D01*
X15308150Y-4911200D02*
X15358950Y-4860400D01*
X15308150Y-4809600D01*
X15257350Y-4860400D01*
X15308150Y-4911200D01*
X15257350Y-5063600D02*
X15358950Y-5165200D01*
X15358950Y-5063600D02*
X15257350Y-5165200D01*
X15308150Y-5165200D02*
X15358950Y-5114400D01*
X15308150Y-5063600D01*
X15257350Y-5114400D01*
X15308150Y-5165200D01*
X15257350Y-5317600D02*
X15358950Y-5419200D01*
X15358950Y-5317600D02*
X15257350Y-5419200D01*
X15308150Y-5419200D02*
X15358950Y-5368400D01*
X15308150Y-5317600D01*
X15257350Y-5368400D01*
X15308150Y-5419200D01*
X15340250Y-9858750D02*
X15441850Y-9960350D01*
X15441850Y-9858750D02*
X15340250Y-9960350D01*
X15391050Y-9960350D02*
X15441850Y-9909550D01*
X15391050Y-9858750D01*
X15340250Y-9909550D01*
X15391050Y-9960350D01*
X15340250Y-10112750D02*
X15441850Y-10214350D01*
X15441850Y-10112750D02*
X15340250Y-10214350D01*
X15391050Y-10214350D02*
X15441850Y-10163550D01*
X15391050Y-10112750D01*
X15340250Y-10163550D01*
X15391050Y-10214350D01*
X15391050Y-14633950D02*
X15492650Y-14735550D01*
X15492650Y-14633950D02*
X15391050Y-14735550D01*
X15441850Y-14735550D02*
X15492650Y-14684750D01*
X15441850Y-14633950D01*
X15391050Y-14684750D01*
X15441850Y-14735550D01*
X15523130Y-14887950D02*
X15624730Y-14989550D01*
X15624730Y-14887950D02*
X15523130Y-14989550D01*
X15573930Y-14989550D02*
X15624730Y-14938750D01*
X15573930Y-14887950D01*
X15523130Y-14938750D01*
X15573930Y-14989550D01*
X15594250Y-9858750D02*
X15695850Y-9960350D01*
X15695850Y-9858750D02*
X15594250Y-9960350D01*
X15645050Y-9960350D02*
X15695850Y-9909550D01*
X15645050Y-9858750D01*
X15594250Y-9909550D01*
X15645050Y-9960350D01*
X15594250Y-10112750D02*
X15695850Y-10214350D01*
X15695850Y-10112750D02*
X15594250Y-10214350D01*
X15645050Y-10214350D02*
X15695850Y-10163550D01*
X15645050Y-10112750D01*
X15594250Y-10163550D01*
X15645050Y-10214350D01*
X15657750Y-14633950D02*
X15759350Y-14735550D01*
X15759350Y-14633950D02*
X15657750Y-14735550D01*
X15708550Y-14735550D02*
X15759350Y-14684750D01*
X15708550Y-14633950D01*
X15657750Y-14684750D01*
X15708550Y-14735550D01*
X15802530Y-14887950D02*
X15904130Y-14989550D01*
X15904130Y-14887950D02*
X15802530Y-14989550D01*
X15853330Y-14989550D02*
X15904130Y-14938750D01*
X15853330Y-14887950D01*
X15802530Y-14938750D01*
X15853330Y-14989550D01*
X15848250Y-9858750D02*
X15949850Y-9960350D01*
X15949850Y-9858750D02*
X15848250Y-9960350D01*
X15899050Y-9960350D02*
X15949850Y-9909550D01*
X15899050Y-9858750D01*
X15848250Y-9909550D01*
X15899050Y-9960350D01*
X15848250Y-10112750D02*
X15949850Y-10214350D01*
X15949850Y-10112750D02*
X15848250Y-10214350D01*
X15899050Y-10214350D02*
X15949850Y-10163550D01*
X15899050Y-10112750D01*
X15848250Y-10163550D01*
X15899050Y-10214350D01*
X15937150Y-14633950D02*
X16038750Y-14735550D01*
X16038750Y-14633950D02*
X15937150Y-14735550D01*
X15987950Y-14735550D02*
X16038750Y-14684750D01*
X15987950Y-14633950D01*
X15937150Y-14684750D01*
X15987950Y-14735550D01*
X16076850Y-14887950D02*
X16178450Y-14989550D01*
X16178450Y-14887950D02*
X16076850Y-14989550D01*
X16127650Y-14989550D02*
X16178450Y-14938750D01*
X16127650Y-14887950D01*
X16076850Y-14938750D01*
X16127650Y-14989550D01*
X16102250Y-9858750D02*
X16203850Y-9960350D01*
X16203850Y-9858750D02*
X16102250Y-9960350D01*
X16153050Y-9960350D02*
X16203850Y-9909550D01*
X16153050Y-9858750D01*
X16102250Y-9909550D01*
X16153050Y-9960350D01*
X16102250Y-10112750D02*
X16203850Y-10214350D01*
X16203850Y-10112750D02*
X16102250Y-10214350D01*
X16153050Y-10214350D02*
X16203850Y-10163550D01*
X16153050Y-10112750D01*
X16102250Y-10163550D01*
X16153050Y-10214350D01*
X16216550Y-14633950D02*
X16318150Y-14735550D01*
X16318150Y-14633950D02*
X16216550Y-14735550D01*
X16267350Y-14735550D02*
X16318150Y-14684750D01*
X16267350Y-14633950D01*
X16216550Y-14684750D01*
X16267350Y-14735550D01*
X16351170Y-14887950D02*
X16452770Y-14989550D01*
X16452770Y-14887950D02*
X16351170Y-14989550D01*
X16401970Y-14989550D02*
X16452770Y-14938750D01*
X16401970Y-14887950D01*
X16351170Y-14938750D01*
X16401970Y-14989550D01*
X16356250Y-9858750D02*
X16457850Y-9960350D01*
X16457850Y-9858750D02*
X16356250Y-9960350D01*
X16407050Y-9960350D02*
X16457850Y-9909550D01*
X16407050Y-9858750D01*
X16356250Y-9909550D01*
X16407050Y-9960350D01*
X16356250Y-10112750D02*
X16457850Y-10214350D01*
X16457850Y-10112750D02*
X16356250Y-10214350D01*
X16407050Y-10214350D02*
X16457850Y-10163550D01*
X16407050Y-10112750D01*
X16356250Y-10163550D01*
X16407050Y-10214350D01*
X16495950Y-14633950D02*
X16597550Y-14735550D01*
X16597550Y-14633950D02*
X16495950Y-14735550D01*
X16546750Y-14735550D02*
X16597550Y-14684750D01*
X16546750Y-14633950D01*
X16495950Y-14684750D01*
X16546750Y-14735550D01*
X16610250Y-9858750D02*
X16711850Y-9960350D01*
X16711850Y-9858750D02*
X16610250Y-9960350D01*
X16661050Y-9960350D02*
X16711850Y-9909550D01*
X16661050Y-9858750D01*
X16610250Y-9909550D01*
X16661050Y-9960350D01*
X16610250Y-10112750D02*
X16711850Y-10214350D01*
X16711850Y-10112750D02*
X16610250Y-10214350D01*
X16661050Y-10214350D02*
X16711850Y-10163550D01*
X16661050Y-10112750D01*
X16610250Y-10163550D01*
X16661050Y-10214350D01*
X16630570Y-14887950D02*
X16732170Y-14989550D01*
X16732170Y-14887950D02*
X16630570Y-14989550D01*
X16681370Y-14989550D02*
X16732170Y-14938750D01*
X16681370Y-14887950D01*
X16630570Y-14938750D01*
X16681370Y-14989550D01*
X16682350Y-6727200D02*
X16783950Y-6828800D01*
X16783950Y-6727200D02*
X16682350Y-6828800D01*
X16733150Y-6828800D02*
X16783950Y-6778000D01*
X16733150Y-6727200D01*
X16682350Y-6778000D01*
X16733150Y-6828800D01*
X16682350Y-6981200D02*
X16783950Y-7082800D01*
X16783950Y-6981200D02*
X16682350Y-7082800D01*
X16733150Y-7082800D02*
X16783950Y-7032000D01*
X16733150Y-6981200D01*
X16682350Y-7032000D01*
X16733150Y-7082800D01*
X16682350Y-7235200D02*
X16783950Y-7336800D01*
X16783950Y-7235200D02*
X16682350Y-7336800D01*
X16733150Y-7336800D02*
X16783950Y-7286000D01*
X16733150Y-7235200D01*
X16682350Y-7286000D01*
X16733150Y-7336800D01*
X16686100Y-3228450D02*
X16787700Y-3330050D01*
X16787700Y-3228450D02*
X16686100Y-3330050D01*
X16736900Y-3330050D02*
X16787700Y-3279250D01*
X16736900Y-3228450D01*
X16686100Y-3279250D01*
X16736900Y-3330050D01*
X16686100Y-3482450D02*
X16787700Y-3584050D01*
X16787700Y-3482450D02*
X16686100Y-3584050D01*
X16736900Y-3584050D02*
X16787700Y-3533250D01*
X16736900Y-3482450D01*
X16686100Y-3533250D01*
X16736900Y-3584050D01*
X16686100Y-3736450D02*
X16787700Y-3838050D01*
X16787700Y-3736450D02*
X16686100Y-3838050D01*
X16736900Y-3838050D02*
X16787700Y-3787250D01*
X16736900Y-3736450D01*
X16686100Y-3787250D01*
X16736900Y-3838050D01*
X16762650Y-14633950D02*
X16864250Y-14735550D01*
X16864250Y-14633950D02*
X16762650Y-14735550D01*
X16813450Y-14735550D02*
X16864250Y-14684750D01*
X16813450Y-14633950D01*
X16762650Y-14684750D01*
X16813450Y-14735550D01*
X16864250Y-9858750D02*
X16965850Y-9960350D01*
X16965850Y-9858750D02*
X16864250Y-9960350D01*
X16915050Y-9960350D02*
X16965850Y-9909550D01*
X16915050Y-9858750D01*
X16864250Y-9909550D01*
X16915050Y-9960350D01*
X16864250Y-10112750D02*
X16965850Y-10214350D01*
X16965850Y-10112750D02*
X16864250Y-10214350D01*
X16915050Y-10214350D02*
X16965850Y-10163550D01*
X16915050Y-10112750D01*
X16864250Y-10163550D01*
X16915050Y-10214350D01*
X16884570Y-14887950D02*
X16986170Y-14989550D01*
X16986170Y-14887950D02*
X16884570Y-14989550D01*
X16935370Y-14989550D02*
X16986170Y-14938750D01*
X16935370Y-14887950D01*
X16884570Y-14938750D01*
X16935370Y-14989550D01*
X17042050Y-14633950D02*
X17143650Y-14735550D01*
X17143650Y-14633950D02*
X17042050Y-14735550D01*
X17092850Y-14735550D02*
X17143650Y-14684750D01*
X17092850Y-14633950D01*
X17042050Y-14684750D01*
X17092850Y-14735550D01*
X17118250Y-9858750D02*
X17219850Y-9960350D01*
X17219850Y-9858750D02*
X17118250Y-9960350D01*
X17169050Y-9960350D02*
X17219850Y-9909550D01*
X17169050Y-9858750D01*
X17118250Y-9909550D01*
X17169050Y-9960350D01*
X17118250Y-10112750D02*
X17219850Y-10214350D01*
X17219850Y-10112750D02*
X17118250Y-10214350D01*
X17169050Y-10214350D02*
X17219850Y-10163550D01*
X17169050Y-10112750D01*
X17118250Y-10163550D01*
X17169050Y-10214350D01*
X17842150Y-11763750D02*
X17943750Y-11865350D01*
X17943750Y-11763750D02*
X17842150Y-11865350D01*
X17892950Y-11865350D02*
X17943750Y-11814550D01*
X17892950Y-11763750D01*
X17842150Y-11814550D01*
X17892950Y-11865350D01*
X17842150Y-12017750D02*
X17943750Y-12119350D01*
X17943750Y-12017750D02*
X17842150Y-12119350D01*
X17892950Y-12119350D02*
X17943750Y-12068550D01*
X17892950Y-12017750D01*
X17842150Y-12068550D01*
X17892950Y-12119350D01*
X18738850Y-3530600D02*
X18840450Y-3632200D01*
X18840450Y-3530600D02*
X18738850Y-3632200D01*
X18789650Y-3632200D02*
X18840450Y-3581400D01*
X18789650Y-3530600D01*
X18738850Y-3581400D01*
X18789650Y-3632200D01*
X18738850Y-3784600D02*
X18840450Y-3886200D01*
X18840450Y-3784600D02*
X18738850Y-3886200D01*
X18789650Y-3886200D02*
X18840450Y-3835400D01*
X18789650Y-3784600D01*
X18738850Y-3835400D01*
X18789650Y-3886200D01*
X18738850Y-4038600D02*
X18840450Y-4140200D01*
X18840450Y-4038600D02*
X18738850Y-4140200D01*
X18789650Y-4140200D02*
X18840450Y-4089400D01*
X18789650Y-4038600D01*
X18738850Y-4089400D01*
X18789650Y-4140200D01*
X18992850Y-3530600D02*
X19094450Y-3632200D01*
X19094450Y-3530600D02*
X18992850Y-3632200D01*
X19043650Y-3632200D02*
X19094450Y-3581400D01*
X19043650Y-3530600D01*
X18992850Y-3581400D01*
X19043650Y-3632200D01*
X18992850Y-3784600D02*
X19094450Y-3886200D01*
X19094450Y-3784600D02*
X18992850Y-3886200D01*
X19043650Y-3886200D02*
X19094450Y-3835400D01*
X19043650Y-3784600D01*
X18992850Y-3835400D01*
X19043650Y-3886200D01*
X18992850Y-4038600D02*
X19094450Y-4140200D01*
X19094450Y-4038600D02*
X18992850Y-4140200D01*
X19043650Y-4140200D02*
X19094450Y-4089400D01*
X19043650Y-4038600D01*
X18992850Y-4089400D01*
X19043650Y-4140200D01*
X19512280Y-2801620D02*
X19613880Y-2903220D01*
X19613880Y-2801620D02*
X19512280Y-2903220D01*
X19563080Y-2903220D02*
X19613880Y-2852420D01*
X19563080Y-2801620D01*
X19512280Y-2852420D01*
X19563080Y-2903220D01*
X19512280Y-3055620D02*
X19613880Y-3157220D01*
X19613880Y-3055620D02*
X19512280Y-3157220D01*
X19563080Y-3157220D02*
X19613880Y-3106420D01*
X19563080Y-3055620D01*
X19512280Y-3106420D01*
X19563080Y-3157220D01*
X19992000Y-14694150D02*
X20093600Y-14795750D01*
X20093600Y-14694150D02*
X19992000Y-14795750D01*
X20042800Y-14795750D02*
X20093600Y-14744950D01*
X20042800Y-14694150D01*
X19992000Y-14744950D01*
X20042800Y-14795750D01*
X19992000Y-14948150D02*
X20093600Y-15049750D01*
X20093600Y-14948150D02*
X19992000Y-15049750D01*
X20042800Y-15049750D02*
X20093600Y-14998950D01*
X20042800Y-14948150D01*
X19992000Y-14998950D01*
X20042800Y-15049750D01*
X20043140Y-8224520D02*
X20144740Y-8326120D01*
X20144740Y-8224520D02*
X20043140Y-8326120D01*
X20093940Y-8326120D02*
X20144740Y-8275320D01*
X20093940Y-8224520D01*
X20043140Y-8275320D01*
X20093940Y-8326120D01*
X20043140Y-8478520D02*
X20144740Y-8580120D01*
X20144740Y-8478520D02*
X20043140Y-8580120D01*
X20093940Y-8580120D02*
X20144740Y-8529320D01*
X20093940Y-8478520D01*
X20043140Y-8529320D01*
X20093940Y-8580120D01*
X20352000Y-14694150D02*
X20453600Y-14795750D01*
X20453600Y-14694150D02*
X20352000Y-14795750D01*
X20402800Y-14795750D02*
X20453600Y-14744950D01*
X20402800Y-14694150D01*
X20352000Y-14744950D01*
X20402800Y-14795750D01*
X20352000Y-14948150D02*
X20453600Y-15049750D01*
X20453600Y-14948150D02*
X20352000Y-15049750D01*
X20402800Y-15049750D02*
X20453600Y-14998950D01*
X20402800Y-14948150D01*
X20352000Y-14998950D01*
X20402800Y-15049750D01*
X20403820Y-8224520D02*
X20505420Y-8326120D01*
X20505420Y-8224520D02*
X20403820Y-8326120D01*
X20454620Y-8326120D02*
X20505420Y-8275320D01*
X20454620Y-8224520D01*
X20403820Y-8275320D01*
X20454620Y-8326120D01*
X20403820Y-8478520D02*
X20505420Y-8580120D01*
X20505420Y-8478520D02*
X20403820Y-8580120D01*
X20454620Y-8580120D02*
X20505420Y-8529320D01*
X20454620Y-8478520D01*
X20403820Y-8529320D01*
X20454620Y-8580120D01*
X20535900Y-2559050D02*
X20637500Y-2660650D01*
X20637500Y-2559050D02*
X20535900Y-2660650D01*
X20586700Y-2660650D02*
X20637500Y-2609850D01*
X20586700Y-2559050D01*
X20535900Y-2609850D01*
X20586700Y-2660650D01*
X20580350Y-9785350D02*
X20681950Y-9886950D01*
X20681950Y-9785350D02*
X20580350Y-9886950D01*
X20631150Y-9886950D02*
X20681950Y-9836150D01*
X20631150Y-9785350D01*
X20580350Y-9836150D01*
X20631150Y-9886950D01*
X20593050Y-10541000D02*
X20694650Y-10642600D01*
X20694650Y-10541000D02*
X20593050Y-10642600D01*
X20643850Y-10642600D02*
X20694650Y-10591800D01*
X20643850Y-10541000D01*
X20593050Y-10591800D01*
X20643850Y-10642600D01*
X20593050Y-10795000D02*
X20694650Y-10896600D01*
X20694650Y-10795000D02*
X20593050Y-10896600D01*
X20643850Y-10896600D02*
X20694650Y-10845800D01*
X20643850Y-10795000D01*
X20593050Y-10845800D01*
X20643850Y-10896600D01*
X20712000Y-14694150D02*
X20813600Y-14795750D01*
X20813600Y-14694150D02*
X20712000Y-14795750D01*
X20762800Y-14795750D02*
X20813600Y-14744950D01*
X20762800Y-14694150D01*
X20712000Y-14744950D01*
X20762800Y-14795750D01*
X20712000Y-14948150D02*
X20813600Y-15049750D01*
X20813600Y-14948150D02*
X20712000Y-15049750D01*
X20762800Y-15049750D02*
X20813600Y-14998950D01*
X20762800Y-14948150D01*
X20712000Y-14998950D01*
X20762800Y-15049750D01*
X20764500Y-8224520D02*
X20866100Y-8326120D01*
X20866100Y-8224520D02*
X20764500Y-8326120D01*
X20815300Y-8326120D02*
X20866100Y-8275320D01*
X20815300Y-8224520D01*
X20764500Y-8275320D01*
X20815300Y-8326120D01*
X20764500Y-8478520D02*
X20866100Y-8580120D01*
X20866100Y-8478520D02*
X20764500Y-8580120D01*
X20815300Y-8580120D02*
X20866100Y-8529320D01*
X20815300Y-8478520D01*
X20764500Y-8529320D01*
X20815300Y-8580120D01*
X20789900Y-2559050D02*
X20891500Y-2660650D01*
X20891500Y-2559050D02*
X20789900Y-2660650D01*
X20840700Y-2660650D02*
X20891500Y-2609850D01*
X20840700Y-2559050D01*
X20789900Y-2609850D01*
X20840700Y-2660650D01*
X20834350Y-9785350D02*
X20935950Y-9886950D01*
X20935950Y-9785350D02*
X20834350Y-9886950D01*
X20885150Y-9886950D02*
X20935950Y-9836150D01*
X20885150Y-9785350D01*
X20834350Y-9836150D01*
X20885150Y-9886950D01*
X20847050Y-10541000D02*
X20948650Y-10642600D01*
X20948650Y-10541000D02*
X20847050Y-10642600D01*
X20897850Y-10642600D02*
X20948650Y-10591800D01*
X20897850Y-10541000D01*
X20847050Y-10591800D01*
X20897850Y-10642600D01*
X20847050Y-10795000D02*
X20948650Y-10896600D01*
X20948650Y-10795000D02*
X20847050Y-10896600D01*
X20897850Y-10896600D02*
X20948650Y-10845800D01*
X20897850Y-10795000D01*
X20847050Y-10845800D01*
X20897850Y-10896600D01*
X21043900Y-2559050D02*
X21145500Y-2660650D01*
X21145500Y-2559050D02*
X21043900Y-2660650D01*
X21094700Y-2660650D02*
X21145500Y-2609850D01*
X21094700Y-2559050D01*
X21043900Y-2609850D01*
X21094700Y-2660650D01*
X21088350Y-9785350D02*
X21189950Y-9886950D01*
X21189950Y-9785350D02*
X21088350Y-9886950D01*
X21139150Y-9886950D02*
X21189950Y-9836150D01*
X21139150Y-9785350D01*
X21088350Y-9836150D01*
X21139150Y-9886950D01*
X21101050Y-10541000D02*
X21202650Y-10642600D01*
X21202650Y-10541000D02*
X21101050Y-10642600D01*
X21151850Y-10642600D02*
X21202650Y-10591800D01*
X21151850Y-10541000D01*
X21101050Y-10591800D01*
X21151850Y-10642600D01*
X21101050Y-10795000D02*
X21202650Y-10896600D01*
X21202650Y-10795000D02*
X21101050Y-10896600D01*
X21151850Y-10896600D02*
X21202650Y-10845800D01*
X21151850Y-10795000D01*
X21101050Y-10845800D01*
X21151850Y-10896600D01*
X21297900Y-2559050D02*
X21399500Y-2660650D01*
X21399500Y-2559050D02*
X21297900Y-2660650D01*
X21348700Y-2660650D02*
X21399500Y-2609850D01*
X21348700Y-2559050D01*
X21297900Y-2609850D01*
X21348700Y-2660650D01*
X21342350Y-9785350D02*
X21443950Y-9886950D01*
X21443950Y-9785350D02*
X21342350Y-9886950D01*
X21393150Y-9886950D02*
X21443950Y-9836150D01*
X21393150Y-9785350D01*
X21342350Y-9836150D01*
X21393150Y-9886950D01*
X21355050Y-10541000D02*
X21456650Y-10642600D01*
X21456650Y-10541000D02*
X21355050Y-10642600D01*
X21405850Y-10642600D02*
X21456650Y-10591800D01*
X21405850Y-10541000D01*
X21355050Y-10591800D01*
X21405850Y-10642600D01*
X21355050Y-10795000D02*
X21456650Y-10896600D01*
X21456650Y-10795000D02*
X21355050Y-10896600D01*
X21405850Y-10896600D02*
X21456650Y-10845800D01*
X21405850Y-10795000D01*
X21355050Y-10845800D01*
X21405850Y-10896600D01*
X21551900Y-2559050D02*
X21653500Y-2660650D01*
X21653500Y-2559050D02*
X21551900Y-2660650D01*
X21602700Y-2660650D02*
X21653500Y-2609850D01*
X21602700Y-2559050D01*
X21551900Y-2609850D01*
X21602700Y-2660650D01*
X21596350Y-9785350D02*
X21697950Y-9886950D01*
X21697950Y-9785350D02*
X21596350Y-9886950D01*
X21647150Y-9886950D02*
X21697950Y-9836150D01*
X21647150Y-9785350D01*
X21596350Y-9836150D01*
X21647150Y-9886950D01*
X21609050Y-10541000D02*
X21710650Y-10642600D01*
X21710650Y-10541000D02*
X21609050Y-10642600D01*
X21659850Y-10642600D02*
X21710650Y-10591800D01*
X21659850Y-10541000D01*
X21609050Y-10591800D01*
X21659850Y-10642600D01*
X21609050Y-10795000D02*
X21710650Y-10896600D01*
X21710650Y-10795000D02*
X21609050Y-10896600D01*
X21659850Y-10896600D02*
X21710650Y-10845800D01*
X21659850Y-10795000D01*
X21609050Y-10845800D01*
X21659850Y-10896600D01*
X21786850Y-8001000D02*
X21888450Y-8102600D01*
X21888450Y-8001000D02*
X21786850Y-8102600D01*
X21837650Y-8102600D02*
X21888450Y-8051800D01*
X21837650Y-8001000D01*
X21786850Y-8051800D01*
X21837650Y-8102600D01*
X21805900Y-2559050D02*
X21907500Y-2660650D01*
X21907500Y-2559050D02*
X21805900Y-2660650D01*
X21856700Y-2660650D02*
X21907500Y-2609850D01*
X21856700Y-2559050D01*
X21805900Y-2609850D01*
X21856700Y-2660650D01*
X21805900Y-14249400D02*
X21907500Y-14351000D01*
X21907500Y-14249400D02*
X21805900Y-14351000D01*
X21856700Y-14351000D02*
X21907500Y-14300200D01*
X21856700Y-14249400D01*
X21805900Y-14300200D01*
X21856700Y-14351000D01*
X21850350Y-9785350D02*
X21951950Y-9886950D01*
X21951950Y-9785350D02*
X21850350Y-9886950D01*
X21901150Y-9886950D02*
X21951950Y-9836150D01*
X21901150Y-9785350D01*
X21850350Y-9836150D01*
X21901150Y-9886950D01*
X22040850Y-8001000D02*
X22142450Y-8102600D01*
X22142450Y-8001000D02*
X22040850Y-8102600D01*
X22091650Y-8102600D02*
X22142450Y-8051800D01*
X22091650Y-8001000D01*
X22040850Y-8051800D01*
X22091650Y-8102600D01*
X22059900Y-2559050D02*
X22161500Y-2660650D01*
X22161500Y-2559050D02*
X22059900Y-2660650D01*
X22110700Y-2660650D02*
X22161500Y-2609850D01*
X22110700Y-2559050D01*
X22059900Y-2609850D01*
X22110700Y-2660650D01*
X22059900Y-14249400D02*
X22161500Y-14351000D01*
X22161500Y-14249400D02*
X22059900Y-14351000D01*
X22110700Y-14351000D02*
X22161500Y-14300200D01*
X22110700Y-14249400D01*
X22059900Y-14300200D01*
X22110700Y-14351000D01*
X22104350Y-9785350D02*
X22205950Y-9886950D01*
X22205950Y-9785350D02*
X22104350Y-9886950D01*
X22155150Y-9886950D02*
X22205950Y-9836150D01*
X22155150Y-9785350D01*
X22104350Y-9836150D01*
X22155150Y-9886950D01*
X22136100Y-2997200D02*
X22237700Y-3098800D01*
X22237700Y-2997200D02*
X22136100Y-3098800D01*
X22186900Y-3098800D02*
X22237700Y-3048000D01*
X22186900Y-2997200D01*
X22136100Y-3048000D01*
X22186900Y-3098800D01*
X22313900Y-2559050D02*
X22415500Y-2660650D01*
X22415500Y-2559050D02*
X22313900Y-2660650D01*
X22364700Y-2660650D02*
X22415500Y-2609850D01*
X22364700Y-2559050D01*
X22313900Y-2609850D01*
X22364700Y-2660650D01*
X22358350Y-9785350D02*
X22459950Y-9886950D01*
X22459950Y-9785350D02*
X22358350Y-9886950D01*
X22409150Y-9886950D02*
X22459950Y-9836150D01*
X22409150Y-9785350D01*
X22358350Y-9836150D01*
X22409150Y-9886950D01*
X22383750Y-5854700D02*
X22485350Y-5956300D01*
X22485350Y-5854700D02*
X22383750Y-5956300D01*
X22434550Y-5956300D02*
X22485350Y-5905500D01*
X22434550Y-5854700D01*
X22383750Y-5905500D01*
X22434550Y-5956300D01*
X22383750Y-6108700D02*
X22485350Y-6210300D01*
X22485350Y-6108700D02*
X22383750Y-6210300D01*
X22434550Y-6210300D02*
X22485350Y-6159500D01*
X22434550Y-6108700D01*
X22383750Y-6159500D01*
X22434550Y-6210300D01*
X22390100Y-2997200D02*
X22491700Y-3098800D01*
X22491700Y-2997200D02*
X22390100Y-3098800D01*
X22440900Y-3098800D02*
X22491700Y-3048000D01*
X22440900Y-2997200D01*
X22390100Y-3048000D01*
X22440900Y-3098800D01*
X22567900Y-2559050D02*
X22669500Y-2660650D01*
X22669500Y-2559050D02*
X22567900Y-2660650D01*
X22618700Y-2660650D02*
X22669500Y-2609850D01*
X22618700Y-2559050D01*
X22567900Y-2609850D01*
X22618700Y-2660650D01*
X22612350Y-9785350D02*
X22713950Y-9886950D01*
X22713950Y-9785350D02*
X22612350Y-9886950D01*
X22663150Y-9886950D02*
X22713950Y-9836150D01*
X22663150Y-9785350D01*
X22612350Y-9836150D01*
X22663150Y-9886950D01*
X22821900Y-2559050D02*
X22923500Y-2660650D01*
X22923500Y-2559050D02*
X22821900Y-2660650D01*
X22872700Y-2660650D02*
X22923500Y-2609850D01*
X22872700Y-2559050D01*
X22821900Y-2609850D01*
X22872700Y-2660650D01*
X22821900Y-10858500D02*
X22923500Y-10960100D01*
X22923500Y-10858500D02*
X22821900Y-10960100D01*
X22872700Y-10960100D02*
X22923500Y-10909300D01*
X22872700Y-10858500D01*
X22821900Y-10909300D01*
X22872700Y-10960100D01*
X22821900Y-11112500D02*
X22923500Y-11214100D01*
X22923500Y-11112500D02*
X22821900Y-11214100D01*
X22872700Y-11214100D02*
X22923500Y-11163300D01*
X22872700Y-11112500D01*
X22821900Y-11163300D01*
X22872700Y-11214100D01*
X22866350Y-9785350D02*
X22967950Y-9886950D01*
X22967950Y-9785350D02*
X22866350Y-9886950D01*
X22917150Y-9886950D02*
X22967950Y-9836150D01*
X22917150Y-9785350D01*
X22866350Y-9836150D01*
X22917150Y-9886950D01*
X22987000Y-8743950D02*
X23088600Y-8845550D01*
X23088600Y-8743950D02*
X22987000Y-8845550D01*
X23037800Y-8845550D02*
X23088600Y-8794750D01*
X23037800Y-8743950D01*
X22987000Y-8794750D01*
X23037800Y-8845550D01*
X22987000Y-8997950D02*
X23088600Y-9099550D01*
X23088600Y-8997950D02*
X22987000Y-9099550D01*
X23037800Y-9099550D02*
X23088600Y-9048750D01*
X23037800Y-8997950D01*
X22987000Y-9048750D01*
X23037800Y-9099550D01*
X23075900Y-10858500D02*
X23177500Y-10960100D01*
X23177500Y-10858500D02*
X23075900Y-10960100D01*
X23126700Y-10960100D02*
X23177500Y-10909300D01*
X23126700Y-10858500D01*
X23075900Y-10909300D01*
X23126700Y-10960100D01*
X23075900Y-11112500D02*
X23177500Y-11214100D01*
X23177500Y-11112500D02*
X23075900Y-11214100D01*
X23126700Y-11214100D02*
X23177500Y-11163300D01*
X23126700Y-11112500D01*
X23075900Y-11163300D01*
X23126700Y-11214100D01*
X23241000Y-8743950D02*
X23342600Y-8845550D01*
X23342600Y-8743950D02*
X23241000Y-8845550D01*
X23291800Y-8845550D02*
X23342600Y-8794750D01*
X23291800Y-8743950D01*
X23241000Y-8794750D01*
X23291800Y-8845550D01*
X23241000Y-8997950D02*
X23342600Y-9099550D01*
X23342600Y-8997950D02*
X23241000Y-9099550D01*
X23291800Y-9099550D02*
X23342600Y-9048750D01*
X23291800Y-8997950D01*
X23241000Y-9048750D01*
X23291800Y-9099550D01*
X23304500Y-14300200D02*
X23406100Y-14401800D01*
X23406100Y-14300200D02*
X23304500Y-14401800D01*
X23355300Y-14401800D02*
X23406100Y-14351000D01*
X23355300Y-14300200D01*
X23304500Y-14351000D01*
X23355300Y-14401800D01*
X23304500Y-14554200D02*
X23406100Y-14655800D01*
X23406100Y-14554200D02*
X23304500Y-14655800D01*
X23355300Y-14655800D02*
X23406100Y-14605000D01*
X23355300Y-14554200D01*
X23304500Y-14605000D01*
X23355300Y-14655800D01*
X23329900Y-5657850D02*
X23431500Y-5759450D01*
X23431500Y-5657850D02*
X23329900Y-5759450D01*
X23380700Y-5759450D02*
X23431500Y-5708650D01*
X23380700Y-5657850D01*
X23329900Y-5708650D01*
X23380700Y-5759450D01*
X23329900Y-10858500D02*
X23431500Y-10960100D01*
X23431500Y-10858500D02*
X23329900Y-10960100D01*
X23380700Y-10960100D02*
X23431500Y-10909300D01*
X23380700Y-10858500D01*
X23329900Y-10909300D01*
X23380700Y-10960100D01*
X23329900Y-11112500D02*
X23431500Y-11214100D01*
X23431500Y-11112500D02*
X23329900Y-11214100D01*
X23380700Y-11214100D02*
X23431500Y-11163300D01*
X23380700Y-11112500D01*
X23329900Y-11163300D01*
X23380700Y-11214100D01*
X23495000Y-8743950D02*
X23596600Y-8845550D01*
X23596600Y-8743950D02*
X23495000Y-8845550D01*
X23545800Y-8845550D02*
X23596600Y-8794750D01*
X23545800Y-8743950D01*
X23495000Y-8794750D01*
X23545800Y-8845550D01*
X23495000Y-8997950D02*
X23596600Y-9099550D01*
X23596600Y-8997950D02*
X23495000Y-9099550D01*
X23545800Y-9099550D02*
X23596600Y-9048750D01*
X23545800Y-8997950D01*
X23495000Y-9048750D01*
X23545800Y-9099550D01*
X23558500Y-14300200D02*
X23660100Y-14401800D01*
X23660100Y-14300200D02*
X23558500Y-14401800D01*
X23609300Y-14401800D02*
X23660100Y-14351000D01*
X23609300Y-14300200D01*
X23558500Y-14351000D01*
X23609300Y-14401800D01*
X23558500Y-14554200D02*
X23660100Y-14655800D01*
X23660100Y-14554200D02*
X23558500Y-14655800D01*
X23609300Y-14655800D02*
X23660100Y-14605000D01*
X23609300Y-14554200D01*
X23558500Y-14605000D01*
X23609300Y-14655800D01*
X23583900Y-5657850D02*
X23685500Y-5759450D01*
X23685500Y-5657850D02*
X23583900Y-5759450D01*
X23634700Y-5759450D02*
X23685500Y-5708650D01*
X23634700Y-5657850D01*
X23583900Y-5708650D01*
X23634700Y-5759450D01*
X23583900Y-10858500D02*
X23685500Y-10960100D01*
X23685500Y-10858500D02*
X23583900Y-10960100D01*
X23634700Y-10960100D02*
X23685500Y-10909300D01*
X23634700Y-10858500D01*
X23583900Y-10909300D01*
X23634700Y-10960100D01*
X23583900Y-11112500D02*
X23685500Y-11214100D01*
X23685500Y-11112500D02*
X23583900Y-11214100D01*
X23634700Y-11214100D02*
X23685500Y-11163300D01*
X23634700Y-11112500D01*
X23583900Y-11163300D01*
X23634700Y-11214100D01*
X23812500Y-14300200D02*
X23914100Y-14401800D01*
X23914100Y-14300200D02*
X23812500Y-14401800D01*
X23863300Y-14401800D02*
X23914100Y-14351000D01*
X23863300Y-14300200D01*
X23812500Y-14351000D01*
X23863300Y-14401800D01*
X23812500Y-14554200D02*
X23914100Y-14655800D01*
X23914100Y-14554200D02*
X23812500Y-14655800D01*
X23863300Y-14655800D02*
X23914100Y-14605000D01*
X23863300Y-14554200D01*
X23812500Y-14605000D01*
X23863300Y-14655800D01*
X23837900Y-5657850D02*
X23939500Y-5759450D01*
X23939500Y-5657850D02*
X23837900Y-5759450D01*
X23888700Y-5759450D02*
X23939500Y-5708650D01*
X23888700Y-5657850D01*
X23837900Y-5708650D01*
X23888700Y-5759450D01*
X23837900Y-10858500D02*
X23939500Y-10960100D01*
X23939500Y-10858500D02*
X23837900Y-10960100D01*
X23888700Y-10960100D02*
X23939500Y-10909300D01*
X23888700Y-10858500D01*
X23837900Y-10909300D01*
X23888700Y-10960100D01*
X23837900Y-11112500D02*
X23939500Y-11214100D01*
X23939500Y-11112500D02*
X23837900Y-11214100D01*
X23888700Y-11214100D02*
X23939500Y-11163300D01*
X23888700Y-11112500D01*
X23837900Y-11163300D01*
X23888700Y-11214100D01*
X24066500Y-14300200D02*
X24168100Y-14401800D01*
X24168100Y-14300200D02*
X24066500Y-14401800D01*
X24117300Y-14401800D02*
X24168100Y-14351000D01*
X24117300Y-14300200D01*
X24066500Y-14351000D01*
X24117300Y-14401800D01*
X24066500Y-14554200D02*
X24168100Y-14655800D01*
X24168100Y-14554200D02*
X24066500Y-14655800D01*
X24117300Y-14655800D02*
X24168100Y-14605000D01*
X24117300Y-14554200D01*
X24066500Y-14605000D01*
X24117300Y-14655800D01*
X24091900Y-5657850D02*
X24193500Y-5759450D01*
X24193500Y-5657850D02*
X24091900Y-5759450D01*
X24142700Y-5759450D02*
X24193500Y-5708650D01*
X24142700Y-5657850D01*
X24091900Y-5708650D01*
X24142700Y-5759450D01*
X24320500Y-14300200D02*
X24422100Y-14401800D01*
X24422100Y-14300200D02*
X24320500Y-14401800D01*
X24371300Y-14401800D02*
X24422100Y-14351000D01*
X24371300Y-14300200D01*
X24320500Y-14351000D01*
X24371300Y-14401800D01*
X24320500Y-14554200D02*
X24422100Y-14655800D01*
X24422100Y-14554200D02*
X24320500Y-14655800D01*
X24371300Y-14655800D02*
X24422100Y-14605000D01*
X24371300Y-14554200D01*
X24320500Y-14605000D01*
X24371300Y-14655800D01*
X24345900Y-5657850D02*
X24447500Y-5759450D01*
X24447500Y-5657850D02*
X24345900Y-5759450D01*
X24396700Y-5759450D02*
X24447500Y-5708650D01*
X24396700Y-5657850D01*
X24345900Y-5708650D01*
X24396700Y-5759450D01*
X24599900Y-5657850D02*
X24701500Y-5759450D01*
X24701500Y-5657850D02*
X24599900Y-5759450D01*
X24650700Y-5759450D02*
X24701500Y-5708650D01*
X24650700Y-5657850D01*
X24599900Y-5708650D01*
X24650700Y-5759450D01*
X24853900Y-5657850D02*
X24955500Y-5759450D01*
X24955500Y-5657850D02*
X24853900Y-5759450D01*
X24904700Y-5759450D02*
X24955500Y-5708650D01*
X24904700Y-5657850D01*
X24853900Y-5708650D01*
X24904700Y-5759450D01*
X25107900Y-5657850D02*
X25209500Y-5759450D01*
X25209500Y-5657850D02*
X25107900Y-5759450D01*
X25158700Y-5759450D02*
X25209500Y-5708650D01*
X25158700Y-5657850D01*
X25107900Y-5708650D01*
X25158700Y-5759450D01*
X25253950Y-12782550D02*
X25355550Y-12884150D01*
X25355550Y-12782550D02*
X25253950Y-12884150D01*
X25304750Y-12884150D02*
X25355550Y-12833350D01*
X25304750Y-12782550D01*
X25253950Y-12833350D01*
X25304750Y-12884150D01*
X25323800Y-14712950D02*
X25425400Y-14814550D01*
X25425400Y-14712950D02*
X25323800Y-14814550D01*
X25374600Y-14814550D02*
X25425400Y-14763750D01*
X25374600Y-14712950D01*
X25323800Y-14763750D01*
X25374600Y-14814550D01*
X25323800Y-14966950D02*
X25425400Y-15068550D01*
X25425400Y-14966950D02*
X25323800Y-15068550D01*
X25374600Y-15068550D02*
X25425400Y-15017750D01*
X25374600Y-14966950D01*
X25323800Y-15017750D01*
X25374600Y-15068550D01*
X25361900Y-5657850D02*
X25463500Y-5759450D01*
X25463500Y-5657850D02*
X25361900Y-5759450D01*
X25412700Y-5759450D02*
X25463500Y-5708650D01*
X25412700Y-5657850D01*
X25361900Y-5708650D01*
X25412700Y-5759450D01*
X25507950Y-12782550D02*
X25609550Y-12884150D01*
X25609550Y-12782550D02*
X25507950Y-12884150D01*
X25558750Y-12884150D02*
X25609550Y-12833350D01*
X25558750Y-12782550D01*
X25507950Y-12833350D01*
X25558750Y-12884150D01*
X25577800Y-14712950D02*
X25679400Y-14814550D01*
X25679400Y-14712950D02*
X25577800Y-14814550D01*
X25628600Y-14814550D02*
X25679400Y-14763750D01*
X25628600Y-14712950D01*
X25577800Y-14763750D01*
X25628600Y-14814550D01*
X25577800Y-14966950D02*
X25679400Y-15068550D01*
X25679400Y-14966950D02*
X25577800Y-15068550D01*
X25628600Y-15068550D02*
X25679400Y-15017750D01*
X25628600Y-14966950D01*
X25577800Y-15017750D01*
X25628600Y-15068550D01*
X25615900Y-5657850D02*
X25717500Y-5759450D01*
X25717500Y-5657850D02*
X25615900Y-5759450D01*
X25666700Y-5759450D02*
X25717500Y-5708650D01*
X25666700Y-5657850D01*
X25615900Y-5708650D01*
X25666700Y-5759450D01*
X25742900Y-13227050D02*
X25844500Y-13328650D01*
X25844500Y-13227050D02*
X25742900Y-13328650D01*
X25793700Y-13328650D02*
X25844500Y-13277850D01*
X25793700Y-13227050D01*
X25742900Y-13277850D01*
X25793700Y-13328650D01*
X25742900Y-13481050D02*
X25844500Y-13582650D01*
X25844500Y-13481050D02*
X25742900Y-13582650D01*
X25793700Y-13582650D02*
X25844500Y-13531850D01*
X25793700Y-13481050D01*
X25742900Y-13531850D01*
X25793700Y-13582650D01*
X25742900Y-13735050D02*
X25844500Y-13836650D01*
X25844500Y-13735050D02*
X25742900Y-13836650D01*
X25793700Y-13836650D02*
X25844500Y-13785850D01*
X25793700Y-13735050D01*
X25742900Y-13785850D01*
X25793700Y-13836650D01*
X25913900Y-8205600D02*
X26015500Y-8307200D01*
X26015500Y-8205600D02*
X25913900Y-8307200D01*
X25964700Y-8307200D02*
X26015500Y-8256400D01*
X25964700Y-8205600D01*
X25913900Y-8256400D01*
X25964700Y-8307200D01*
X25913900Y-8459600D02*
X26015500Y-8561200D01*
X26015500Y-8459600D02*
X25913900Y-8561200D01*
X25964700Y-8561200D02*
X26015500Y-8510400D01*
X25964700Y-8459600D01*
X25913900Y-8510400D01*
X25964700Y-8561200D01*
X25996900Y-13227050D02*
X26098500Y-13328650D01*
X26098500Y-13227050D02*
X25996900Y-13328650D01*
X26047700Y-13328650D02*
X26098500Y-13277850D01*
X26047700Y-13227050D01*
X25996900Y-13277850D01*
X26047700Y-13328650D01*
X25996900Y-13481050D02*
X26098500Y-13582650D01*
X26098500Y-13481050D02*
X25996900Y-13582650D01*
X26047700Y-13582650D02*
X26098500Y-13531850D01*
X26047700Y-13481050D01*
X25996900Y-13531850D01*
X26047700Y-13582650D01*
X25996900Y-13735050D02*
X26098500Y-13836650D01*
X26098500Y-13735050D02*
X25996900Y-13836650D01*
X26047700Y-13836650D02*
X26098500Y-13785850D01*
X26047700Y-13735050D01*
X25996900Y-13785850D01*
X26047700Y-13836650D01*
X26167900Y-8205600D02*
X26269500Y-8307200D01*
X26269500Y-8205600D02*
X26167900Y-8307200D01*
X26218700Y-8307200D02*
X26269500Y-8256400D01*
X26218700Y-8205600D01*
X26167900Y-8256400D01*
X26218700Y-8307200D01*
X26167900Y-8459600D02*
X26269500Y-8561200D01*
X26269500Y-8459600D02*
X26167900Y-8561200D01*
X26218700Y-8561200D02*
X26269500Y-8510400D01*
X26218700Y-8459600D01*
X26167900Y-8510400D01*
X26218700Y-8561200D01*
X22453600Y-14865350D02*
X22453600Y-14992350D01*
X22390100Y-14928850D02*
X22517100Y-14928850D01*
X22517100Y-14928850D02*
G75*
G03X22517100Y-14928850I-63500J0D01*
G01*
X14559014Y-15021114D02*
X14559014Y-14805586D01*
X14343486Y-14805586D01*
X14343486Y-15021114D01*
X14559014Y-15021114D01*
X14603650Y-14913350D02*
G75*
G03X14603650Y-14913350I-152400J0D01*
G01*
X17911814Y-15046514D02*
X17911814Y-14830986D01*
X17696286Y-14830986D01*
X17696286Y-15046514D01*
X17911814Y-15046514D01*
X17956450Y-14938750D02*
G75*
G03X17956450Y-14938750I-152400J0D01*
G01*
D13*
X14186428Y-15890714D02*
X14186428Y-15590714D01*
X14257857Y-15590714D01*
X14300714Y-15605000D01*
X14329286Y-15633571D01*
X14343571Y-15662143D01*
X14357857Y-15719286D01*
X14357857Y-15762143D01*
X14343571Y-15819286D01*
X14329286Y-15847857D01*
X14300714Y-15876429D01*
X14257857Y-15890714D01*
X14186428Y-15890714D01*
X14486428Y-15890714D02*
X14486428Y-15690714D01*
X14486428Y-15747857D02*
X14500714Y-15719286D01*
X14515000Y-15705000D01*
X14543571Y-15690714D01*
X14572143Y-15690714D01*
X14672143Y-15890714D02*
X14672143Y-15690714D01*
X14672143Y-15590714D02*
X14657857Y-15605000D01*
X14672143Y-15619286D01*
X14686428Y-15605000D01*
X14672143Y-15590714D01*
X14672143Y-15619286D01*
X14857857Y-15890714D02*
X14829286Y-15876429D01*
X14815000Y-15847857D01*
X14815000Y-15590714D01*
X15015000Y-15890714D02*
X14986428Y-15876429D01*
X14972143Y-15847857D01*
X14972143Y-15590714D01*
X15357857Y-15890714D02*
X15357857Y-15590714D01*
X15457857Y-15805000D01*
X15557857Y-15590714D01*
X15557857Y-15890714D01*
X15829286Y-15890714D02*
X15829286Y-15733571D01*
X15815000Y-15705000D01*
X15786428Y-15690714D01*
X15729286Y-15690714D01*
X15700714Y-15705000D01*
X15829286Y-15876429D02*
X15800714Y-15890714D01*
X15729286Y-15890714D01*
X15700714Y-15876429D01*
X15686428Y-15847857D01*
X15686428Y-15819286D01*
X15700714Y-15790714D01*
X15729286Y-15776429D01*
X15800714Y-15776429D01*
X15829286Y-15762143D01*
X15972143Y-15690714D02*
X15972143Y-15990714D01*
X15972143Y-15705000D02*
X16000714Y-15690714D01*
X16057857Y-15690714D01*
X16086428Y-15705000D01*
X16100714Y-15719286D01*
X16115000Y-15747857D01*
X16115000Y-15833571D01*
X16100714Y-15862143D01*
X16086428Y-15876429D01*
X16057857Y-15890714D01*
X16000714Y-15890714D01*
X15972143Y-15876429D01*
X16243571Y-15862143D02*
X16257857Y-15876429D01*
X16243571Y-15890714D01*
X16229286Y-15876429D01*
X16243571Y-15862143D01*
X16243571Y-15890714D01*
X16243571Y-15705000D02*
X16257857Y-15719286D01*
X16243571Y-15733571D01*
X16229286Y-15719286D01*
X16243571Y-15705000D01*
X16243571Y-15733571D01*
X13876900Y-16365950D02*
X13915000Y-16404050D01*
X13915000Y-16365950D02*
X13876900Y-16404050D01*
X14243571Y-16220714D02*
X14272143Y-16220714D01*
X14300714Y-16235000D01*
X14315000Y-16249286D01*
X14329286Y-16277857D01*
X14343571Y-16335000D01*
X14343571Y-16406429D01*
X14329286Y-16463571D01*
X14315000Y-16492143D01*
X14300714Y-16506429D01*
X14272143Y-16520714D01*
X14243571Y-16520714D01*
X14215000Y-16506429D01*
X14200714Y-16492143D01*
X14186428Y-16463571D01*
X14172143Y-16406429D01*
X14172143Y-16335000D01*
X14186428Y-16277857D01*
X14200714Y-16249286D01*
X14215000Y-16235000D01*
X14243571Y-16220714D01*
X14472143Y-16492143D02*
X14486428Y-16506429D01*
X14472143Y-16520714D01*
X14457857Y-16506429D01*
X14472143Y-16492143D01*
X14472143Y-16520714D01*
X14586428Y-16220714D02*
X14772143Y-16220714D01*
X14672143Y-16335000D01*
X14715000Y-16335000D01*
X14743571Y-16349286D01*
X14757857Y-16363571D01*
X14772143Y-16392143D01*
X14772143Y-16463571D01*
X14757857Y-16492143D01*
X14743571Y-16506429D01*
X14715000Y-16520714D01*
X14629286Y-16520714D01*
X14600714Y-16506429D01*
X14586428Y-16492143D01*
X14943571Y-16349286D02*
X14915000Y-16335000D01*
X14900714Y-16320714D01*
X14886428Y-16292143D01*
X14886428Y-16277857D01*
X14900714Y-16249286D01*
X14915000Y-16235000D01*
X14943571Y-16220714D01*
X15000714Y-16220714D01*
X15029286Y-16235000D01*
X15043571Y-16249286D01*
X15057857Y-16277857D01*
X15057857Y-16292143D01*
X15043571Y-16320714D01*
X15029286Y-16335000D01*
X15000714Y-16349286D01*
X14943571Y-16349286D01*
X14915000Y-16363571D01*
X14900714Y-16377857D01*
X14886428Y-16406429D01*
X14886428Y-16463571D01*
X14900714Y-16492143D01*
X14915000Y-16506429D01*
X14943571Y-16520714D01*
X15000714Y-16520714D01*
X15029286Y-16506429D01*
X15043571Y-16492143D01*
X15057857Y-16463571D01*
X15057857Y-16406429D01*
X15043571Y-16377857D01*
X15029286Y-16363571D01*
X15000714Y-16349286D01*
X15186428Y-16520714D02*
X15186428Y-16320714D01*
X15186428Y-16349286D02*
X15200714Y-16335000D01*
X15229286Y-16320714D01*
X15272143Y-16320714D01*
X15300714Y-16335000D01*
X15315000Y-16363571D01*
X15315000Y-16520714D01*
X15315000Y-16363571D02*
X15329286Y-16335000D01*
X15357857Y-16320714D01*
X15400714Y-16320714D01*
X15429286Y-16335000D01*
X15443571Y-16363571D01*
X15443571Y-16520714D01*
X15586428Y-16520714D02*
X15586428Y-16320714D01*
X15586428Y-16349286D02*
X15600714Y-16335000D01*
X15629286Y-16320714D01*
X15672143Y-16320714D01*
X15700714Y-16335000D01*
X15715000Y-16363571D01*
X15715000Y-16520714D01*
X15715000Y-16363571D02*
X15729286Y-16335000D01*
X15757857Y-16320714D01*
X15800714Y-16320714D01*
X15829286Y-16335000D01*
X15843571Y-16363571D01*
X15843571Y-16520714D01*
X16429286Y-16206429D02*
X16172143Y-16592143D01*
X16815000Y-16220714D02*
X16843571Y-16220714D01*
X16872143Y-16235000D01*
X16886428Y-16249286D01*
X16900714Y-16277857D01*
X16915000Y-16335000D01*
X16915000Y-16406429D01*
X16900714Y-16463571D01*
X16886428Y-16492143D01*
X16872143Y-16506429D01*
X16843571Y-16520714D01*
X16815000Y-16520714D01*
X16786428Y-16506429D01*
X16772143Y-16492143D01*
X16757857Y-16463571D01*
X16743571Y-16406429D01*
X16743571Y-16335000D01*
X16757857Y-16277857D01*
X16772143Y-16249286D01*
X16786428Y-16235000D01*
X16815000Y-16220714D01*
X17043571Y-16492143D02*
X17057857Y-16506429D01*
X17043571Y-16520714D01*
X17029286Y-16506429D01*
X17043571Y-16492143D01*
X17043571Y-16520714D01*
X17243571Y-16220714D02*
X17272143Y-16220714D01*
X17300714Y-16235000D01*
X17315000Y-16249286D01*
X17329286Y-16277857D01*
X17343571Y-16335000D01*
X17343571Y-16406429D01*
X17329286Y-16463571D01*
X17315000Y-16492143D01*
X17300714Y-16506429D01*
X17272143Y-16520714D01*
X17243571Y-16520714D01*
X17215000Y-16506429D01*
X17200714Y-16492143D01*
X17186428Y-16463571D01*
X17172143Y-16406429D01*
X17172143Y-16335000D01*
X17186428Y-16277857D01*
X17200714Y-16249286D01*
X17215000Y-16235000D01*
X17243571Y-16220714D01*
X17629286Y-16520714D02*
X17457857Y-16520714D01*
X17543571Y-16520714D02*
X17543571Y-16220714D01*
X17515000Y-16263571D01*
X17486428Y-16292143D01*
X17457857Y-16306429D01*
X17900714Y-16220714D02*
X17757857Y-16220714D01*
X17743571Y-16363571D01*
X17757857Y-16349286D01*
X17786428Y-16335000D01*
X17857857Y-16335000D01*
X17886428Y-16349286D01*
X17900714Y-16363571D01*
X17915000Y-16392143D01*
X17915000Y-16463571D01*
X17900714Y-16492143D01*
X17886428Y-16506429D01*
X17857857Y-16520714D01*
X17786428Y-16520714D01*
X17757857Y-16506429D01*
X17743571Y-16492143D01*
X18029286Y-16220714D02*
X18029286Y-16277857D01*
X18143571Y-16220714D02*
X18143571Y-16277857D01*
X18586428Y-16635000D02*
X18572143Y-16620714D01*
X18543571Y-16577857D01*
X18529286Y-16549286D01*
X18515000Y-16506429D01*
X18500714Y-16435000D01*
X18500714Y-16377857D01*
X18515000Y-16306429D01*
X18529286Y-16263571D01*
X18543571Y-16235000D01*
X18572143Y-16192143D01*
X18586428Y-16177857D01*
X18829286Y-16320714D02*
X18829286Y-16520714D01*
X18757857Y-16206429D02*
X18686428Y-16420714D01*
X18872143Y-16420714D01*
X18972143Y-16249286D02*
X18986428Y-16235000D01*
X19015000Y-16220714D01*
X19086428Y-16220714D01*
X19115000Y-16235000D01*
X19129286Y-16249286D01*
X19143571Y-16277857D01*
X19143571Y-16306429D01*
X19129286Y-16349286D01*
X18957857Y-16520714D01*
X19143571Y-16520714D01*
X19500714Y-16520714D02*
X19500714Y-16220714D01*
X19629286Y-16520714D02*
X19629286Y-16363571D01*
X19615000Y-16335000D01*
X19586428Y-16320714D01*
X19543571Y-16320714D01*
X19515000Y-16335000D01*
X19500714Y-16349286D01*
X19815000Y-16520714D02*
X19786428Y-16506429D01*
X19772143Y-16492143D01*
X19757857Y-16463571D01*
X19757857Y-16377857D01*
X19772143Y-16349286D01*
X19786428Y-16335000D01*
X19815000Y-16320714D01*
X19857857Y-16320714D01*
X19886428Y-16335000D01*
X19900714Y-16349286D01*
X19915000Y-16377857D01*
X19915000Y-16463571D01*
X19900714Y-16492143D01*
X19886428Y-16506429D01*
X19857857Y-16520714D01*
X19815000Y-16520714D01*
X20086428Y-16520714D02*
X20057857Y-16506429D01*
X20043571Y-16477857D01*
X20043571Y-16220714D01*
X20315000Y-16506429D02*
X20286429Y-16520714D01*
X20229286Y-16520714D01*
X20200714Y-16506429D01*
X20186429Y-16477857D01*
X20186429Y-16363571D01*
X20200714Y-16335000D01*
X20229286Y-16320714D01*
X20286429Y-16320714D01*
X20315000Y-16335000D01*
X20329286Y-16363571D01*
X20329286Y-16392143D01*
X20186429Y-16420714D01*
X20443571Y-16506429D02*
X20472143Y-16520714D01*
X20529286Y-16520714D01*
X20557857Y-16506429D01*
X20572143Y-16477857D01*
X20572143Y-16463571D01*
X20557857Y-16435000D01*
X20529286Y-16420714D01*
X20486429Y-16420714D01*
X20457857Y-16406429D01*
X20443571Y-16377857D01*
X20443571Y-16363571D01*
X20457857Y-16335000D01*
X20486429Y-16320714D01*
X20529286Y-16320714D01*
X20557857Y-16335000D01*
X20672143Y-16635000D02*
X20686429Y-16620714D01*
X20715000Y-16577857D01*
X20729286Y-16549286D01*
X20743571Y-16506429D01*
X20757857Y-16435000D01*
X20757857Y-16377857D01*
X20743571Y-16306429D01*
X20729286Y-16263571D01*
X20715000Y-16235000D01*
X20686429Y-16192143D01*
X20672143Y-16177857D01*
X13915000Y-16781000D02*
G75*
G03X13915000Y-16781000I-20000J0D01*
G01*
X14243571Y-16616714D02*
X14272143Y-16616714D01*
X14300714Y-16631000D01*
X14315000Y-16645286D01*
X14329286Y-16673857D01*
X14343571Y-16731000D01*
X14343571Y-16802429D01*
X14329286Y-16859572D01*
X14315000Y-16888143D01*
X14300714Y-16902429D01*
X14272143Y-16916714D01*
X14243571Y-16916714D01*
X14215000Y-16902429D01*
X14200714Y-16888143D01*
X14186428Y-16859572D01*
X14172143Y-16802429D01*
X14172143Y-16731000D01*
X14186428Y-16673857D01*
X14200714Y-16645286D01*
X14215000Y-16631000D01*
X14243571Y-16616714D01*
X14472143Y-16888143D02*
X14486428Y-16902429D01*
X14472143Y-16916714D01*
X14457857Y-16902429D01*
X14472143Y-16888143D01*
X14472143Y-16916714D01*
X14743571Y-16716714D02*
X14743571Y-16916714D01*
X14672143Y-16602429D02*
X14600714Y-16816714D01*
X14786428Y-16816714D01*
X14957857Y-16616714D02*
X14986428Y-16616714D01*
X15015000Y-16631000D01*
X15029286Y-16645286D01*
X15043571Y-16673857D01*
X15057857Y-16731000D01*
X15057857Y-16802429D01*
X15043571Y-16859572D01*
X15029286Y-16888143D01*
X15015000Y-16902429D01*
X14986428Y-16916714D01*
X14957857Y-16916714D01*
X14929286Y-16902429D01*
X14915000Y-16888143D01*
X14900714Y-16859572D01*
X14886428Y-16802429D01*
X14886428Y-16731000D01*
X14900714Y-16673857D01*
X14915000Y-16645286D01*
X14929286Y-16631000D01*
X14957857Y-16616714D01*
X15186428Y-16916714D02*
X15186428Y-16716714D01*
X15186428Y-16745286D02*
X15200714Y-16731000D01*
X15229286Y-16716714D01*
X15272143Y-16716714D01*
X15300714Y-16731000D01*
X15315000Y-16759571D01*
X15315000Y-16916714D01*
X15315000Y-16759571D02*
X15329286Y-16731000D01*
X15357857Y-16716714D01*
X15400714Y-16716714D01*
X15429286Y-16731000D01*
X15443571Y-16759571D01*
X15443571Y-16916714D01*
X15586428Y-16916714D02*
X15586428Y-16716714D01*
X15586428Y-16745286D02*
X15600714Y-16731000D01*
X15629286Y-16716714D01*
X15672143Y-16716714D01*
X15700714Y-16731000D01*
X15715000Y-16759571D01*
X15715000Y-16916714D01*
X15715000Y-16759571D02*
X15729286Y-16731000D01*
X15757857Y-16716714D01*
X15800714Y-16716714D01*
X15829286Y-16731000D01*
X15843571Y-16759571D01*
X15843571Y-16916714D01*
X16429286Y-16602429D02*
X16172143Y-16988143D01*
X16815000Y-16616714D02*
X16843571Y-16616714D01*
X16872143Y-16631000D01*
X16886428Y-16645286D01*
X16900714Y-16673857D01*
X16915000Y-16731000D01*
X16915000Y-16802429D01*
X16900714Y-16859572D01*
X16886428Y-16888143D01*
X16872143Y-16902429D01*
X16843571Y-16916714D01*
X16815000Y-16916714D01*
X16786428Y-16902429D01*
X16772143Y-16888143D01*
X16757857Y-16859572D01*
X16743571Y-16802429D01*
X16743571Y-16731000D01*
X16757857Y-16673857D01*
X16772143Y-16645286D01*
X16786428Y-16631000D01*
X16815000Y-16616714D01*
X17043571Y-16888143D02*
X17057857Y-16902429D01*
X17043571Y-16916714D01*
X17029286Y-16902429D01*
X17043571Y-16888143D01*
X17043571Y-16916714D01*
X17243571Y-16616714D02*
X17272143Y-16616714D01*
X17300714Y-16631000D01*
X17315000Y-16645286D01*
X17329286Y-16673857D01*
X17343571Y-16731000D01*
X17343571Y-16802429D01*
X17329286Y-16859572D01*
X17315000Y-16888143D01*
X17300714Y-16902429D01*
X17272143Y-16916714D01*
X17243571Y-16916714D01*
X17215000Y-16902429D01*
X17200714Y-16888143D01*
X17186428Y-16859572D01*
X17172143Y-16802429D01*
X17172143Y-16731000D01*
X17186428Y-16673857D01*
X17200714Y-16645286D01*
X17215000Y-16631000D01*
X17243571Y-16616714D01*
X17629286Y-16916714D02*
X17457857Y-16916714D01*
X17543571Y-16916714D02*
X17543571Y-16616714D01*
X17515000Y-16659571D01*
X17486428Y-16688143D01*
X17457857Y-16702429D01*
X17886428Y-16616714D02*
X17829286Y-16616714D01*
X17800714Y-16631000D01*
X17786428Y-16645286D01*
X17757857Y-16688143D01*
X17743571Y-16745286D01*
X17743571Y-16859572D01*
X17757857Y-16888143D01*
X17772143Y-16902429D01*
X17800714Y-16916714D01*
X17857857Y-16916714D01*
X17886428Y-16902429D01*
X17900714Y-16888143D01*
X17915000Y-16859572D01*
X17915000Y-16788143D01*
X17900714Y-16759571D01*
X17886428Y-16745286D01*
X17857857Y-16731000D01*
X17800714Y-16731000D01*
X17772143Y-16745286D01*
X17757857Y-16759571D01*
X17743571Y-16788143D01*
X18029286Y-16616714D02*
X18029286Y-16673857D01*
X18143571Y-16616714D02*
X18143571Y-16673857D01*
X18586428Y-17031000D02*
X18572143Y-17016714D01*
X18543571Y-16973857D01*
X18529286Y-16945286D01*
X18515000Y-16902429D01*
X18500714Y-16831000D01*
X18500714Y-16773857D01*
X18515000Y-16702429D01*
X18529286Y-16659571D01*
X18543571Y-16631000D01*
X18572143Y-16588143D01*
X18586428Y-16573857D01*
X18672143Y-16616714D02*
X18857857Y-16616714D01*
X18757857Y-16731000D01*
X18800714Y-16731000D01*
X18829286Y-16745286D01*
X18843571Y-16759571D01*
X18857857Y-16788143D01*
X18857857Y-16859572D01*
X18843571Y-16888143D01*
X18829286Y-16902429D01*
X18800714Y-16916714D01*
X18715000Y-16916714D01*
X18686428Y-16902429D01*
X18672143Y-16888143D01*
X19043571Y-16616714D02*
X19072143Y-16616714D01*
X19100714Y-16631000D01*
X19115000Y-16645286D01*
X19129286Y-16673857D01*
X19143571Y-16731000D01*
X19143571Y-16802429D01*
X19129286Y-16859572D01*
X19115000Y-16888143D01*
X19100714Y-16902429D01*
X19072143Y-16916714D01*
X19043571Y-16916714D01*
X19015000Y-16902429D01*
X19000714Y-16888143D01*
X18986428Y-16859572D01*
X18972143Y-16802429D01*
X18972143Y-16731000D01*
X18986428Y-16673857D01*
X19000714Y-16645286D01*
X19015000Y-16631000D01*
X19043571Y-16616714D01*
X19243571Y-16616714D02*
X19429286Y-16616714D01*
X19329286Y-16731000D01*
X19372143Y-16731000D01*
X19400714Y-16745286D01*
X19415000Y-16759571D01*
X19429286Y-16788143D01*
X19429286Y-16859572D01*
X19415000Y-16888143D01*
X19400714Y-16902429D01*
X19372143Y-16916714D01*
X19286428Y-16916714D01*
X19257857Y-16902429D01*
X19243571Y-16888143D01*
X19786428Y-16916714D02*
X19786428Y-16616714D01*
X19915000Y-16916714D02*
X19915000Y-16759571D01*
X19900714Y-16731000D01*
X19872143Y-16716714D01*
X19829286Y-16716714D01*
X19800714Y-16731000D01*
X19786428Y-16745286D01*
X20100714Y-16916714D02*
X20072143Y-16902429D01*
X20057857Y-16888143D01*
X20043571Y-16859572D01*
X20043571Y-16773857D01*
X20057857Y-16745286D01*
X20072143Y-16731000D01*
X20100714Y-16716714D01*
X20143571Y-16716714D01*
X20172143Y-16731000D01*
X20186428Y-16745286D01*
X20200714Y-16773857D01*
X20200714Y-16859572D01*
X20186428Y-16888143D01*
X20172143Y-16902429D01*
X20143571Y-16916714D01*
X20100714Y-16916714D01*
X20372143Y-16916714D02*
X20343571Y-16902429D01*
X20329286Y-16873857D01*
X20329286Y-16616714D01*
X20600714Y-16902429D02*
X20572143Y-16916714D01*
X20515000Y-16916714D01*
X20486429Y-16902429D01*
X20472143Y-16873857D01*
X20472143Y-16759571D01*
X20486429Y-16731000D01*
X20515000Y-16716714D01*
X20572143Y-16716714D01*
X20600714Y-16731000D01*
X20615000Y-16759571D01*
X20615000Y-16788143D01*
X20472143Y-16816714D01*
X20729286Y-16902429D02*
X20757857Y-16916714D01*
X20815000Y-16916714D01*
X20843571Y-16902429D01*
X20857857Y-16873857D01*
X20857857Y-16859572D01*
X20843571Y-16831000D01*
X20815000Y-16816714D01*
X20772143Y-16816714D01*
X20743571Y-16802429D01*
X20729286Y-16773857D01*
X20729286Y-16759571D01*
X20743571Y-16731000D01*
X20772143Y-16716714D01*
X20815000Y-16716714D01*
X20843571Y-16731000D01*
X20957857Y-17031000D02*
X20972143Y-17016714D01*
X21000714Y-16973857D01*
X21015000Y-16945286D01*
X21029286Y-16902429D01*
X21043571Y-16831000D01*
X21043571Y-16773857D01*
X21029286Y-16702429D01*
X21015000Y-16659571D01*
X21000714Y-16631000D01*
X20972143Y-16588143D01*
X20957857Y-16573857D01*
X13880000Y-17142000D02*
X13880000Y-17212000D01*
X13845000Y-17177000D02*
X13915000Y-17177000D01*
X14243571Y-17012714D02*
X14272143Y-17012714D01*
X14300714Y-17027000D01*
X14315000Y-17041286D01*
X14329286Y-17069857D01*
X14343571Y-17127000D01*
X14343571Y-17198429D01*
X14329286Y-17255572D01*
X14315000Y-17284143D01*
X14300714Y-17298429D01*
X14272143Y-17312714D01*
X14243571Y-17312714D01*
X14215000Y-17298429D01*
X14200714Y-17284143D01*
X14186428Y-17255572D01*
X14172143Y-17198429D01*
X14172143Y-17127000D01*
X14186428Y-17069857D01*
X14200714Y-17041286D01*
X14215000Y-17027000D01*
X14243571Y-17012714D01*
X14472143Y-17284143D02*
X14486428Y-17298429D01*
X14472143Y-17312714D01*
X14457857Y-17298429D01*
X14472143Y-17284143D01*
X14472143Y-17312714D01*
X14586428Y-17012714D02*
X14786428Y-17012714D01*
X14657857Y-17312714D01*
X14957857Y-17012714D02*
X14986428Y-17012714D01*
X15015000Y-17027000D01*
X15029286Y-17041286D01*
X15043571Y-17069857D01*
X15057857Y-17127000D01*
X15057857Y-17198429D01*
X15043571Y-17255572D01*
X15029286Y-17284143D01*
X15015000Y-17298429D01*
X14986428Y-17312714D01*
X14957857Y-17312714D01*
X14929286Y-17298429D01*
X14915000Y-17284143D01*
X14900714Y-17255572D01*
X14886428Y-17198429D01*
X14886428Y-17127000D01*
X14900714Y-17069857D01*
X14915000Y-17041286D01*
X14929286Y-17027000D01*
X14957857Y-17012714D01*
X15186428Y-17312714D02*
X15186428Y-17112714D01*
X15186428Y-17141286D02*
X15200714Y-17127000D01*
X15229286Y-17112714D01*
X15272143Y-17112714D01*
X15300714Y-17127000D01*
X15315000Y-17155572D01*
X15315000Y-17312714D01*
X15315000Y-17155572D02*
X15329286Y-17127000D01*
X15357857Y-17112714D01*
X15400714Y-17112714D01*
X15429286Y-17127000D01*
X15443571Y-17155572D01*
X15443571Y-17312714D01*
X15586428Y-17312714D02*
X15586428Y-17112714D01*
X15586428Y-17141286D02*
X15600714Y-17127000D01*
X15629286Y-17112714D01*
X15672143Y-17112714D01*
X15700714Y-17127000D01*
X15715000Y-17155572D01*
X15715000Y-17312714D01*
X15715000Y-17155572D02*
X15729286Y-17127000D01*
X15757857Y-17112714D01*
X15800714Y-17112714D01*
X15829286Y-17127000D01*
X15843571Y-17155572D01*
X15843571Y-17312714D01*
X16429286Y-16998429D02*
X16172143Y-17384143D01*
X16815000Y-17012714D02*
X16843571Y-17012714D01*
X16872143Y-17027000D01*
X16886428Y-17041286D01*
X16900714Y-17069857D01*
X16915000Y-17127000D01*
X16915000Y-17198429D01*
X16900714Y-17255572D01*
X16886428Y-17284143D01*
X16872143Y-17298429D01*
X16843571Y-17312714D01*
X16815000Y-17312714D01*
X16786428Y-17298429D01*
X16772143Y-17284143D01*
X16757857Y-17255572D01*
X16743571Y-17198429D01*
X16743571Y-17127000D01*
X16757857Y-17069857D01*
X16772143Y-17041286D01*
X16786428Y-17027000D01*
X16815000Y-17012714D01*
X17043571Y-17284143D02*
X17057857Y-17298429D01*
X17043571Y-17312714D01*
X17029286Y-17298429D01*
X17043571Y-17284143D01*
X17043571Y-17312714D01*
X17243571Y-17012714D02*
X17272143Y-17012714D01*
X17300714Y-17027000D01*
X17315000Y-17041286D01*
X17329286Y-17069857D01*
X17343571Y-17127000D01*
X17343571Y-17198429D01*
X17329286Y-17255572D01*
X17315000Y-17284143D01*
X17300714Y-17298429D01*
X17272143Y-17312714D01*
X17243571Y-17312714D01*
X17215000Y-17298429D01*
X17200714Y-17284143D01*
X17186428Y-17255572D01*
X17172143Y-17198429D01*
X17172143Y-17127000D01*
X17186428Y-17069857D01*
X17200714Y-17041286D01*
X17215000Y-17027000D01*
X17243571Y-17012714D01*
X17457857Y-17041286D02*
X17472143Y-17027000D01*
X17500714Y-17012714D01*
X17572143Y-17012714D01*
X17600714Y-17027000D01*
X17615000Y-17041286D01*
X17629286Y-17069857D01*
X17629286Y-17098429D01*
X17615000Y-17141286D01*
X17443571Y-17312714D01*
X17629286Y-17312714D01*
X17800714Y-17141286D02*
X17772143Y-17127000D01*
X17757857Y-17112714D01*
X17743571Y-17084143D01*
X17743571Y-17069857D01*
X17757857Y-17041286D01*
X17772143Y-17027000D01*
X17800714Y-17012714D01*
X17857857Y-17012714D01*
X17886428Y-17027000D01*
X17900714Y-17041286D01*
X17915000Y-17069857D01*
X17915000Y-17084143D01*
X17900714Y-17112714D01*
X17886428Y-17127000D01*
X17857857Y-17141286D01*
X17800714Y-17141286D01*
X17772143Y-17155572D01*
X17757857Y-17169857D01*
X17743571Y-17198429D01*
X17743571Y-17255572D01*
X17757857Y-17284143D01*
X17772143Y-17298429D01*
X17800714Y-17312714D01*
X17857857Y-17312714D01*
X17886428Y-17298429D01*
X17900714Y-17284143D01*
X17915000Y-17255572D01*
X17915000Y-17198429D01*
X17900714Y-17169857D01*
X17886428Y-17155572D01*
X17857857Y-17141286D01*
X18029286Y-17012714D02*
X18029286Y-17069857D01*
X18143571Y-17012714D02*
X18143571Y-17069857D01*
X18586428Y-17427000D02*
X18572143Y-17412714D01*
X18543571Y-17369857D01*
X18529286Y-17341286D01*
X18515000Y-17298429D01*
X18500714Y-17227000D01*
X18500714Y-17169857D01*
X18515000Y-17098429D01*
X18529286Y-17055572D01*
X18543571Y-17027000D01*
X18572143Y-16984143D01*
X18586428Y-16969857D01*
X18857857Y-17312714D02*
X18686428Y-17312714D01*
X18772143Y-17312714D02*
X18772143Y-17012714D01*
X18743571Y-17055572D01*
X18715000Y-17084143D01*
X18686428Y-17098429D01*
X19000714Y-17312714D02*
X19057857Y-17312714D01*
X19086428Y-17298429D01*
X19100714Y-17284143D01*
X19129286Y-17241286D01*
X19143571Y-17184143D01*
X19143571Y-17069857D01*
X19129286Y-17041286D01*
X19115000Y-17027000D01*
X19086428Y-17012714D01*
X19029286Y-17012714D01*
X19000714Y-17027000D01*
X18986428Y-17041286D01*
X18972143Y-17069857D01*
X18972143Y-17141286D01*
X18986428Y-17169857D01*
X19000714Y-17184143D01*
X19029286Y-17198429D01*
X19086428Y-17198429D01*
X19115000Y-17184143D01*
X19129286Y-17169857D01*
X19143571Y-17141286D01*
X19500714Y-17312714D02*
X19500714Y-17012714D01*
X19629286Y-17312714D02*
X19629286Y-17155572D01*
X19615000Y-17127000D01*
X19586428Y-17112714D01*
X19543571Y-17112714D01*
X19515000Y-17127000D01*
X19500714Y-17141286D01*
X19815000Y-17312714D02*
X19786428Y-17298429D01*
X19772143Y-17284143D01*
X19757857Y-17255572D01*
X19757857Y-17169857D01*
X19772143Y-17141286D01*
X19786428Y-17127000D01*
X19815000Y-17112714D01*
X19857857Y-17112714D01*
X19886428Y-17127000D01*
X19900714Y-17141286D01*
X19915000Y-17169857D01*
X19915000Y-17255572D01*
X19900714Y-17284143D01*
X19886428Y-17298429D01*
X19857857Y-17312714D01*
X19815000Y-17312714D01*
X20086428Y-17312714D02*
X20057857Y-17298429D01*
X20043571Y-17269857D01*
X20043571Y-17012714D01*
X20315000Y-17298429D02*
X20286429Y-17312714D01*
X20229286Y-17312714D01*
X20200714Y-17298429D01*
X20186429Y-17269857D01*
X20186429Y-17155572D01*
X20200714Y-17127000D01*
X20229286Y-17112714D01*
X20286429Y-17112714D01*
X20315000Y-17127000D01*
X20329286Y-17155572D01*
X20329286Y-17184143D01*
X20186429Y-17212714D01*
X20443571Y-17298429D02*
X20472143Y-17312714D01*
X20529286Y-17312714D01*
X20557857Y-17298429D01*
X20572143Y-17269857D01*
X20572143Y-17255572D01*
X20557857Y-17227000D01*
X20529286Y-17212714D01*
X20486429Y-17212714D01*
X20457857Y-17198429D01*
X20443571Y-17169857D01*
X20443571Y-17155572D01*
X20457857Y-17127000D01*
X20486429Y-17112714D01*
X20529286Y-17112714D01*
X20557857Y-17127000D01*
X20672143Y-17427000D02*
X20686429Y-17412714D01*
X20715000Y-17369857D01*
X20729286Y-17341286D01*
X20743571Y-17298429D01*
X20757857Y-17227000D01*
X20757857Y-17169857D01*
X20743571Y-17098429D01*
X20729286Y-17055572D01*
X20715000Y-17027000D01*
X20686429Y-16984143D01*
X20672143Y-16969857D01*
X13904734Y-17597786D02*
X13904734Y-17548214D01*
X13855162Y-17548214D01*
X13855162Y-17597786D01*
X13904734Y-17597786D01*
X14243571Y-17408714D02*
X14272143Y-17408714D01*
X14300714Y-17423000D01*
X14315000Y-17437286D01*
X14329286Y-17465857D01*
X14343571Y-17523000D01*
X14343571Y-17594429D01*
X14329286Y-17651572D01*
X14315000Y-17680143D01*
X14300714Y-17694429D01*
X14272143Y-17708714D01*
X14243571Y-17708714D01*
X14215000Y-17694429D01*
X14200714Y-17680143D01*
X14186428Y-17651572D01*
X14172143Y-17594429D01*
X14172143Y-17523000D01*
X14186428Y-17465857D01*
X14200714Y-17437286D01*
X14215000Y-17423000D01*
X14243571Y-17408714D01*
X14472143Y-17680143D02*
X14486428Y-17694429D01*
X14472143Y-17708714D01*
X14457857Y-17694429D01*
X14472143Y-17680143D01*
X14472143Y-17708714D01*
X14586428Y-17408714D02*
X14786428Y-17408714D01*
X14657857Y-17708714D01*
X14957857Y-17408714D02*
X14986428Y-17408714D01*
X15015000Y-17423000D01*
X15029286Y-17437286D01*
X15043571Y-17465857D01*
X15057857Y-17523000D01*
X15057857Y-17594429D01*
X15043571Y-17651572D01*
X15029286Y-17680143D01*
X15015000Y-17694429D01*
X14986428Y-17708714D01*
X14957857Y-17708714D01*
X14929286Y-17694429D01*
X14915000Y-17680143D01*
X14900714Y-17651572D01*
X14886428Y-17594429D01*
X14886428Y-17523000D01*
X14900714Y-17465857D01*
X14915000Y-17437286D01*
X14929286Y-17423000D01*
X14957857Y-17408714D01*
X15186428Y-17708714D02*
X15186428Y-17508714D01*
X15186428Y-17537286D02*
X15200714Y-17523000D01*
X15229286Y-17508714D01*
X15272143Y-17508714D01*
X15300714Y-17523000D01*
X15315000Y-17551572D01*
X15315000Y-17708714D01*
X15315000Y-17551572D02*
X15329286Y-17523000D01*
X15357857Y-17508714D01*
X15400714Y-17508714D01*
X15429286Y-17523000D01*
X15443571Y-17551572D01*
X15443571Y-17708714D01*
X15586428Y-17708714D02*
X15586428Y-17508714D01*
X15586428Y-17537286D02*
X15600714Y-17523000D01*
X15629286Y-17508714D01*
X15672143Y-17508714D01*
X15700714Y-17523000D01*
X15715000Y-17551572D01*
X15715000Y-17708714D01*
X15715000Y-17551572D02*
X15729286Y-17523000D01*
X15757857Y-17508714D01*
X15800714Y-17508714D01*
X15829286Y-17523000D01*
X15843571Y-17551572D01*
X15843571Y-17708714D01*
X16429286Y-17394429D02*
X16172143Y-17780143D01*
X16815000Y-17408714D02*
X16843571Y-17408714D01*
X16872143Y-17423000D01*
X16886428Y-17437286D01*
X16900714Y-17465857D01*
X16915000Y-17523000D01*
X16915000Y-17594429D01*
X16900714Y-17651572D01*
X16886428Y-17680143D01*
X16872143Y-17694429D01*
X16843571Y-17708714D01*
X16815000Y-17708714D01*
X16786428Y-17694429D01*
X16772143Y-17680143D01*
X16757857Y-17651572D01*
X16743571Y-17594429D01*
X16743571Y-17523000D01*
X16757857Y-17465857D01*
X16772143Y-17437286D01*
X16786428Y-17423000D01*
X16815000Y-17408714D01*
X17043571Y-17680143D02*
X17057857Y-17694429D01*
X17043571Y-17708714D01*
X17029286Y-17694429D01*
X17043571Y-17680143D01*
X17043571Y-17708714D01*
X17243571Y-17408714D02*
X17272143Y-17408714D01*
X17300714Y-17423000D01*
X17315000Y-17437286D01*
X17329286Y-17465857D01*
X17343571Y-17523000D01*
X17343571Y-17594429D01*
X17329286Y-17651572D01*
X17315000Y-17680143D01*
X17300714Y-17694429D01*
X17272143Y-17708714D01*
X17243571Y-17708714D01*
X17215000Y-17694429D01*
X17200714Y-17680143D01*
X17186428Y-17651572D01*
X17172143Y-17594429D01*
X17172143Y-17523000D01*
X17186428Y-17465857D01*
X17200714Y-17437286D01*
X17215000Y-17423000D01*
X17243571Y-17408714D01*
X17457857Y-17437286D02*
X17472143Y-17423000D01*
X17500714Y-17408714D01*
X17572143Y-17408714D01*
X17600714Y-17423000D01*
X17615000Y-17437286D01*
X17629286Y-17465857D01*
X17629286Y-17494429D01*
X17615000Y-17537286D01*
X17443571Y-17708714D01*
X17629286Y-17708714D01*
X17800714Y-17537286D02*
X17772143Y-17523000D01*
X17757857Y-17508714D01*
X17743571Y-17480143D01*
X17743571Y-17465857D01*
X17757857Y-17437286D01*
X17772143Y-17423000D01*
X17800714Y-17408714D01*
X17857857Y-17408714D01*
X17886428Y-17423000D01*
X17900714Y-17437286D01*
X17915000Y-17465857D01*
X17915000Y-17480143D01*
X17900714Y-17508714D01*
X17886428Y-17523000D01*
X17857857Y-17537286D01*
X17800714Y-17537286D01*
X17772143Y-17551572D01*
X17757857Y-17565857D01*
X17743571Y-17594429D01*
X17743571Y-17651572D01*
X17757857Y-17680143D01*
X17772143Y-17694429D01*
X17800714Y-17708714D01*
X17857857Y-17708714D01*
X17886428Y-17694429D01*
X17900714Y-17680143D01*
X17915000Y-17651572D01*
X17915000Y-17594429D01*
X17900714Y-17565857D01*
X17886428Y-17551572D01*
X17857857Y-17537286D01*
X18029286Y-17408714D02*
X18029286Y-17465857D01*
X18143571Y-17408714D02*
X18143571Y-17465857D01*
X18586428Y-17823000D02*
X18572143Y-17808714D01*
X18543571Y-17765857D01*
X18529286Y-17737286D01*
X18515000Y-17694429D01*
X18500714Y-17623000D01*
X18500714Y-17565857D01*
X18515000Y-17494429D01*
X18529286Y-17451572D01*
X18543571Y-17423000D01*
X18572143Y-17380143D01*
X18586428Y-17365857D01*
X18686428Y-17437286D02*
X18700714Y-17423000D01*
X18729286Y-17408714D01*
X18800714Y-17408714D01*
X18829286Y-17423000D01*
X18843571Y-17437286D01*
X18857857Y-17465857D01*
X18857857Y-17494429D01*
X18843571Y-17537286D01*
X18672143Y-17708714D01*
X18857857Y-17708714D01*
X19215000Y-17708714D02*
X19215000Y-17408714D01*
X19343571Y-17708714D02*
X19343571Y-17551572D01*
X19329286Y-17523000D01*
X19300714Y-17508714D01*
X19257857Y-17508714D01*
X19229286Y-17523000D01*
X19215000Y-17537286D01*
X19529286Y-17708714D02*
X19500714Y-17694429D01*
X19486428Y-17680143D01*
X19472143Y-17651572D01*
X19472143Y-17565857D01*
X19486428Y-17537286D01*
X19500714Y-17523000D01*
X19529286Y-17508714D01*
X19572143Y-17508714D01*
X19600714Y-17523000D01*
X19615000Y-17537286D01*
X19629286Y-17565857D01*
X19629286Y-17651572D01*
X19615000Y-17680143D01*
X19600714Y-17694429D01*
X19572143Y-17708714D01*
X19529286Y-17708714D01*
X19800714Y-17708714D02*
X19772143Y-17694429D01*
X19757857Y-17665857D01*
X19757857Y-17408714D01*
X20029286Y-17694429D02*
X20000714Y-17708714D01*
X19943571Y-17708714D01*
X19915000Y-17694429D01*
X19900714Y-17665857D01*
X19900714Y-17551572D01*
X19915000Y-17523000D01*
X19943571Y-17508714D01*
X20000714Y-17508714D01*
X20029286Y-17523000D01*
X20043571Y-17551572D01*
X20043571Y-17580143D01*
X19900714Y-17608714D01*
X20157857Y-17694429D02*
X20186429Y-17708714D01*
X20243571Y-17708714D01*
X20272143Y-17694429D01*
X20286429Y-17665857D01*
X20286429Y-17651572D01*
X20272143Y-17623000D01*
X20243571Y-17608714D01*
X20200714Y-17608714D01*
X20172143Y-17594429D01*
X20157857Y-17565857D01*
X20157857Y-17551572D01*
X20172143Y-17523000D01*
X20200714Y-17508714D01*
X20243571Y-17508714D01*
X20272143Y-17523000D01*
X20386428Y-17823000D02*
X20400714Y-17808714D01*
X20429286Y-17765857D01*
X20443571Y-17737286D01*
X20457857Y-17694429D01*
X20472143Y-17623000D01*
X20472143Y-17565857D01*
X20457857Y-17494429D01*
X20443571Y-17451572D01*
X20429286Y-17423000D01*
X20400714Y-17380143D01*
X20386428Y-17365857D01*
X13875000Y-18009000D02*
X13915000Y-17969000D01*
X13875000Y-17929000D01*
X13835000Y-17969000D01*
X13875000Y-18009000D01*
X14243571Y-17804714D02*
X14272143Y-17804714D01*
X14300714Y-17819000D01*
X14315000Y-17833286D01*
X14329286Y-17861857D01*
X14343571Y-17919000D01*
X14343571Y-17990429D01*
X14329286Y-18047572D01*
X14315000Y-18076143D01*
X14300714Y-18090429D01*
X14272143Y-18104714D01*
X14243571Y-18104714D01*
X14215000Y-18090429D01*
X14200714Y-18076143D01*
X14186428Y-18047572D01*
X14172143Y-17990429D01*
X14172143Y-17919000D01*
X14186428Y-17861857D01*
X14200714Y-17833286D01*
X14215000Y-17819000D01*
X14243571Y-17804714D01*
X14472143Y-18076143D02*
X14486428Y-18090429D01*
X14472143Y-18104714D01*
X14457857Y-18090429D01*
X14472143Y-18076143D01*
X14472143Y-18104714D01*
X14657857Y-17933286D02*
X14629286Y-17919000D01*
X14615000Y-17904714D01*
X14600714Y-17876143D01*
X14600714Y-17861857D01*
X14615000Y-17833286D01*
X14629286Y-17819000D01*
X14657857Y-17804714D01*
X14715000Y-17804714D01*
X14743571Y-17819000D01*
X14757857Y-17833286D01*
X14772143Y-17861857D01*
X14772143Y-17876143D01*
X14757857Y-17904714D01*
X14743571Y-17919000D01*
X14715000Y-17933286D01*
X14657857Y-17933286D01*
X14629286Y-17947572D01*
X14615000Y-17961857D01*
X14600714Y-17990429D01*
X14600714Y-18047572D01*
X14615000Y-18076143D01*
X14629286Y-18090429D01*
X14657857Y-18104714D01*
X14715000Y-18104714D01*
X14743571Y-18090429D01*
X14757857Y-18076143D01*
X14772143Y-18047572D01*
X14772143Y-17990429D01*
X14757857Y-17961857D01*
X14743571Y-17947572D01*
X14715000Y-17933286D01*
X14957857Y-17804714D02*
X14986428Y-17804714D01*
X15015000Y-17819000D01*
X15029286Y-17833286D01*
X15043571Y-17861857D01*
X15057857Y-17919000D01*
X15057857Y-17990429D01*
X15043571Y-18047572D01*
X15029286Y-18076143D01*
X15015000Y-18090429D01*
X14986428Y-18104714D01*
X14957857Y-18104714D01*
X14929286Y-18090429D01*
X14915000Y-18076143D01*
X14900714Y-18047572D01*
X14886428Y-17990429D01*
X14886428Y-17919000D01*
X14900714Y-17861857D01*
X14915000Y-17833286D01*
X14929286Y-17819000D01*
X14957857Y-17804714D01*
X15186428Y-18104714D02*
X15186428Y-17904714D01*
X15186428Y-17933286D02*
X15200714Y-17919000D01*
X15229286Y-17904714D01*
X15272143Y-17904714D01*
X15300714Y-17919000D01*
X15315000Y-17947572D01*
X15315000Y-18104714D01*
X15315000Y-17947572D02*
X15329286Y-17919000D01*
X15357857Y-17904714D01*
X15400714Y-17904714D01*
X15429286Y-17919000D01*
X15443571Y-17947572D01*
X15443571Y-18104714D01*
X15586428Y-18104714D02*
X15586428Y-17904714D01*
X15586428Y-17933286D02*
X15600714Y-17919000D01*
X15629286Y-17904714D01*
X15672143Y-17904714D01*
X15700714Y-17919000D01*
X15715000Y-17947572D01*
X15715000Y-18104714D01*
X15715000Y-17947572D02*
X15729286Y-17919000D01*
X15757857Y-17904714D01*
X15800714Y-17904714D01*
X15829286Y-17919000D01*
X15843571Y-17947572D01*
X15843571Y-18104714D01*
X16429286Y-17790429D02*
X16172143Y-18176143D01*
X16815000Y-17804714D02*
X16843571Y-17804714D01*
X16872143Y-17819000D01*
X16886428Y-17833286D01*
X16900714Y-17861857D01*
X16915000Y-17919000D01*
X16915000Y-17990429D01*
X16900714Y-18047572D01*
X16886428Y-18076143D01*
X16872143Y-18090429D01*
X16843571Y-18104714D01*
X16815000Y-18104714D01*
X16786428Y-18090429D01*
X16772143Y-18076143D01*
X16757857Y-18047572D01*
X16743571Y-17990429D01*
X16743571Y-17919000D01*
X16757857Y-17861857D01*
X16772143Y-17833286D01*
X16786428Y-17819000D01*
X16815000Y-17804714D01*
X17043571Y-18076143D02*
X17057857Y-18090429D01*
X17043571Y-18104714D01*
X17029286Y-18090429D01*
X17043571Y-18076143D01*
X17043571Y-18104714D01*
X17243571Y-17804714D02*
X17272143Y-17804714D01*
X17300714Y-17819000D01*
X17315000Y-17833286D01*
X17329286Y-17861857D01*
X17343571Y-17919000D01*
X17343571Y-17990429D01*
X17329286Y-18047572D01*
X17315000Y-18076143D01*
X17300714Y-18090429D01*
X17272143Y-18104714D01*
X17243571Y-18104714D01*
X17215000Y-18090429D01*
X17200714Y-18076143D01*
X17186428Y-18047572D01*
X17172143Y-17990429D01*
X17172143Y-17919000D01*
X17186428Y-17861857D01*
X17200714Y-17833286D01*
X17215000Y-17819000D01*
X17243571Y-17804714D01*
X17443571Y-17804714D02*
X17629286Y-17804714D01*
X17529286Y-17919000D01*
X17572143Y-17919000D01*
X17600714Y-17933286D01*
X17615000Y-17947572D01*
X17629286Y-17976143D01*
X17629286Y-18047572D01*
X17615000Y-18076143D01*
X17600714Y-18090429D01*
X17572143Y-18104714D01*
X17486428Y-18104714D01*
X17457857Y-18090429D01*
X17443571Y-18076143D01*
X17915000Y-18104714D02*
X17743571Y-18104714D01*
X17829286Y-18104714D02*
X17829286Y-17804714D01*
X17800714Y-17847572D01*
X17772143Y-17876143D01*
X17743571Y-17890429D01*
X18029286Y-17804714D02*
X18029286Y-17861857D01*
X18143571Y-17804714D02*
X18143571Y-17861857D01*
X18586428Y-18219000D02*
X18572143Y-18204714D01*
X18543571Y-18161857D01*
X18529286Y-18133286D01*
X18515000Y-18090429D01*
X18500714Y-18019000D01*
X18500714Y-17961857D01*
X18515000Y-17890429D01*
X18529286Y-17847572D01*
X18543571Y-17819000D01*
X18572143Y-17776143D01*
X18586428Y-17761857D01*
X18829286Y-17804714D02*
X18772143Y-17804714D01*
X18743571Y-17819000D01*
X18729286Y-17833286D01*
X18700714Y-17876143D01*
X18686428Y-17933286D01*
X18686428Y-18047572D01*
X18700714Y-18076143D01*
X18715000Y-18090429D01*
X18743571Y-18104714D01*
X18800714Y-18104714D01*
X18829286Y-18090429D01*
X18843571Y-18076143D01*
X18857857Y-18047572D01*
X18857857Y-17976143D01*
X18843571Y-17947572D01*
X18829286Y-17933286D01*
X18800714Y-17919000D01*
X18743571Y-17919000D01*
X18715000Y-17933286D01*
X18700714Y-17947572D01*
X18686428Y-17976143D01*
X19215000Y-18104714D02*
X19215000Y-17804714D01*
X19343571Y-18104714D02*
X19343571Y-17947572D01*
X19329286Y-17919000D01*
X19300714Y-17904714D01*
X19257857Y-17904714D01*
X19229286Y-17919000D01*
X19215000Y-17933286D01*
X19529286Y-18104714D02*
X19500714Y-18090429D01*
X19486428Y-18076143D01*
X19472143Y-18047572D01*
X19472143Y-17961857D01*
X19486428Y-17933286D01*
X19500714Y-17919000D01*
X19529286Y-17904714D01*
X19572143Y-17904714D01*
X19600714Y-17919000D01*
X19615000Y-17933286D01*
X19629286Y-17961857D01*
X19629286Y-18047572D01*
X19615000Y-18076143D01*
X19600714Y-18090429D01*
X19572143Y-18104714D01*
X19529286Y-18104714D01*
X19800714Y-18104714D02*
X19772143Y-18090429D01*
X19757857Y-18061857D01*
X19757857Y-17804714D01*
X20029286Y-18090429D02*
X20000714Y-18104714D01*
X19943571Y-18104714D01*
X19915000Y-18090429D01*
X19900714Y-18061857D01*
X19900714Y-17947572D01*
X19915000Y-17919000D01*
X19943571Y-17904714D01*
X20000714Y-17904714D01*
X20029286Y-17919000D01*
X20043571Y-17947572D01*
X20043571Y-17976143D01*
X19900714Y-18004714D01*
X20157857Y-18090429D02*
X20186429Y-18104714D01*
X20243571Y-18104714D01*
X20272143Y-18090429D01*
X20286429Y-18061857D01*
X20286429Y-18047572D01*
X20272143Y-18019000D01*
X20243571Y-18004714D01*
X20200714Y-18004714D01*
X20172143Y-17990429D01*
X20157857Y-17961857D01*
X20157857Y-17947572D01*
X20172143Y-17919000D01*
X20200714Y-17904714D01*
X20243571Y-17904714D01*
X20272143Y-17919000D01*
X20386428Y-18219000D02*
X20400714Y-18204714D01*
X20429286Y-18161857D01*
X20443571Y-18133286D01*
X20457857Y-18090429D01*
X20472143Y-18019000D01*
X20472143Y-17961857D01*
X20457857Y-17890429D01*
X20443571Y-17847572D01*
X20429286Y-17819000D01*
X20400714Y-17776143D01*
X20386428Y-17761857D01*
X13834990Y-18324995D02*
X13915000Y-18405005D01*
X13915000Y-18324995D02*
X13834990Y-18405005D01*
X13915000Y-18365000D02*
G75*
G03X13915000Y-18365000I-40005J0D01*
G01*
X14243571Y-18200714D02*
X14272143Y-18200714D01*
X14300714Y-18215000D01*
X14315000Y-18229286D01*
X14329286Y-18257857D01*
X14343571Y-18315000D01*
X14343571Y-18386429D01*
X14329286Y-18443572D01*
X14315000Y-18472143D01*
X14300714Y-18486429D01*
X14272143Y-18500714D01*
X14243571Y-18500714D01*
X14215000Y-18486429D01*
X14200714Y-18472143D01*
X14186428Y-18443572D01*
X14172143Y-18386429D01*
X14172143Y-18315000D01*
X14186428Y-18257857D01*
X14200714Y-18229286D01*
X14215000Y-18215000D01*
X14243571Y-18200714D01*
X14472143Y-18472143D02*
X14486428Y-18486429D01*
X14472143Y-18500714D01*
X14457857Y-18486429D01*
X14472143Y-18472143D01*
X14472143Y-18500714D01*
X14657857Y-18329286D02*
X14629286Y-18315000D01*
X14615000Y-18300714D01*
X14600714Y-18272143D01*
X14600714Y-18257857D01*
X14615000Y-18229286D01*
X14629286Y-18215000D01*
X14657857Y-18200714D01*
X14715000Y-18200714D01*
X14743571Y-18215000D01*
X14757857Y-18229286D01*
X14772143Y-18257857D01*
X14772143Y-18272143D01*
X14757857Y-18300714D01*
X14743571Y-18315000D01*
X14715000Y-18329286D01*
X14657857Y-18329286D01*
X14629286Y-18343572D01*
X14615000Y-18357857D01*
X14600714Y-18386429D01*
X14600714Y-18443572D01*
X14615000Y-18472143D01*
X14629286Y-18486429D01*
X14657857Y-18500714D01*
X14715000Y-18500714D01*
X14743571Y-18486429D01*
X14757857Y-18472143D01*
X14772143Y-18443572D01*
X14772143Y-18386429D01*
X14757857Y-18357857D01*
X14743571Y-18343572D01*
X14715000Y-18329286D01*
X14957857Y-18200714D02*
X14986428Y-18200714D01*
X15015000Y-18215000D01*
X15029286Y-18229286D01*
X15043571Y-18257857D01*
X15057857Y-18315000D01*
X15057857Y-18386429D01*
X15043571Y-18443572D01*
X15029286Y-18472143D01*
X15015000Y-18486429D01*
X14986428Y-18500714D01*
X14957857Y-18500714D01*
X14929286Y-18486429D01*
X14915000Y-18472143D01*
X14900714Y-18443572D01*
X14886428Y-18386429D01*
X14886428Y-18315000D01*
X14900714Y-18257857D01*
X14915000Y-18229286D01*
X14929286Y-18215000D01*
X14957857Y-18200714D01*
X15186428Y-18500714D02*
X15186428Y-18300714D01*
X15186428Y-18329286D02*
X15200714Y-18315000D01*
X15229286Y-18300714D01*
X15272143Y-18300714D01*
X15300714Y-18315000D01*
X15315000Y-18343572D01*
X15315000Y-18500714D01*
X15315000Y-18343572D02*
X15329286Y-18315000D01*
X15357857Y-18300714D01*
X15400714Y-18300714D01*
X15429286Y-18315000D01*
X15443571Y-18343572D01*
X15443571Y-18500714D01*
X15586428Y-18500714D02*
X15586428Y-18300714D01*
X15586428Y-18329286D02*
X15600714Y-18315000D01*
X15629286Y-18300714D01*
X15672143Y-18300714D01*
X15700714Y-18315000D01*
X15715000Y-18343572D01*
X15715000Y-18500714D01*
X15715000Y-18343572D02*
X15729286Y-18315000D01*
X15757857Y-18300714D01*
X15800714Y-18300714D01*
X15829286Y-18315000D01*
X15843571Y-18343572D01*
X15843571Y-18500714D01*
X16429286Y-18186429D02*
X16172143Y-18572143D01*
X16815000Y-18200714D02*
X16843571Y-18200714D01*
X16872143Y-18215000D01*
X16886428Y-18229286D01*
X16900714Y-18257857D01*
X16915000Y-18315000D01*
X16915000Y-18386429D01*
X16900714Y-18443572D01*
X16886428Y-18472143D01*
X16872143Y-18486429D01*
X16843571Y-18500714D01*
X16815000Y-18500714D01*
X16786428Y-18486429D01*
X16772143Y-18472143D01*
X16757857Y-18443572D01*
X16743571Y-18386429D01*
X16743571Y-18315000D01*
X16757857Y-18257857D01*
X16772143Y-18229286D01*
X16786428Y-18215000D01*
X16815000Y-18200714D01*
X17043571Y-18472143D02*
X17057857Y-18486429D01*
X17043571Y-18500714D01*
X17029286Y-18486429D01*
X17043571Y-18472143D01*
X17043571Y-18500714D01*
X17243571Y-18200714D02*
X17272143Y-18200714D01*
X17300714Y-18215000D01*
X17315000Y-18229286D01*
X17329286Y-18257857D01*
X17343571Y-18315000D01*
X17343571Y-18386429D01*
X17329286Y-18443572D01*
X17315000Y-18472143D01*
X17300714Y-18486429D01*
X17272143Y-18500714D01*
X17243571Y-18500714D01*
X17215000Y-18486429D01*
X17200714Y-18472143D01*
X17186428Y-18443572D01*
X17172143Y-18386429D01*
X17172143Y-18315000D01*
X17186428Y-18257857D01*
X17200714Y-18229286D01*
X17215000Y-18215000D01*
X17243571Y-18200714D01*
X17443571Y-18200714D02*
X17629286Y-18200714D01*
X17529286Y-18315000D01*
X17572143Y-18315000D01*
X17600714Y-18329286D01*
X17615000Y-18343572D01*
X17629286Y-18372143D01*
X17629286Y-18443572D01*
X17615000Y-18472143D01*
X17600714Y-18486429D01*
X17572143Y-18500714D01*
X17486428Y-18500714D01*
X17457857Y-18486429D01*
X17443571Y-18472143D01*
X17743571Y-18229286D02*
X17757857Y-18215000D01*
X17786428Y-18200714D01*
X17857857Y-18200714D01*
X17886428Y-18215000D01*
X17900714Y-18229286D01*
X17915000Y-18257857D01*
X17915000Y-18286429D01*
X17900714Y-18329286D01*
X17729286Y-18500714D01*
X17915000Y-18500714D01*
X18029286Y-18200714D02*
X18029286Y-18257857D01*
X18143571Y-18200714D02*
X18143571Y-18257857D01*
X18586428Y-18615000D02*
X18572143Y-18600714D01*
X18543571Y-18557857D01*
X18529286Y-18529286D01*
X18515000Y-18486429D01*
X18500714Y-18415000D01*
X18500714Y-18357857D01*
X18515000Y-18286429D01*
X18529286Y-18243572D01*
X18543571Y-18215000D01*
X18572143Y-18172143D01*
X18586428Y-18157857D01*
X18686428Y-18229286D02*
X18700714Y-18215000D01*
X18729286Y-18200714D01*
X18800714Y-18200714D01*
X18829286Y-18215000D01*
X18843571Y-18229286D01*
X18857857Y-18257857D01*
X18857857Y-18286429D01*
X18843571Y-18329286D01*
X18672143Y-18500714D01*
X18857857Y-18500714D01*
X19215000Y-18500714D02*
X19215000Y-18200714D01*
X19343571Y-18500714D02*
X19343571Y-18343572D01*
X19329286Y-18315000D01*
X19300714Y-18300714D01*
X19257857Y-18300714D01*
X19229286Y-18315000D01*
X19215000Y-18329286D01*
X19529286Y-18500714D02*
X19500714Y-18486429D01*
X19486428Y-18472143D01*
X19472143Y-18443572D01*
X19472143Y-18357857D01*
X19486428Y-18329286D01*
X19500714Y-18315000D01*
X19529286Y-18300714D01*
X19572143Y-18300714D01*
X19600714Y-18315000D01*
X19615000Y-18329286D01*
X19629286Y-18357857D01*
X19629286Y-18443572D01*
X19615000Y-18472143D01*
X19600714Y-18486429D01*
X19572143Y-18500714D01*
X19529286Y-18500714D01*
X19800714Y-18500714D02*
X19772143Y-18486429D01*
X19757857Y-18457857D01*
X19757857Y-18200714D01*
X20029286Y-18486429D02*
X20000714Y-18500714D01*
X19943571Y-18500714D01*
X19915000Y-18486429D01*
X19900714Y-18457857D01*
X19900714Y-18343572D01*
X19915000Y-18315000D01*
X19943571Y-18300714D01*
X20000714Y-18300714D01*
X20029286Y-18315000D01*
X20043571Y-18343572D01*
X20043571Y-18372143D01*
X19900714Y-18400714D01*
X20157857Y-18486429D02*
X20186429Y-18500714D01*
X20243571Y-18500714D01*
X20272143Y-18486429D01*
X20286429Y-18457857D01*
X20286429Y-18443572D01*
X20272143Y-18415000D01*
X20243571Y-18400714D01*
X20200714Y-18400714D01*
X20172143Y-18386429D01*
X20157857Y-18357857D01*
X20157857Y-18343572D01*
X20172143Y-18315000D01*
X20200714Y-18300714D01*
X20243571Y-18300714D01*
X20272143Y-18315000D01*
X20386428Y-18615000D02*
X20400714Y-18600714D01*
X20429286Y-18557857D01*
X20443571Y-18529286D01*
X20457857Y-18486429D01*
X20472143Y-18415000D01*
X20472143Y-18357857D01*
X20457857Y-18286429D01*
X20443571Y-18243572D01*
X20429286Y-18215000D01*
X20400714Y-18172143D01*
X20386428Y-18157857D01*
X13825000Y-18716000D02*
X13915000Y-18806000D01*
X13915000Y-18716000D02*
X13825000Y-18806000D01*
X13870000Y-18716000D02*
X13870000Y-18806000D01*
X13825000Y-18761000D02*
X13915000Y-18761000D01*
X14243571Y-18596714D02*
X14272143Y-18596714D01*
X14300714Y-18611000D01*
X14315000Y-18625286D01*
X14329286Y-18653857D01*
X14343571Y-18711000D01*
X14343571Y-18782429D01*
X14329286Y-18839572D01*
X14315000Y-18868143D01*
X14300714Y-18882429D01*
X14272143Y-18896714D01*
X14243571Y-18896714D01*
X14215000Y-18882429D01*
X14200714Y-18868143D01*
X14186428Y-18839572D01*
X14172143Y-18782429D01*
X14172143Y-18711000D01*
X14186428Y-18653857D01*
X14200714Y-18625286D01*
X14215000Y-18611000D01*
X14243571Y-18596714D01*
X14472143Y-18868143D02*
X14486428Y-18882429D01*
X14472143Y-18896714D01*
X14457857Y-18882429D01*
X14472143Y-18868143D01*
X14472143Y-18896714D01*
X14629286Y-18896714D02*
X14686428Y-18896714D01*
X14715000Y-18882429D01*
X14729286Y-18868143D01*
X14757857Y-18825286D01*
X14772143Y-18768143D01*
X14772143Y-18653857D01*
X14757857Y-18625286D01*
X14743571Y-18611000D01*
X14715000Y-18596714D01*
X14657857Y-18596714D01*
X14629286Y-18611000D01*
X14615000Y-18625286D01*
X14600714Y-18653857D01*
X14600714Y-18725286D01*
X14615000Y-18753857D01*
X14629286Y-18768143D01*
X14657857Y-18782429D01*
X14715000Y-18782429D01*
X14743571Y-18768143D01*
X14757857Y-18753857D01*
X14772143Y-18725286D01*
X14957857Y-18596714D02*
X14986428Y-18596714D01*
X15015000Y-18611000D01*
X15029286Y-18625286D01*
X15043571Y-18653857D01*
X15057857Y-18711000D01*
X15057857Y-18782429D01*
X15043571Y-18839572D01*
X15029286Y-18868143D01*
X15015000Y-18882429D01*
X14986428Y-18896714D01*
X14957857Y-18896714D01*
X14929286Y-18882429D01*
X14915000Y-18868143D01*
X14900714Y-18839572D01*
X14886428Y-18782429D01*
X14886428Y-18711000D01*
X14900714Y-18653857D01*
X14915000Y-18625286D01*
X14929286Y-18611000D01*
X14957857Y-18596714D01*
X15186428Y-18896714D02*
X15186428Y-18696714D01*
X15186428Y-18725286D02*
X15200714Y-18711000D01*
X15229286Y-18696714D01*
X15272143Y-18696714D01*
X15300714Y-18711000D01*
X15315000Y-18739572D01*
X15315000Y-18896714D01*
X15315000Y-18739572D02*
X15329286Y-18711000D01*
X15357857Y-18696714D01*
X15400714Y-18696714D01*
X15429286Y-18711000D01*
X15443571Y-18739572D01*
X15443571Y-18896714D01*
X15586428Y-18896714D02*
X15586428Y-18696714D01*
X15586428Y-18725286D02*
X15600714Y-18711000D01*
X15629286Y-18696714D01*
X15672143Y-18696714D01*
X15700714Y-18711000D01*
X15715000Y-18739572D01*
X15715000Y-18896714D01*
X15715000Y-18739572D02*
X15729286Y-18711000D01*
X15757857Y-18696714D01*
X15800714Y-18696714D01*
X15829286Y-18711000D01*
X15843571Y-18739572D01*
X15843571Y-18896714D01*
X16429286Y-18582429D02*
X16172143Y-18968143D01*
X16815000Y-18596714D02*
X16843571Y-18596714D01*
X16872143Y-18611000D01*
X16886428Y-18625286D01*
X16900714Y-18653857D01*
X16915000Y-18711000D01*
X16915000Y-18782429D01*
X16900714Y-18839572D01*
X16886428Y-18868143D01*
X16872143Y-18882429D01*
X16843571Y-18896714D01*
X16815000Y-18896714D01*
X16786428Y-18882429D01*
X16772143Y-18868143D01*
X16757857Y-18839572D01*
X16743571Y-18782429D01*
X16743571Y-18711000D01*
X16757857Y-18653857D01*
X16772143Y-18625286D01*
X16786428Y-18611000D01*
X16815000Y-18596714D01*
X17043571Y-18868143D02*
X17057857Y-18882429D01*
X17043571Y-18896714D01*
X17029286Y-18882429D01*
X17043571Y-18868143D01*
X17043571Y-18896714D01*
X17243571Y-18596714D02*
X17272143Y-18596714D01*
X17300714Y-18611000D01*
X17315000Y-18625286D01*
X17329286Y-18653857D01*
X17343571Y-18711000D01*
X17343571Y-18782429D01*
X17329286Y-18839572D01*
X17315000Y-18868143D01*
X17300714Y-18882429D01*
X17272143Y-18896714D01*
X17243571Y-18896714D01*
X17215000Y-18882429D01*
X17200714Y-18868143D01*
X17186428Y-18839572D01*
X17172143Y-18782429D01*
X17172143Y-18711000D01*
X17186428Y-18653857D01*
X17200714Y-18625286D01*
X17215000Y-18611000D01*
X17243571Y-18596714D01*
X17443571Y-18596714D02*
X17629286Y-18596714D01*
X17529286Y-18711000D01*
X17572143Y-18711000D01*
X17600714Y-18725286D01*
X17615000Y-18739572D01*
X17629286Y-18768143D01*
X17629286Y-18839572D01*
X17615000Y-18868143D01*
X17600714Y-18882429D01*
X17572143Y-18896714D01*
X17486428Y-18896714D01*
X17457857Y-18882429D01*
X17443571Y-18868143D01*
X17900714Y-18596714D02*
X17757857Y-18596714D01*
X17743571Y-18739572D01*
X17757857Y-18725286D01*
X17786428Y-18711000D01*
X17857857Y-18711000D01*
X17886428Y-18725286D01*
X17900714Y-18739572D01*
X17915000Y-18768143D01*
X17915000Y-18839572D01*
X17900714Y-18868143D01*
X17886428Y-18882429D01*
X17857857Y-18896714D01*
X17786428Y-18896714D01*
X17757857Y-18882429D01*
X17743571Y-18868143D01*
X18029286Y-18596714D02*
X18029286Y-18653857D01*
X18143571Y-18596714D02*
X18143571Y-18653857D01*
X18586428Y-19011000D02*
X18572143Y-18996714D01*
X18543571Y-18953857D01*
X18529286Y-18925286D01*
X18515000Y-18882429D01*
X18500714Y-18811000D01*
X18500714Y-18753857D01*
X18515000Y-18682429D01*
X18529286Y-18639572D01*
X18543571Y-18611000D01*
X18572143Y-18568143D01*
X18586428Y-18553857D01*
X18686428Y-18625286D02*
X18700714Y-18611000D01*
X18729286Y-18596714D01*
X18800714Y-18596714D01*
X18829286Y-18611000D01*
X18843571Y-18625286D01*
X18857857Y-18653857D01*
X18857857Y-18682429D01*
X18843571Y-18725286D01*
X18672143Y-18896714D01*
X18857857Y-18896714D01*
X19215000Y-18896714D02*
X19215000Y-18596714D01*
X19343571Y-18896714D02*
X19343571Y-18739572D01*
X19329286Y-18711000D01*
X19300714Y-18696714D01*
X19257857Y-18696714D01*
X19229286Y-18711000D01*
X19215000Y-18725286D01*
X19529286Y-18896714D02*
X19500714Y-18882429D01*
X19486428Y-18868143D01*
X19472143Y-18839572D01*
X19472143Y-18753857D01*
X19486428Y-18725286D01*
X19500714Y-18711000D01*
X19529286Y-18696714D01*
X19572143Y-18696714D01*
X19600714Y-18711000D01*
X19615000Y-18725286D01*
X19629286Y-18753857D01*
X19629286Y-18839572D01*
X19615000Y-18868143D01*
X19600714Y-18882429D01*
X19572143Y-18896714D01*
X19529286Y-18896714D01*
X19800714Y-18896714D02*
X19772143Y-18882429D01*
X19757857Y-18853857D01*
X19757857Y-18596714D01*
X20029286Y-18882429D02*
X20000714Y-18896714D01*
X19943571Y-18896714D01*
X19915000Y-18882429D01*
X19900714Y-18853857D01*
X19900714Y-18739572D01*
X19915000Y-18711000D01*
X19943571Y-18696714D01*
X20000714Y-18696714D01*
X20029286Y-18711000D01*
X20043571Y-18739572D01*
X20043571Y-18768143D01*
X19900714Y-18796714D01*
X20157857Y-18882429D02*
X20186429Y-18896714D01*
X20243571Y-18896714D01*
X20272143Y-18882429D01*
X20286429Y-18853857D01*
X20286429Y-18839572D01*
X20272143Y-18811000D01*
X20243571Y-18796714D01*
X20200714Y-18796714D01*
X20172143Y-18782429D01*
X20157857Y-18753857D01*
X20157857Y-18739572D01*
X20172143Y-18711000D01*
X20200714Y-18696714D01*
X20243571Y-18696714D01*
X20272143Y-18711000D01*
X20386428Y-19011000D02*
X20400714Y-18996714D01*
X20429286Y-18953857D01*
X20443571Y-18925286D01*
X20457857Y-18882429D01*
X20472143Y-18811000D01*
X20472143Y-18753857D01*
X20457857Y-18682429D01*
X20443571Y-18639572D01*
X20429286Y-18611000D01*
X20400714Y-18568143D01*
X20386428Y-18553857D01*
X13815000Y-19107000D02*
X13915000Y-19207000D01*
X13915000Y-19107000D02*
X13815000Y-19207000D01*
X13900356Y-19192356D02*
X13900356Y-19121644D01*
X13829644Y-19121644D01*
X13829644Y-19192356D01*
X13900356Y-19192356D01*
X14343571Y-19292714D02*
X14172143Y-19292714D01*
X14257857Y-19292714D02*
X14257857Y-18992714D01*
X14229286Y-19035572D01*
X14200714Y-19064143D01*
X14172143Y-19078429D01*
X14472143Y-19264143D02*
X14486428Y-19278429D01*
X14472143Y-19292714D01*
X14457857Y-19278429D01*
X14472143Y-19264143D01*
X14472143Y-19292714D01*
X14672143Y-18992714D02*
X14700714Y-18992714D01*
X14729286Y-19007000D01*
X14743571Y-19021286D01*
X14757857Y-19049857D01*
X14772143Y-19107000D01*
X14772143Y-19178429D01*
X14757857Y-19235572D01*
X14743571Y-19264143D01*
X14729286Y-19278429D01*
X14700714Y-19292714D01*
X14672143Y-19292714D01*
X14643571Y-19278429D01*
X14629286Y-19264143D01*
X14615000Y-19235572D01*
X14600714Y-19178429D01*
X14600714Y-19107000D01*
X14615000Y-19049857D01*
X14629286Y-19021286D01*
X14643571Y-19007000D01*
X14672143Y-18992714D01*
X14957857Y-18992714D02*
X14986428Y-18992714D01*
X15015000Y-19007000D01*
X15029286Y-19021286D01*
X15043571Y-19049857D01*
X15057857Y-19107000D01*
X15057857Y-19178429D01*
X15043571Y-19235572D01*
X15029286Y-19264143D01*
X15015000Y-19278429D01*
X14986428Y-19292714D01*
X14957857Y-19292714D01*
X14929286Y-19278429D01*
X14915000Y-19264143D01*
X14900714Y-19235572D01*
X14886428Y-19178429D01*
X14886428Y-19107000D01*
X14900714Y-19049857D01*
X14915000Y-19021286D01*
X14929286Y-19007000D01*
X14957857Y-18992714D01*
X15186428Y-19292714D02*
X15186428Y-19092714D01*
X15186428Y-19121286D02*
X15200714Y-19107000D01*
X15229286Y-19092714D01*
X15272143Y-19092714D01*
X15300714Y-19107000D01*
X15315000Y-19135572D01*
X15315000Y-19292714D01*
X15315000Y-19135572D02*
X15329286Y-19107000D01*
X15357857Y-19092714D01*
X15400714Y-19092714D01*
X15429286Y-19107000D01*
X15443571Y-19135572D01*
X15443571Y-19292714D01*
X15586428Y-19292714D02*
X15586428Y-19092714D01*
X15586428Y-19121286D02*
X15600714Y-19107000D01*
X15629286Y-19092714D01*
X15672143Y-19092714D01*
X15700714Y-19107000D01*
X15715000Y-19135572D01*
X15715000Y-19292714D01*
X15715000Y-19135572D02*
X15729286Y-19107000D01*
X15757857Y-19092714D01*
X15800714Y-19092714D01*
X15829286Y-19107000D01*
X15843571Y-19135572D01*
X15843571Y-19292714D01*
X16429286Y-18978429D02*
X16172143Y-19364143D01*
X16815000Y-18992714D02*
X16843571Y-18992714D01*
X16872143Y-19007000D01*
X16886428Y-19021286D01*
X16900714Y-19049857D01*
X16915000Y-19107000D01*
X16915000Y-19178429D01*
X16900714Y-19235572D01*
X16886428Y-19264143D01*
X16872143Y-19278429D01*
X16843571Y-19292714D01*
X16815000Y-19292714D01*
X16786428Y-19278429D01*
X16772143Y-19264143D01*
X16757857Y-19235572D01*
X16743571Y-19178429D01*
X16743571Y-19107000D01*
X16757857Y-19049857D01*
X16772143Y-19021286D01*
X16786428Y-19007000D01*
X16815000Y-18992714D01*
X17043571Y-19264143D02*
X17057857Y-19278429D01*
X17043571Y-19292714D01*
X17029286Y-19278429D01*
X17043571Y-19264143D01*
X17043571Y-19292714D01*
X17243571Y-18992714D02*
X17272143Y-18992714D01*
X17300714Y-19007000D01*
X17315000Y-19021286D01*
X17329286Y-19049857D01*
X17343571Y-19107000D01*
X17343571Y-19178429D01*
X17329286Y-19235572D01*
X17315000Y-19264143D01*
X17300714Y-19278429D01*
X17272143Y-19292714D01*
X17243571Y-19292714D01*
X17215000Y-19278429D01*
X17200714Y-19264143D01*
X17186428Y-19235572D01*
X17172143Y-19178429D01*
X17172143Y-19107000D01*
X17186428Y-19049857D01*
X17200714Y-19021286D01*
X17215000Y-19007000D01*
X17243571Y-18992714D01*
X17443571Y-18992714D02*
X17629286Y-18992714D01*
X17529286Y-19107000D01*
X17572143Y-19107000D01*
X17600714Y-19121286D01*
X17615000Y-19135572D01*
X17629286Y-19164143D01*
X17629286Y-19235572D01*
X17615000Y-19264143D01*
X17600714Y-19278429D01*
X17572143Y-19292714D01*
X17486428Y-19292714D01*
X17457857Y-19278429D01*
X17443571Y-19264143D01*
X17772143Y-19292714D02*
X17829286Y-19292714D01*
X17857857Y-19278429D01*
X17872143Y-19264143D01*
X17900714Y-19221286D01*
X17915000Y-19164143D01*
X17915000Y-19049857D01*
X17900714Y-19021286D01*
X17886428Y-19007000D01*
X17857857Y-18992714D01*
X17800714Y-18992714D01*
X17772143Y-19007000D01*
X17757857Y-19021286D01*
X17743571Y-19049857D01*
X17743571Y-19121286D01*
X17757857Y-19149857D01*
X17772143Y-19164143D01*
X17800714Y-19178429D01*
X17857857Y-19178429D01*
X17886428Y-19164143D01*
X17900714Y-19149857D01*
X17915000Y-19121286D01*
X18029286Y-18992714D02*
X18029286Y-19049857D01*
X18143571Y-18992714D02*
X18143571Y-19049857D01*
X18586428Y-19407000D02*
X18572143Y-19392714D01*
X18543571Y-19349857D01*
X18529286Y-19321286D01*
X18515000Y-19278429D01*
X18500714Y-19207000D01*
X18500714Y-19149857D01*
X18515000Y-19078429D01*
X18529286Y-19035572D01*
X18543571Y-19007000D01*
X18572143Y-18964143D01*
X18586428Y-18949857D01*
X18672143Y-18992714D02*
X18857857Y-18992714D01*
X18757857Y-19107000D01*
X18800714Y-19107000D01*
X18829286Y-19121286D01*
X18843571Y-19135572D01*
X18857857Y-19164143D01*
X18857857Y-19235572D01*
X18843571Y-19264143D01*
X18829286Y-19278429D01*
X18800714Y-19292714D01*
X18715000Y-19292714D01*
X18686428Y-19278429D01*
X18672143Y-19264143D01*
X19215000Y-19292714D02*
X19215000Y-18992714D01*
X19343571Y-19292714D02*
X19343571Y-19135572D01*
X19329286Y-19107000D01*
X19300714Y-19092714D01*
X19257857Y-19092714D01*
X19229286Y-19107000D01*
X19215000Y-19121286D01*
X19529286Y-19292714D02*
X19500714Y-19278429D01*
X19486428Y-19264143D01*
X19472143Y-19235572D01*
X19472143Y-19149857D01*
X19486428Y-19121286D01*
X19500714Y-19107000D01*
X19529286Y-19092714D01*
X19572143Y-19092714D01*
X19600714Y-19107000D01*
X19615000Y-19121286D01*
X19629286Y-19149857D01*
X19629286Y-19235572D01*
X19615000Y-19264143D01*
X19600714Y-19278429D01*
X19572143Y-19292714D01*
X19529286Y-19292714D01*
X19800714Y-19292714D02*
X19772143Y-19278429D01*
X19757857Y-19249857D01*
X19757857Y-18992714D01*
X20029286Y-19278429D02*
X20000714Y-19292714D01*
X19943571Y-19292714D01*
X19915000Y-19278429D01*
X19900714Y-19249857D01*
X19900714Y-19135572D01*
X19915000Y-19107000D01*
X19943571Y-19092714D01*
X20000714Y-19092714D01*
X20029286Y-19107000D01*
X20043571Y-19135572D01*
X20043571Y-19164143D01*
X19900714Y-19192714D01*
X20157857Y-19278429D02*
X20186429Y-19292714D01*
X20243571Y-19292714D01*
X20272143Y-19278429D01*
X20286429Y-19249857D01*
X20286429Y-19235572D01*
X20272143Y-19207000D01*
X20243571Y-19192714D01*
X20200714Y-19192714D01*
X20172143Y-19178429D01*
X20157857Y-19149857D01*
X20157857Y-19135572D01*
X20172143Y-19107000D01*
X20200714Y-19092714D01*
X20243571Y-19092714D01*
X20272143Y-19107000D01*
X20386428Y-19407000D02*
X20400714Y-19392714D01*
X20429286Y-19349857D01*
X20443571Y-19321286D01*
X20457857Y-19278429D01*
X20472143Y-19207000D01*
X20472143Y-19149857D01*
X20457857Y-19078429D01*
X20443571Y-19035572D01*
X20429286Y-19007000D01*
X20400714Y-18964143D01*
X20386428Y-18949857D01*
X13813400Y-19502200D02*
X13915000Y-19603800D01*
X13915000Y-19502200D02*
X13813400Y-19603800D01*
X13864200Y-19603800D02*
X13915000Y-19553000D01*
X13864200Y-19502200D01*
X13813400Y-19553000D01*
X13864200Y-19603800D01*
X14343571Y-19688714D02*
X14172143Y-19688714D01*
X14257857Y-19688714D02*
X14257857Y-19388714D01*
X14229286Y-19431572D01*
X14200714Y-19460143D01*
X14172143Y-19474429D01*
X14472143Y-19660143D02*
X14486428Y-19674429D01*
X14472143Y-19688714D01*
X14457857Y-19674429D01*
X14472143Y-19660143D01*
X14472143Y-19688714D01*
X14672143Y-19388714D02*
X14700714Y-19388714D01*
X14729286Y-19403000D01*
X14743571Y-19417286D01*
X14757857Y-19445857D01*
X14772143Y-19503000D01*
X14772143Y-19574429D01*
X14757857Y-19631572D01*
X14743571Y-19660143D01*
X14729286Y-19674429D01*
X14700714Y-19688714D01*
X14672143Y-19688714D01*
X14643571Y-19674429D01*
X14629286Y-19660143D01*
X14615000Y-19631572D01*
X14600714Y-19574429D01*
X14600714Y-19503000D01*
X14615000Y-19445857D01*
X14629286Y-19417286D01*
X14643571Y-19403000D01*
X14672143Y-19388714D01*
X14886428Y-19417286D02*
X14900714Y-19403000D01*
X14929286Y-19388714D01*
X15000714Y-19388714D01*
X15029286Y-19403000D01*
X15043571Y-19417286D01*
X15057857Y-19445857D01*
X15057857Y-19474429D01*
X15043571Y-19517286D01*
X14872143Y-19688714D01*
X15057857Y-19688714D01*
X15186428Y-19688714D02*
X15186428Y-19488714D01*
X15186428Y-19517286D02*
X15200714Y-19503000D01*
X15229286Y-19488714D01*
X15272143Y-19488714D01*
X15300714Y-19503000D01*
X15315000Y-19531572D01*
X15315000Y-19688714D01*
X15315000Y-19531572D02*
X15329286Y-19503000D01*
X15357857Y-19488714D01*
X15400714Y-19488714D01*
X15429286Y-19503000D01*
X15443571Y-19531572D01*
X15443571Y-19688714D01*
X15586428Y-19688714D02*
X15586428Y-19488714D01*
X15586428Y-19517286D02*
X15600714Y-19503000D01*
X15629286Y-19488714D01*
X15672143Y-19488714D01*
X15700714Y-19503000D01*
X15715000Y-19531572D01*
X15715000Y-19688714D01*
X15715000Y-19531572D02*
X15729286Y-19503000D01*
X15757857Y-19488714D01*
X15800714Y-19488714D01*
X15829286Y-19503000D01*
X15843571Y-19531572D01*
X15843571Y-19688714D01*
X16429286Y-19374429D02*
X16172143Y-19760143D01*
X16815000Y-19388714D02*
X16843571Y-19388714D01*
X16872143Y-19403000D01*
X16886428Y-19417286D01*
X16900714Y-19445857D01*
X16915000Y-19503000D01*
X16915000Y-19574429D01*
X16900714Y-19631572D01*
X16886428Y-19660143D01*
X16872143Y-19674429D01*
X16843571Y-19688714D01*
X16815000Y-19688714D01*
X16786428Y-19674429D01*
X16772143Y-19660143D01*
X16757857Y-19631572D01*
X16743571Y-19574429D01*
X16743571Y-19503000D01*
X16757857Y-19445857D01*
X16772143Y-19417286D01*
X16786428Y-19403000D01*
X16815000Y-19388714D01*
X17043571Y-19660143D02*
X17057857Y-19674429D01*
X17043571Y-19688714D01*
X17029286Y-19674429D01*
X17043571Y-19660143D01*
X17043571Y-19688714D01*
X17243571Y-19388714D02*
X17272143Y-19388714D01*
X17300714Y-19403000D01*
X17315000Y-19417286D01*
X17329286Y-19445857D01*
X17343571Y-19503000D01*
X17343571Y-19574429D01*
X17329286Y-19631572D01*
X17315000Y-19660143D01*
X17300714Y-19674429D01*
X17272143Y-19688714D01*
X17243571Y-19688714D01*
X17215000Y-19674429D01*
X17200714Y-19660143D01*
X17186428Y-19631572D01*
X17172143Y-19574429D01*
X17172143Y-19503000D01*
X17186428Y-19445857D01*
X17200714Y-19417286D01*
X17215000Y-19403000D01*
X17243571Y-19388714D01*
X17600714Y-19488714D02*
X17600714Y-19688714D01*
X17529286Y-19374429D02*
X17457857Y-19588714D01*
X17643571Y-19588714D01*
X17815000Y-19388714D02*
X17843571Y-19388714D01*
X17872143Y-19403000D01*
X17886428Y-19417286D01*
X17900714Y-19445857D01*
X17915000Y-19503000D01*
X17915000Y-19574429D01*
X17900714Y-19631572D01*
X17886428Y-19660143D01*
X17872143Y-19674429D01*
X17843571Y-19688714D01*
X17815000Y-19688714D01*
X17786428Y-19674429D01*
X17772143Y-19660143D01*
X17757857Y-19631572D01*
X17743571Y-19574429D01*
X17743571Y-19503000D01*
X17757857Y-19445857D01*
X17772143Y-19417286D01*
X17786428Y-19403000D01*
X17815000Y-19388714D01*
X18029286Y-19388714D02*
X18029286Y-19445857D01*
X18143571Y-19388714D02*
X18143571Y-19445857D01*
X18586428Y-19803000D02*
X18572143Y-19788714D01*
X18543571Y-19745857D01*
X18529286Y-19717286D01*
X18515000Y-19674429D01*
X18500714Y-19603000D01*
X18500714Y-19545857D01*
X18515000Y-19474429D01*
X18529286Y-19431572D01*
X18543571Y-19403000D01*
X18572143Y-19360143D01*
X18586428Y-19345857D01*
X18857857Y-19688714D02*
X18686428Y-19688714D01*
X18772143Y-19688714D02*
X18772143Y-19388714D01*
X18743571Y-19431572D01*
X18715000Y-19460143D01*
X18686428Y-19474429D01*
X19115000Y-19388714D02*
X19057857Y-19388714D01*
X19029286Y-19403000D01*
X19015000Y-19417286D01*
X18986428Y-19460143D01*
X18972143Y-19517286D01*
X18972143Y-19631572D01*
X18986428Y-19660143D01*
X19000714Y-19674429D01*
X19029286Y-19688714D01*
X19086428Y-19688714D01*
X19115000Y-19674429D01*
X19129286Y-19660143D01*
X19143571Y-19631572D01*
X19143571Y-19560143D01*
X19129286Y-19531572D01*
X19115000Y-19517286D01*
X19086428Y-19503000D01*
X19029286Y-19503000D01*
X19000714Y-19517286D01*
X18986428Y-19531572D01*
X18972143Y-19560143D01*
X19286428Y-19688714D02*
X19343571Y-19688714D01*
X19372143Y-19674429D01*
X19386428Y-19660143D01*
X19415000Y-19617286D01*
X19429286Y-19560143D01*
X19429286Y-19445857D01*
X19415000Y-19417286D01*
X19400714Y-19403000D01*
X19372143Y-19388714D01*
X19315000Y-19388714D01*
X19286428Y-19403000D01*
X19272143Y-19417286D01*
X19257857Y-19445857D01*
X19257857Y-19517286D01*
X19272143Y-19545857D01*
X19286428Y-19560143D01*
X19315000Y-19574429D01*
X19372143Y-19574429D01*
X19400714Y-19560143D01*
X19415000Y-19545857D01*
X19429286Y-19517286D01*
X19786428Y-19688714D02*
X19786428Y-19388714D01*
X19915000Y-19688714D02*
X19915000Y-19531572D01*
X19900714Y-19503000D01*
X19872143Y-19488714D01*
X19829286Y-19488714D01*
X19800714Y-19503000D01*
X19786428Y-19517286D01*
X20100714Y-19688714D02*
X20072143Y-19674429D01*
X20057857Y-19660143D01*
X20043571Y-19631572D01*
X20043571Y-19545857D01*
X20057857Y-19517286D01*
X20072143Y-19503000D01*
X20100714Y-19488714D01*
X20143571Y-19488714D01*
X20172143Y-19503000D01*
X20186428Y-19517286D01*
X20200714Y-19545857D01*
X20200714Y-19631572D01*
X20186428Y-19660143D01*
X20172143Y-19674429D01*
X20143571Y-19688714D01*
X20100714Y-19688714D01*
X20372143Y-19688714D02*
X20343571Y-19674429D01*
X20329286Y-19645857D01*
X20329286Y-19388714D01*
X20600714Y-19674429D02*
X20572143Y-19688714D01*
X20515000Y-19688714D01*
X20486429Y-19674429D01*
X20472143Y-19645857D01*
X20472143Y-19531572D01*
X20486429Y-19503000D01*
X20515000Y-19488714D01*
X20572143Y-19488714D01*
X20600714Y-19503000D01*
X20615000Y-19531572D01*
X20615000Y-19560143D01*
X20472143Y-19588714D01*
X20729286Y-19674429D02*
X20757857Y-19688714D01*
X20815000Y-19688714D01*
X20843571Y-19674429D01*
X20857857Y-19645857D01*
X20857857Y-19631572D01*
X20843571Y-19603000D01*
X20815000Y-19588714D01*
X20772143Y-19588714D01*
X20743571Y-19574429D01*
X20729286Y-19545857D01*
X20729286Y-19531572D01*
X20743571Y-19503000D01*
X20772143Y-19488714D01*
X20815000Y-19488714D01*
X20843571Y-19503000D01*
X20957857Y-19803000D02*
X20972143Y-19788714D01*
X21000714Y-19745857D01*
X21015000Y-19717286D01*
X21029286Y-19674429D01*
X21043571Y-19603000D01*
X21043571Y-19545857D01*
X21029286Y-19474429D01*
X21015000Y-19431572D01*
X21000714Y-19403000D01*
X20972143Y-19360143D01*
X20957857Y-19345857D01*
X13851500Y-19885500D02*
X13851500Y-20012500D01*
X13788000Y-19949000D02*
X13915000Y-19949000D01*
X13915000Y-19949000D02*
G75*
G03X13915000Y-19949000I-63500J0D01*
G01*
X14343571Y-20084714D02*
X14172143Y-20084714D01*
X14257857Y-20084714D02*
X14257857Y-19784714D01*
X14229286Y-19827572D01*
X14200714Y-19856143D01*
X14172143Y-19870429D01*
X14472143Y-20056143D02*
X14486428Y-20070429D01*
X14472143Y-20084714D01*
X14457857Y-20070429D01*
X14472143Y-20056143D01*
X14472143Y-20084714D01*
X14600714Y-19813286D02*
X14615000Y-19799000D01*
X14643571Y-19784714D01*
X14715000Y-19784714D01*
X14743571Y-19799000D01*
X14757857Y-19813286D01*
X14772143Y-19841857D01*
X14772143Y-19870429D01*
X14757857Y-19913286D01*
X14586428Y-20084714D01*
X14772143Y-20084714D01*
X14872143Y-19784714D02*
X15072143Y-19784714D01*
X14943571Y-20084714D01*
X15186428Y-20084714D02*
X15186428Y-19884714D01*
X15186428Y-19913286D02*
X15200714Y-19899000D01*
X15229286Y-19884714D01*
X15272143Y-19884714D01*
X15300714Y-19899000D01*
X15315000Y-19927572D01*
X15315000Y-20084714D01*
X15315000Y-19927572D02*
X15329286Y-19899000D01*
X15357857Y-19884714D01*
X15400714Y-19884714D01*
X15429286Y-19899000D01*
X15443571Y-19927572D01*
X15443571Y-20084714D01*
X15586428Y-20084714D02*
X15586428Y-19884714D01*
X15586428Y-19913286D02*
X15600714Y-19899000D01*
X15629286Y-19884714D01*
X15672143Y-19884714D01*
X15700714Y-19899000D01*
X15715000Y-19927572D01*
X15715000Y-20084714D01*
X15715000Y-19927572D02*
X15729286Y-19899000D01*
X15757857Y-19884714D01*
X15800714Y-19884714D01*
X15829286Y-19899000D01*
X15843571Y-19927572D01*
X15843571Y-20084714D01*
X16429286Y-19770429D02*
X16172143Y-20156143D01*
X16815000Y-19784714D02*
X16843571Y-19784714D01*
X16872143Y-19799000D01*
X16886428Y-19813286D01*
X16900714Y-19841857D01*
X16915000Y-19899000D01*
X16915000Y-19970429D01*
X16900714Y-20027572D01*
X16886428Y-20056143D01*
X16872143Y-20070429D01*
X16843571Y-20084714D01*
X16815000Y-20084714D01*
X16786428Y-20070429D01*
X16772143Y-20056143D01*
X16757857Y-20027572D01*
X16743571Y-19970429D01*
X16743571Y-19899000D01*
X16757857Y-19841857D01*
X16772143Y-19813286D01*
X16786428Y-19799000D01*
X16815000Y-19784714D01*
X17043571Y-20056143D02*
X17057857Y-20070429D01*
X17043571Y-20084714D01*
X17029286Y-20070429D01*
X17043571Y-20056143D01*
X17043571Y-20084714D01*
X17243571Y-19784714D02*
X17272143Y-19784714D01*
X17300714Y-19799000D01*
X17315000Y-19813286D01*
X17329286Y-19841857D01*
X17343571Y-19899000D01*
X17343571Y-19970429D01*
X17329286Y-20027572D01*
X17315000Y-20056143D01*
X17300714Y-20070429D01*
X17272143Y-20084714D01*
X17243571Y-20084714D01*
X17215000Y-20070429D01*
X17200714Y-20056143D01*
X17186428Y-20027572D01*
X17172143Y-19970429D01*
X17172143Y-19899000D01*
X17186428Y-19841857D01*
X17200714Y-19813286D01*
X17215000Y-19799000D01*
X17243571Y-19784714D01*
X17615000Y-19784714D02*
X17472143Y-19784714D01*
X17457857Y-19927572D01*
X17472143Y-19913286D01*
X17500714Y-19899000D01*
X17572143Y-19899000D01*
X17600714Y-19913286D01*
X17615000Y-19927572D01*
X17629286Y-19956143D01*
X17629286Y-20027572D01*
X17615000Y-20056143D01*
X17600714Y-20070429D01*
X17572143Y-20084714D01*
X17500714Y-20084714D01*
X17472143Y-20070429D01*
X17457857Y-20056143D01*
X17815000Y-19784714D02*
X17843571Y-19784714D01*
X17872143Y-19799000D01*
X17886428Y-19813286D01*
X17900714Y-19841857D01*
X17915000Y-19899000D01*
X17915000Y-19970429D01*
X17900714Y-20027572D01*
X17886428Y-20056143D01*
X17872143Y-20070429D01*
X17843571Y-20084714D01*
X17815000Y-20084714D01*
X17786428Y-20070429D01*
X17772143Y-20056143D01*
X17757857Y-20027572D01*
X17743571Y-19970429D01*
X17743571Y-19899000D01*
X17757857Y-19841857D01*
X17772143Y-19813286D01*
X17786428Y-19799000D01*
X17815000Y-19784714D01*
X18029286Y-19784714D02*
X18029286Y-19841857D01*
X18143571Y-19784714D02*
X18143571Y-19841857D01*
X18586428Y-20199000D02*
X18572143Y-20184714D01*
X18543571Y-20141857D01*
X18529286Y-20113286D01*
X18515000Y-20070429D01*
X18500714Y-19999000D01*
X18500714Y-19941857D01*
X18515000Y-19870429D01*
X18529286Y-19827572D01*
X18543571Y-19799000D01*
X18572143Y-19756143D01*
X18586428Y-19741857D01*
X18857857Y-20084714D02*
X18686428Y-20084714D01*
X18772143Y-20084714D02*
X18772143Y-19784714D01*
X18743571Y-19827572D01*
X18715000Y-19856143D01*
X18686428Y-19870429D01*
X19215000Y-20084714D02*
X19215000Y-19784714D01*
X19343571Y-20084714D02*
X19343571Y-19927572D01*
X19329286Y-19899000D01*
X19300714Y-19884714D01*
X19257857Y-19884714D01*
X19229286Y-19899000D01*
X19215000Y-19913286D01*
X19529286Y-20084714D02*
X19500714Y-20070429D01*
X19486428Y-20056143D01*
X19472143Y-20027572D01*
X19472143Y-19941857D01*
X19486428Y-19913286D01*
X19500714Y-19899000D01*
X19529286Y-19884714D01*
X19572143Y-19884714D01*
X19600714Y-19899000D01*
X19615000Y-19913286D01*
X19629286Y-19941857D01*
X19629286Y-20027572D01*
X19615000Y-20056143D01*
X19600714Y-20070429D01*
X19572143Y-20084714D01*
X19529286Y-20084714D01*
X19800714Y-20084714D02*
X19772143Y-20070429D01*
X19757857Y-20041857D01*
X19757857Y-19784714D01*
X20029286Y-20070429D02*
X20000714Y-20084714D01*
X19943571Y-20084714D01*
X19915000Y-20070429D01*
X19900714Y-20041857D01*
X19900714Y-19927572D01*
X19915000Y-19899000D01*
X19943571Y-19884714D01*
X20000714Y-19884714D01*
X20029286Y-19899000D01*
X20043571Y-19927572D01*
X20043571Y-19956143D01*
X19900714Y-19984714D01*
X20143571Y-20199000D02*
X20157857Y-20184714D01*
X20186429Y-20141857D01*
X20200714Y-20113286D01*
X20215000Y-20070429D01*
X20229286Y-19999000D01*
X20229286Y-19941857D01*
X20215000Y-19870429D01*
X20200714Y-19827572D01*
X20186429Y-19799000D01*
X20157857Y-19756143D01*
X20143571Y-19741857D01*
X13870364Y-20452764D02*
X13870364Y-20237236D01*
X13654836Y-20237236D01*
X13654836Y-20452764D01*
X13870364Y-20452764D01*
X13915000Y-20345000D02*
G75*
G03X13915000Y-20345000I-152400J0D01*
G01*
X14157857Y-20180714D02*
X14343571Y-20180714D01*
X14243571Y-20295000D01*
X14286428Y-20295000D01*
X14315000Y-20309286D01*
X14329286Y-20323572D01*
X14343571Y-20352143D01*
X14343571Y-20423572D01*
X14329286Y-20452143D01*
X14315000Y-20466429D01*
X14286428Y-20480714D01*
X14200714Y-20480714D01*
X14172143Y-20466429D01*
X14157857Y-20452143D01*
X14472143Y-20452143D02*
X14486428Y-20466429D01*
X14472143Y-20480714D01*
X14457857Y-20466429D01*
X14472143Y-20452143D01*
X14472143Y-20480714D01*
X14672143Y-20180714D02*
X14700714Y-20180714D01*
X14729286Y-20195000D01*
X14743571Y-20209286D01*
X14757857Y-20237857D01*
X14772143Y-20295000D01*
X14772143Y-20366429D01*
X14757857Y-20423572D01*
X14743571Y-20452143D01*
X14729286Y-20466429D01*
X14700714Y-20480714D01*
X14672143Y-20480714D01*
X14643571Y-20466429D01*
X14629286Y-20452143D01*
X14615000Y-20423572D01*
X14600714Y-20366429D01*
X14600714Y-20295000D01*
X14615000Y-20237857D01*
X14629286Y-20209286D01*
X14643571Y-20195000D01*
X14672143Y-20180714D01*
X15043571Y-20180714D02*
X14900714Y-20180714D01*
X14886428Y-20323572D01*
X14900714Y-20309286D01*
X14929286Y-20295000D01*
X15000714Y-20295000D01*
X15029286Y-20309286D01*
X15043571Y-20323572D01*
X15057857Y-20352143D01*
X15057857Y-20423572D01*
X15043571Y-20452143D01*
X15029286Y-20466429D01*
X15000714Y-20480714D01*
X14929286Y-20480714D01*
X14900714Y-20466429D01*
X14886428Y-20452143D01*
X15186428Y-20480714D02*
X15186428Y-20280714D01*
X15186428Y-20309286D02*
X15200714Y-20295000D01*
X15229286Y-20280714D01*
X15272143Y-20280714D01*
X15300714Y-20295000D01*
X15315000Y-20323572D01*
X15315000Y-20480714D01*
X15315000Y-20323572D02*
X15329286Y-20295000D01*
X15357857Y-20280714D01*
X15400714Y-20280714D01*
X15429286Y-20295000D01*
X15443571Y-20323572D01*
X15443571Y-20480714D01*
X15586428Y-20480714D02*
X15586428Y-20280714D01*
X15586428Y-20309286D02*
X15600714Y-20295000D01*
X15629286Y-20280714D01*
X15672143Y-20280714D01*
X15700714Y-20295000D01*
X15715000Y-20323572D01*
X15715000Y-20480714D01*
X15715000Y-20323572D02*
X15729286Y-20295000D01*
X15757857Y-20280714D01*
X15800714Y-20280714D01*
X15829286Y-20295000D01*
X15843571Y-20323572D01*
X15843571Y-20480714D01*
X16429286Y-20166429D02*
X16172143Y-20552143D01*
X16815000Y-20180714D02*
X16843571Y-20180714D01*
X16872143Y-20195000D01*
X16886428Y-20209286D01*
X16900714Y-20237857D01*
X16915000Y-20295000D01*
X16915000Y-20366429D01*
X16900714Y-20423572D01*
X16886428Y-20452143D01*
X16872143Y-20466429D01*
X16843571Y-20480714D01*
X16815000Y-20480714D01*
X16786428Y-20466429D01*
X16772143Y-20452143D01*
X16757857Y-20423572D01*
X16743571Y-20366429D01*
X16743571Y-20295000D01*
X16757857Y-20237857D01*
X16772143Y-20209286D01*
X16786428Y-20195000D01*
X16815000Y-20180714D01*
X17043571Y-20452143D02*
X17057857Y-20466429D01*
X17043571Y-20480714D01*
X17029286Y-20466429D01*
X17043571Y-20452143D01*
X17043571Y-20480714D01*
X17343571Y-20480714D02*
X17172143Y-20480714D01*
X17257857Y-20480714D02*
X17257857Y-20180714D01*
X17229286Y-20223572D01*
X17200714Y-20252143D01*
X17172143Y-20266429D01*
X17457857Y-20209286D02*
X17472143Y-20195000D01*
X17500714Y-20180714D01*
X17572143Y-20180714D01*
X17600714Y-20195000D01*
X17615000Y-20209286D01*
X17629286Y-20237857D01*
X17629286Y-20266429D01*
X17615000Y-20309286D01*
X17443571Y-20480714D01*
X17629286Y-20480714D01*
X17815000Y-20180714D02*
X17843571Y-20180714D01*
X17872143Y-20195000D01*
X17886428Y-20209286D01*
X17900714Y-20237857D01*
X17915000Y-20295000D01*
X17915000Y-20366429D01*
X17900714Y-20423572D01*
X17886428Y-20452143D01*
X17872143Y-20466429D01*
X17843571Y-20480714D01*
X17815000Y-20480714D01*
X17786428Y-20466429D01*
X17772143Y-20452143D01*
X17757857Y-20423572D01*
X17743571Y-20366429D01*
X17743571Y-20295000D01*
X17757857Y-20237857D01*
X17772143Y-20209286D01*
X17786428Y-20195000D01*
X17815000Y-20180714D01*
X18029286Y-20180714D02*
X18029286Y-20237857D01*
X18143571Y-20180714D02*
X18143571Y-20237857D01*
X18586428Y-20595000D02*
X18572143Y-20580714D01*
X18543571Y-20537857D01*
X18529286Y-20509286D01*
X18515000Y-20466429D01*
X18500714Y-20395000D01*
X18500714Y-20337857D01*
X18515000Y-20266429D01*
X18529286Y-20223572D01*
X18543571Y-20195000D01*
X18572143Y-20152143D01*
X18586428Y-20137857D01*
X18686428Y-20209286D02*
X18700714Y-20195000D01*
X18729286Y-20180714D01*
X18800714Y-20180714D01*
X18829286Y-20195000D01*
X18843571Y-20209286D01*
X18857857Y-20237857D01*
X18857857Y-20266429D01*
X18843571Y-20309286D01*
X18672143Y-20480714D01*
X18857857Y-20480714D01*
X19215000Y-20480714D02*
X19215000Y-20180714D01*
X19343571Y-20480714D02*
X19343571Y-20323572D01*
X19329286Y-20295000D01*
X19300714Y-20280714D01*
X19257857Y-20280714D01*
X19229286Y-20295000D01*
X19215000Y-20309286D01*
X19529286Y-20480714D02*
X19500714Y-20466429D01*
X19486428Y-20452143D01*
X19472143Y-20423572D01*
X19472143Y-20337857D01*
X19486428Y-20309286D01*
X19500714Y-20295000D01*
X19529286Y-20280714D01*
X19572143Y-20280714D01*
X19600714Y-20295000D01*
X19615000Y-20309286D01*
X19629286Y-20337857D01*
X19629286Y-20423572D01*
X19615000Y-20452143D01*
X19600714Y-20466429D01*
X19572143Y-20480714D01*
X19529286Y-20480714D01*
X19800714Y-20480714D02*
X19772143Y-20466429D01*
X19757857Y-20437857D01*
X19757857Y-20180714D01*
X20029286Y-20466429D02*
X20000714Y-20480714D01*
X19943571Y-20480714D01*
X19915000Y-20466429D01*
X19900714Y-20437857D01*
X19900714Y-20323572D01*
X19915000Y-20295000D01*
X19943571Y-20280714D01*
X20000714Y-20280714D01*
X20029286Y-20295000D01*
X20043571Y-20323572D01*
X20043571Y-20352143D01*
X19900714Y-20380714D01*
X20157857Y-20466429D02*
X20186429Y-20480714D01*
X20243571Y-20480714D01*
X20272143Y-20466429D01*
X20286429Y-20437857D01*
X20286429Y-20423572D01*
X20272143Y-20395000D01*
X20243571Y-20380714D01*
X20200714Y-20380714D01*
X20172143Y-20366429D01*
X20157857Y-20337857D01*
X20157857Y-20323572D01*
X20172143Y-20295000D01*
X20200714Y-20280714D01*
X20243571Y-20280714D01*
X20272143Y-20295000D01*
X20386428Y-20595000D02*
X20400714Y-20580714D01*
X20429286Y-20537857D01*
X20443571Y-20509286D01*
X20457857Y-20466429D01*
X20472143Y-20395000D01*
X20472143Y-20337857D01*
X20457857Y-20266429D01*
X20443571Y-20223572D01*
X20429286Y-20195000D01*
X20400714Y-20152143D01*
X20386428Y-20137857D01*
M02*
