M48
;DRILL file {KiCad 4.0.2-stable} date 19/04/2016 11:26:09
;FORMAT={-:-/ absolute / metric / decimal}
FMAT,2
METRIC,TZ
T1C0.381
T2C0.400
T3C0.700
T4C0.701
T5C0.800
T6C0.800
T7C0.900
T8C1.000
T9C1.016
T10C1.270
%
G90
G05
M71
T1
X45.657Y-61.722
X46.926Y-61.722
X48.197Y-61.722
X49.466Y-61.722
X74.739Y-92.265
X76.01Y-92.265
X77.279Y-92.265
X78.549Y-92.265
X78.613Y-59.499
X78.613Y-60.77
X79.883Y-59.499
X79.883Y-60.77
X86.016Y-63.009
X86.016Y-64.279
X86.016Y-65.549
X86.016Y-66.819
X86.016Y-68.09
X86.016Y-73.995
X86.016Y-75.265
X86.016Y-76.535
X86.016Y-77.805
X86.016Y-79.075
X93.853Y-114.109
X93.916Y-112.014
X95.123Y-114.109
X95.186Y-112.014
X96.393Y-114.109
X96.456Y-112.014
X97.663Y-114.109
X97.727Y-112.014
X98.017Y-63.009
X98.017Y-64.279
X98.017Y-65.549
X98.017Y-66.819
X98.017Y-68.09
X98.017Y-73.995
X98.017Y-75.265
X98.017Y-76.535
X98.017Y-77.805
X98.017Y-79.075
X98.933Y-114.109
X98.996Y-112.014
T2
X32.322Y-75.057
X33.528Y-78.359
X33.528Y-79.756
X34.671Y-77.914
X35.496Y-77.914
X36.703Y-62.484
X36.703Y-77.66
X37.592Y-140.779
X37.937Y-85.063
X37.937Y-86.663
X39.688Y-140.779
X39.751Y-73.914
X39.878Y-116.205
X40.386Y-77.343
X40.824Y-180.276
X40.957Y-76.136
X41.529Y-85.026
X41.593Y-63.563
X42.037Y-54.991
X42.418Y-85.026
X43.053Y-88.963
X43.053Y-152.019
X43.116Y-152.908
X43.18Y-146.812
X43.243Y-77.216
X43.497Y-69.596
X43.688Y-54.229
X43.688Y-149.161
X44.069Y-88.963
X44.133Y-146.812
X44.514Y-54.229
X45.339Y-54.229
X45.339Y-91.948
X45.339Y-95.25
X45.339Y-98.552
X45.339Y-101.854
X45.339Y-105.156
X45.339Y-108.458
X45.593Y-156.337
X45.593Y-159.639
X45.593Y-162.941
X45.593Y-166.243
X45.593Y-169.545
X45.593Y-172.847
X46.418Y-77.343
X49.022Y-68.834
X49.022Y-69.659
X49.721Y-86.487
X50.609Y-156.464
X51.054Y-162.052
X51.181Y-150.939
X51.689Y-156.464
X51.943Y-60.515
X51.943Y-78.93
X52.959Y-77.216
X53.023Y-151.13
X53.594Y-90.678
X54.927Y-172.085
X55.181Y-105.791
X55.689Y-67.691
X55.88Y-68.961
X56.864Y-144.113
X57.404Y-101.409
X57.721Y-167.322
X59.118Y-94.945
X59.245Y-161.607
X59.893Y-106.172
X60.515Y-85.915
X60.642Y-166.306
X61.023Y-70.231
X61.595Y-68.897
X62.357Y-161.417
X63.182Y-164.084
X63.5Y-98.273
X63.627Y-77.279
X64.922Y-107.391
X64.922Y-108.255
X65.126Y-99.416
X65.176Y-158.534
X65.456Y-100.203
X65.913Y-97.739
X65.964Y-115.824
X65.964Y-117.602
X65.977Y-99.504
X66.091Y-106.172
X66.418Y-159.148
X66.777Y-68.529
X67.183Y-169.545
X67.718Y-161.349
X67.737Y-103.763
X67.737Y-104.663
X67.837Y-108.863
X67.837Y-109.763
X68.123Y-160.668
X68.631Y-161.988
X68.897Y-164.401
X69.31Y-173.514
X70.199Y-173.514
X70.612Y-164.401
X70.79Y-98.247
X70.866Y-100.178
X71.406Y-173.514
X71.819Y-114.681
X72.072Y-169.164
X72.39Y-154.432
X72.39Y-155.385
X72.39Y-159.448
X72.453Y-160.464
X73.025Y-151.13
X73.279Y-163.512
X73.66Y-125.857
X73.977Y-97.599
X73.977Y-151.194
X74.041Y-137.414
X74.105Y-170.751
X74.105Y-172.022
X74.231Y-163.449
X74.486Y-110.236
X74.867Y-169.227
X74.93Y-97.663
X75.374Y-116.141
X75.438Y-110.236
X75.629Y-167.322
X76.327Y-160.909
X76.505Y-113.233
X76.962Y-127.381
X77.724Y-156.528
X77.914Y-108.902
X77.914Y-151.32
X77.978Y-110.363
X78.676Y-170.815
X78.74Y-169.227
X78.93Y-97.727
X78.93Y-151.32
X79.375Y-135.445
X79.629Y-131.381
X79.692Y-106.553
X79.947Y-97.727
X80.01Y-156.528
X80.835Y-113.221
X80.962Y-131.445
X81.026Y-135.509
X81.153Y-153.352
X81.343Y-108.839
X81.343Y-109.728
X81.661Y-119.444
X81.978Y-127.698
X82.423Y-152.082
X82.931Y-153.352
X83.037Y-107.863
X83.058Y-163.576
X83.121Y-130.619
X83.312Y-98.234
X83.312Y-99.187
X83.693Y-155.321
X83.757Y-153.797
X83.947Y-163.576
X84.709Y-159.893
X84.836Y-159.067
X84.899Y-120.65
X85.09Y-148.018
X85.471Y-119.316
X85.837Y-112.963
X85.852Y-132.334
X86.804Y-114.681
X87.185Y-108.14
X87.185Y-109.029
X87.537Y-104.663
X87.637Y-114.363
X88.011Y-100.266
X89.027Y-99.251
X90.361Y-132.461
X90.361Y-135.763
X90.551Y-155.892
X90.678Y-62.293
X90.678Y-73.279
X90.868Y-145.796
X91.079Y-174.581
X91.567Y-115.125
X92.392Y-142.684
X92.71Y-116.395
X92.71Y-152.146
X92.71Y-153.987
X93.408Y-65.151
X93.408Y-76.136
X93.535Y-148.526
X93.662Y-99.885
X93.916Y-118.999
X94.996Y-127.
X94.996Y-130.302
X95.885Y-119.38
X96.393Y-139.573
X97.663Y-154.368
X97.917Y-118.999
X98.298Y-174.561
X99.123Y-133.159
X99.504Y-118.999
X101.219Y-174.561
X102.171Y-144.844
X102.362Y-147.828
X102.679Y-62.293
X102.679Y-73.279
X103.124Y-146.113
X103.323Y-155.032
X103.759Y-149.225
X103.759Y-150.812
X105.029Y-174.561
X105.407Y-156.783
X105.41Y-65.151
X105.41Y-76.136
X107.188Y-130.493
X107.312Y-154.37
T3
X52.614Y-88.011
X57.495Y-88.011
X59.159Y-110.694
X59.159Y-120.854
X73.469Y-133.731
X75.437Y-126.616
X77.279Y-133.731
X85.597Y-126.616
X87.947Y-133.667
X90.294Y-176.77
X90.294Y-181.37
X91.757Y-133.667
X93.094Y-176.77
X93.094Y-181.37
X96.027Y-145.283
X96.027Y-147.823
X96.027Y-150.363
X99.715Y-145.285
X99.715Y-147.825
T4
X29.819Y-55.425
X39.979Y-55.425
T5
X105.6Y-143.192
X105.6Y-145.732
X105.6Y-148.653
X105.6Y-151.194
X106.87Y-144.463
X106.87Y-149.923
T6
X51.979Y-154.559
X56.86Y-154.559
T7
X106.108Y-137.874
X106.108Y-139.874
T8
X68.326Y-175.577
X104.584Y-126.873
X107.124Y-126.873
T9
X31.686Y-65.913
X31.686Y-68.453
X31.686Y-70.993
X34.227Y-65.913
X34.227Y-68.453
X34.227Y-70.993
X39.421Y-58.623
X39.421Y-61.163
X44.218Y-177.548
X44.218Y-180.088
X44.729Y-112.852
X44.729Y-115.392
X47.818Y-177.548
X47.818Y-180.088
X48.336Y-112.852
X48.336Y-115.392
X49.657Y-56.197
X50.101Y-128.46
X50.228Y-136.017
X50.228Y-138.557
X51.418Y-177.548
X51.418Y-180.088
X51.943Y-112.852
X51.943Y-115.392
X52.197Y-56.197
X52.642Y-128.46
X52.768Y-136.017
X52.768Y-138.557
X54.737Y-56.197
X55.181Y-128.46
X55.308Y-136.017
X55.308Y-138.557
X57.277Y-56.197
X57.721Y-128.46
X57.848Y-136.017
X57.848Y-138.557
X59.817Y-56.197
X60.261Y-128.46
X60.389Y-136.017
X60.389Y-138.557
X62.166Y-110.617
X62.357Y-56.197
X62.357Y-173.101
X62.801Y-128.46
X64.706Y-110.617
X64.897Y-56.197
X64.897Y-173.101
X65.341Y-128.46
X65.659Y-60.579
X67.437Y-56.197
X67.882Y-128.46
X68.135Y-89.154
X68.135Y-91.694
X68.199Y-60.579
X69.977Y-56.197
X70.421Y-128.46
X72.517Y-56.197
X72.517Y-139.192
X72.517Y-141.732
X72.962Y-128.46
X74.168Y-118.046
X74.168Y-120.587
X75.057Y-139.192
X75.057Y-141.732
X76.708Y-118.046
X76.708Y-120.587
X77.343Y-173.609
X77.343Y-176.149
X77.597Y-87.185
X77.597Y-139.192
X77.597Y-141.732
X79.248Y-118.046
X79.248Y-120.587
X79.883Y-173.609
X79.883Y-176.149
X80.137Y-87.185
X80.137Y-139.192
X80.137Y-141.732
X82.423Y-173.609
X82.423Y-176.149
X82.677Y-87.185
X82.677Y-139.192
X82.677Y-141.732
X84.963Y-173.609
X84.963Y-176.149
X85.217Y-87.185
X87.503Y-173.609
X87.503Y-176.149
X87.757Y-87.185
X90.297Y-87.185
X92.837Y-87.185
X95.377Y-87.185
X96.837Y-158.433
X97.536Y-177.736
X97.536Y-180.276
X97.917Y-87.185
X99.377Y-158.433
X100.076Y-177.736
X100.076Y-180.276
X100.457Y-87.185
X101.727Y-162.877
X101.727Y-165.417
X101.727Y-167.957
X103.437Y-112.663
X103.437Y-115.203
X104.267Y-162.877
X104.267Y-165.417
X104.267Y-167.957
X105.977Y-112.663
X105.977Y-115.203
T10
X68.326Y-179.387
T0
M30
