G04 #@! TF.FileFunction,Profile,NP*
%FSLAX46Y46*%
G04 Gerber Fmt 4.6, Leading zero omitted, Abs format (unit mm)*
G04 Created by KiCad (PCBNEW 4.0.2-stable) date 19/04/2016 11:25:51*
%MOMM*%
G01*
G04 APERTURE LIST*
%ADD10C,0.100000*%
%ADD11C,0.150000*%
G04 APERTURE END LIST*
D10*
D11*
X76250000Y-124250000D02*
X86250000Y-124250000D01*
X86250000Y-122250000D02*
X76250000Y-122250000D01*
X55250000Y-124250000D02*
X60750000Y-124250000D01*
X60750000Y-122250000D02*
X55250000Y-122250000D01*
X98000000Y-61000000D02*
X98250000Y-61000000D01*
X98000000Y-61000000D02*
G75*
G03X96000000Y-63000000I0J-2000000D01*
G01*
X98250000Y-72000000D02*
X98000000Y-72000000D01*
X98000000Y-72000000D02*
G75*
G03X96000000Y-74000000I0J-2000000D01*
G01*
X85750000Y-72000000D02*
X86250000Y-72000000D01*
X85750000Y-72000000D02*
G75*
G03X84000000Y-74250000I250000J-2000000D01*
G01*
X86250000Y-61000000D02*
X86000000Y-61000000D01*
X86000000Y-61000000D02*
G75*
G03X84000000Y-63000000I0J-2000000D01*
G01*
X86250000Y-70000000D02*
X85750000Y-70000000D01*
X91750000Y-72000000D02*
X92000000Y-72000000D01*
X91750000Y-70000000D02*
X92000000Y-70000000D01*
X98250000Y-70000000D02*
X97750000Y-70000000D01*
X104000000Y-70000000D02*
X103750000Y-70000000D01*
X104000000Y-72000000D02*
X103750000Y-72000000D01*
X97750000Y-81000000D02*
X98250000Y-81000000D01*
X98250000Y-83000000D02*
X92000000Y-83000000D01*
X103750000Y-81000000D02*
X104000000Y-81000000D01*
X106750000Y-83000000D02*
X103750000Y-83000000D01*
X85750000Y-81000000D02*
X86500000Y-81000000D01*
X76250000Y-83000000D02*
X76500000Y-83000000D01*
X76250000Y-81000000D02*
X80000000Y-81000000D01*
X101750000Y-124250000D02*
X107000000Y-124250000D01*
X107000000Y-122250000D02*
X101750000Y-122250000D01*
X108250000Y-124250000D02*
X107000000Y-124250000D01*
X91000000Y-82000000D02*
G75*
G03X92000000Y-83000000I1000000J0D01*
G01*
X92000000Y-81000000D02*
G75*
G03X91000000Y-82000000I0J-1000000D01*
G01*
X90500000Y-82750000D02*
G75*
G03X90500000Y-82750000I-250000J0D01*
G01*
X89750000Y-82750000D02*
G75*
G03X89750000Y-82750000I-250000J0D01*
G01*
X89000000Y-82750000D02*
G75*
G03X89000000Y-82750000I-250000J0D01*
G01*
X88250000Y-82750000D02*
G75*
G03X88250000Y-82750000I-250000J0D01*
G01*
X90500000Y-81250000D02*
G75*
G03X90500000Y-81250000I-250000J0D01*
G01*
X89750000Y-81250000D02*
G75*
G03X89750000Y-81250000I-250000J0D01*
G01*
X89000000Y-81250000D02*
G75*
G03X89000000Y-81250000I-250000J0D01*
G01*
X88250000Y-81250000D02*
G75*
G03X88250000Y-81250000I-250000J0D01*
G01*
X86500000Y-83000000D02*
G75*
G03X87500000Y-82000000I0J1000000D01*
G01*
X87500000Y-82000000D02*
G75*
G03X86500000Y-81000000I-1000000J0D01*
G01*
X86500000Y-83000000D02*
X76500000Y-83000000D01*
X99250000Y-71000000D02*
G75*
G03X98250000Y-70000000I-1000000J0D01*
G01*
X98250000Y-72000000D02*
G75*
G03X99250000Y-71000000I0J1000000D01*
G01*
X100000000Y-70250000D02*
G75*
G03X100000000Y-70250000I-250000J0D01*
G01*
X100750000Y-70250000D02*
G75*
G03X100750000Y-70250000I-250000J0D01*
G01*
X101500000Y-70250000D02*
G75*
G03X101500000Y-70250000I-250000J0D01*
G01*
X102250000Y-70250000D02*
G75*
G03X102250000Y-70250000I-250000J0D01*
G01*
X100000000Y-71750000D02*
G75*
G03X100000000Y-71750000I-250000J0D01*
G01*
X100750000Y-71750000D02*
G75*
G03X100750000Y-71750000I-250000J0D01*
G01*
X101500000Y-71750000D02*
G75*
G03X101500000Y-71750000I-250000J0D01*
G01*
X102250000Y-71750000D02*
G75*
G03X102250000Y-71750000I-250000J0D01*
G01*
X103750000Y-70000000D02*
G75*
G03X102750000Y-71000000I0J-1000000D01*
G01*
X102750000Y-71000000D02*
G75*
G03X103750000Y-72000000I1000000J0D01*
G01*
X102750000Y-82000000D02*
G75*
G03X103750000Y-83000000I1000000J0D01*
G01*
X103750000Y-81000000D02*
G75*
G03X102750000Y-82000000I0J-1000000D01*
G01*
X102250000Y-82750000D02*
G75*
G03X102250000Y-82750000I-250000J0D01*
G01*
X101500000Y-82750000D02*
G75*
G03X101500000Y-82750000I-250000J0D01*
G01*
X100750000Y-82750000D02*
G75*
G03X100750000Y-82750000I-250000J0D01*
G01*
X100000000Y-82750000D02*
G75*
G03X100000000Y-82750000I-250000J0D01*
G01*
X102250000Y-81250000D02*
G75*
G03X102250000Y-81250000I-250000J0D01*
G01*
X101500000Y-81250000D02*
G75*
G03X101500000Y-81250000I-250000J0D01*
G01*
X100750000Y-81250000D02*
G75*
G03X100750000Y-81250000I-250000J0D01*
G01*
X100000000Y-81250000D02*
G75*
G03X100000000Y-81250000I-250000J0D01*
G01*
X98250000Y-83000000D02*
G75*
G03X99250000Y-82000000I0J1000000D01*
G01*
X99250000Y-82000000D02*
G75*
G03X98250000Y-81000000I-1000000J0D01*
G01*
X101750000Y-124250000D02*
X91750000Y-124250000D01*
X91750000Y-122250000D02*
X101750000Y-122250000D01*
X66250000Y-122250000D02*
X76250000Y-122250000D01*
X76250000Y-124250000D02*
X66250000Y-124250000D01*
X87250000Y-123250000D02*
G75*
G03X86250000Y-122250000I-1000000J0D01*
G01*
X86250000Y-124250000D02*
G75*
G03X87250000Y-123250000I0J1000000D01*
G01*
X88000000Y-122500000D02*
G75*
G03X88000000Y-122500000I-250000J0D01*
G01*
X88750000Y-122500000D02*
G75*
G03X88750000Y-122500000I-250000J0D01*
G01*
X89500000Y-122500000D02*
G75*
G03X89500000Y-122500000I-250000J0D01*
G01*
X90250000Y-122500000D02*
G75*
G03X90250000Y-122500000I-250000J0D01*
G01*
X88000000Y-124000000D02*
G75*
G03X88000000Y-124000000I-250000J0D01*
G01*
X88750000Y-124000000D02*
G75*
G03X88750000Y-124000000I-250000J0D01*
G01*
X89500000Y-124000000D02*
G75*
G03X89500000Y-124000000I-250000J0D01*
G01*
X90250000Y-124000000D02*
G75*
G03X90250000Y-124000000I-250000J0D01*
G01*
X91750000Y-122250000D02*
G75*
G03X90750000Y-123250000I0J-1000000D01*
G01*
X90750000Y-123250000D02*
G75*
G03X91750000Y-124250000I1000000J0D01*
G01*
X65250000Y-123250000D02*
G75*
G03X66250000Y-124250000I1000000J0D01*
G01*
X66250000Y-122250000D02*
G75*
G03X65250000Y-123250000I0J-1000000D01*
G01*
X64750000Y-124000000D02*
G75*
G03X64750000Y-124000000I-250000J0D01*
G01*
X64000000Y-124000000D02*
G75*
G03X64000000Y-124000000I-250000J0D01*
G01*
X63250000Y-124000000D02*
G75*
G03X63250000Y-124000000I-250000J0D01*
G01*
X62500000Y-124000000D02*
G75*
G03X62500000Y-124000000I-250000J0D01*
G01*
X64750000Y-122500000D02*
G75*
G03X64750000Y-122500000I-250000J0D01*
G01*
X64000000Y-122500000D02*
G75*
G03X64000000Y-122500000I-250000J0D01*
G01*
X63250000Y-122500000D02*
G75*
G03X63250000Y-122500000I-250000J0D01*
G01*
X62500000Y-122500000D02*
G75*
G03X62500000Y-122500000I-250000J0D01*
G01*
X60750000Y-124250000D02*
G75*
G03X61750000Y-123250000I0J1000000D01*
G01*
X61750000Y-123250000D02*
G75*
G03X60750000Y-122250000I-1000000J0D01*
G01*
X60750000Y-124250000D02*
X50750000Y-124250000D01*
X50750000Y-122250000D02*
X60750000Y-122250000D01*
X29750000Y-122250000D02*
X39750000Y-122250000D01*
X39750000Y-124250000D02*
X29750000Y-124250000D01*
X40750000Y-123250000D02*
G75*
G03X39750000Y-122250000I-1000000J0D01*
G01*
X39750000Y-124250000D02*
G75*
G03X40750000Y-123250000I0J1000000D01*
G01*
X41500000Y-122500000D02*
G75*
G03X41500000Y-122500000I-250000J0D01*
G01*
X42250000Y-122500000D02*
G75*
G03X42250000Y-122500000I-250000J0D01*
G01*
X43000000Y-122500000D02*
G75*
G03X43000000Y-122500000I-250000J0D01*
G01*
X43750000Y-122500000D02*
G75*
G03X43750000Y-122500000I-250000J0D01*
G01*
X41500000Y-124000000D02*
G75*
G03X41500000Y-124000000I-250000J0D01*
G01*
X42250000Y-124000000D02*
G75*
G03X42250000Y-124000000I-250000J0D01*
G01*
X43000000Y-124000000D02*
G75*
G03X43000000Y-124000000I-250000J0D01*
G01*
X43750000Y-124000000D02*
G75*
G03X43750000Y-124000000I-250000J0D01*
G01*
X45250000Y-122250000D02*
G75*
G03X44250000Y-123250000I0J-1000000D01*
G01*
X44250000Y-123250000D02*
G75*
G03X45250000Y-124250000I1000000J0D01*
G01*
X55250000Y-124250000D02*
X45250000Y-124250000D01*
X45250000Y-122250000D02*
X55250000Y-122250000D01*
X45250000Y-81000000D02*
X55250000Y-81000000D01*
X55250000Y-83000000D02*
X45250000Y-83000000D01*
X56250000Y-82000000D02*
G75*
G03X55250000Y-81000000I-1000000J0D01*
G01*
X55250000Y-83000000D02*
G75*
G03X56250000Y-82000000I0J1000000D01*
G01*
X57000000Y-81250000D02*
G75*
G03X57000000Y-81250000I-250000J0D01*
G01*
X57750000Y-81250000D02*
G75*
G03X57750000Y-81250000I-250000J0D01*
G01*
X58500000Y-81250000D02*
G75*
G03X58500000Y-81250000I-250000J0D01*
G01*
X59250000Y-81250000D02*
G75*
G03X59250000Y-81250000I-250000J0D01*
G01*
X57000000Y-82750000D02*
G75*
G03X57000000Y-82750000I-250000J0D01*
G01*
X57750000Y-82750000D02*
G75*
G03X57750000Y-82750000I-250000J0D01*
G01*
X58500000Y-82750000D02*
G75*
G03X58500000Y-82750000I-250000J0D01*
G01*
X59250000Y-82750000D02*
G75*
G03X59250000Y-82750000I-250000J0D01*
G01*
X60750000Y-81000000D02*
G75*
G03X59750000Y-82000000I0J-1000000D01*
G01*
X59750000Y-82000000D02*
G75*
G03X60750000Y-83000000I1000000J0D01*
G01*
X44250000Y-82000000D02*
G75*
G03X45250000Y-83000000I1000000J0D01*
G01*
X45250000Y-81000000D02*
G75*
G03X44250000Y-82000000I0J-1000000D01*
G01*
X43750000Y-82750000D02*
G75*
G03X43750000Y-82750000I-250000J0D01*
G01*
X43000000Y-82750000D02*
G75*
G03X43000000Y-82750000I-250000J0D01*
G01*
X42250000Y-82750000D02*
G75*
G03X42250000Y-82750000I-250000J0D01*
G01*
X41500000Y-82750000D02*
G75*
G03X41500000Y-82750000I-250000J0D01*
G01*
X43750000Y-81250000D02*
G75*
G03X43750000Y-81250000I-250000J0D01*
G01*
X43000000Y-81250000D02*
G75*
G03X43000000Y-81250000I-250000J0D01*
G01*
X42250000Y-81250000D02*
G75*
G03X42250000Y-81250000I-250000J0D01*
G01*
X41500000Y-81250000D02*
G75*
G03X41500000Y-81250000I-250000J0D01*
G01*
X39750000Y-83000000D02*
G75*
G03X40750000Y-82000000I0J1000000D01*
G01*
X40750000Y-82000000D02*
G75*
G03X39750000Y-81000000I-1000000J0D01*
G01*
X39750000Y-83000000D02*
X29750000Y-83000000D01*
X29750000Y-81000000D02*
X39750000Y-81000000D01*
X60750000Y-81000000D02*
X70750000Y-81000000D01*
X70750000Y-83000000D02*
X60750000Y-83000000D01*
X71750000Y-82000000D02*
G75*
G03X70750000Y-81000000I-1000000J0D01*
G01*
X70750000Y-83000000D02*
G75*
G03X71750000Y-82000000I0J1000000D01*
G01*
X72500000Y-81250000D02*
G75*
G03X72500000Y-81250000I-250000J0D01*
G01*
X73250000Y-81250000D02*
G75*
G03X73250000Y-81250000I-250000J0D01*
G01*
X74000000Y-81250000D02*
G75*
G03X74000000Y-81250000I-250000J0D01*
G01*
X74750000Y-81250000D02*
G75*
G03X74750000Y-81250000I-250000J0D01*
G01*
X72500000Y-82750000D02*
G75*
G03X72500000Y-82750000I-250000J0D01*
G01*
X73250000Y-82750000D02*
G75*
G03X73250000Y-82750000I-250000J0D01*
G01*
X74000000Y-82750000D02*
G75*
G03X74000000Y-82750000I-250000J0D01*
G01*
X74750000Y-82750000D02*
G75*
G03X74750000Y-82750000I-250000J0D01*
G01*
X76250000Y-81000000D02*
G75*
G03X75250000Y-82000000I0J-1000000D01*
G01*
X75250000Y-82000000D02*
G75*
G03X76250000Y-83000000I1000000J0D01*
G01*
X90750000Y-71000000D02*
G75*
G03X91750000Y-72000000I1000000J0D01*
G01*
X91750000Y-70000000D02*
G75*
G03X90750000Y-71000000I0J-1000000D01*
G01*
X90250000Y-71750000D02*
G75*
G03X90250000Y-71750000I-250000J0D01*
G01*
X89500000Y-71750000D02*
G75*
G03X89500000Y-71750000I-250000J0D01*
G01*
X88750000Y-71750000D02*
G75*
G03X88750000Y-71750000I-250000J0D01*
G01*
X88000000Y-71750000D02*
G75*
G03X88000000Y-71750000I-250000J0D01*
G01*
X90250000Y-70250000D02*
G75*
G03X90250000Y-70250000I-250000J0D01*
G01*
X89500000Y-70250000D02*
G75*
G03X89500000Y-70250000I-250000J0D01*
G01*
X88750000Y-70250000D02*
G75*
G03X88750000Y-70250000I-250000J0D01*
G01*
X88000000Y-70250000D02*
G75*
G03X88000000Y-70250000I-250000J0D01*
G01*
X86250000Y-72000000D02*
G75*
G03X87250000Y-71000000I0J1000000D01*
G01*
X87250000Y-71000000D02*
G75*
G03X86250000Y-70000000I-1000000J0D01*
G01*
X110250000Y-126250000D02*
X110250000Y-182250000D01*
X27750000Y-182250000D02*
X27750000Y-126250000D01*
X108250000Y-184250000D02*
X29750000Y-184250000D01*
X108250000Y-184250000D02*
G75*
G03X110250000Y-182250000I0J2000000D01*
G01*
X110250000Y-126250000D02*
G75*
G03X108250000Y-124250000I-2000000J0D01*
G01*
X29750000Y-124250000D02*
G75*
G03X27750000Y-126250000I0J-2000000D01*
G01*
X27750000Y-182250000D02*
G75*
G03X29750000Y-184250000I2000000J0D01*
G01*
X82000000Y-55250000D02*
X82000000Y-79000000D01*
X29750000Y-53250000D02*
X80000000Y-53250000D01*
X27750000Y-79000000D02*
X27750000Y-55250000D01*
X80000000Y-81000000D02*
G75*
G03X82000000Y-79000000I0J2000000D01*
G01*
X27750000Y-79000000D02*
G75*
G03X29750000Y-81000000I2000000J0D01*
G01*
X29750000Y-53250000D02*
G75*
G03X27750000Y-55250000I0J-2000000D01*
G01*
X82000000Y-55250000D02*
G75*
G03X80000000Y-53250000I-2000000J0D01*
G01*
X108750000Y-120000000D02*
X108750000Y-85000000D01*
X27750000Y-85000000D02*
X27750000Y-120250000D01*
X108750000Y-85000000D02*
G75*
G03X106750000Y-83000000I-2000000J0D01*
G01*
X107000000Y-122250000D02*
G75*
G03X108750000Y-120000000I-250000J2000000D01*
G01*
X27750000Y-120250000D02*
G75*
G03X29750000Y-122250000I2000000J0D01*
G01*
X29750000Y-83000000D02*
G75*
G03X27750000Y-85000000I0J-2000000D01*
G01*
X84000000Y-73750000D02*
X84000000Y-78750000D01*
X94000000Y-79000000D02*
X94000000Y-74000000D01*
X94000000Y-74000000D02*
G75*
G03X92000000Y-72000000I-2000000J0D01*
G01*
X92000000Y-81000000D02*
G75*
G03X94000000Y-79000000I0J2000000D01*
G01*
X84000000Y-78750000D02*
G75*
G03X85750000Y-81000000I2000000J-250000D01*
G01*
X96000000Y-73750000D02*
X96000000Y-78750000D01*
X106000000Y-79000000D02*
X106000000Y-74000000D01*
X106000000Y-74000000D02*
G75*
G03X104000000Y-72000000I-2000000J0D01*
G01*
X104000000Y-81000000D02*
G75*
G03X106000000Y-79000000I0J2000000D01*
G01*
X96000000Y-78750000D02*
G75*
G03X97750000Y-81000000I2000000J-250000D01*
G01*
X84000000Y-62750000D02*
X84000000Y-67750000D01*
X92000000Y-61000000D02*
X86250000Y-61000000D01*
X94000000Y-68000000D02*
X94000000Y-63000000D01*
X94000000Y-63000000D02*
G75*
G03X92000000Y-61000000I-2000000J0D01*
G01*
X92000000Y-70000000D02*
G75*
G03X94000000Y-68000000I0J2000000D01*
G01*
X84000000Y-67750000D02*
G75*
G03X85750000Y-70000000I2000000J-250000D01*
G01*
X96000000Y-62750000D02*
X96000000Y-67750000D01*
X104000000Y-61000000D02*
X98250000Y-61000000D01*
X106000000Y-68000000D02*
X106000000Y-63000000D01*
X106000000Y-63000000D02*
G75*
G03X104000000Y-61000000I-2000000J0D01*
G01*
X104000000Y-70000000D02*
G75*
G03X106000000Y-68000000I0J2000000D01*
G01*
X96000000Y-67750000D02*
G75*
G03X97750000Y-70000000I2000000J-250000D01*
G01*
X110218000Y-126248500D02*
X110218000Y-182248500D01*
X27718000Y-182248500D02*
X27718000Y-126248500D01*
X108218000Y-184248500D02*
X29718000Y-184248500D01*
X108218000Y-184248500D02*
G75*
G03X110218000Y-182248500I0J2000000D01*
G01*
X110218000Y-126248500D02*
G75*
G03X108218000Y-124248500I-2000000J0D01*
G01*
X29718000Y-124248500D02*
G75*
G03X27718000Y-126248500I0J-2000000D01*
G01*
X27718000Y-182248500D02*
G75*
G03X29718000Y-184248500I2000000J0D01*
G01*
X108787000Y-120013000D02*
X108787000Y-85013000D01*
X27787000Y-85013000D02*
X27787000Y-120263000D01*
X108787000Y-85013000D02*
G75*
G03X106787000Y-83013000I-2000000J0D01*
G01*
X107037000Y-122263000D02*
G75*
G03X108787000Y-120013000I-250000J2000000D01*
G01*
X27787000Y-120263000D02*
G75*
G03X29787000Y-122263000I2000000J0D01*
G01*
X29787000Y-83013000D02*
G75*
G03X27787000Y-85013000I0J-2000000D01*
G01*
X82029000Y-55264000D02*
X82029000Y-79014000D01*
X29779000Y-53264000D02*
X80029000Y-53264000D01*
X27779000Y-79014000D02*
X27779000Y-55264000D01*
X80029000Y-81014000D02*
G75*
G03X82029000Y-79014000I0J2000000D01*
G01*
X27779000Y-79014000D02*
G75*
G03X29779000Y-81014000I2000000J0D01*
G01*
X29779000Y-53264000D02*
G75*
G03X27779000Y-55264000I0J-2000000D01*
G01*
X82029000Y-55264000D02*
G75*
G03X80029000Y-53264000I-2000000J0D01*
G01*
X84023500Y-73730500D02*
X84023500Y-78730500D01*
X94023500Y-78980500D02*
X94023500Y-73980500D01*
X94023500Y-73980500D02*
G75*
G03X92023500Y-71980500I-2000000J0D01*
G01*
X92023500Y-80980500D02*
G75*
G03X94023500Y-78980500I0J2000000D01*
G01*
X84023500Y-78730500D02*
G75*
G03X85773500Y-80980500I2000000J-250000D01*
G01*
X96025000Y-62745000D02*
X96025000Y-67745000D01*
X104025000Y-60995000D02*
X98275000Y-60995000D01*
X106025000Y-67995000D02*
X106025000Y-62995000D01*
X106025000Y-62995000D02*
G75*
G03X104025000Y-60995000I-2000000J0D01*
G01*
X104025000Y-69995000D02*
G75*
G03X106025000Y-67995000I0J2000000D01*
G01*
X96025000Y-67745000D02*
G75*
G03X97775000Y-69995000I2000000J-250000D01*
G01*
X96025000Y-73730500D02*
X96025000Y-78730500D01*
X106025000Y-78980500D02*
X106025000Y-73980500D01*
X106025000Y-73980500D02*
G75*
G03X104025000Y-71980500I-2000000J0D01*
G01*
X104025000Y-80980500D02*
G75*
G03X106025000Y-78980500I0J2000000D01*
G01*
X96025000Y-78730500D02*
G75*
G03X97775000Y-80980500I2000000J-250000D01*
G01*
X84023500Y-62745000D02*
X84023500Y-67745000D01*
X92023500Y-60995000D02*
X86273500Y-60995000D01*
X94023500Y-67995000D02*
X94023500Y-62995000D01*
X94023500Y-62995000D02*
G75*
G03X92023500Y-60995000I-2000000J0D01*
G01*
X92023500Y-69995000D02*
G75*
G03X94023500Y-67995000I0J2000000D01*
G01*
X84023500Y-67745000D02*
G75*
G03X85773500Y-69995000I2000000J-250000D01*
G01*
X110218000Y-126248500D02*
X110218000Y-182248500D01*
X27718000Y-182248500D02*
X27718000Y-126248500D01*
X108218000Y-184248500D02*
X29718000Y-184248500D01*
X108218000Y-184248500D02*
G75*
G03X110218000Y-182248500I0J2000000D01*
G01*
X110218000Y-126248500D02*
G75*
G03X108218000Y-124248500I-2000000J0D01*
G01*
X29718000Y-124248500D02*
G75*
G03X27718000Y-126248500I0J-2000000D01*
G01*
X27718000Y-182248500D02*
G75*
G03X29718000Y-184248500I2000000J0D01*
G01*
M02*
