G04 #@! TF.FileFunction,Soldermask,Bot*
%FSLAX46Y46*%
G04 Gerber Fmt 4.6, Leading zero omitted, Abs format (unit mm)*
G04 Created by KiCad (PCBNEW 4.0.2-stable) date 19/04/2016 11:25:51*
%MOMM*%
G01*
G04 APERTURE LIST*
%ADD10C,0.100000*%
%ADD11R,2.127200X2.432000*%
%ADD12O,2.127200X2.432000*%
%ADD13R,1.150000X1.200000*%
%ADD14R,1.200000X1.150000*%
%ADD15C,2.099260*%
%ADD16R,2.099260X2.099260*%
%ADD17R,2.127200X2.127200*%
%ADD18O,2.127200X2.127200*%
%ADD19C,1.162000*%
%ADD20R,2.432000X2.432000*%
%ADD21O,2.432000X2.432000*%
%ADD22R,0.900000X1.300000*%
%ADD23C,1.901140*%
%ADD24O,2.200860X1.700480*%
%ADD25C,1.700480*%
%ADD26C,1.900000*%
%ADD27R,1.900000X1.900000*%
%ADD28C,1.600000*%
%ADD29C,2.100000*%
%ADD30R,2.100000X2.100000*%
%ADD31R,1.300000X0.900000*%
%ADD32R,2.400000X1.800000*%
%ADD33C,2.398980*%
G04 APERTURE END LIST*
D10*
D11*
X77597000Y-87185500D03*
D12*
X80137000Y-87185500D03*
X82677000Y-87185500D03*
X85217000Y-87185500D03*
X87757000Y-87185500D03*
X90297000Y-87185500D03*
X92837000Y-87185500D03*
X95377000Y-87185500D03*
X97917000Y-87185500D03*
X100457000Y-87185500D03*
D13*
X86296500Y-107835000D03*
X86296500Y-109335000D03*
D14*
X78942500Y-108902500D03*
X80442500Y-108902500D03*
X78942500Y-107315000D03*
X80442500Y-107315000D03*
D13*
X84709000Y-107835000D03*
X84709000Y-109335000D03*
X84645500Y-98183000D03*
X84645500Y-99683000D03*
D14*
X78434500Y-96329500D03*
X79934500Y-96329500D03*
X73481500Y-96266000D03*
X74981500Y-96266000D03*
D13*
X69278500Y-104890000D03*
X69278500Y-103390000D03*
X69237000Y-110013000D03*
X69237000Y-108513000D03*
D14*
X73926000Y-111696500D03*
X75426000Y-111696500D03*
X80442500Y-105727500D03*
X78942500Y-105727500D03*
D15*
X59159140Y-120853720D03*
D16*
X59159140Y-110693720D03*
D17*
X103437000Y-112663000D03*
D18*
X105977000Y-112663000D03*
X103437000Y-115203000D03*
X105977000Y-115203000D03*
D17*
X74168000Y-120586500D03*
D18*
X74168000Y-118046500D03*
X76708000Y-120586500D03*
X76708000Y-118046500D03*
X79248000Y-120586500D03*
X79248000Y-118046500D03*
D19*
X93853000Y-114109500D03*
X98933000Y-114109500D03*
X97663000Y-114109500D03*
X96393000Y-114109500D03*
X95123000Y-114109500D03*
X93916500Y-112014000D03*
X98996500Y-112014000D03*
X97726500Y-112014000D03*
X96456500Y-112014000D03*
X95186500Y-112014000D03*
D20*
X68135500Y-91694000D03*
D21*
X68135500Y-89154000D03*
D20*
X51943000Y-112852200D03*
D21*
X51943000Y-115392200D03*
D20*
X48336200Y-112852200D03*
D21*
X48336200Y-115392200D03*
D20*
X44729400Y-112852200D03*
D21*
X44729400Y-115392200D03*
D19*
X74739500Y-92265500D03*
X76009500Y-92265500D03*
X77279500Y-92265500D03*
X78549500Y-92265500D03*
D22*
X82879500Y-119316500D03*
X84379500Y-119316500D03*
D23*
X57495440Y-88011000D03*
X52613560Y-88011000D03*
D20*
X64706500Y-110617000D03*
D21*
X62166500Y-110617000D03*
D15*
X29819080Y-55425340D03*
D16*
X39979080Y-55425340D03*
D13*
X47561500Y-69965000D03*
X47561500Y-68465000D03*
X57086500Y-67703000D03*
X57086500Y-69203000D03*
D17*
X34226500Y-70993000D03*
D18*
X31686500Y-70993000D03*
X34226500Y-68453000D03*
X31686500Y-68453000D03*
X34226500Y-65913000D03*
X31686500Y-65913000D03*
D19*
X45656500Y-61722000D03*
X46926500Y-61722000D03*
X48196500Y-61722000D03*
X49466500Y-61722000D03*
D20*
X68199000Y-60579000D03*
D21*
X65659000Y-60579000D03*
D11*
X49657000Y-56197500D03*
D12*
X52197000Y-56197500D03*
X54737000Y-56197500D03*
X57277000Y-56197500D03*
X59817000Y-56197500D03*
X62357000Y-56197500D03*
X64897000Y-56197500D03*
X67437000Y-56197500D03*
X69977000Y-56197500D03*
X72517000Y-56197500D03*
D19*
X78613000Y-59499500D03*
X79883000Y-59499500D03*
X78613000Y-60769500D03*
X79883000Y-60769500D03*
D20*
X39420800Y-61163200D03*
D21*
X39420800Y-58623200D03*
D19*
X86015500Y-73995000D03*
X86015500Y-79075000D03*
X86015500Y-77805000D03*
X86015500Y-76535000D03*
X86015500Y-75265000D03*
X98017000Y-63009500D03*
X98017000Y-68089500D03*
X98017000Y-66819500D03*
X98017000Y-65549500D03*
X98017000Y-64279500D03*
X98017000Y-73995000D03*
X98017000Y-79075000D03*
X98017000Y-77805000D03*
X98017000Y-76535000D03*
X98017000Y-75265000D03*
X86015500Y-63009500D03*
X86015500Y-68089500D03*
X86015500Y-66819500D03*
X86015500Y-65549500D03*
X86015500Y-64279500D03*
D17*
X82677000Y-139192000D03*
D18*
X82677000Y-141732000D03*
X80137000Y-139192000D03*
X80137000Y-141732000D03*
X77597000Y-139192000D03*
X77597000Y-141732000D03*
X75057000Y-139192000D03*
X75057000Y-141732000D03*
X72517000Y-139192000D03*
X72517000Y-141732000D03*
D14*
X82435000Y-148018500D03*
X83935000Y-148018500D03*
D17*
X60388500Y-136017000D03*
D18*
X60388500Y-138557000D03*
X57848500Y-136017000D03*
X57848500Y-138557000D03*
X55308500Y-136017000D03*
X55308500Y-138557000D03*
X52768500Y-136017000D03*
X52768500Y-138557000D03*
X50228500Y-136017000D03*
X50228500Y-138557000D03*
D24*
X106870500Y-149923500D03*
D25*
X105777411Y-148476589D02*
X105423589Y-148830411D01*
X105423589Y-151016589D02*
X105777411Y-151370411D01*
D26*
X56860440Y-154559000D03*
X51978560Y-154559000D03*
D14*
X82435000Y-149606000D03*
X83935000Y-149606000D03*
D13*
X86169500Y-153809000D03*
X86169500Y-155309000D03*
D14*
X51193000Y-160972500D03*
X52693000Y-160972500D03*
X71005000Y-125857000D03*
X72505000Y-125857000D03*
X37921500Y-139763500D03*
X39421500Y-139763500D03*
X77482000Y-149669500D03*
X78982000Y-149669500D03*
X72465500Y-149669500D03*
X73965500Y-149669500D03*
D13*
X70802500Y-155944000D03*
X70802500Y-154444000D03*
X70802500Y-160770000D03*
X70802500Y-159270000D03*
D14*
X74854500Y-164846000D03*
X73354500Y-164846000D03*
X83998500Y-165036500D03*
X82498500Y-165036500D03*
D13*
X86233000Y-160071500D03*
X86233000Y-158571500D03*
X84582000Y-153809000D03*
X84582000Y-155309000D03*
D17*
X97536000Y-177736500D03*
D18*
X100076000Y-177736500D03*
X97536000Y-180276500D03*
X100076000Y-180276500D03*
D17*
X104267000Y-167957500D03*
D18*
X101727000Y-167957500D03*
X104267000Y-165417500D03*
X101727000Y-165417500D03*
X104267000Y-162877500D03*
X101727000Y-162877500D03*
D17*
X77343000Y-176149000D03*
D18*
X77343000Y-173609000D03*
X79883000Y-176149000D03*
X79883000Y-173609000D03*
X82423000Y-176149000D03*
X82423000Y-173609000D03*
X84963000Y-176149000D03*
X84963000Y-173609000D03*
X87503000Y-176149000D03*
X87503000Y-173609000D03*
D11*
X50101500Y-128460500D03*
D12*
X52641500Y-128460500D03*
X55181500Y-128460500D03*
X57721500Y-128460500D03*
X60261500Y-128460500D03*
X62801500Y-128460500D03*
X65341500Y-128460500D03*
X67881500Y-128460500D03*
X70421500Y-128460500D03*
X72961500Y-128460500D03*
D22*
X76148500Y-170815000D03*
X77648500Y-170815000D03*
X65290000Y-159829500D03*
X66790000Y-159829500D03*
X65290000Y-161544000D03*
X66790000Y-161544000D03*
D27*
X96027240Y-145282920D03*
D26*
X96027240Y-147822920D03*
X96027240Y-150362920D03*
D27*
X99715320Y-147825460D03*
D26*
X99715320Y-145285460D03*
D20*
X51418000Y-177548500D03*
D21*
X51418000Y-180088500D03*
D20*
X47818000Y-177548500D03*
D21*
X47818000Y-180088500D03*
D20*
X44218000Y-177548500D03*
D21*
X44218000Y-180088500D03*
D28*
X93094000Y-181370000D03*
X90294000Y-181370000D03*
X93094000Y-176770000D03*
X90294000Y-176770000D03*
D24*
X106870500Y-144462500D03*
D25*
X105777411Y-143015589D02*
X105423589Y-143369411D01*
X105423589Y-145555589D02*
X105777411Y-145909411D01*
D29*
X75437480Y-126616460D03*
D16*
X85597480Y-126616460D03*
D29*
X91757500Y-133667500D03*
D30*
X87947500Y-133667500D03*
D29*
X73469500Y-133731000D03*
D30*
X77279500Y-133731000D03*
D31*
X85852000Y-134608000D03*
X85852000Y-133108000D03*
D20*
X104584500Y-126873000D03*
D21*
X107124500Y-126873000D03*
D20*
X99377500Y-158432500D03*
D21*
X96837500Y-158432500D03*
D32*
X106108500Y-137874500D03*
X106108500Y-139874500D03*
D20*
X64897000Y-173101000D03*
D21*
X62357000Y-173101000D03*
D33*
X68326000Y-179387500D03*
D30*
X68326000Y-175577500D03*
M02*
