G04 #@! TF.FileFunction,Copper,L2,Bot,Signal*
%FSLAX46Y46*%
G04 Gerber Fmt 4.6, Leading zero omitted, Abs format (unit mm)*
G04 Created by KiCad (PCBNEW (2015-08-05 BZR 6055, Git fa29c62)-product) date 10/03/2016 14:30:23*
%MOMM*%
G01*
G04 APERTURE LIST*
%ADD10C,0.100000*%
%ADD11C,4.064000*%
%ADD12R,1.727200X1.727200*%
%ADD13O,1.727200X1.727200*%
%ADD14R,0.800000X0.750000*%
%ADD15O,1.800860X1.300480*%
%ADD16C,1.300480*%
%ADD17C,1.501140*%
%ADD18R,0.750000X0.800000*%
%ADD19C,1.699260*%
%ADD20R,1.699260X1.699260*%
%ADD21R,1.727200X2.032000*%
%ADD22O,1.727200X2.032000*%
%ADD23R,0.500000X0.900000*%
%ADD24R,1.500000X1.500000*%
%ADD25C,1.500000*%
%ADD26R,2.032000X2.032000*%
%ADD27O,2.032000X2.032000*%
%ADD28C,1.200000*%
%ADD29C,1.998980*%
%ADD30R,1.998980X1.998980*%
%ADD31R,1.600000X1.200000*%
%ADD32R,0.900000X0.500000*%
%ADD33R,0.800000X0.800000*%
%ADD34O,0.800000X0.800000*%
%ADD35C,0.600000*%
%ADD36C,0.254000*%
%ADD37C,0.508000*%
%ADD38C,0.381000*%
G04 APERTURE END LIST*
D10*
D11*
X141287500Y-161671000D03*
X64389000Y-161671000D03*
X141287500Y-107188000D03*
D12*
X116459000Y-119443500D03*
D13*
X116459000Y-121983500D03*
X113919000Y-119443500D03*
X113919000Y-121983500D03*
X111379000Y-119443500D03*
X111379000Y-121983500D03*
X108839000Y-119443500D03*
X108839000Y-121983500D03*
X106299000Y-119443500D03*
X106299000Y-121983500D03*
D14*
X116217000Y-128270000D03*
X117717000Y-128270000D03*
D12*
X94170500Y-116268500D03*
D13*
X94170500Y-118808500D03*
X91630500Y-116268500D03*
X91630500Y-118808500D03*
X89090500Y-116268500D03*
X89090500Y-118808500D03*
X86550500Y-116268500D03*
X86550500Y-118808500D03*
X84010500Y-116268500D03*
X84010500Y-118808500D03*
D15*
X138747500Y-137096500D03*
D16*
X137654411Y-135649589D02*
X137300589Y-136003411D01*
X137300589Y-138189589D02*
X137654411Y-138543411D01*
D17*
X97881440Y-151574500D03*
X92999560Y-151574500D03*
D14*
X116217000Y-129857500D03*
X117717000Y-129857500D03*
D18*
X119951500Y-134060500D03*
X119951500Y-135560500D03*
D14*
X87070500Y-148463000D03*
X88570500Y-148463000D03*
X104787000Y-106108500D03*
X106287000Y-106108500D03*
X73203500Y-120015000D03*
X71703500Y-120015000D03*
X89078500Y-126238000D03*
X87578500Y-126238000D03*
X111264000Y-129921000D03*
X112764000Y-129921000D03*
X106247500Y-129921000D03*
X107747500Y-129921000D03*
D18*
X104584500Y-136195500D03*
X104584500Y-134695500D03*
X104584500Y-141021500D03*
X104584500Y-139521500D03*
D14*
X108636500Y-145097500D03*
X107136500Y-145097500D03*
X117780500Y-145288000D03*
X116280500Y-145288000D03*
D18*
X120015000Y-140323000D03*
X120015000Y-138823000D03*
X118364000Y-134060500D03*
X118364000Y-135560500D03*
D19*
X107317540Y-162052520D03*
D20*
X107317540Y-151892520D03*
D12*
X131318000Y-157988000D03*
D13*
X133858000Y-157988000D03*
X131318000Y-160528000D03*
X133858000Y-160528000D03*
D12*
X138049000Y-148209000D03*
D13*
X135509000Y-148209000D03*
X138049000Y-145669000D03*
X135509000Y-145669000D03*
X138049000Y-143129000D03*
X135509000Y-143129000D03*
D12*
X111125000Y-156400500D03*
D13*
X111125000Y-153860500D03*
X113665000Y-156400500D03*
X113665000Y-153860500D03*
X116205000Y-156400500D03*
X116205000Y-153860500D03*
X118745000Y-156400500D03*
X118745000Y-153860500D03*
X121285000Y-156400500D03*
X121285000Y-153860500D03*
D21*
X83883500Y-108712000D03*
D22*
X86423500Y-108712000D03*
X88963500Y-108712000D03*
X91503500Y-108712000D03*
X94043500Y-108712000D03*
X96583500Y-108712000D03*
X99123500Y-108712000D03*
X101663500Y-108712000D03*
X104203500Y-108712000D03*
X106743500Y-108712000D03*
D23*
X109930500Y-151066500D03*
X111430500Y-151066500D03*
X99072000Y-140081000D03*
X100572000Y-140081000D03*
X99072000Y-141795500D03*
X100572000Y-141795500D03*
D24*
X129809240Y-125534420D03*
D25*
X129809240Y-128074420D03*
X129809240Y-130614420D03*
D24*
X133497320Y-128076960D03*
D25*
X133497320Y-125536960D03*
D26*
X85200000Y-157800000D03*
D27*
X85200000Y-160340000D03*
D26*
X81600000Y-157800000D03*
D27*
X81600000Y-160340000D03*
D26*
X78000000Y-157800000D03*
D27*
X78000000Y-160340000D03*
D28*
X126876000Y-161621500D03*
X124076000Y-161621500D03*
X126876000Y-157021500D03*
X124076000Y-157021500D03*
D15*
X138747500Y-131572000D03*
D16*
X137654411Y-130125089D02*
X137300589Y-130478911D01*
X137300589Y-132665089D02*
X137654411Y-133018911D01*
D14*
X113105500Y-110299500D03*
X114605500Y-110299500D03*
D19*
X109219480Y-106867960D03*
D20*
X119379480Y-106867960D03*
D29*
X125539500Y-113919000D03*
D30*
X121729500Y-113919000D03*
D29*
X107251500Y-113982500D03*
D30*
X111061500Y-113982500D03*
D31*
X140144500Y-118634000D03*
X140144500Y-120634000D03*
D32*
X119634000Y-114859500D03*
X119634000Y-113359500D03*
D26*
X131254500Y-107569000D03*
D27*
X133794500Y-107569000D03*
D33*
X99504500Y-159194500D03*
D34*
X100754500Y-159194500D03*
D35*
X86550500Y-126238000D03*
X140970000Y-110744000D03*
X133223000Y-110998000D03*
X114808000Y-115760500D03*
X113157000Y-115697000D03*
X124142500Y-116014500D03*
X124142500Y-112712500D03*
X118872000Y-128270000D03*
X73469500Y-121031000D03*
X89090500Y-124777500D03*
X117475000Y-135572500D03*
X138811000Y-154813000D03*
X135001000Y-154813000D03*
X124860750Y-154832750D03*
X116903500Y-110871000D03*
X115760500Y-107950000D03*
X114109500Y-111506000D03*
X136088900Y-124424700D03*
X95186500Y-147764500D03*
X107061000Y-143764000D03*
X104044750Y-158400750D03*
X102838250Y-158400750D03*
X94361000Y-155829000D03*
X94361000Y-155003500D03*
X109410500Y-147574000D03*
X112522000Y-149479000D03*
X132080000Y-154813000D03*
X125994160Y-126220220D03*
X99822000Y-154432000D03*
X140077900Y-123762700D03*
X138172900Y-126175700D03*
X74606000Y-160528000D03*
X96139000Y-141668500D03*
X74733000Y-158877000D03*
X104711500Y-154051000D03*
X93281500Y-141224000D03*
X106172000Y-134683500D03*
X107759500Y-131445000D03*
X112712500Y-131572000D03*
X106172000Y-139700000D03*
X118618000Y-139319000D03*
X116840000Y-143827500D03*
X125285500Y-136588500D03*
X127345440Y-130675380D03*
X126138940Y-132389880D03*
X101949250Y-158400750D03*
X108140500Y-153924000D03*
X106426000Y-153924000D03*
X113792000Y-136779000D03*
X111506000Y-136779000D03*
X90487500Y-126238000D03*
X107823000Y-117665500D03*
X107442000Y-106108500D03*
X116205000Y-132334000D03*
X71374000Y-120967500D03*
X117538500Y-134048500D03*
X114935000Y-133604000D03*
X116713000Y-133604000D03*
X113093500Y-111506000D03*
X98958400Y-138785600D03*
X106172000Y-135636000D03*
X106807000Y-131381500D03*
X111696500Y-131572000D03*
X106235500Y-140716000D03*
X118491000Y-140144500D03*
X117729000Y-143827500D03*
X108013500Y-143700500D03*
X141541500Y-128778000D03*
X141541500Y-127508000D03*
X127269240Y-132488940D03*
X127261620Y-134188200D03*
X88455500Y-156400500D03*
X88011000Y-147320000D03*
X81788000Y-146558000D03*
X81788000Y-143192500D03*
X81788000Y-139890500D03*
X81788000Y-136588500D03*
X90360500Y-136525000D03*
X81851500Y-153035000D03*
X81724500Y-149796500D03*
X110109000Y-141160500D03*
X108648500Y-149479000D03*
X112458500Y-151066500D03*
X89598500Y-148463000D03*
X91059000Y-129349500D03*
X88709500Y-129349500D03*
X100200000Y-139400000D03*
X101500000Y-141600000D03*
X102412800Y-142240000D03*
X101904800Y-140919200D03*
X86931500Y-130937000D03*
X84772500Y-131000500D03*
X97091500Y-143446500D03*
X95758000Y-144145000D03*
X101650800Y-142392400D03*
X107823000Y-142684500D03*
X119634000Y-112585500D03*
D36*
X86550500Y-126238000D02*
X84391500Y-126238000D01*
X87578500Y-126238000D02*
X86550500Y-126238000D01*
X117717000Y-128270000D02*
X118872000Y-128270000D01*
X117717000Y-128270000D02*
X117717000Y-129857500D01*
X104787000Y-106108500D02*
X104203500Y-106692000D01*
X104203500Y-106692000D02*
X104203500Y-108712000D01*
X73469500Y-121031000D02*
X73469500Y-120281000D01*
X73469500Y-120281000D02*
X73203500Y-120015000D01*
X89090500Y-124079000D02*
X89090500Y-124777500D01*
X118364000Y-135560500D02*
X117487000Y-135560500D01*
X117487000Y-135560500D02*
X117475000Y-135572500D01*
X124860750Y-154832750D02*
X124841000Y-154813000D01*
D37*
X104044750Y-158400750D02*
X104076500Y-158369000D01*
D36*
X74606000Y-160528000D02*
X74606000Y-162814000D01*
X106160000Y-134695500D02*
X104584500Y-134695500D01*
X106172000Y-134683500D02*
X106160000Y-134695500D01*
X107747500Y-131433000D02*
X107747500Y-129921000D01*
X107759500Y-131445000D02*
X107747500Y-131433000D01*
X112764000Y-131520500D02*
X112764000Y-129921000D01*
X112712500Y-131572000D02*
X112764000Y-131520500D01*
X105993500Y-139521500D02*
X104584500Y-139521500D01*
X106172000Y-139700000D02*
X105993500Y-139521500D01*
X119114000Y-138823000D02*
X120015000Y-138823000D01*
X118618000Y-139319000D02*
X119114000Y-138823000D01*
X116280500Y-144387000D02*
X116280500Y-145288000D01*
X116840000Y-143827500D02*
X116280500Y-144387000D01*
D38*
X106426000Y-153924000D02*
X108140500Y-153924000D01*
D36*
X111506000Y-136779000D02*
X113792000Y-136779000D01*
X89078500Y-126238000D02*
X90487500Y-126238000D01*
X116459000Y-119443500D02*
X116459000Y-119189500D01*
X116459000Y-119189500D02*
X114935000Y-117665500D01*
X114935000Y-117665500D02*
X107823000Y-117665500D01*
X107442000Y-106108500D02*
X106287000Y-106108500D01*
X116217000Y-129857500D02*
X116217000Y-132322000D01*
X116217000Y-132322000D02*
X116205000Y-132334000D01*
X116217000Y-128270000D02*
X116217000Y-129857500D01*
X106743500Y-108712000D02*
X106743500Y-106565000D01*
X106743500Y-106565000D02*
X106287000Y-106108500D01*
X71703500Y-120015000D02*
X71374000Y-120344500D01*
X71374000Y-120344500D02*
X71374000Y-120967500D01*
X117550500Y-134060500D02*
X118364000Y-134060500D01*
X117538500Y-134048500D02*
X117550500Y-134060500D01*
X114935000Y-133604000D02*
X116713000Y-133604000D01*
X118364000Y-134060500D02*
X119951500Y-134060500D01*
X113105500Y-111494000D02*
X113105500Y-110299500D01*
X113093500Y-111506000D02*
X113105500Y-111494000D01*
X99072000Y-140081000D02*
X99072000Y-138899200D01*
X99072000Y-138899200D02*
X98958400Y-138785600D01*
X99072000Y-140081000D02*
X99072000Y-141795500D01*
X104584500Y-136195500D02*
X105612500Y-136195500D01*
X105612500Y-136195500D02*
X106172000Y-135636000D01*
X106247500Y-129921000D02*
X106247500Y-130822000D01*
X106247500Y-130822000D02*
X106807000Y-131381500D01*
X111264000Y-129921000D02*
X111264000Y-131139500D01*
X111264000Y-131139500D02*
X111696500Y-131572000D01*
X104584500Y-141021500D02*
X105930000Y-141021500D01*
X105930000Y-141021500D02*
X106235500Y-140716000D01*
X120015000Y-140323000D02*
X118669500Y-140323000D01*
X118669500Y-140323000D02*
X118491000Y-140144500D01*
X117780500Y-143879000D02*
X117780500Y-145288000D01*
X117729000Y-143827500D02*
X117780500Y-143879000D01*
X108636500Y-145097500D02*
X108636500Y-144323500D01*
X108636500Y-144323500D02*
X108013500Y-143700500D01*
X141541500Y-127508000D02*
X141541500Y-128778000D01*
X127269240Y-134180580D02*
X127269240Y-132488940D01*
X127261620Y-134188200D02*
X127269240Y-134180580D01*
X87070500Y-148260500D02*
X88011000Y-147320000D01*
X87070500Y-148463000D02*
X87070500Y-148260500D01*
X110109000Y-141160500D02*
X110109000Y-148018500D01*
X110109000Y-148018500D02*
X108648500Y-149479000D01*
X112458500Y-151066500D02*
X111430500Y-151066500D01*
X88570500Y-148463000D02*
X89598500Y-148463000D01*
X88709500Y-129349500D02*
X91059000Y-129349500D01*
X100572000Y-140081000D02*
X100572000Y-139772000D01*
X100572000Y-139772000D02*
X100200000Y-139400000D01*
X100699000Y-140208000D02*
X100572000Y-140081000D01*
X100762500Y-140271500D02*
X100572000Y-140081000D01*
X100572000Y-141795500D02*
X100767500Y-141600000D01*
X100767500Y-141600000D02*
X101500000Y-141600000D01*
X102412800Y-141427200D02*
X102412800Y-142240000D01*
X101904800Y-140919200D02*
X102412800Y-141427200D01*
X86931500Y-130937000D02*
X86868000Y-131000500D01*
X86868000Y-131000500D02*
X84772500Y-131000500D01*
X96456500Y-143446500D02*
X97091500Y-143446500D01*
X95758000Y-144145000D02*
X96456500Y-143446500D01*
X106273600Y-142849600D02*
X106273600Y-142836900D01*
X101650800Y-142392400D02*
X102108000Y-142849600D01*
X102108000Y-142849600D02*
X106273600Y-142849600D01*
X106426000Y-142684500D02*
X107823000Y-142684500D01*
X106273600Y-142836900D02*
X106426000Y-142684500D01*
X119634000Y-112585500D02*
X119634000Y-113359500D01*
G36*
X75628500Y-130048000D02*
X75638506Y-130097410D01*
X75666947Y-130139035D01*
X75709341Y-130166315D01*
X75755500Y-130175000D01*
X81925894Y-130175000D01*
X86460697Y-134709803D01*
X86502711Y-134737666D01*
X86550500Y-134747000D01*
X90868500Y-134747000D01*
X90868500Y-148082000D01*
X90878506Y-148131410D01*
X90906947Y-148173035D01*
X90949341Y-148200315D01*
X90995500Y-148209000D01*
X93726000Y-148209000D01*
X93726000Y-150765639D01*
X93615289Y-150654735D01*
X93216441Y-150489118D01*
X92784574Y-150488742D01*
X92385437Y-150653662D01*
X92079795Y-150958771D01*
X91914178Y-151357619D01*
X91913802Y-151789486D01*
X92078722Y-152188623D01*
X92383831Y-152494265D01*
X92782679Y-152659882D01*
X93214546Y-152660258D01*
X93613683Y-152495338D01*
X93726000Y-152383217D01*
X93726000Y-155003518D01*
X93725890Y-155129255D01*
X93726000Y-155129521D01*
X93726000Y-155829018D01*
X93725890Y-155954755D01*
X93726000Y-155955021D01*
X93726000Y-157543500D01*
X93736006Y-157592910D01*
X93764447Y-157634535D01*
X93806841Y-157661815D01*
X93853000Y-157670500D01*
X95567500Y-157670500D01*
X95567500Y-162052000D01*
X75068000Y-162052000D01*
X75068000Y-160964048D01*
X75144013Y-160888168D01*
X75240889Y-160654863D01*
X75241110Y-160402245D01*
X75215391Y-160340000D01*
X76622532Y-160340000D01*
X76725371Y-160857005D01*
X77018231Y-161295301D01*
X77456527Y-161588161D01*
X77973532Y-161691000D01*
X78026468Y-161691000D01*
X78543473Y-161588161D01*
X78981769Y-161295301D01*
X79274629Y-160857005D01*
X79377468Y-160340000D01*
X80222532Y-160340000D01*
X80325371Y-160857005D01*
X80618231Y-161295301D01*
X81056527Y-161588161D01*
X81573532Y-161691000D01*
X81626468Y-161691000D01*
X82143473Y-161588161D01*
X82581769Y-161295301D01*
X82874629Y-160857005D01*
X82977468Y-160340000D01*
X83822532Y-160340000D01*
X83925371Y-160857005D01*
X84218231Y-161295301D01*
X84656527Y-161588161D01*
X85173532Y-161691000D01*
X85226468Y-161691000D01*
X85743473Y-161588161D01*
X86181769Y-161295301D01*
X86474629Y-160857005D01*
X86577468Y-160340000D01*
X86474629Y-159822995D01*
X86181769Y-159384699D01*
X85841836Y-159157563D01*
X86216000Y-159157563D01*
X86340144Y-159134204D01*
X86454162Y-159060835D01*
X86530653Y-158948887D01*
X86557563Y-158816000D01*
X86557563Y-156784000D01*
X86534204Y-156659856D01*
X86460835Y-156545838D01*
X86348887Y-156469347D01*
X86216000Y-156442437D01*
X84184000Y-156442437D01*
X84059856Y-156465796D01*
X83945838Y-156539165D01*
X83869347Y-156651113D01*
X83842437Y-156784000D01*
X83842437Y-158816000D01*
X83865796Y-158940144D01*
X83939165Y-159054162D01*
X84051113Y-159130653D01*
X84184000Y-159157563D01*
X84558164Y-159157563D01*
X84218231Y-159384699D01*
X83925371Y-159822995D01*
X83822532Y-160340000D01*
X82977468Y-160340000D01*
X82874629Y-159822995D01*
X82581769Y-159384699D01*
X82241836Y-159157563D01*
X82616000Y-159157563D01*
X82740144Y-159134204D01*
X82854162Y-159060835D01*
X82930653Y-158948887D01*
X82957563Y-158816000D01*
X82957563Y-156784000D01*
X82934204Y-156659856D01*
X82860835Y-156545838D01*
X82748887Y-156469347D01*
X82616000Y-156442437D01*
X80584000Y-156442437D01*
X80459856Y-156465796D01*
X80345838Y-156539165D01*
X80269347Y-156651113D01*
X80242437Y-156784000D01*
X80242437Y-158816000D01*
X80265796Y-158940144D01*
X80339165Y-159054162D01*
X80451113Y-159130653D01*
X80584000Y-159157563D01*
X80958164Y-159157563D01*
X80618231Y-159384699D01*
X80325371Y-159822995D01*
X80222532Y-160340000D01*
X79377468Y-160340000D01*
X79274629Y-159822995D01*
X78981769Y-159384699D01*
X78641836Y-159157563D01*
X79016000Y-159157563D01*
X79140144Y-159134204D01*
X79254162Y-159060835D01*
X79330653Y-158948887D01*
X79357563Y-158816000D01*
X79357563Y-156784000D01*
X79334204Y-156659856D01*
X79260835Y-156545838D01*
X79148887Y-156469347D01*
X79016000Y-156442437D01*
X76984000Y-156442437D01*
X76859856Y-156465796D01*
X76745838Y-156539165D01*
X76669347Y-156651113D01*
X76642437Y-156784000D01*
X76642437Y-158816000D01*
X76665796Y-158940144D01*
X76739165Y-159054162D01*
X76851113Y-159130653D01*
X76984000Y-159157563D01*
X77358164Y-159157563D01*
X77018231Y-159384699D01*
X76725371Y-159822995D01*
X76622532Y-160340000D01*
X75215391Y-160340000D01*
X75144640Y-160168772D01*
X74966168Y-159989987D01*
X74732863Y-159893111D01*
X74480245Y-159892890D01*
X74246772Y-159989360D01*
X74067987Y-160167832D01*
X73971111Y-160401137D01*
X73970890Y-160653755D01*
X74067360Y-160887228D01*
X74144000Y-160964002D01*
X74144000Y-162052000D01*
X66755668Y-162052000D01*
X66756410Y-161202240D01*
X66396815Y-160331954D01*
X65731548Y-159665525D01*
X64861891Y-159304412D01*
X64389000Y-159303999D01*
X64389000Y-159002755D01*
X74097890Y-159002755D01*
X74194360Y-159236228D01*
X74372832Y-159415013D01*
X74606137Y-159511889D01*
X74858755Y-159512110D01*
X75092228Y-159415640D01*
X75271013Y-159237168D01*
X75367889Y-159003863D01*
X75368110Y-158751245D01*
X75271640Y-158517772D01*
X75093168Y-158338987D01*
X74859863Y-158242111D01*
X74607245Y-158241890D01*
X74373772Y-158338360D01*
X74194987Y-158516832D01*
X74098111Y-158750137D01*
X74097890Y-159002755D01*
X64389000Y-159002755D01*
X64389000Y-148748750D01*
X86035500Y-148748750D01*
X86035500Y-148964310D01*
X86132173Y-149197699D01*
X86310802Y-149376327D01*
X86544191Y-149473000D01*
X86784750Y-149473000D01*
X86943500Y-149314250D01*
X86943500Y-148590000D01*
X86194250Y-148590000D01*
X86035500Y-148748750D01*
X64389000Y-148748750D01*
X64389000Y-147961690D01*
X86035500Y-147961690D01*
X86035500Y-148177250D01*
X86194250Y-148336000D01*
X86943500Y-148336000D01*
X86943500Y-147611750D01*
X87197500Y-147611750D01*
X87197500Y-148336000D01*
X87217500Y-148336000D01*
X87217500Y-148590000D01*
X87197500Y-148590000D01*
X87197500Y-149314250D01*
X87356250Y-149473000D01*
X87596809Y-149473000D01*
X87830198Y-149376327D01*
X88008827Y-149197699D01*
X88029720Y-149147260D01*
X88037613Y-149152653D01*
X88170500Y-149179563D01*
X88970500Y-149179563D01*
X89094644Y-149156204D01*
X89208662Y-149082835D01*
X89258770Y-149009500D01*
X89471637Y-149097889D01*
X89724255Y-149098110D01*
X89957728Y-149001640D01*
X90136513Y-148823168D01*
X90233389Y-148589863D01*
X90233610Y-148337245D01*
X90137140Y-148103772D01*
X89958668Y-147924987D01*
X89725363Y-147828111D01*
X89472745Y-147827890D01*
X89258244Y-147916521D01*
X89215335Y-147849838D01*
X89103387Y-147773347D01*
X88970500Y-147746437D01*
X88170500Y-147746437D01*
X88046356Y-147769796D01*
X88030296Y-147780131D01*
X88008827Y-147728301D01*
X87830198Y-147549673D01*
X87596809Y-147453000D01*
X87356250Y-147453000D01*
X87197500Y-147611750D01*
X86943500Y-147611750D01*
X86784750Y-147453000D01*
X86544191Y-147453000D01*
X86310802Y-147549673D01*
X86132173Y-147728301D01*
X86035500Y-147961690D01*
X64389000Y-147961690D01*
X64389000Y-125539500D01*
X75628500Y-125539500D01*
X75628500Y-130048000D01*
X75628500Y-130048000D01*
G37*
X75628500Y-130048000D02*
X75638506Y-130097410D01*
X75666947Y-130139035D01*
X75709341Y-130166315D01*
X75755500Y-130175000D01*
X81925894Y-130175000D01*
X86460697Y-134709803D01*
X86502711Y-134737666D01*
X86550500Y-134747000D01*
X90868500Y-134747000D01*
X90868500Y-148082000D01*
X90878506Y-148131410D01*
X90906947Y-148173035D01*
X90949341Y-148200315D01*
X90995500Y-148209000D01*
X93726000Y-148209000D01*
X93726000Y-150765639D01*
X93615289Y-150654735D01*
X93216441Y-150489118D01*
X92784574Y-150488742D01*
X92385437Y-150653662D01*
X92079795Y-150958771D01*
X91914178Y-151357619D01*
X91913802Y-151789486D01*
X92078722Y-152188623D01*
X92383831Y-152494265D01*
X92782679Y-152659882D01*
X93214546Y-152660258D01*
X93613683Y-152495338D01*
X93726000Y-152383217D01*
X93726000Y-155003518D01*
X93725890Y-155129255D01*
X93726000Y-155129521D01*
X93726000Y-155829018D01*
X93725890Y-155954755D01*
X93726000Y-155955021D01*
X93726000Y-157543500D01*
X93736006Y-157592910D01*
X93764447Y-157634535D01*
X93806841Y-157661815D01*
X93853000Y-157670500D01*
X95567500Y-157670500D01*
X95567500Y-162052000D01*
X75068000Y-162052000D01*
X75068000Y-160964048D01*
X75144013Y-160888168D01*
X75240889Y-160654863D01*
X75241110Y-160402245D01*
X75215391Y-160340000D01*
X76622532Y-160340000D01*
X76725371Y-160857005D01*
X77018231Y-161295301D01*
X77456527Y-161588161D01*
X77973532Y-161691000D01*
X78026468Y-161691000D01*
X78543473Y-161588161D01*
X78981769Y-161295301D01*
X79274629Y-160857005D01*
X79377468Y-160340000D01*
X80222532Y-160340000D01*
X80325371Y-160857005D01*
X80618231Y-161295301D01*
X81056527Y-161588161D01*
X81573532Y-161691000D01*
X81626468Y-161691000D01*
X82143473Y-161588161D01*
X82581769Y-161295301D01*
X82874629Y-160857005D01*
X82977468Y-160340000D01*
X83822532Y-160340000D01*
X83925371Y-160857005D01*
X84218231Y-161295301D01*
X84656527Y-161588161D01*
X85173532Y-161691000D01*
X85226468Y-161691000D01*
X85743473Y-161588161D01*
X86181769Y-161295301D01*
X86474629Y-160857005D01*
X86577468Y-160340000D01*
X86474629Y-159822995D01*
X86181769Y-159384699D01*
X85841836Y-159157563D01*
X86216000Y-159157563D01*
X86340144Y-159134204D01*
X86454162Y-159060835D01*
X86530653Y-158948887D01*
X86557563Y-158816000D01*
X86557563Y-156784000D01*
X86534204Y-156659856D01*
X86460835Y-156545838D01*
X86348887Y-156469347D01*
X86216000Y-156442437D01*
X84184000Y-156442437D01*
X84059856Y-156465796D01*
X83945838Y-156539165D01*
X83869347Y-156651113D01*
X83842437Y-156784000D01*
X83842437Y-158816000D01*
X83865796Y-158940144D01*
X83939165Y-159054162D01*
X84051113Y-159130653D01*
X84184000Y-159157563D01*
X84558164Y-159157563D01*
X84218231Y-159384699D01*
X83925371Y-159822995D01*
X83822532Y-160340000D01*
X82977468Y-160340000D01*
X82874629Y-159822995D01*
X82581769Y-159384699D01*
X82241836Y-159157563D01*
X82616000Y-159157563D01*
X82740144Y-159134204D01*
X82854162Y-159060835D01*
X82930653Y-158948887D01*
X82957563Y-158816000D01*
X82957563Y-156784000D01*
X82934204Y-156659856D01*
X82860835Y-156545838D01*
X82748887Y-156469347D01*
X82616000Y-156442437D01*
X80584000Y-156442437D01*
X80459856Y-156465796D01*
X80345838Y-156539165D01*
X80269347Y-156651113D01*
X80242437Y-156784000D01*
X80242437Y-158816000D01*
X80265796Y-158940144D01*
X80339165Y-159054162D01*
X80451113Y-159130653D01*
X80584000Y-159157563D01*
X80958164Y-159157563D01*
X80618231Y-159384699D01*
X80325371Y-159822995D01*
X80222532Y-160340000D01*
X79377468Y-160340000D01*
X79274629Y-159822995D01*
X78981769Y-159384699D01*
X78641836Y-159157563D01*
X79016000Y-159157563D01*
X79140144Y-159134204D01*
X79254162Y-159060835D01*
X79330653Y-158948887D01*
X79357563Y-158816000D01*
X79357563Y-156784000D01*
X79334204Y-156659856D01*
X79260835Y-156545838D01*
X79148887Y-156469347D01*
X79016000Y-156442437D01*
X76984000Y-156442437D01*
X76859856Y-156465796D01*
X76745838Y-156539165D01*
X76669347Y-156651113D01*
X76642437Y-156784000D01*
X76642437Y-158816000D01*
X76665796Y-158940144D01*
X76739165Y-159054162D01*
X76851113Y-159130653D01*
X76984000Y-159157563D01*
X77358164Y-159157563D01*
X77018231Y-159384699D01*
X76725371Y-159822995D01*
X76622532Y-160340000D01*
X75215391Y-160340000D01*
X75144640Y-160168772D01*
X74966168Y-159989987D01*
X74732863Y-159893111D01*
X74480245Y-159892890D01*
X74246772Y-159989360D01*
X74067987Y-160167832D01*
X73971111Y-160401137D01*
X73970890Y-160653755D01*
X74067360Y-160887228D01*
X74144000Y-160964002D01*
X74144000Y-162052000D01*
X66755668Y-162052000D01*
X66756410Y-161202240D01*
X66396815Y-160331954D01*
X65731548Y-159665525D01*
X64861891Y-159304412D01*
X64389000Y-159303999D01*
X64389000Y-159002755D01*
X74097890Y-159002755D01*
X74194360Y-159236228D01*
X74372832Y-159415013D01*
X74606137Y-159511889D01*
X74858755Y-159512110D01*
X75092228Y-159415640D01*
X75271013Y-159237168D01*
X75367889Y-159003863D01*
X75368110Y-158751245D01*
X75271640Y-158517772D01*
X75093168Y-158338987D01*
X74859863Y-158242111D01*
X74607245Y-158241890D01*
X74373772Y-158338360D01*
X74194987Y-158516832D01*
X74098111Y-158750137D01*
X74097890Y-159002755D01*
X64389000Y-159002755D01*
X64389000Y-148748750D01*
X86035500Y-148748750D01*
X86035500Y-148964310D01*
X86132173Y-149197699D01*
X86310802Y-149376327D01*
X86544191Y-149473000D01*
X86784750Y-149473000D01*
X86943500Y-149314250D01*
X86943500Y-148590000D01*
X86194250Y-148590000D01*
X86035500Y-148748750D01*
X64389000Y-148748750D01*
X64389000Y-147961690D01*
X86035500Y-147961690D01*
X86035500Y-148177250D01*
X86194250Y-148336000D01*
X86943500Y-148336000D01*
X86943500Y-147611750D01*
X87197500Y-147611750D01*
X87197500Y-148336000D01*
X87217500Y-148336000D01*
X87217500Y-148590000D01*
X87197500Y-148590000D01*
X87197500Y-149314250D01*
X87356250Y-149473000D01*
X87596809Y-149473000D01*
X87830198Y-149376327D01*
X88008827Y-149197699D01*
X88029720Y-149147260D01*
X88037613Y-149152653D01*
X88170500Y-149179563D01*
X88970500Y-149179563D01*
X89094644Y-149156204D01*
X89208662Y-149082835D01*
X89258770Y-149009500D01*
X89471637Y-149097889D01*
X89724255Y-149098110D01*
X89957728Y-149001640D01*
X90136513Y-148823168D01*
X90233389Y-148589863D01*
X90233610Y-148337245D01*
X90137140Y-148103772D01*
X89958668Y-147924987D01*
X89725363Y-147828111D01*
X89472745Y-147827890D01*
X89258244Y-147916521D01*
X89215335Y-147849838D01*
X89103387Y-147773347D01*
X88970500Y-147746437D01*
X88170500Y-147746437D01*
X88046356Y-147769796D01*
X88030296Y-147780131D01*
X88008827Y-147728301D01*
X87830198Y-147549673D01*
X87596809Y-147453000D01*
X87356250Y-147453000D01*
X87197500Y-147611750D01*
X86943500Y-147611750D01*
X86784750Y-147453000D01*
X86544191Y-147453000D01*
X86310802Y-147549673D01*
X86132173Y-147728301D01*
X86035500Y-147961690D01*
X64389000Y-147961690D01*
X64389000Y-125539500D01*
X75628500Y-125539500D01*
X75628500Y-130048000D01*
G36*
X139948454Y-105180185D02*
X139282025Y-105845452D01*
X138920912Y-106715109D01*
X138920090Y-107656760D01*
X139279685Y-108527046D01*
X139944952Y-109193475D01*
X140814609Y-109554588D01*
X141756260Y-109555410D01*
X142626546Y-109195815D01*
X143292975Y-108530548D01*
X143373000Y-108337827D01*
X143373000Y-160519966D01*
X143295315Y-160331954D01*
X142630048Y-159665525D01*
X141760391Y-159304412D01*
X140818740Y-159303590D01*
X139948454Y-159663185D01*
X139282025Y-160328452D01*
X138920912Y-161198109D01*
X138920090Y-162139760D01*
X139279685Y-163010046D01*
X139944952Y-163676475D01*
X140418236Y-163873000D01*
X65258082Y-163873000D01*
X65728046Y-163678815D01*
X66311668Y-163096210D01*
X106453455Y-163096210D01*
X106533682Y-163347473D01*
X107088907Y-163548870D01*
X107678939Y-163522461D01*
X108101398Y-163347473D01*
X108181625Y-163096210D01*
X107317540Y-162232125D01*
X106453455Y-163096210D01*
X66311668Y-163096210D01*
X66394475Y-163013548D01*
X66601905Y-162514000D01*
X95694500Y-162514000D01*
X95816258Y-162491090D01*
X95928086Y-162419131D01*
X96003107Y-162309334D01*
X96029500Y-162179000D01*
X96029500Y-161823887D01*
X105821190Y-161823887D01*
X105847599Y-162413919D01*
X106022587Y-162836378D01*
X106273850Y-162916605D01*
X107137935Y-162052520D01*
X107497145Y-162052520D01*
X108361230Y-162916605D01*
X108612493Y-162836378D01*
X108813890Y-162281153D01*
X108792653Y-161806667D01*
X123140838Y-161806667D01*
X123282883Y-162150443D01*
X123545673Y-162413692D01*
X123889201Y-162556338D01*
X124261167Y-162556662D01*
X124436454Y-162484235D01*
X126192870Y-162484235D01*
X126242383Y-162709664D01*
X126707036Y-162869307D01*
X127197413Y-162838982D01*
X127509617Y-162709664D01*
X127559130Y-162484235D01*
X126876000Y-161801105D01*
X126192870Y-162484235D01*
X124436454Y-162484235D01*
X124604943Y-162414617D01*
X124868192Y-162151827D01*
X125010838Y-161808299D01*
X125011147Y-161452536D01*
X125628193Y-161452536D01*
X125658518Y-161942913D01*
X125787836Y-162255117D01*
X126013265Y-162304630D01*
X126696395Y-161621500D01*
X127055605Y-161621500D01*
X127738735Y-162304630D01*
X127964164Y-162255117D01*
X128123807Y-161790464D01*
X128093482Y-161300087D01*
X127964164Y-160987883D01*
X127738735Y-160938370D01*
X127055605Y-161621500D01*
X126696395Y-161621500D01*
X126013265Y-160938370D01*
X125787836Y-160987883D01*
X125628193Y-161452536D01*
X125011147Y-161452536D01*
X125011162Y-161436333D01*
X124869117Y-161092557D01*
X124606327Y-160829308D01*
X124436442Y-160758765D01*
X126192870Y-160758765D01*
X126876000Y-161441895D01*
X127430869Y-160887026D01*
X129863042Y-160887026D01*
X130035312Y-161302947D01*
X130429510Y-161734821D01*
X130958973Y-161982968D01*
X131191000Y-161862469D01*
X131191000Y-160655000D01*
X131445000Y-160655000D01*
X131445000Y-161862469D01*
X131677027Y-161982968D01*
X132206490Y-161734821D01*
X132588000Y-161316848D01*
X132969510Y-161734821D01*
X133498973Y-161982968D01*
X133731000Y-161862469D01*
X133731000Y-160655000D01*
X133985000Y-160655000D01*
X133985000Y-161862469D01*
X134217027Y-161982968D01*
X134746490Y-161734821D01*
X135140688Y-161302947D01*
X135312958Y-160887026D01*
X135191817Y-160655000D01*
X133985000Y-160655000D01*
X133731000Y-160655000D01*
X131445000Y-160655000D01*
X131191000Y-160655000D01*
X129984183Y-160655000D01*
X129863042Y-160887026D01*
X127430869Y-160887026D01*
X127559130Y-160758765D01*
X127509617Y-160533336D01*
X127044964Y-160373693D01*
X126554587Y-160404018D01*
X126242383Y-160533336D01*
X126192870Y-160758765D01*
X124436442Y-160758765D01*
X124262799Y-160686662D01*
X123890833Y-160686338D01*
X123547057Y-160828383D01*
X123283808Y-161091173D01*
X123141162Y-161434701D01*
X123140838Y-161806667D01*
X108792653Y-161806667D01*
X108787481Y-161691121D01*
X108612493Y-161268662D01*
X108361230Y-161188435D01*
X107497145Y-162052520D01*
X107137935Y-162052520D01*
X106273850Y-161188435D01*
X106022587Y-161268662D01*
X105821190Y-161823887D01*
X96029500Y-161823887D01*
X96029500Y-161008830D01*
X106453455Y-161008830D01*
X107317540Y-161872915D01*
X108181625Y-161008830D01*
X108101398Y-160757567D01*
X107546173Y-160556170D01*
X106956141Y-160582579D01*
X106533682Y-160757567D01*
X106453455Y-161008830D01*
X96029500Y-161008830D01*
X96029500Y-159480250D01*
X98469500Y-159480250D01*
X98469500Y-159720810D01*
X98566173Y-159954199D01*
X98744802Y-160132827D01*
X98978191Y-160229500D01*
X99218750Y-160229500D01*
X99377500Y-160070750D01*
X99377500Y-159321500D01*
X98628250Y-159321500D01*
X98469500Y-159480250D01*
X96029500Y-159480250D01*
X96029500Y-158668190D01*
X98469500Y-158668190D01*
X98469500Y-158908750D01*
X98628250Y-159067500D01*
X99377500Y-159067500D01*
X99377500Y-158318250D01*
X99631500Y-158318250D01*
X99631500Y-159067500D01*
X99651500Y-159067500D01*
X99651500Y-159321500D01*
X99631500Y-159321500D01*
X99631500Y-160070750D01*
X99790250Y-160229500D01*
X100030809Y-160229500D01*
X100176931Y-160168974D01*
X129863042Y-160168974D01*
X129984183Y-160401000D01*
X131191000Y-160401000D01*
X131191000Y-160381000D01*
X131445000Y-160381000D01*
X131445000Y-160401000D01*
X133731000Y-160401000D01*
X133731000Y-160381000D01*
X133985000Y-160381000D01*
X133985000Y-160401000D01*
X135191817Y-160401000D01*
X135312958Y-160168974D01*
X135140688Y-159753053D01*
X134746490Y-159321179D01*
X134287166Y-159105904D01*
X134340166Y-159095362D01*
X134729020Y-158835538D01*
X134988844Y-158446684D01*
X135080082Y-157988000D01*
X134988844Y-157529316D01*
X134729020Y-157140462D01*
X134340166Y-156880638D01*
X133881482Y-156789400D01*
X133834518Y-156789400D01*
X133375834Y-156880638D01*
X132986980Y-157140462D01*
X132727156Y-157529316D01*
X132635918Y-157988000D01*
X132727156Y-158446684D01*
X132986980Y-158835538D01*
X133375834Y-159095362D01*
X133428834Y-159105904D01*
X132969510Y-159321179D01*
X132588000Y-159739152D01*
X132206490Y-159321179D01*
X131933347Y-159193163D01*
X132181600Y-159193163D01*
X132305744Y-159169804D01*
X132419762Y-159096435D01*
X132496253Y-158984487D01*
X132523163Y-158851600D01*
X132523163Y-157124400D01*
X132499804Y-157000256D01*
X132426435Y-156886238D01*
X132314487Y-156809747D01*
X132181600Y-156782837D01*
X130454400Y-156782837D01*
X130330256Y-156806196D01*
X130216238Y-156879565D01*
X130139747Y-156991513D01*
X130112837Y-157124400D01*
X130112837Y-158851600D01*
X130136196Y-158975744D01*
X130209565Y-159089762D01*
X130321513Y-159166253D01*
X130454400Y-159193163D01*
X130702653Y-159193163D01*
X130429510Y-159321179D01*
X130035312Y-159753053D01*
X129863042Y-160168974D01*
X100176931Y-160168974D01*
X100264198Y-160132827D01*
X100442827Y-159954199D01*
X100474908Y-159876749D01*
X100740100Y-159929500D01*
X100768900Y-159929500D01*
X101050172Y-159873551D01*
X101288623Y-159714223D01*
X101447951Y-159475772D01*
X101503900Y-159194500D01*
X101447951Y-158913228D01*
X101288623Y-158674777D01*
X101050172Y-158515449D01*
X100768900Y-158459500D01*
X100740100Y-158459500D01*
X100474908Y-158512251D01*
X100442827Y-158434801D01*
X100264198Y-158256173D01*
X100030809Y-158159500D01*
X99790250Y-158159500D01*
X99631500Y-158318250D01*
X99377500Y-158318250D01*
X99218750Y-158159500D01*
X98978191Y-158159500D01*
X98744802Y-158256173D01*
X98566173Y-158434801D01*
X98469500Y-158668190D01*
X96029500Y-158668190D01*
X96029500Y-157543500D01*
X96006590Y-157421742D01*
X95934631Y-157309914D01*
X95824834Y-157234893D01*
X95694500Y-157208500D01*
X94188000Y-157208500D01*
X94188000Y-154049755D01*
X105790890Y-154049755D01*
X105887360Y-154283228D01*
X106065832Y-154462013D01*
X106299137Y-154558889D01*
X106551755Y-154559110D01*
X106785228Y-154462640D01*
X106798391Y-154449500D01*
X107767841Y-154449500D01*
X107780332Y-154462013D01*
X108013637Y-154558889D01*
X108266255Y-154559110D01*
X108499728Y-154462640D01*
X108678513Y-154284168D01*
X108705354Y-154219527D01*
X109670032Y-154219527D01*
X109918179Y-154748990D01*
X110350053Y-155143188D01*
X110475959Y-155195337D01*
X110261400Y-155195337D01*
X110137256Y-155218696D01*
X110023238Y-155292065D01*
X109946747Y-155404013D01*
X109919837Y-155536900D01*
X109919837Y-157264100D01*
X109943196Y-157388244D01*
X110016565Y-157502262D01*
X110128513Y-157578753D01*
X110261400Y-157605663D01*
X111988600Y-157605663D01*
X112112744Y-157582304D01*
X112226762Y-157508935D01*
X112303253Y-157396987D01*
X112330163Y-157264100D01*
X112330163Y-156377018D01*
X112466400Y-156377018D01*
X112466400Y-156423982D01*
X112557638Y-156882666D01*
X112817462Y-157271520D01*
X113206316Y-157531344D01*
X113665000Y-157622582D01*
X114123684Y-157531344D01*
X114512538Y-157271520D01*
X114772362Y-156882666D01*
X114863600Y-156423982D01*
X114863600Y-156377018D01*
X115006400Y-156377018D01*
X115006400Y-156423982D01*
X115097638Y-156882666D01*
X115357462Y-157271520D01*
X115746316Y-157531344D01*
X116205000Y-157622582D01*
X116663684Y-157531344D01*
X117052538Y-157271520D01*
X117312362Y-156882666D01*
X117403600Y-156423982D01*
X117403600Y-156377018D01*
X117546400Y-156377018D01*
X117546400Y-156423982D01*
X117637638Y-156882666D01*
X117897462Y-157271520D01*
X118286316Y-157531344D01*
X118745000Y-157622582D01*
X119203684Y-157531344D01*
X119592538Y-157271520D01*
X119852362Y-156882666D01*
X119943600Y-156423982D01*
X119943600Y-156377018D01*
X120086400Y-156377018D01*
X120086400Y-156423982D01*
X120177638Y-156882666D01*
X120437462Y-157271520D01*
X120826316Y-157531344D01*
X121285000Y-157622582D01*
X121743684Y-157531344D01*
X122132538Y-157271520D01*
X122175871Y-157206667D01*
X123140838Y-157206667D01*
X123282883Y-157550443D01*
X123545673Y-157813692D01*
X123889201Y-157956338D01*
X124261167Y-157956662D01*
X124436454Y-157884235D01*
X126192870Y-157884235D01*
X126242383Y-158109664D01*
X126707036Y-158269307D01*
X127197413Y-158238982D01*
X127509617Y-158109664D01*
X127559130Y-157884235D01*
X126876000Y-157201105D01*
X126192870Y-157884235D01*
X124436454Y-157884235D01*
X124604943Y-157814617D01*
X124868192Y-157551827D01*
X125010838Y-157208299D01*
X125011147Y-156852536D01*
X125628193Y-156852536D01*
X125658518Y-157342913D01*
X125787836Y-157655117D01*
X126013265Y-157704630D01*
X126696395Y-157021500D01*
X127055605Y-157021500D01*
X127738735Y-157704630D01*
X127964164Y-157655117D01*
X128123807Y-157190464D01*
X128093482Y-156700087D01*
X127964164Y-156387883D01*
X127738735Y-156338370D01*
X127055605Y-157021500D01*
X126696395Y-157021500D01*
X126013265Y-156338370D01*
X125787836Y-156387883D01*
X125628193Y-156852536D01*
X125011147Y-156852536D01*
X125011162Y-156836333D01*
X124869117Y-156492557D01*
X124606327Y-156229308D01*
X124436442Y-156158765D01*
X126192870Y-156158765D01*
X126876000Y-156841895D01*
X127559130Y-156158765D01*
X127509617Y-155933336D01*
X127044964Y-155773693D01*
X126554587Y-155804018D01*
X126242383Y-155933336D01*
X126192870Y-156158765D01*
X124436442Y-156158765D01*
X124262799Y-156086662D01*
X123890833Y-156086338D01*
X123547057Y-156228383D01*
X123283808Y-156491173D01*
X123141162Y-156834701D01*
X123140838Y-157206667D01*
X122175871Y-157206667D01*
X122392362Y-156882666D01*
X122483600Y-156423982D01*
X122483600Y-156377018D01*
X122392362Y-155918334D01*
X122132538Y-155529480D01*
X121743684Y-155269656D01*
X121285000Y-155178418D01*
X120826316Y-155269656D01*
X120437462Y-155529480D01*
X120177638Y-155918334D01*
X120086400Y-156377018D01*
X119943600Y-156377018D01*
X119852362Y-155918334D01*
X119592538Y-155529480D01*
X119203684Y-155269656D01*
X118745000Y-155178418D01*
X118286316Y-155269656D01*
X117897462Y-155529480D01*
X117637638Y-155918334D01*
X117546400Y-156377018D01*
X117403600Y-156377018D01*
X117312362Y-155918334D01*
X117052538Y-155529480D01*
X116663684Y-155269656D01*
X116205000Y-155178418D01*
X115746316Y-155269656D01*
X115357462Y-155529480D01*
X115097638Y-155918334D01*
X115006400Y-156377018D01*
X114863600Y-156377018D01*
X114772362Y-155918334D01*
X114512538Y-155529480D01*
X114123684Y-155269656D01*
X113665000Y-155178418D01*
X113206316Y-155269656D01*
X112817462Y-155529480D01*
X112557638Y-155918334D01*
X112466400Y-156377018D01*
X112330163Y-156377018D01*
X112330163Y-155536900D01*
X112306804Y-155412756D01*
X112233435Y-155298738D01*
X112121487Y-155222247D01*
X111988600Y-155195337D01*
X111774041Y-155195337D01*
X111899947Y-155143188D01*
X112331821Y-154748990D01*
X112547096Y-154289666D01*
X112557638Y-154342666D01*
X112817462Y-154731520D01*
X113206316Y-154991344D01*
X113665000Y-155082582D01*
X114123684Y-154991344D01*
X114512538Y-154731520D01*
X114772362Y-154342666D01*
X114863600Y-153883982D01*
X114863600Y-153837018D01*
X115006400Y-153837018D01*
X115006400Y-153883982D01*
X115097638Y-154342666D01*
X115357462Y-154731520D01*
X115746316Y-154991344D01*
X116205000Y-155082582D01*
X116663684Y-154991344D01*
X117052538Y-154731520D01*
X117312362Y-154342666D01*
X117403600Y-153883982D01*
X117403600Y-153837018D01*
X117546400Y-153837018D01*
X117546400Y-153883982D01*
X117637638Y-154342666D01*
X117897462Y-154731520D01*
X118286316Y-154991344D01*
X118745000Y-155082582D01*
X119203684Y-154991344D01*
X119592538Y-154731520D01*
X119852362Y-154342666D01*
X119943600Y-153883982D01*
X119943600Y-153837018D01*
X120086400Y-153837018D01*
X120086400Y-153883982D01*
X120177638Y-154342666D01*
X120437462Y-154731520D01*
X120826316Y-154991344D01*
X121285000Y-155082582D01*
X121743684Y-154991344D01*
X122132538Y-154731520D01*
X122392362Y-154342666D01*
X122483600Y-153883982D01*
X122483600Y-153837018D01*
X122392362Y-153378334D01*
X122132538Y-152989480D01*
X121743684Y-152729656D01*
X121285000Y-152638418D01*
X120826316Y-152729656D01*
X120437462Y-152989480D01*
X120177638Y-153378334D01*
X120086400Y-153837018D01*
X119943600Y-153837018D01*
X119852362Y-153378334D01*
X119592538Y-152989480D01*
X119203684Y-152729656D01*
X118745000Y-152638418D01*
X118286316Y-152729656D01*
X117897462Y-152989480D01*
X117637638Y-153378334D01*
X117546400Y-153837018D01*
X117403600Y-153837018D01*
X117312362Y-153378334D01*
X117052538Y-152989480D01*
X116663684Y-152729656D01*
X116205000Y-152638418D01*
X115746316Y-152729656D01*
X115357462Y-152989480D01*
X115097638Y-153378334D01*
X115006400Y-153837018D01*
X114863600Y-153837018D01*
X114772362Y-153378334D01*
X114512538Y-152989480D01*
X114123684Y-152729656D01*
X113665000Y-152638418D01*
X113206316Y-152729656D01*
X112817462Y-152989480D01*
X112557638Y-153378334D01*
X112547096Y-153431334D01*
X112331821Y-152972010D01*
X111899947Y-152577812D01*
X111484026Y-152405542D01*
X111252000Y-152526683D01*
X111252000Y-153733500D01*
X111272000Y-153733500D01*
X111272000Y-153987500D01*
X111252000Y-153987500D01*
X111252000Y-154007500D01*
X110998000Y-154007500D01*
X110998000Y-153987500D01*
X109790531Y-153987500D01*
X109670032Y-154219527D01*
X108705354Y-154219527D01*
X108775389Y-154050863D01*
X108775610Y-153798245D01*
X108679140Y-153564772D01*
X108615952Y-153501473D01*
X109670032Y-153501473D01*
X109790531Y-153733500D01*
X110998000Y-153733500D01*
X110998000Y-152526683D01*
X110765974Y-152405542D01*
X110350053Y-152577812D01*
X109918179Y-152972010D01*
X109670032Y-153501473D01*
X108615952Y-153501473D01*
X108500668Y-153385987D01*
X108267363Y-153289111D01*
X108014745Y-153288890D01*
X107781272Y-153385360D01*
X107768109Y-153398500D01*
X106798659Y-153398500D01*
X106786168Y-153385987D01*
X106552863Y-153289111D01*
X106300245Y-153288890D01*
X106066772Y-153385360D01*
X105887987Y-153563832D01*
X105791111Y-153797137D01*
X105790890Y-154049755D01*
X94188000Y-154049755D01*
X94188000Y-151789486D01*
X96795682Y-151789486D01*
X96960602Y-152188623D01*
X97265711Y-152494265D01*
X97664559Y-152659882D01*
X98096426Y-152660258D01*
X98495563Y-152495338D01*
X98801205Y-152190229D01*
X98966822Y-151791381D01*
X98967198Y-151359514D01*
X98836372Y-151042890D01*
X106126347Y-151042890D01*
X106126347Y-152742150D01*
X106149706Y-152866294D01*
X106223075Y-152980312D01*
X106335023Y-153056803D01*
X106467910Y-153083713D01*
X108167170Y-153083713D01*
X108291314Y-153060354D01*
X108405332Y-152986985D01*
X108481823Y-152875037D01*
X108508733Y-152742150D01*
X108508733Y-151352250D01*
X109045500Y-151352250D01*
X109045500Y-151642810D01*
X109142173Y-151876199D01*
X109320802Y-152054827D01*
X109554191Y-152151500D01*
X109646750Y-152151500D01*
X109805500Y-151992750D01*
X109805500Y-151193500D01*
X110055500Y-151193500D01*
X110055500Y-151992750D01*
X110214250Y-152151500D01*
X110306809Y-152151500D01*
X110540198Y-152054827D01*
X110718827Y-151876199D01*
X110815500Y-151642810D01*
X110815500Y-151352250D01*
X110656750Y-151193500D01*
X110055500Y-151193500D01*
X109805500Y-151193500D01*
X109204250Y-151193500D01*
X109045500Y-151352250D01*
X108508733Y-151352250D01*
X108508733Y-151042890D01*
X108485374Y-150918746D01*
X108412005Y-150804728D01*
X108300057Y-150728237D01*
X108167170Y-150701327D01*
X106467910Y-150701327D01*
X106343766Y-150724686D01*
X106229748Y-150798055D01*
X106153257Y-150910003D01*
X106126347Y-151042890D01*
X98836372Y-151042890D01*
X98802278Y-150960377D01*
X98497169Y-150654735D01*
X98100903Y-150490190D01*
X109045500Y-150490190D01*
X109045500Y-150780750D01*
X109204250Y-150939500D01*
X109805500Y-150939500D01*
X109805500Y-150140250D01*
X110055500Y-150140250D01*
X110055500Y-150939500D01*
X110656750Y-150939500D01*
X110815500Y-150780750D01*
X110815500Y-150616500D01*
X110838937Y-150616500D01*
X110838937Y-151516500D01*
X110862296Y-151640644D01*
X110935665Y-151754662D01*
X111047613Y-151831153D01*
X111180500Y-151858063D01*
X111680500Y-151858063D01*
X111804644Y-151834704D01*
X111918662Y-151761335D01*
X111995153Y-151649387D01*
X112019633Y-151528500D01*
X112022452Y-151528500D01*
X112098332Y-151604513D01*
X112331637Y-151701389D01*
X112584255Y-151701610D01*
X112817728Y-151605140D01*
X112996513Y-151426668D01*
X113093389Y-151193363D01*
X113093610Y-150940745D01*
X112997140Y-150707272D01*
X112818668Y-150528487D01*
X112585363Y-150431611D01*
X112332745Y-150431390D01*
X112099272Y-150527860D01*
X112022498Y-150604500D01*
X112019805Y-150604500D01*
X111998704Y-150492356D01*
X111925335Y-150378338D01*
X111813387Y-150301847D01*
X111680500Y-150274937D01*
X111180500Y-150274937D01*
X111056356Y-150298296D01*
X110942338Y-150371665D01*
X110865847Y-150483613D01*
X110838937Y-150616500D01*
X110815500Y-150616500D01*
X110815500Y-150490190D01*
X110718827Y-150256801D01*
X110540198Y-150078173D01*
X110306809Y-149981500D01*
X110214250Y-149981500D01*
X110055500Y-150140250D01*
X109805500Y-150140250D01*
X109646750Y-149981500D01*
X109554191Y-149981500D01*
X109320802Y-150078173D01*
X109142173Y-150256801D01*
X109045500Y-150490190D01*
X98100903Y-150490190D01*
X98098321Y-150489118D01*
X97666454Y-150488742D01*
X97267317Y-150653662D01*
X96961675Y-150958771D01*
X96796058Y-151357619D01*
X96795682Y-151789486D01*
X94188000Y-151789486D01*
X94188000Y-149604755D01*
X108013390Y-149604755D01*
X108109860Y-149838228D01*
X108288332Y-150017013D01*
X108521637Y-150113889D01*
X108774255Y-150114110D01*
X109007728Y-150017640D01*
X109186513Y-149839168D01*
X109283389Y-149605863D01*
X109283484Y-149497382D01*
X110435683Y-148345183D01*
X110475094Y-148286200D01*
X110526677Y-148209000D01*
X134286918Y-148209000D01*
X134378156Y-148667684D01*
X134637980Y-149056538D01*
X135026834Y-149316362D01*
X135485518Y-149407600D01*
X135532482Y-149407600D01*
X135991166Y-149316362D01*
X136380020Y-149056538D01*
X136639844Y-148667684D01*
X136731082Y-148209000D01*
X136639844Y-147750316D01*
X136380020Y-147361462D01*
X136355982Y-147345400D01*
X136843837Y-147345400D01*
X136843837Y-149072600D01*
X136867196Y-149196744D01*
X136940565Y-149310762D01*
X137052513Y-149387253D01*
X137185400Y-149414163D01*
X138912600Y-149414163D01*
X139036744Y-149390804D01*
X139150762Y-149317435D01*
X139227253Y-149205487D01*
X139254163Y-149072600D01*
X139254163Y-147345400D01*
X139230804Y-147221256D01*
X139157435Y-147107238D01*
X139045487Y-147030747D01*
X138912600Y-147003837D01*
X137185400Y-147003837D01*
X137061256Y-147027196D01*
X136947238Y-147100565D01*
X136870747Y-147212513D01*
X136843837Y-147345400D01*
X136355982Y-147345400D01*
X135991166Y-147101638D01*
X135532482Y-147010400D01*
X135485518Y-147010400D01*
X135026834Y-147101638D01*
X134637980Y-147361462D01*
X134378156Y-147750316D01*
X134286918Y-148209000D01*
X110526677Y-148209000D01*
X110535832Y-148195300D01*
X110571000Y-148018500D01*
X110571000Y-145573750D01*
X115245500Y-145573750D01*
X115245500Y-145789310D01*
X115342173Y-146022699D01*
X115520802Y-146201327D01*
X115754191Y-146298000D01*
X115994750Y-146298000D01*
X116153500Y-146139250D01*
X116153500Y-145415000D01*
X115404250Y-145415000D01*
X115245500Y-145573750D01*
X110571000Y-145573750D01*
X110571000Y-144786690D01*
X115245500Y-144786690D01*
X115245500Y-145002250D01*
X115404250Y-145161000D01*
X116153500Y-145161000D01*
X116153500Y-144436750D01*
X116407500Y-144436750D01*
X116407500Y-145161000D01*
X116427500Y-145161000D01*
X116427500Y-145415000D01*
X116407500Y-145415000D01*
X116407500Y-146139250D01*
X116566250Y-146298000D01*
X116806809Y-146298000D01*
X117040198Y-146201327D01*
X117218827Y-146022699D01*
X117239720Y-145972260D01*
X117247613Y-145977653D01*
X117380500Y-146004563D01*
X118180500Y-146004563D01*
X118304644Y-145981204D01*
X118418662Y-145907835D01*
X118495153Y-145795887D01*
X118522063Y-145663000D01*
X118522063Y-144913000D01*
X118498704Y-144788856D01*
X118425335Y-144674838D01*
X118313387Y-144598347D01*
X118242500Y-144583992D01*
X118242500Y-144212138D01*
X118267013Y-144187668D01*
X118363889Y-143954363D01*
X118364110Y-143701745D01*
X118275803Y-143488026D01*
X134054042Y-143488026D01*
X134226312Y-143903947D01*
X134620510Y-144335821D01*
X135079834Y-144551096D01*
X135026834Y-144561638D01*
X134637980Y-144821462D01*
X134378156Y-145210316D01*
X134286918Y-145669000D01*
X134378156Y-146127684D01*
X134637980Y-146516538D01*
X135026834Y-146776362D01*
X135485518Y-146867600D01*
X135532482Y-146867600D01*
X135991166Y-146776362D01*
X136380020Y-146516538D01*
X136639844Y-146127684D01*
X136731082Y-145669000D01*
X136826918Y-145669000D01*
X136918156Y-146127684D01*
X137177980Y-146516538D01*
X137566834Y-146776362D01*
X138025518Y-146867600D01*
X138072482Y-146867600D01*
X138531166Y-146776362D01*
X138920020Y-146516538D01*
X139179844Y-146127684D01*
X139271082Y-145669000D01*
X139179844Y-145210316D01*
X138920020Y-144821462D01*
X138531166Y-144561638D01*
X138072482Y-144470400D01*
X138025518Y-144470400D01*
X137566834Y-144561638D01*
X137177980Y-144821462D01*
X136918156Y-145210316D01*
X136826918Y-145669000D01*
X136731082Y-145669000D01*
X136639844Y-145210316D01*
X136380020Y-144821462D01*
X135991166Y-144561638D01*
X135938166Y-144551096D01*
X136397490Y-144335821D01*
X136791688Y-143903947D01*
X136920949Y-143591864D01*
X137177980Y-143976538D01*
X137566834Y-144236362D01*
X138025518Y-144327600D01*
X138072482Y-144327600D01*
X138531166Y-144236362D01*
X138920020Y-143976538D01*
X139179844Y-143587684D01*
X139271082Y-143129000D01*
X139179844Y-142670316D01*
X138920020Y-142281462D01*
X138531166Y-142021638D01*
X138072482Y-141930400D01*
X138025518Y-141930400D01*
X137566834Y-142021638D01*
X137177980Y-142281462D01*
X136920949Y-142666136D01*
X136791688Y-142354053D01*
X136397490Y-141922179D01*
X135868027Y-141674032D01*
X135636000Y-141794531D01*
X135636000Y-143002000D01*
X135656000Y-143002000D01*
X135656000Y-143256000D01*
X135636000Y-143256000D01*
X135636000Y-143276000D01*
X135382000Y-143276000D01*
X135382000Y-143256000D01*
X134175183Y-143256000D01*
X134054042Y-143488026D01*
X118275803Y-143488026D01*
X118267640Y-143468272D01*
X118089168Y-143289487D01*
X117855863Y-143192611D01*
X117603245Y-143192390D01*
X117369772Y-143288860D01*
X117190987Y-143467332D01*
X117094111Y-143700637D01*
X117093890Y-143953255D01*
X117190360Y-144186728D01*
X117318500Y-144315093D01*
X117318500Y-144583103D01*
X117256356Y-144594796D01*
X117240296Y-144605131D01*
X117218827Y-144553301D01*
X117040198Y-144374673D01*
X116806809Y-144278000D01*
X116566250Y-144278000D01*
X116407500Y-144436750D01*
X116153500Y-144436750D01*
X115994750Y-144278000D01*
X115754191Y-144278000D01*
X115520802Y-144374673D01*
X115342173Y-144553301D01*
X115245500Y-144786690D01*
X110571000Y-144786690D01*
X110571000Y-142769974D01*
X134054042Y-142769974D01*
X134175183Y-143002000D01*
X135382000Y-143002000D01*
X135382000Y-141794531D01*
X135149973Y-141674032D01*
X134620510Y-141922179D01*
X134226312Y-142354053D01*
X134054042Y-142769974D01*
X110571000Y-142769974D01*
X110571000Y-141596548D01*
X110647013Y-141520668D01*
X110743889Y-141287363D01*
X110744110Y-141034745D01*
X110647640Y-140801272D01*
X110469168Y-140622487D01*
X110235863Y-140525611D01*
X109983245Y-140525390D01*
X109749772Y-140621860D01*
X109570987Y-140800332D01*
X109474111Y-141033637D01*
X109473890Y-141286255D01*
X109570360Y-141519728D01*
X109647000Y-141596502D01*
X109647000Y-147827134D01*
X108630150Y-148843984D01*
X108522745Y-148843890D01*
X108289272Y-148940360D01*
X108110487Y-149118832D01*
X108013611Y-149352137D01*
X108013390Y-149604755D01*
X94188000Y-149604755D01*
X94188000Y-148082000D01*
X94165090Y-147960242D01*
X94093131Y-147848414D01*
X93983334Y-147773393D01*
X93853000Y-147747000D01*
X91330500Y-147747000D01*
X91330500Y-145383250D01*
X106101500Y-145383250D01*
X106101500Y-145598810D01*
X106198173Y-145832199D01*
X106376802Y-146010827D01*
X106610191Y-146107500D01*
X106850750Y-146107500D01*
X107009500Y-145948750D01*
X107009500Y-145224500D01*
X106260250Y-145224500D01*
X106101500Y-145383250D01*
X91330500Y-145383250D01*
X91330500Y-144270755D01*
X95122890Y-144270755D01*
X95219360Y-144504228D01*
X95397832Y-144683013D01*
X95631137Y-144779889D01*
X95883755Y-144780110D01*
X96117228Y-144683640D01*
X96204831Y-144596190D01*
X106101500Y-144596190D01*
X106101500Y-144811750D01*
X106260250Y-144970500D01*
X107009500Y-144970500D01*
X107009500Y-144246250D01*
X106850750Y-144087500D01*
X106610191Y-144087500D01*
X106376802Y-144184173D01*
X106198173Y-144362801D01*
X106101500Y-144596190D01*
X96204831Y-144596190D01*
X96296013Y-144505168D01*
X96392889Y-144271863D01*
X96392984Y-144163382D01*
X96647866Y-143908500D01*
X96655452Y-143908500D01*
X96731332Y-143984513D01*
X96964637Y-144081389D01*
X97217255Y-144081610D01*
X97450728Y-143985140D01*
X97629513Y-143806668D01*
X97726389Y-143573363D01*
X97726610Y-143320745D01*
X97630140Y-143087272D01*
X97451668Y-142908487D01*
X97218363Y-142811611D01*
X96965745Y-142811390D01*
X96732272Y-142907860D01*
X96655498Y-142984500D01*
X96456500Y-142984500D01*
X96279700Y-143019668D01*
X96210942Y-143065611D01*
X96129817Y-143119817D01*
X95739650Y-143509984D01*
X95632245Y-143509890D01*
X95398772Y-143606360D01*
X95219987Y-143784832D01*
X95123111Y-144018137D01*
X95122890Y-144270755D01*
X91330500Y-144270755D01*
X91330500Y-138911355D01*
X98323290Y-138911355D01*
X98419760Y-139144828D01*
X98598232Y-139323613D01*
X98610000Y-139328499D01*
X98610000Y-139369330D01*
X98583838Y-139386165D01*
X98507347Y-139498113D01*
X98480437Y-139631000D01*
X98480437Y-140531000D01*
X98503796Y-140655144D01*
X98577165Y-140769162D01*
X98610000Y-140791597D01*
X98610000Y-141083830D01*
X98583838Y-141100665D01*
X98507347Y-141212613D01*
X98480437Y-141345500D01*
X98480437Y-142245500D01*
X98503796Y-142369644D01*
X98577165Y-142483662D01*
X98689113Y-142560153D01*
X98822000Y-142587063D01*
X99322000Y-142587063D01*
X99446144Y-142563704D01*
X99560162Y-142490335D01*
X99636653Y-142378387D01*
X99663563Y-142245500D01*
X99663563Y-141345500D01*
X99980437Y-141345500D01*
X99980437Y-142245500D01*
X100003796Y-142369644D01*
X100077165Y-142483662D01*
X100189113Y-142560153D01*
X100322000Y-142587063D01*
X100822000Y-142587063D01*
X100946144Y-142563704D01*
X101015950Y-142518785D01*
X101112160Y-142751628D01*
X101290632Y-142930413D01*
X101523937Y-143027289D01*
X101632417Y-143027384D01*
X101781316Y-143176283D01*
X101851443Y-143223140D01*
X101931200Y-143276432D01*
X102108000Y-143311600D01*
X106273600Y-143311600D01*
X106450400Y-143276432D01*
X106600283Y-143176283D01*
X106620183Y-143146500D01*
X107386952Y-143146500D01*
X107462832Y-143222513D01*
X107555123Y-143260835D01*
X107475487Y-143340332D01*
X107378611Y-143573637D01*
X107378390Y-143826255D01*
X107474860Y-144059728D01*
X107502583Y-144087500D01*
X107422250Y-144087500D01*
X107263500Y-144246250D01*
X107263500Y-144970500D01*
X107283500Y-144970500D01*
X107283500Y-145224500D01*
X107263500Y-145224500D01*
X107263500Y-145948750D01*
X107422250Y-146107500D01*
X107662809Y-146107500D01*
X107896198Y-146010827D01*
X108074827Y-145832199D01*
X108095720Y-145781760D01*
X108103613Y-145787153D01*
X108236500Y-145814063D01*
X109036500Y-145814063D01*
X109160644Y-145790704D01*
X109274662Y-145717335D01*
X109351153Y-145605387D01*
X109378063Y-145472500D01*
X109378063Y-144722500D01*
X109354704Y-144598356D01*
X109281335Y-144484338D01*
X109169387Y-144407847D01*
X109098500Y-144393492D01*
X109098500Y-144323500D01*
X109063332Y-144146700D01*
X108963183Y-143996817D01*
X108648516Y-143682150D01*
X108648610Y-143574745D01*
X108552140Y-143341272D01*
X108373668Y-143162487D01*
X108281377Y-143124165D01*
X108361013Y-143044668D01*
X108457889Y-142811363D01*
X108458110Y-142558745D01*
X108361640Y-142325272D01*
X108183168Y-142146487D01*
X107949863Y-142049611D01*
X107697245Y-142049390D01*
X107463772Y-142145860D01*
X107386998Y-142222500D01*
X106426000Y-142222500D01*
X106249200Y-142257668D01*
X106149431Y-142324332D01*
X106099317Y-142357817D01*
X106069534Y-142387600D01*
X103039078Y-142387600D01*
X103047689Y-142366863D01*
X103047910Y-142114245D01*
X102951440Y-141880772D01*
X102874800Y-141803998D01*
X102874800Y-141427200D01*
X102839632Y-141250400D01*
X102820225Y-141221356D01*
X102739483Y-141100516D01*
X102539816Y-140900849D01*
X102539910Y-140793445D01*
X102443440Y-140559972D01*
X102264968Y-140381187D01*
X102031663Y-140284311D01*
X101779045Y-140284090D01*
X101545572Y-140380560D01*
X101366787Y-140559032D01*
X101269911Y-140792337D01*
X101269722Y-141008078D01*
X101140772Y-141061360D01*
X101077739Y-141124283D01*
X101066835Y-141107338D01*
X100954887Y-141030847D01*
X100822000Y-141003937D01*
X100322000Y-141003937D01*
X100197856Y-141027296D01*
X100083838Y-141100665D01*
X100007347Y-141212613D01*
X99980437Y-141345500D01*
X99663563Y-141345500D01*
X99640204Y-141221356D01*
X99566835Y-141107338D01*
X99534000Y-141084903D01*
X99534000Y-140792670D01*
X99560162Y-140775835D01*
X99636653Y-140663887D01*
X99663563Y-140531000D01*
X99663563Y-139761435D01*
X99839832Y-139938013D01*
X99980437Y-139996397D01*
X99980437Y-140531000D01*
X100003796Y-140655144D01*
X100077165Y-140769162D01*
X100189113Y-140845653D01*
X100322000Y-140872563D01*
X100822000Y-140872563D01*
X100946144Y-140849204D01*
X101060162Y-140775835D01*
X101136653Y-140663887D01*
X101163563Y-140531000D01*
X101163563Y-140486868D01*
X101189333Y-140448300D01*
X101224500Y-140271500D01*
X101189333Y-140094701D01*
X101163563Y-140056133D01*
X101163563Y-139807250D01*
X103574500Y-139807250D01*
X103574500Y-140047809D01*
X103671173Y-140281198D01*
X103849801Y-140459827D01*
X103900240Y-140480720D01*
X103894847Y-140488613D01*
X103867937Y-140621500D01*
X103867937Y-141421500D01*
X103891296Y-141545644D01*
X103964665Y-141659662D01*
X104076613Y-141736153D01*
X104209500Y-141763063D01*
X104959500Y-141763063D01*
X105083644Y-141739704D01*
X105197662Y-141666335D01*
X105274153Y-141554387D01*
X105288508Y-141483500D01*
X105930000Y-141483500D01*
X106106800Y-141448332D01*
X106252445Y-141351015D01*
X106361255Y-141351110D01*
X106594728Y-141254640D01*
X106773513Y-141076168D01*
X106870389Y-140842863D01*
X106870610Y-140590245D01*
X106774140Y-140356772D01*
X106687775Y-140270255D01*
X117855890Y-140270255D01*
X117952360Y-140503728D01*
X118130832Y-140682513D01*
X118364137Y-140779389D01*
X118616755Y-140779610D01*
X118625090Y-140776166D01*
X118669500Y-140785000D01*
X119310103Y-140785000D01*
X119321796Y-140847144D01*
X119395165Y-140961162D01*
X119507113Y-141037653D01*
X119640000Y-141064563D01*
X120390000Y-141064563D01*
X120514144Y-141041204D01*
X120628162Y-140967835D01*
X120704653Y-140855887D01*
X120731563Y-140723000D01*
X120731563Y-139923000D01*
X120708204Y-139798856D01*
X120697869Y-139782796D01*
X120749699Y-139761327D01*
X120928327Y-139582698D01*
X121025000Y-139349309D01*
X121025000Y-139108750D01*
X120866250Y-138950000D01*
X120142000Y-138950000D01*
X120142000Y-138970000D01*
X119888000Y-138970000D01*
X119888000Y-138950000D01*
X119163750Y-138950000D01*
X119005000Y-139108750D01*
X119005000Y-139349309D01*
X119101673Y-139582698D01*
X119280301Y-139761327D01*
X119330740Y-139782220D01*
X119325347Y-139790113D01*
X119310992Y-139861000D01*
X119060930Y-139861000D01*
X119029640Y-139785272D01*
X118851168Y-139606487D01*
X118617863Y-139509611D01*
X118365245Y-139509390D01*
X118131772Y-139605860D01*
X117952987Y-139784332D01*
X117856111Y-140017637D01*
X117855890Y-140270255D01*
X106687775Y-140270255D01*
X106595668Y-140177987D01*
X106362363Y-140081111D01*
X106109745Y-140080890D01*
X105876272Y-140177360D01*
X105697487Y-140355832D01*
X105612917Y-140559500D01*
X105289397Y-140559500D01*
X105277704Y-140497356D01*
X105267369Y-140481296D01*
X105319199Y-140459827D01*
X105497827Y-140281198D01*
X105594500Y-140047809D01*
X105594500Y-139807250D01*
X105435750Y-139648500D01*
X104711500Y-139648500D01*
X104711500Y-139668500D01*
X104457500Y-139668500D01*
X104457500Y-139648500D01*
X103733250Y-139648500D01*
X103574500Y-139807250D01*
X101163563Y-139807250D01*
X101163563Y-139631000D01*
X101140204Y-139506856D01*
X101066835Y-139392838D01*
X100954887Y-139316347D01*
X100835094Y-139292089D01*
X100835110Y-139274245D01*
X100738640Y-139040772D01*
X100693139Y-138995191D01*
X103574500Y-138995191D01*
X103574500Y-139235750D01*
X103733250Y-139394500D01*
X104457500Y-139394500D01*
X104457500Y-138645250D01*
X104711500Y-138645250D01*
X104711500Y-139394500D01*
X105435750Y-139394500D01*
X105594500Y-139235750D01*
X105594500Y-138995191D01*
X105497827Y-138761802D01*
X105319199Y-138583173D01*
X105085810Y-138486500D01*
X104870250Y-138486500D01*
X104711500Y-138645250D01*
X104457500Y-138645250D01*
X104298750Y-138486500D01*
X104083190Y-138486500D01*
X103849801Y-138583173D01*
X103671173Y-138761802D01*
X103574500Y-138995191D01*
X100693139Y-138995191D01*
X100560168Y-138861987D01*
X100326863Y-138765111D01*
X100074245Y-138764890D01*
X99840772Y-138861360D01*
X99661987Y-139039832D01*
X99565111Y-139273137D01*
X99565007Y-139391589D01*
X99534000Y-139370403D01*
X99534000Y-139055248D01*
X99593289Y-138912463D01*
X99593510Y-138659845D01*
X99497040Y-138426372D01*
X99367587Y-138296691D01*
X119005000Y-138296691D01*
X119005000Y-138537250D01*
X119163750Y-138696000D01*
X119888000Y-138696000D01*
X119888000Y-137946750D01*
X120142000Y-137946750D01*
X120142000Y-138696000D01*
X120866250Y-138696000D01*
X121025000Y-138537250D01*
X121025000Y-138296691D01*
X120973548Y-138172474D01*
X136298234Y-138172474D01*
X136373231Y-138549509D01*
X136586804Y-138869144D01*
X136974856Y-139257196D01*
X137294491Y-139470769D01*
X137671526Y-139545766D01*
X138048561Y-139470769D01*
X138368196Y-139257196D01*
X138581769Y-138937561D01*
X138656766Y-138560526D01*
X138581769Y-138183491D01*
X138513781Y-138081740D01*
X139021894Y-138081740D01*
X139398929Y-138006743D01*
X139718564Y-137793170D01*
X139932137Y-137473535D01*
X140007134Y-137096500D01*
X139932137Y-136719465D01*
X139718564Y-136399830D01*
X139398929Y-136186257D01*
X139021894Y-136111260D01*
X138857741Y-136111260D01*
X138881275Y-136070823D01*
X138949085Y-135569258D01*
X138819792Y-135079923D01*
X138763752Y-135000586D01*
X138535684Y-134947921D01*
X137657105Y-135826500D01*
X137671248Y-135840643D01*
X137491643Y-136020248D01*
X137477500Y-136006105D01*
X136598921Y-136884684D01*
X136651586Y-137112752D01*
X136730923Y-137168792D01*
X137008059Y-137242017D01*
X136906439Y-137262231D01*
X136586804Y-137475804D01*
X136373231Y-137795439D01*
X136298234Y-138172474D01*
X120973548Y-138172474D01*
X120928327Y-138063302D01*
X120749699Y-137884673D01*
X120516310Y-137788000D01*
X120300750Y-137788000D01*
X120142000Y-137946750D01*
X119888000Y-137946750D01*
X119729250Y-137788000D01*
X119513690Y-137788000D01*
X119280301Y-137884673D01*
X119101673Y-138063302D01*
X119005000Y-138296691D01*
X99367587Y-138296691D01*
X99318568Y-138247587D01*
X99085263Y-138150711D01*
X98832645Y-138150490D01*
X98599172Y-138246960D01*
X98420387Y-138425432D01*
X98323511Y-138658737D01*
X98323290Y-138911355D01*
X91330500Y-138911355D01*
X91330500Y-134981250D01*
X103574500Y-134981250D01*
X103574500Y-135221809D01*
X103671173Y-135455198D01*
X103849801Y-135633827D01*
X103900240Y-135654720D01*
X103894847Y-135662613D01*
X103867937Y-135795500D01*
X103867937Y-136595500D01*
X103891296Y-136719644D01*
X103964665Y-136833662D01*
X104076613Y-136910153D01*
X104209500Y-136937063D01*
X104959500Y-136937063D01*
X105083644Y-136913704D01*
X105097551Y-136904755D01*
X110870890Y-136904755D01*
X110967360Y-137138228D01*
X111145832Y-137317013D01*
X111379137Y-137413889D01*
X111631755Y-137414110D01*
X111865228Y-137317640D01*
X111942002Y-137241000D01*
X113355952Y-137241000D01*
X113431832Y-137317013D01*
X113665137Y-137413889D01*
X113917755Y-137414110D01*
X114151228Y-137317640D01*
X114330013Y-137139168D01*
X114426889Y-136905863D01*
X114427110Y-136653245D01*
X114330640Y-136419772D01*
X114152168Y-136240987D01*
X113918863Y-136144111D01*
X113666245Y-136143890D01*
X113432772Y-136240360D01*
X113355998Y-136317000D01*
X111942048Y-136317000D01*
X111866168Y-136240987D01*
X111632863Y-136144111D01*
X111380245Y-136143890D01*
X111146772Y-136240360D01*
X110967987Y-136418832D01*
X110871111Y-136652137D01*
X110870890Y-136904755D01*
X105097551Y-136904755D01*
X105197662Y-136840335D01*
X105274153Y-136728387D01*
X105288508Y-136657500D01*
X105612500Y-136657500D01*
X105789300Y-136622332D01*
X105939183Y-136522183D01*
X106190350Y-136271016D01*
X106297755Y-136271110D01*
X106531228Y-136174640D01*
X106710013Y-135996168D01*
X106772263Y-135846250D01*
X117354000Y-135846250D01*
X117354000Y-136086809D01*
X117450673Y-136320198D01*
X117629301Y-136498827D01*
X117862690Y-136595500D01*
X118078250Y-136595500D01*
X118237000Y-136436750D01*
X118237000Y-135687500D01*
X118491000Y-135687500D01*
X118491000Y-136436750D01*
X118649750Y-136595500D01*
X118865310Y-136595500D01*
X119098699Y-136498827D01*
X119157750Y-136439776D01*
X119216801Y-136498827D01*
X119450190Y-136595500D01*
X119665750Y-136595500D01*
X119824500Y-136436750D01*
X119824500Y-135687500D01*
X120078500Y-135687500D01*
X120078500Y-136436750D01*
X120237250Y-136595500D01*
X120452810Y-136595500D01*
X120686199Y-136498827D01*
X120864827Y-136320198D01*
X120961500Y-136086809D01*
X120961500Y-136083742D01*
X136005915Y-136083742D01*
X136135208Y-136573077D01*
X136191248Y-136652414D01*
X136419316Y-136705079D01*
X137297895Y-135826500D01*
X136586863Y-135115468D01*
X136328314Y-135144741D01*
X136073725Y-135582177D01*
X136005915Y-136083742D01*
X120961500Y-136083742D01*
X120961500Y-135846250D01*
X120802750Y-135687500D01*
X120078500Y-135687500D01*
X119824500Y-135687500D01*
X118491000Y-135687500D01*
X118237000Y-135687500D01*
X117512750Y-135687500D01*
X117354000Y-135846250D01*
X106772263Y-135846250D01*
X106806889Y-135762863D01*
X106807110Y-135510245D01*
X106710640Y-135276772D01*
X106532168Y-135097987D01*
X106298863Y-135001111D01*
X106046245Y-135000890D01*
X105812772Y-135097360D01*
X105633987Y-135275832D01*
X105537111Y-135509137D01*
X105537016Y-135617617D01*
X105421134Y-135733500D01*
X105289397Y-135733500D01*
X105277704Y-135671356D01*
X105267369Y-135655296D01*
X105319199Y-135633827D01*
X105497827Y-135455198D01*
X105594500Y-135221809D01*
X105594500Y-134981250D01*
X105435750Y-134822500D01*
X104711500Y-134822500D01*
X104711500Y-134842500D01*
X104457500Y-134842500D01*
X104457500Y-134822500D01*
X103733250Y-134822500D01*
X103574500Y-134981250D01*
X91330500Y-134981250D01*
X91330500Y-134620000D01*
X91307590Y-134498242D01*
X91235631Y-134386414D01*
X91125834Y-134311393D01*
X90995500Y-134285000D01*
X86689262Y-134285000D01*
X86573453Y-134169191D01*
X103574500Y-134169191D01*
X103574500Y-134409750D01*
X103733250Y-134568500D01*
X104457500Y-134568500D01*
X104457500Y-133819250D01*
X104711500Y-133819250D01*
X104711500Y-134568500D01*
X105435750Y-134568500D01*
X105594500Y-134409750D01*
X105594500Y-134169191D01*
X105497827Y-133935802D01*
X105319199Y-133757173D01*
X105253007Y-133729755D01*
X114299890Y-133729755D01*
X114396360Y-133963228D01*
X114574832Y-134142013D01*
X114808137Y-134238889D01*
X115060755Y-134239110D01*
X115294228Y-134142640D01*
X115371002Y-134066000D01*
X116276952Y-134066000D01*
X116352832Y-134142013D01*
X116586137Y-134238889D01*
X116838755Y-134239110D01*
X116916854Y-134206840D01*
X116999860Y-134407728D01*
X117178332Y-134586513D01*
X117411637Y-134683389D01*
X117567949Y-134683526D01*
X117450673Y-134800802D01*
X117354000Y-135034191D01*
X117354000Y-135274750D01*
X117512750Y-135433500D01*
X118237000Y-135433500D01*
X118237000Y-135413500D01*
X118491000Y-135413500D01*
X118491000Y-135433500D01*
X119824500Y-135433500D01*
X119824500Y-135413500D01*
X120078500Y-135413500D01*
X120078500Y-135433500D01*
X120802750Y-135433500D01*
X120961500Y-135274750D01*
X120961500Y-135034191D01*
X120920772Y-134935863D01*
X136766468Y-134935863D01*
X137477500Y-135646895D01*
X138356079Y-134768316D01*
X138303414Y-134540248D01*
X138224077Y-134484208D01*
X137734742Y-134354915D01*
X137233177Y-134422725D01*
X136795741Y-134677314D01*
X136766468Y-134935863D01*
X120920772Y-134935863D01*
X120864827Y-134800802D01*
X120686199Y-134622173D01*
X120635760Y-134601280D01*
X120641153Y-134593387D01*
X120668063Y-134460500D01*
X120668063Y-134313955D01*
X126626510Y-134313955D01*
X126722980Y-134547428D01*
X126901452Y-134726213D01*
X127134757Y-134823089D01*
X127387375Y-134823310D01*
X127620848Y-134726840D01*
X127799633Y-134548368D01*
X127896509Y-134315063D01*
X127896730Y-134062445D01*
X127800260Y-133828972D01*
X127731240Y-133759831D01*
X127731240Y-132924988D01*
X127807253Y-132849108D01*
X127890770Y-132647974D01*
X136298234Y-132647974D01*
X136373231Y-133025009D01*
X136586804Y-133344644D01*
X136974856Y-133732696D01*
X137294491Y-133946269D01*
X137671526Y-134021266D01*
X138048561Y-133946269D01*
X138368196Y-133732696D01*
X138581769Y-133413061D01*
X138656766Y-133036026D01*
X138581769Y-132658991D01*
X138513781Y-132557240D01*
X139021894Y-132557240D01*
X139398929Y-132482243D01*
X139718564Y-132268670D01*
X139932137Y-131949035D01*
X140007134Y-131572000D01*
X139932137Y-131194965D01*
X139718564Y-130875330D01*
X139398929Y-130661757D01*
X139021894Y-130586760D01*
X138857741Y-130586760D01*
X138881275Y-130546323D01*
X138949085Y-130044758D01*
X138819792Y-129555423D01*
X138763752Y-129476086D01*
X138535684Y-129423421D01*
X137657105Y-130302000D01*
X137671248Y-130316143D01*
X137491643Y-130495748D01*
X137477500Y-130481605D01*
X136598921Y-131360184D01*
X136651586Y-131588252D01*
X136730923Y-131644292D01*
X137008059Y-131717517D01*
X136906439Y-131737731D01*
X136586804Y-131951304D01*
X136373231Y-132270939D01*
X136298234Y-132647974D01*
X127890770Y-132647974D01*
X127904129Y-132615803D01*
X127904350Y-132363185D01*
X127807880Y-132129712D01*
X127629408Y-131950927D01*
X127396103Y-131854051D01*
X127143485Y-131853830D01*
X126910012Y-131950300D01*
X126731227Y-132128772D01*
X126634351Y-132362077D01*
X126634130Y-132614695D01*
X126730600Y-132848168D01*
X126807240Y-132924942D01*
X126807240Y-133744545D01*
X126723607Y-133828032D01*
X126626731Y-134061337D01*
X126626510Y-134313955D01*
X120668063Y-134313955D01*
X120668063Y-133660500D01*
X120644704Y-133536356D01*
X120571335Y-133422338D01*
X120459387Y-133345847D01*
X120326500Y-133318937D01*
X119576500Y-133318937D01*
X119452356Y-133342296D01*
X119338338Y-133415665D01*
X119261847Y-133527613D01*
X119247492Y-133598500D01*
X119068897Y-133598500D01*
X119057204Y-133536356D01*
X118983835Y-133422338D01*
X118871887Y-133345847D01*
X118739000Y-133318937D01*
X117989000Y-133318937D01*
X117864856Y-133342296D01*
X117750838Y-133415665D01*
X117733040Y-133441713D01*
X117665363Y-133413611D01*
X117412745Y-133413390D01*
X117334646Y-133445660D01*
X117251640Y-133244772D01*
X117073168Y-133065987D01*
X116839863Y-132969111D01*
X116587245Y-132968890D01*
X116353772Y-133065360D01*
X116276998Y-133142000D01*
X115371048Y-133142000D01*
X115295168Y-133065987D01*
X115061863Y-132969111D01*
X114809245Y-132968890D01*
X114575772Y-133065360D01*
X114396987Y-133243832D01*
X114300111Y-133477137D01*
X114299890Y-133729755D01*
X105253007Y-133729755D01*
X105085810Y-133660500D01*
X104870250Y-133660500D01*
X104711500Y-133819250D01*
X104457500Y-133819250D01*
X104298750Y-133660500D01*
X104083190Y-133660500D01*
X103849801Y-133757173D01*
X103671173Y-133935802D01*
X103574500Y-134169191D01*
X86573453Y-134169191D01*
X83530517Y-131126255D01*
X84137390Y-131126255D01*
X84233860Y-131359728D01*
X84412332Y-131538513D01*
X84645637Y-131635389D01*
X84898255Y-131635610D01*
X85131728Y-131539140D01*
X85208502Y-131462500D01*
X86558841Y-131462500D01*
X86571332Y-131475013D01*
X86804637Y-131571889D01*
X87057255Y-131572110D01*
X87290728Y-131475640D01*
X87469513Y-131297168D01*
X87566389Y-131063863D01*
X87566610Y-130811245D01*
X87470140Y-130577772D01*
X87291668Y-130398987D01*
X87058363Y-130302111D01*
X86805745Y-130301890D01*
X86572272Y-130398360D01*
X86431886Y-130538500D01*
X85208548Y-130538500D01*
X85132668Y-130462487D01*
X84899363Y-130365611D01*
X84646745Y-130365390D01*
X84413272Y-130461860D01*
X84234487Y-130640332D01*
X84137611Y-130873637D01*
X84137390Y-131126255D01*
X83530517Y-131126255D01*
X82215381Y-129811119D01*
X82108834Y-129739393D01*
X81978500Y-129713000D01*
X76090500Y-129713000D01*
X76090500Y-129475255D01*
X88074390Y-129475255D01*
X88170860Y-129708728D01*
X88349332Y-129887513D01*
X88582637Y-129984389D01*
X88835255Y-129984610D01*
X89068728Y-129888140D01*
X89145502Y-129811500D01*
X90622952Y-129811500D01*
X90698832Y-129887513D01*
X90932137Y-129984389D01*
X91184755Y-129984610D01*
X91418228Y-129888140D01*
X91597013Y-129709668D01*
X91664973Y-129546000D01*
X105505937Y-129546000D01*
X105505937Y-130296000D01*
X105529296Y-130420144D01*
X105602665Y-130534162D01*
X105714613Y-130610653D01*
X105785500Y-130625008D01*
X105785500Y-130822000D01*
X105820668Y-130998800D01*
X105858097Y-131054816D01*
X105920817Y-131148683D01*
X106171984Y-131399850D01*
X106171890Y-131507255D01*
X106268360Y-131740728D01*
X106446832Y-131919513D01*
X106680137Y-132016389D01*
X106932755Y-132016610D01*
X107166228Y-131920140D01*
X107345013Y-131741668D01*
X107441889Y-131508363D01*
X107442110Y-131255745D01*
X107345640Y-131022272D01*
X107254528Y-130931000D01*
X107461750Y-130931000D01*
X107620500Y-130772250D01*
X107620500Y-130048000D01*
X107874500Y-130048000D01*
X107874500Y-130772250D01*
X108033250Y-130931000D01*
X108273809Y-130931000D01*
X108507198Y-130834327D01*
X108685827Y-130655699D01*
X108782500Y-130422310D01*
X108782500Y-130206750D01*
X108623750Y-130048000D01*
X107874500Y-130048000D01*
X107620500Y-130048000D01*
X107600500Y-130048000D01*
X107600500Y-129794000D01*
X107620500Y-129794000D01*
X107620500Y-129069750D01*
X107874500Y-129069750D01*
X107874500Y-129794000D01*
X108623750Y-129794000D01*
X108782500Y-129635250D01*
X108782500Y-129546000D01*
X110522437Y-129546000D01*
X110522437Y-130296000D01*
X110545796Y-130420144D01*
X110619165Y-130534162D01*
X110731113Y-130610653D01*
X110802000Y-130625008D01*
X110802000Y-131139500D01*
X110837168Y-131316300D01*
X110923995Y-131446245D01*
X110937317Y-131466183D01*
X111061484Y-131590350D01*
X111061390Y-131697755D01*
X111157860Y-131931228D01*
X111336332Y-132110013D01*
X111569637Y-132206889D01*
X111822255Y-132207110D01*
X112055728Y-132110640D01*
X112234513Y-131932168D01*
X112331389Y-131698863D01*
X112331610Y-131446245D01*
X112235140Y-131212772D01*
X112056668Y-131033987D01*
X111823363Y-130937111D01*
X111726000Y-130937026D01*
X111726000Y-130625897D01*
X111788144Y-130614204D01*
X111804204Y-130603869D01*
X111825673Y-130655699D01*
X112004302Y-130834327D01*
X112237691Y-130931000D01*
X112478250Y-130931000D01*
X112637000Y-130772250D01*
X112637000Y-130048000D01*
X112891000Y-130048000D01*
X112891000Y-130772250D01*
X113049750Y-130931000D01*
X113290309Y-130931000D01*
X113523698Y-130834327D01*
X113702327Y-130655699D01*
X113799000Y-130422310D01*
X113799000Y-130206750D01*
X113640250Y-130048000D01*
X112891000Y-130048000D01*
X112637000Y-130048000D01*
X112617000Y-130048000D01*
X112617000Y-129794000D01*
X112637000Y-129794000D01*
X112637000Y-129069750D01*
X112891000Y-129069750D01*
X112891000Y-129794000D01*
X113640250Y-129794000D01*
X113799000Y-129635250D01*
X113799000Y-129419690D01*
X113702327Y-129186301D01*
X113523698Y-129007673D01*
X113290309Y-128911000D01*
X113049750Y-128911000D01*
X112891000Y-129069750D01*
X112637000Y-129069750D01*
X112478250Y-128911000D01*
X112237691Y-128911000D01*
X112004302Y-129007673D01*
X111825673Y-129186301D01*
X111804780Y-129236740D01*
X111796887Y-129231347D01*
X111664000Y-129204437D01*
X110864000Y-129204437D01*
X110739856Y-129227796D01*
X110625838Y-129301165D01*
X110549347Y-129413113D01*
X110522437Y-129546000D01*
X108782500Y-129546000D01*
X108782500Y-129419690D01*
X108685827Y-129186301D01*
X108507198Y-129007673D01*
X108273809Y-128911000D01*
X108033250Y-128911000D01*
X107874500Y-129069750D01*
X107620500Y-129069750D01*
X107461750Y-128911000D01*
X107221191Y-128911000D01*
X106987802Y-129007673D01*
X106809173Y-129186301D01*
X106788280Y-129236740D01*
X106780387Y-129231347D01*
X106647500Y-129204437D01*
X105847500Y-129204437D01*
X105723356Y-129227796D01*
X105609338Y-129301165D01*
X105532847Y-129413113D01*
X105505937Y-129546000D01*
X91664973Y-129546000D01*
X91693889Y-129476363D01*
X91694110Y-129223745D01*
X91597640Y-128990272D01*
X91419168Y-128811487D01*
X91185863Y-128714611D01*
X90933245Y-128714390D01*
X90699772Y-128810860D01*
X90622998Y-128887500D01*
X89145548Y-128887500D01*
X89069668Y-128811487D01*
X88836363Y-128714611D01*
X88583745Y-128714390D01*
X88350272Y-128810860D01*
X88171487Y-128989332D01*
X88074611Y-129222637D01*
X88074390Y-129475255D01*
X76090500Y-129475255D01*
X76090500Y-125412500D01*
X76067590Y-125290742D01*
X75995631Y-125178914D01*
X75885834Y-125103893D01*
X75755500Y-125077500D01*
X64262000Y-125077500D01*
X64140242Y-125100410D01*
X64028414Y-125172369D01*
X63953393Y-125282166D01*
X63927000Y-125412500D01*
X63927000Y-159303596D01*
X63920240Y-159303590D01*
X63049954Y-159663185D01*
X62383525Y-160328452D01*
X62327000Y-160464579D01*
X62327000Y-124587000D01*
X84899500Y-124587000D01*
X84899500Y-127952500D01*
X84908185Y-127998659D01*
X84935465Y-128041053D01*
X84977090Y-128069494D01*
X85026500Y-128079500D01*
X91694000Y-128079500D01*
X91740159Y-128070815D01*
X91782553Y-128043535D01*
X91810994Y-128001910D01*
X91821000Y-127952500D01*
X91821000Y-127895000D01*
X115475437Y-127895000D01*
X115475437Y-128645000D01*
X115498796Y-128769144D01*
X115572165Y-128883162D01*
X115684113Y-128959653D01*
X115755000Y-128974008D01*
X115755000Y-129152603D01*
X115692856Y-129164296D01*
X115578838Y-129237665D01*
X115502347Y-129349613D01*
X115475437Y-129482500D01*
X115475437Y-130232500D01*
X115498796Y-130356644D01*
X115572165Y-130470662D01*
X115684113Y-130547153D01*
X115755000Y-130561508D01*
X115755000Y-131885973D01*
X115666987Y-131973832D01*
X115570111Y-132207137D01*
X115569890Y-132459755D01*
X115666360Y-132693228D01*
X115844832Y-132872013D01*
X116078137Y-132968889D01*
X116330755Y-132969110D01*
X116564228Y-132872640D01*
X116743013Y-132694168D01*
X116839889Y-132460863D01*
X116840110Y-132208245D01*
X116743640Y-131974772D01*
X116679000Y-131910019D01*
X116679000Y-131585937D01*
X129017328Y-131585937D01*
X129085317Y-131826880D01*
X129604411Y-132011621D01*
X130154688Y-131983650D01*
X130533163Y-131826880D01*
X130601152Y-131585937D01*
X129809240Y-130794025D01*
X129017328Y-131585937D01*
X116679000Y-131585937D01*
X116679000Y-130562397D01*
X116741144Y-130550704D01*
X116757204Y-130540369D01*
X116778673Y-130592199D01*
X116957302Y-130770827D01*
X117190691Y-130867500D01*
X117431250Y-130867500D01*
X117590000Y-130708750D01*
X117590000Y-129984500D01*
X117844000Y-129984500D01*
X117844000Y-130708750D01*
X118002750Y-130867500D01*
X118243309Y-130867500D01*
X118476698Y-130770827D01*
X118655327Y-130592199D01*
X118730965Y-130409591D01*
X128412039Y-130409591D01*
X128440010Y-130959868D01*
X128596780Y-131338343D01*
X128837723Y-131406332D01*
X129629635Y-130614420D01*
X129988845Y-130614420D01*
X130780757Y-131406332D01*
X131021700Y-131338343D01*
X131206441Y-130819249D01*
X131193225Y-130559242D01*
X136005915Y-130559242D01*
X136135208Y-131048577D01*
X136191248Y-131127914D01*
X136419316Y-131180579D01*
X137297895Y-130302000D01*
X136586863Y-129590968D01*
X136328314Y-129620241D01*
X136073725Y-130057677D01*
X136005915Y-130559242D01*
X131193225Y-130559242D01*
X131178470Y-130268972D01*
X131021700Y-129890497D01*
X130780757Y-129822508D01*
X129988845Y-130614420D01*
X129629635Y-130614420D01*
X128837723Y-129822508D01*
X128596780Y-129890497D01*
X128412039Y-130409591D01*
X118730965Y-130409591D01*
X118752000Y-130358810D01*
X118752000Y-130143250D01*
X118593250Y-129984500D01*
X117844000Y-129984500D01*
X117590000Y-129984500D01*
X117570000Y-129984500D01*
X117570000Y-129730500D01*
X117590000Y-129730500D01*
X117590000Y-128397000D01*
X117844000Y-128397000D01*
X117844000Y-129730500D01*
X118593250Y-129730500D01*
X118752000Y-129571750D01*
X118752000Y-129356190D01*
X118655327Y-129122801D01*
X118596276Y-129063750D01*
X118614089Y-129045937D01*
X129017328Y-129045937D01*
X129085317Y-129286880D01*
X129234751Y-129340062D01*
X129085317Y-129401960D01*
X129017328Y-129642903D01*
X129809240Y-130434815D01*
X130601152Y-129642903D01*
X130535817Y-129411363D01*
X136766468Y-129411363D01*
X137477500Y-130122395D01*
X138356079Y-129243816D01*
X138303414Y-129015748D01*
X138224077Y-128959708D01*
X137734742Y-128830415D01*
X137233177Y-128898225D01*
X136795741Y-129152814D01*
X136766468Y-129411363D01*
X130535817Y-129411363D01*
X130533163Y-129401960D01*
X130383729Y-129348778D01*
X130533163Y-129286880D01*
X130601152Y-129045937D01*
X129809240Y-128254025D01*
X129017328Y-129045937D01*
X118614089Y-129045937D01*
X118655327Y-129004699D01*
X118752000Y-128771310D01*
X118752000Y-128555750D01*
X118593250Y-128397000D01*
X117844000Y-128397000D01*
X117590000Y-128397000D01*
X117570000Y-128397000D01*
X117570000Y-128143000D01*
X117590000Y-128143000D01*
X117590000Y-127418750D01*
X117844000Y-127418750D01*
X117844000Y-128143000D01*
X118593250Y-128143000D01*
X118752000Y-127984250D01*
X118752000Y-127869591D01*
X128412039Y-127869591D01*
X128440010Y-128419868D01*
X128596780Y-128798343D01*
X128837723Y-128866332D01*
X129629635Y-128074420D01*
X129988845Y-128074420D01*
X130780757Y-128866332D01*
X131021700Y-128798343D01*
X131206441Y-128279249D01*
X131178470Y-127728972D01*
X131021700Y-127350497D01*
X130938289Y-127326960D01*
X132405757Y-127326960D01*
X132405757Y-128826960D01*
X132429116Y-128951104D01*
X132502485Y-129065122D01*
X132614433Y-129141613D01*
X132747320Y-129168523D01*
X134247320Y-129168523D01*
X134371464Y-129145164D01*
X134485482Y-129071795D01*
X134561973Y-128959847D01*
X134588883Y-128826960D01*
X134588883Y-127633755D01*
X140906390Y-127633755D01*
X141002860Y-127867228D01*
X141079500Y-127944002D01*
X141079500Y-128341952D01*
X141003487Y-128417832D01*
X140906611Y-128651137D01*
X140906390Y-128903755D01*
X141002860Y-129137228D01*
X141181332Y-129316013D01*
X141414637Y-129412889D01*
X141667255Y-129413110D01*
X141900728Y-129316640D01*
X142079513Y-129138168D01*
X142176389Y-128904863D01*
X142176610Y-128652245D01*
X142080140Y-128418772D01*
X142003500Y-128341998D01*
X142003500Y-127944048D01*
X142079513Y-127868168D01*
X142176389Y-127634863D01*
X142176610Y-127382245D01*
X142080140Y-127148772D01*
X141901668Y-126969987D01*
X141668363Y-126873111D01*
X141415745Y-126872890D01*
X141182272Y-126969360D01*
X141003487Y-127147832D01*
X140906611Y-127381137D01*
X140906390Y-127633755D01*
X134588883Y-127633755D01*
X134588883Y-127326960D01*
X134565524Y-127202816D01*
X134492155Y-127088798D01*
X134380207Y-127012307D01*
X134247320Y-126985397D01*
X132747320Y-126985397D01*
X132623176Y-127008756D01*
X132509158Y-127082125D01*
X132432667Y-127194073D01*
X132405757Y-127326960D01*
X130938289Y-127326960D01*
X130780757Y-127282508D01*
X129988845Y-128074420D01*
X129629635Y-128074420D01*
X128837723Y-127282508D01*
X128596780Y-127350497D01*
X128412039Y-127869591D01*
X118752000Y-127869591D01*
X118752000Y-127768690D01*
X118655327Y-127535301D01*
X118476698Y-127356673D01*
X118243309Y-127260000D01*
X118002750Y-127260000D01*
X117844000Y-127418750D01*
X117590000Y-127418750D01*
X117431250Y-127260000D01*
X117190691Y-127260000D01*
X116957302Y-127356673D01*
X116778673Y-127535301D01*
X116757780Y-127585740D01*
X116749887Y-127580347D01*
X116617000Y-127553437D01*
X115817000Y-127553437D01*
X115692856Y-127576796D01*
X115578838Y-127650165D01*
X115502347Y-127762113D01*
X115475437Y-127895000D01*
X91821000Y-127895000D01*
X91821000Y-127102903D01*
X129017328Y-127102903D01*
X129809240Y-127894815D01*
X130601152Y-127102903D01*
X130533163Y-126861960D01*
X130014069Y-126677219D01*
X129463792Y-126705190D01*
X129085317Y-126861960D01*
X129017328Y-127102903D01*
X91821000Y-127102903D01*
X91821000Y-124784420D01*
X128717677Y-124784420D01*
X128717677Y-126284420D01*
X128741036Y-126408564D01*
X128814405Y-126522582D01*
X128926353Y-126599073D01*
X129059240Y-126625983D01*
X130559240Y-126625983D01*
X130683384Y-126602624D01*
X130797402Y-126529255D01*
X130873893Y-126417307D01*
X130900803Y-126284420D01*
X130900803Y-125751833D01*
X132412132Y-125751833D01*
X132576966Y-126150760D01*
X132881915Y-126456242D01*
X133280553Y-126621771D01*
X133712193Y-126622148D01*
X134111120Y-126457314D01*
X134416602Y-126152365D01*
X134582131Y-125753727D01*
X134582508Y-125322087D01*
X134417674Y-124923160D01*
X134112725Y-124617678D01*
X133714087Y-124452149D01*
X133282447Y-124451772D01*
X132883520Y-124616606D01*
X132578038Y-124921555D01*
X132412509Y-125320193D01*
X132412132Y-125751833D01*
X130900803Y-125751833D01*
X130900803Y-124784420D01*
X130877444Y-124660276D01*
X130804075Y-124546258D01*
X130692127Y-124469767D01*
X130559240Y-124442857D01*
X129059240Y-124442857D01*
X128935096Y-124466216D01*
X128821078Y-124539585D01*
X128744587Y-124651533D01*
X128717677Y-124784420D01*
X91821000Y-124784420D01*
X91821000Y-124587000D01*
X91812315Y-124540841D01*
X91785035Y-124498447D01*
X91743410Y-124470006D01*
X91694000Y-124460000D01*
X85026500Y-124460000D01*
X84980341Y-124468685D01*
X84937947Y-124495965D01*
X84909506Y-124537590D01*
X84899500Y-124587000D01*
X62327000Y-124587000D01*
X62327000Y-121960018D01*
X105100400Y-121960018D01*
X105100400Y-122006982D01*
X105191638Y-122465666D01*
X105451462Y-122854520D01*
X105840316Y-123114344D01*
X106299000Y-123205582D01*
X106757684Y-123114344D01*
X107146538Y-122854520D01*
X107406362Y-122465666D01*
X107497600Y-122006982D01*
X107497600Y-121960018D01*
X107640400Y-121960018D01*
X107640400Y-122006982D01*
X107731638Y-122465666D01*
X107991462Y-122854520D01*
X108380316Y-123114344D01*
X108839000Y-123205582D01*
X109297684Y-123114344D01*
X109686538Y-122854520D01*
X109946362Y-122465666D01*
X110037600Y-122006982D01*
X110037600Y-121960018D01*
X110180400Y-121960018D01*
X110180400Y-122006982D01*
X110271638Y-122465666D01*
X110531462Y-122854520D01*
X110920316Y-123114344D01*
X111379000Y-123205582D01*
X111837684Y-123114344D01*
X112226538Y-122854520D01*
X112486362Y-122465666D01*
X112577600Y-122006982D01*
X112577600Y-121960018D01*
X112486362Y-121501334D01*
X112226538Y-121112480D01*
X111837684Y-120852656D01*
X111379000Y-120761418D01*
X110920316Y-120852656D01*
X110531462Y-121112480D01*
X110271638Y-121501334D01*
X110180400Y-121960018D01*
X110037600Y-121960018D01*
X109946362Y-121501334D01*
X109686538Y-121112480D01*
X109297684Y-120852656D01*
X108839000Y-120761418D01*
X108380316Y-120852656D01*
X107991462Y-121112480D01*
X107731638Y-121501334D01*
X107640400Y-121960018D01*
X107497600Y-121960018D01*
X107406362Y-121501334D01*
X107146538Y-121112480D01*
X106757684Y-120852656D01*
X106299000Y-120761418D01*
X105840316Y-120852656D01*
X105451462Y-121112480D01*
X105191638Y-121501334D01*
X105100400Y-121960018D01*
X62327000Y-121960018D01*
X62327000Y-121093255D01*
X70738890Y-121093255D01*
X70835360Y-121326728D01*
X71013832Y-121505513D01*
X71247137Y-121602389D01*
X71499755Y-121602610D01*
X71733228Y-121506140D01*
X71912013Y-121327668D01*
X72008889Y-121094363D01*
X72009110Y-120841745D01*
X71963583Y-120731563D01*
X72103500Y-120731563D01*
X72227644Y-120708204D01*
X72243704Y-120697869D01*
X72265173Y-120749699D01*
X72443802Y-120928327D01*
X72677191Y-121025000D01*
X72917750Y-121025000D01*
X73076500Y-120866250D01*
X73076500Y-120142000D01*
X73330500Y-120142000D01*
X73330500Y-120866250D01*
X73489250Y-121025000D01*
X73729809Y-121025000D01*
X73963198Y-120928327D01*
X74141827Y-120749699D01*
X74238500Y-120516310D01*
X74238500Y-120300750D01*
X74079750Y-120142000D01*
X73330500Y-120142000D01*
X73076500Y-120142000D01*
X73056500Y-120142000D01*
X73056500Y-119888000D01*
X73076500Y-119888000D01*
X73076500Y-119163750D01*
X73330500Y-119163750D01*
X73330500Y-119888000D01*
X74079750Y-119888000D01*
X74238500Y-119729250D01*
X74238500Y-119513690D01*
X74141827Y-119280301D01*
X73963198Y-119101673D01*
X73729809Y-119005000D01*
X73489250Y-119005000D01*
X73330500Y-119163750D01*
X73076500Y-119163750D01*
X72917750Y-119005000D01*
X72677191Y-119005000D01*
X72443802Y-119101673D01*
X72265173Y-119280301D01*
X72244280Y-119330740D01*
X72236387Y-119325347D01*
X72103500Y-119298437D01*
X71303500Y-119298437D01*
X71179356Y-119321796D01*
X71065338Y-119395165D01*
X70988847Y-119507113D01*
X70961937Y-119640000D01*
X70961937Y-120145597D01*
X70947168Y-120167700D01*
X70912000Y-120344500D01*
X70912000Y-120531452D01*
X70835987Y-120607332D01*
X70739111Y-120840637D01*
X70738890Y-121093255D01*
X62327000Y-121093255D01*
X62327000Y-118785018D01*
X82811900Y-118785018D01*
X82811900Y-118831982D01*
X82903138Y-119290666D01*
X83162962Y-119679520D01*
X83551816Y-119939344D01*
X84010500Y-120030582D01*
X84469184Y-119939344D01*
X84858038Y-119679520D01*
X85117862Y-119290666D01*
X85209100Y-118831982D01*
X85209100Y-118785018D01*
X85351900Y-118785018D01*
X85351900Y-118831982D01*
X85443138Y-119290666D01*
X85702962Y-119679520D01*
X86091816Y-119939344D01*
X86550500Y-120030582D01*
X87009184Y-119939344D01*
X87398038Y-119679520D01*
X87657862Y-119290666D01*
X87749100Y-118831982D01*
X87749100Y-118785018D01*
X87891900Y-118785018D01*
X87891900Y-118831982D01*
X87983138Y-119290666D01*
X88242962Y-119679520D01*
X88631816Y-119939344D01*
X89090500Y-120030582D01*
X89549184Y-119939344D01*
X89938038Y-119679520D01*
X90197862Y-119290666D01*
X90289100Y-118831982D01*
X90289100Y-118785018D01*
X90431900Y-118785018D01*
X90431900Y-118831982D01*
X90523138Y-119290666D01*
X90782962Y-119679520D01*
X91171816Y-119939344D01*
X91630500Y-120030582D01*
X92089184Y-119939344D01*
X92478038Y-119679520D01*
X92737862Y-119290666D01*
X92748404Y-119237666D01*
X92963679Y-119696990D01*
X93395553Y-120091188D01*
X93811474Y-120263458D01*
X94043500Y-120142317D01*
X94043500Y-118935500D01*
X94297500Y-118935500D01*
X94297500Y-120142317D01*
X94529526Y-120263458D01*
X94945447Y-120091188D01*
X95377321Y-119696990D01*
X95507131Y-119420018D01*
X105100400Y-119420018D01*
X105100400Y-119466982D01*
X105191638Y-119925666D01*
X105451462Y-120314520D01*
X105840316Y-120574344D01*
X106299000Y-120665582D01*
X106757684Y-120574344D01*
X107146538Y-120314520D01*
X107406362Y-119925666D01*
X107497600Y-119466982D01*
X107497600Y-119420018D01*
X107640400Y-119420018D01*
X107640400Y-119466982D01*
X107731638Y-119925666D01*
X107991462Y-120314520D01*
X108380316Y-120574344D01*
X108839000Y-120665582D01*
X109297684Y-120574344D01*
X109686538Y-120314520D01*
X109946362Y-119925666D01*
X110037600Y-119466982D01*
X110037600Y-119420018D01*
X110180400Y-119420018D01*
X110180400Y-119466982D01*
X110271638Y-119925666D01*
X110531462Y-120314520D01*
X110920316Y-120574344D01*
X111379000Y-120665582D01*
X111837684Y-120574344D01*
X112226538Y-120314520D01*
X112486362Y-119925666D01*
X112577600Y-119466982D01*
X112577600Y-119420018D01*
X112720400Y-119420018D01*
X112720400Y-119466982D01*
X112811638Y-119925666D01*
X113071462Y-120314520D01*
X113460316Y-120574344D01*
X113919000Y-120665582D01*
X114377684Y-120574344D01*
X114766538Y-120314520D01*
X115026362Y-119925666D01*
X115117600Y-119466982D01*
X115117600Y-119420018D01*
X115026362Y-118961334D01*
X114766538Y-118572480D01*
X114377684Y-118312656D01*
X113919000Y-118221418D01*
X113460316Y-118312656D01*
X113071462Y-118572480D01*
X112811638Y-118961334D01*
X112720400Y-119420018D01*
X112577600Y-119420018D01*
X112486362Y-118961334D01*
X112226538Y-118572480D01*
X111837684Y-118312656D01*
X111379000Y-118221418D01*
X110920316Y-118312656D01*
X110531462Y-118572480D01*
X110271638Y-118961334D01*
X110180400Y-119420018D01*
X110037600Y-119420018D01*
X109946362Y-118961334D01*
X109686538Y-118572480D01*
X109297684Y-118312656D01*
X108839000Y-118221418D01*
X108380316Y-118312656D01*
X107991462Y-118572480D01*
X107731638Y-118961334D01*
X107640400Y-119420018D01*
X107497600Y-119420018D01*
X107406362Y-118961334D01*
X107146538Y-118572480D01*
X106757684Y-118312656D01*
X106299000Y-118221418D01*
X105840316Y-118312656D01*
X105451462Y-118572480D01*
X105191638Y-118961334D01*
X105100400Y-119420018D01*
X95507131Y-119420018D01*
X95625468Y-119167527D01*
X95504969Y-118935500D01*
X94297500Y-118935500D01*
X94043500Y-118935500D01*
X94023500Y-118935500D01*
X94023500Y-118681500D01*
X94043500Y-118681500D01*
X94043500Y-118661500D01*
X94297500Y-118661500D01*
X94297500Y-118681500D01*
X95504969Y-118681500D01*
X95625468Y-118449473D01*
X95377321Y-117920010D01*
X95236261Y-117791255D01*
X107187890Y-117791255D01*
X107284360Y-118024728D01*
X107462832Y-118203513D01*
X107696137Y-118300389D01*
X107948755Y-118300610D01*
X108182228Y-118204140D01*
X108259002Y-118127500D01*
X114743634Y-118127500D01*
X115253837Y-118637703D01*
X115253837Y-120307100D01*
X115277196Y-120431244D01*
X115350565Y-120545262D01*
X115462513Y-120621753D01*
X115595400Y-120648663D01*
X115809959Y-120648663D01*
X115684053Y-120700812D01*
X115252179Y-121095010D01*
X115036904Y-121554334D01*
X115026362Y-121501334D01*
X114766538Y-121112480D01*
X114377684Y-120852656D01*
X113919000Y-120761418D01*
X113460316Y-120852656D01*
X113071462Y-121112480D01*
X112811638Y-121501334D01*
X112720400Y-121960018D01*
X112720400Y-122006982D01*
X112811638Y-122465666D01*
X113071462Y-122854520D01*
X113460316Y-123114344D01*
X113919000Y-123205582D01*
X114377684Y-123114344D01*
X114766538Y-122854520D01*
X115026362Y-122465666D01*
X115036904Y-122412666D01*
X115252179Y-122871990D01*
X115684053Y-123266188D01*
X116099974Y-123438458D01*
X116332000Y-123317317D01*
X116332000Y-122110500D01*
X116586000Y-122110500D01*
X116586000Y-123317317D01*
X116818026Y-123438458D01*
X117233947Y-123266188D01*
X117665821Y-122871990D01*
X117913968Y-122342527D01*
X117793469Y-122110500D01*
X116586000Y-122110500D01*
X116332000Y-122110500D01*
X116312000Y-122110500D01*
X116312000Y-121856500D01*
X116332000Y-121856500D01*
X116332000Y-121836500D01*
X116586000Y-121836500D01*
X116586000Y-121856500D01*
X117793469Y-121856500D01*
X117913968Y-121624473D01*
X117665821Y-121095010D01*
X117473811Y-120919750D01*
X138709500Y-120919750D01*
X138709500Y-121360309D01*
X138806173Y-121593698D01*
X138984801Y-121772327D01*
X139218190Y-121869000D01*
X139858750Y-121869000D01*
X140017500Y-121710250D01*
X140017500Y-120761000D01*
X140271500Y-120761000D01*
X140271500Y-121710250D01*
X140430250Y-121869000D01*
X141070810Y-121869000D01*
X141304199Y-121772327D01*
X141482827Y-121593698D01*
X141579500Y-121360309D01*
X141579500Y-120919750D01*
X141420750Y-120761000D01*
X140271500Y-120761000D01*
X140017500Y-120761000D01*
X138868250Y-120761000D01*
X138709500Y-120919750D01*
X117473811Y-120919750D01*
X117233947Y-120700812D01*
X117108041Y-120648663D01*
X117322600Y-120648663D01*
X117446744Y-120625304D01*
X117560762Y-120551935D01*
X117637253Y-120439987D01*
X117664163Y-120307100D01*
X117664163Y-119907691D01*
X138709500Y-119907691D01*
X138709500Y-120348250D01*
X138868250Y-120507000D01*
X140017500Y-120507000D01*
X140017500Y-120487000D01*
X140271500Y-120487000D01*
X140271500Y-120507000D01*
X141420750Y-120507000D01*
X141579500Y-120348250D01*
X141579500Y-119907691D01*
X141482827Y-119674302D01*
X141304199Y-119495673D01*
X141200505Y-119452721D01*
X141259153Y-119366887D01*
X141286063Y-119234000D01*
X141286063Y-118034000D01*
X141262704Y-117909856D01*
X141189335Y-117795838D01*
X141077387Y-117719347D01*
X140944500Y-117692437D01*
X139344500Y-117692437D01*
X139220356Y-117715796D01*
X139106338Y-117789165D01*
X139029847Y-117901113D01*
X139002937Y-118034000D01*
X139002937Y-119234000D01*
X139026296Y-119358144D01*
X139087437Y-119453160D01*
X138984801Y-119495673D01*
X138806173Y-119674302D01*
X138709500Y-119907691D01*
X117664163Y-119907691D01*
X117664163Y-118579900D01*
X117640804Y-118455756D01*
X117567435Y-118341738D01*
X117455487Y-118265247D01*
X117322600Y-118238337D01*
X116161204Y-118238337D01*
X115261683Y-117338817D01*
X115211569Y-117305332D01*
X115111800Y-117238668D01*
X114935000Y-117203500D01*
X108259048Y-117203500D01*
X108183168Y-117127487D01*
X107949863Y-117030611D01*
X107697245Y-117030390D01*
X107463772Y-117126860D01*
X107284987Y-117305332D01*
X107188111Y-117538637D01*
X107187890Y-117791255D01*
X95236261Y-117791255D01*
X94945447Y-117525812D01*
X94819541Y-117473663D01*
X95034100Y-117473663D01*
X95158244Y-117450304D01*
X95272262Y-117376935D01*
X95348753Y-117264987D01*
X95375663Y-117132100D01*
X95375663Y-115404900D01*
X95352304Y-115280756D01*
X95278935Y-115166738D01*
X95231992Y-115134663D01*
X106278943Y-115134663D01*
X106377542Y-115401465D01*
X106987082Y-115627901D01*
X107636877Y-115603841D01*
X108125458Y-115401465D01*
X108224057Y-115134663D01*
X107251500Y-114162105D01*
X106278943Y-115134663D01*
X95231992Y-115134663D01*
X95166987Y-115090247D01*
X95034100Y-115063337D01*
X93306900Y-115063337D01*
X93182756Y-115086696D01*
X93068738Y-115160065D01*
X92992247Y-115272013D01*
X92965337Y-115404900D01*
X92965337Y-117132100D01*
X92988696Y-117256244D01*
X93062065Y-117370262D01*
X93174013Y-117446753D01*
X93306900Y-117473663D01*
X93521459Y-117473663D01*
X93395553Y-117525812D01*
X92963679Y-117920010D01*
X92748404Y-118379334D01*
X92737862Y-118326334D01*
X92478038Y-117937480D01*
X92089184Y-117677656D01*
X91630500Y-117586418D01*
X91171816Y-117677656D01*
X90782962Y-117937480D01*
X90523138Y-118326334D01*
X90431900Y-118785018D01*
X90289100Y-118785018D01*
X90197862Y-118326334D01*
X89938038Y-117937480D01*
X89549184Y-117677656D01*
X89090500Y-117586418D01*
X88631816Y-117677656D01*
X88242962Y-117937480D01*
X87983138Y-118326334D01*
X87891900Y-118785018D01*
X87749100Y-118785018D01*
X87657862Y-118326334D01*
X87398038Y-117937480D01*
X87009184Y-117677656D01*
X86550500Y-117586418D01*
X86091816Y-117677656D01*
X85702962Y-117937480D01*
X85443138Y-118326334D01*
X85351900Y-118785018D01*
X85209100Y-118785018D01*
X85117862Y-118326334D01*
X84858038Y-117937480D01*
X84469184Y-117677656D01*
X84010500Y-117586418D01*
X83551816Y-117677656D01*
X83162962Y-117937480D01*
X82903138Y-118326334D01*
X82811900Y-118785018D01*
X62327000Y-118785018D01*
X62327000Y-116245018D01*
X82811900Y-116245018D01*
X82811900Y-116291982D01*
X82903138Y-116750666D01*
X83162962Y-117139520D01*
X83551816Y-117399344D01*
X84010500Y-117490582D01*
X84469184Y-117399344D01*
X84858038Y-117139520D01*
X85117862Y-116750666D01*
X85209100Y-116291982D01*
X85209100Y-116245018D01*
X85351900Y-116245018D01*
X85351900Y-116291982D01*
X85443138Y-116750666D01*
X85702962Y-117139520D01*
X86091816Y-117399344D01*
X86550500Y-117490582D01*
X87009184Y-117399344D01*
X87398038Y-117139520D01*
X87657862Y-116750666D01*
X87749100Y-116291982D01*
X87749100Y-116245018D01*
X87891900Y-116245018D01*
X87891900Y-116291982D01*
X87983138Y-116750666D01*
X88242962Y-117139520D01*
X88631816Y-117399344D01*
X89090500Y-117490582D01*
X89549184Y-117399344D01*
X89938038Y-117139520D01*
X90197862Y-116750666D01*
X90289100Y-116291982D01*
X90289100Y-116245018D01*
X90431900Y-116245018D01*
X90431900Y-116291982D01*
X90523138Y-116750666D01*
X90782962Y-117139520D01*
X91171816Y-117399344D01*
X91630500Y-117490582D01*
X92089184Y-117399344D01*
X92478038Y-117139520D01*
X92737862Y-116750666D01*
X92829100Y-116291982D01*
X92829100Y-116245018D01*
X92737862Y-115786334D01*
X92478038Y-115397480D01*
X92089184Y-115137656D01*
X91630500Y-115046418D01*
X91171816Y-115137656D01*
X90782962Y-115397480D01*
X90523138Y-115786334D01*
X90431900Y-116245018D01*
X90289100Y-116245018D01*
X90197862Y-115786334D01*
X89938038Y-115397480D01*
X89549184Y-115137656D01*
X89090500Y-115046418D01*
X88631816Y-115137656D01*
X88242962Y-115397480D01*
X87983138Y-115786334D01*
X87891900Y-116245018D01*
X87749100Y-116245018D01*
X87657862Y-115786334D01*
X87398038Y-115397480D01*
X87009184Y-115137656D01*
X86550500Y-115046418D01*
X86091816Y-115137656D01*
X85702962Y-115397480D01*
X85443138Y-115786334D01*
X85351900Y-116245018D01*
X85209100Y-116245018D01*
X85117862Y-115786334D01*
X84858038Y-115397480D01*
X84469184Y-115137656D01*
X84010500Y-115046418D01*
X83551816Y-115137656D01*
X83162962Y-115397480D01*
X82903138Y-115786334D01*
X82811900Y-116245018D01*
X62327000Y-116245018D01*
X62327000Y-113718082D01*
X105606099Y-113718082D01*
X105630159Y-114367877D01*
X105832535Y-114856458D01*
X106099337Y-114955057D01*
X107071895Y-113982500D01*
X107431105Y-113982500D01*
X108403663Y-114955057D01*
X108670465Y-114856458D01*
X108896901Y-114246918D01*
X108872841Y-113597123D01*
X108670465Y-113108542D01*
X108403663Y-113009943D01*
X107431105Y-113982500D01*
X107071895Y-113982500D01*
X106099337Y-113009943D01*
X105832535Y-113108542D01*
X105606099Y-113718082D01*
X62327000Y-113718082D01*
X62327000Y-112830337D01*
X106278943Y-112830337D01*
X107251500Y-113802895D01*
X108071384Y-112983010D01*
X109720447Y-112983010D01*
X109720447Y-114981990D01*
X109743806Y-115106134D01*
X109817175Y-115220152D01*
X109929123Y-115296643D01*
X110062010Y-115323553D01*
X112060990Y-115323553D01*
X112185134Y-115300194D01*
X112299152Y-115226825D01*
X112356256Y-115143250D01*
X118549000Y-115143250D01*
X118549000Y-115235809D01*
X118645673Y-115469198D01*
X118824301Y-115647827D01*
X119057690Y-115744500D01*
X119348250Y-115744500D01*
X119507000Y-115585750D01*
X119507000Y-114984500D01*
X118707750Y-114984500D01*
X118549000Y-115143250D01*
X112356256Y-115143250D01*
X112375643Y-115114877D01*
X112402553Y-114981990D01*
X112402553Y-114483191D01*
X118549000Y-114483191D01*
X118549000Y-114575750D01*
X118707750Y-114734500D01*
X119507000Y-114734500D01*
X119507000Y-114133250D01*
X119348250Y-113974500D01*
X119057690Y-113974500D01*
X118824301Y-114071173D01*
X118645673Y-114249802D01*
X118549000Y-114483191D01*
X112402553Y-114483191D01*
X112402553Y-113109500D01*
X118842437Y-113109500D01*
X118842437Y-113609500D01*
X118865796Y-113733644D01*
X118939165Y-113847662D01*
X119051113Y-113924153D01*
X119184000Y-113951063D01*
X120084000Y-113951063D01*
X120208144Y-113927704D01*
X120322162Y-113854335D01*
X120388447Y-113757324D01*
X120388447Y-114048287D01*
X120210310Y-113974500D01*
X119919750Y-113974500D01*
X119761000Y-114133250D01*
X119761000Y-114734500D01*
X119781000Y-114734500D01*
X119781000Y-114984500D01*
X119761000Y-114984500D01*
X119761000Y-115585750D01*
X119919750Y-115744500D01*
X120210310Y-115744500D01*
X120443699Y-115647827D01*
X120622327Y-115469198D01*
X120710587Y-115256120D01*
X120730010Y-115260053D01*
X122728990Y-115260053D01*
X122853134Y-115236694D01*
X122967152Y-115163325D01*
X123043643Y-115051377D01*
X123070553Y-114918490D01*
X123070553Y-114183282D01*
X124204779Y-114183282D01*
X124407515Y-114673940D01*
X124782585Y-115049666D01*
X125272889Y-115253258D01*
X125803782Y-115253721D01*
X126294440Y-115050985D01*
X126670166Y-114675915D01*
X126873758Y-114185611D01*
X126874221Y-113654718D01*
X126671485Y-113164060D01*
X126296415Y-112788334D01*
X125806111Y-112584742D01*
X125275218Y-112584279D01*
X124784560Y-112787015D01*
X124408834Y-113162085D01*
X124205242Y-113652389D01*
X124204779Y-114183282D01*
X123070553Y-114183282D01*
X123070553Y-112919510D01*
X123047194Y-112795366D01*
X122973825Y-112681348D01*
X122861877Y-112604857D01*
X122728990Y-112577947D01*
X120730010Y-112577947D01*
X120605866Y-112601306D01*
X120491848Y-112674675D01*
X120415357Y-112786623D01*
X120388447Y-112919510D01*
X120388447Y-112963977D01*
X120328835Y-112871338D01*
X120230716Y-112804296D01*
X120268889Y-112712363D01*
X120269110Y-112459745D01*
X120172640Y-112226272D01*
X119994168Y-112047487D01*
X119760863Y-111950611D01*
X119508245Y-111950390D01*
X119274772Y-112046860D01*
X119095987Y-112225332D01*
X118999111Y-112458637D01*
X118998890Y-112711255D01*
X119037821Y-112805475D01*
X118945838Y-112864665D01*
X118869347Y-112976613D01*
X118842437Y-113109500D01*
X112402553Y-113109500D01*
X112402553Y-112983010D01*
X112379194Y-112858866D01*
X112305825Y-112744848D01*
X112193877Y-112668357D01*
X112060990Y-112641447D01*
X110062010Y-112641447D01*
X109937866Y-112664806D01*
X109823848Y-112738175D01*
X109747357Y-112850123D01*
X109720447Y-112983010D01*
X108071384Y-112983010D01*
X108224057Y-112830337D01*
X108125458Y-112563535D01*
X107515918Y-112337099D01*
X106866123Y-112361159D01*
X106377542Y-112563535D01*
X106278943Y-112830337D01*
X62327000Y-112830337D01*
X62327000Y-107696000D01*
X82678337Y-107696000D01*
X82678337Y-109728000D01*
X82701696Y-109852144D01*
X82775065Y-109966162D01*
X82887013Y-110042653D01*
X83019900Y-110069563D01*
X84747100Y-110069563D01*
X84871244Y-110046204D01*
X84985262Y-109972835D01*
X85061753Y-109860887D01*
X85088663Y-109728000D01*
X85088663Y-108533132D01*
X85224900Y-108533132D01*
X85224900Y-108890868D01*
X85316138Y-109349552D01*
X85575962Y-109738406D01*
X85964816Y-109998230D01*
X86423500Y-110089468D01*
X86882184Y-109998230D01*
X87271038Y-109738406D01*
X87530862Y-109349552D01*
X87622100Y-108890868D01*
X87622100Y-108533132D01*
X87764900Y-108533132D01*
X87764900Y-108890868D01*
X87856138Y-109349552D01*
X88115962Y-109738406D01*
X88504816Y-109998230D01*
X88963500Y-110089468D01*
X89422184Y-109998230D01*
X89811038Y-109738406D01*
X90070862Y-109349552D01*
X90162100Y-108890868D01*
X90162100Y-108533132D01*
X90304900Y-108533132D01*
X90304900Y-108890868D01*
X90396138Y-109349552D01*
X90655962Y-109738406D01*
X91044816Y-109998230D01*
X91503500Y-110089468D01*
X91962184Y-109998230D01*
X92351038Y-109738406D01*
X92610862Y-109349552D01*
X92702100Y-108890868D01*
X92702100Y-108533132D01*
X92844900Y-108533132D01*
X92844900Y-108890868D01*
X92936138Y-109349552D01*
X93195962Y-109738406D01*
X93584816Y-109998230D01*
X94043500Y-110089468D01*
X94502184Y-109998230D01*
X94891038Y-109738406D01*
X95150862Y-109349552D01*
X95242100Y-108890868D01*
X95242100Y-108533132D01*
X95384900Y-108533132D01*
X95384900Y-108890868D01*
X95476138Y-109349552D01*
X95735962Y-109738406D01*
X96124816Y-109998230D01*
X96583500Y-110089468D01*
X97042184Y-109998230D01*
X97431038Y-109738406D01*
X97690862Y-109349552D01*
X97782100Y-108890868D01*
X97782100Y-108533132D01*
X97924900Y-108533132D01*
X97924900Y-108890868D01*
X98016138Y-109349552D01*
X98275962Y-109738406D01*
X98664816Y-109998230D01*
X99123500Y-110089468D01*
X99582184Y-109998230D01*
X99971038Y-109738406D01*
X100230862Y-109349552D01*
X100322100Y-108890868D01*
X100322100Y-108533132D01*
X100464900Y-108533132D01*
X100464900Y-108890868D01*
X100556138Y-109349552D01*
X100815962Y-109738406D01*
X101204816Y-109998230D01*
X101663500Y-110089468D01*
X102122184Y-109998230D01*
X102511038Y-109738406D01*
X102770862Y-109349552D01*
X102786766Y-109269598D01*
X102911546Y-109626320D01*
X103301464Y-110062732D01*
X103828709Y-110316709D01*
X103844474Y-110319358D01*
X104076500Y-110198217D01*
X104076500Y-108839000D01*
X104056500Y-108839000D01*
X104056500Y-108585000D01*
X104076500Y-108585000D01*
X104076500Y-108565000D01*
X104330500Y-108565000D01*
X104330500Y-108585000D01*
X104350500Y-108585000D01*
X104350500Y-108839000D01*
X104330500Y-108839000D01*
X104330500Y-110198217D01*
X104562526Y-110319358D01*
X104578291Y-110316709D01*
X105105536Y-110062732D01*
X105495454Y-109626320D01*
X105620234Y-109269598D01*
X105636138Y-109349552D01*
X105895962Y-109738406D01*
X106284816Y-109998230D01*
X106743500Y-110089468D01*
X107202184Y-109998230D01*
X107312528Y-109924500D01*
X112363937Y-109924500D01*
X112363937Y-110674500D01*
X112387296Y-110798644D01*
X112460665Y-110912662D01*
X112572613Y-110989153D01*
X112643500Y-111003508D01*
X112643500Y-111057973D01*
X112555487Y-111145832D01*
X112458611Y-111379137D01*
X112458390Y-111631755D01*
X112554860Y-111865228D01*
X112733332Y-112044013D01*
X112966637Y-112140889D01*
X113219255Y-112141110D01*
X113452728Y-112044640D01*
X113631513Y-111866168D01*
X113728389Y-111632863D01*
X113728610Y-111380245D01*
X113632140Y-111146772D01*
X113567500Y-111082019D01*
X113567500Y-111004397D01*
X113629644Y-110992704D01*
X113645704Y-110982369D01*
X113667173Y-111034199D01*
X113845802Y-111212827D01*
X114079191Y-111309500D01*
X114319750Y-111309500D01*
X114478500Y-111150750D01*
X114478500Y-110426500D01*
X114732500Y-110426500D01*
X114732500Y-111150750D01*
X114891250Y-111309500D01*
X115131809Y-111309500D01*
X115365198Y-111212827D01*
X115543827Y-111034199D01*
X115640500Y-110800810D01*
X115640500Y-110585250D01*
X115481750Y-110426500D01*
X114732500Y-110426500D01*
X114478500Y-110426500D01*
X114458500Y-110426500D01*
X114458500Y-110172500D01*
X114478500Y-110172500D01*
X114478500Y-109448250D01*
X114732500Y-109448250D01*
X114732500Y-110172500D01*
X115481750Y-110172500D01*
X115640500Y-110013750D01*
X115640500Y-109798190D01*
X115543827Y-109564801D01*
X115365198Y-109386173D01*
X115131809Y-109289500D01*
X114891250Y-109289500D01*
X114732500Y-109448250D01*
X114478500Y-109448250D01*
X114319750Y-109289500D01*
X114079191Y-109289500D01*
X113845802Y-109386173D01*
X113667173Y-109564801D01*
X113646280Y-109615240D01*
X113638387Y-109609847D01*
X113505500Y-109582937D01*
X112705500Y-109582937D01*
X112581356Y-109606296D01*
X112467338Y-109679665D01*
X112390847Y-109791613D01*
X112363937Y-109924500D01*
X107312528Y-109924500D01*
X107591038Y-109738406D01*
X107850862Y-109349552D01*
X107942100Y-108890868D01*
X107942100Y-108533132D01*
X107850862Y-108074448D01*
X107591038Y-107685594D01*
X107205500Y-107427986D01*
X107205500Y-107102564D01*
X108034645Y-107102564D01*
X108214614Y-107538122D01*
X108547565Y-107871655D01*
X108982809Y-108052384D01*
X109454084Y-108052795D01*
X109889642Y-107872826D01*
X110223175Y-107539875D01*
X110403904Y-107104631D01*
X110404315Y-106633356D01*
X110224346Y-106197798D01*
X110045192Y-106018330D01*
X118188287Y-106018330D01*
X118188287Y-107717590D01*
X118211646Y-107841734D01*
X118285015Y-107955752D01*
X118396963Y-108032243D01*
X118529850Y-108059153D01*
X120229110Y-108059153D01*
X120353254Y-108035794D01*
X120467272Y-107962425D01*
X120543763Y-107850477D01*
X120570673Y-107717590D01*
X120570673Y-106553000D01*
X129896937Y-106553000D01*
X129896937Y-108585000D01*
X129920296Y-108709144D01*
X129993665Y-108823162D01*
X130105613Y-108899653D01*
X130238500Y-108926563D01*
X132270500Y-108926563D01*
X132394644Y-108903204D01*
X132508662Y-108829835D01*
X132585153Y-108717887D01*
X132595718Y-108665716D01*
X132929682Y-108975385D01*
X133411556Y-109174975D01*
X133667500Y-109055836D01*
X133667500Y-107696000D01*
X133921500Y-107696000D01*
X133921500Y-109055836D01*
X134177444Y-109174975D01*
X134659318Y-108975385D01*
X135131688Y-108537379D01*
X135400483Y-107951946D01*
X135281867Y-107696000D01*
X133921500Y-107696000D01*
X133667500Y-107696000D01*
X133647500Y-107696000D01*
X133647500Y-107442000D01*
X133667500Y-107442000D01*
X133667500Y-106082164D01*
X133921500Y-106082164D01*
X133921500Y-107442000D01*
X135281867Y-107442000D01*
X135400483Y-107186054D01*
X135131688Y-106600621D01*
X134659318Y-106162615D01*
X134177444Y-105963025D01*
X133921500Y-106082164D01*
X133667500Y-106082164D01*
X133411556Y-105963025D01*
X132929682Y-106162615D01*
X132596703Y-106471370D01*
X132588704Y-106428856D01*
X132515335Y-106314838D01*
X132403387Y-106238347D01*
X132270500Y-106211437D01*
X130238500Y-106211437D01*
X130114356Y-106234796D01*
X130000338Y-106308165D01*
X129923847Y-106420113D01*
X129896937Y-106553000D01*
X120570673Y-106553000D01*
X120570673Y-106018330D01*
X120547314Y-105894186D01*
X120473945Y-105780168D01*
X120361997Y-105703677D01*
X120229110Y-105676767D01*
X118529850Y-105676767D01*
X118405706Y-105700126D01*
X118291688Y-105773495D01*
X118215197Y-105885443D01*
X118188287Y-106018330D01*
X110045192Y-106018330D01*
X109891395Y-105864265D01*
X109456151Y-105683536D01*
X108984876Y-105683125D01*
X108549318Y-105863094D01*
X108215785Y-106196045D01*
X108035056Y-106631289D01*
X108034645Y-107102564D01*
X107205500Y-107102564D01*
X107205500Y-106697864D01*
X107315137Y-106743389D01*
X107567755Y-106743610D01*
X107801228Y-106647140D01*
X107980013Y-106468668D01*
X108076889Y-106235363D01*
X108077110Y-105982745D01*
X107980640Y-105749272D01*
X107802168Y-105570487D01*
X107568863Y-105473611D01*
X107316245Y-105473390D01*
X107082772Y-105569860D01*
X107011213Y-105641293D01*
X107005204Y-105609356D01*
X106931835Y-105495338D01*
X106819887Y-105418847D01*
X106687000Y-105391937D01*
X105887000Y-105391937D01*
X105762856Y-105415296D01*
X105746796Y-105425631D01*
X105725327Y-105373801D01*
X105546698Y-105195173D01*
X105313309Y-105098500D01*
X105072750Y-105098500D01*
X104914000Y-105257250D01*
X104914000Y-105981500D01*
X104934000Y-105981500D01*
X104934000Y-106235500D01*
X104914000Y-106235500D01*
X104914000Y-106959750D01*
X105072750Y-107118500D01*
X105313309Y-107118500D01*
X105546698Y-107021827D01*
X105725327Y-106843199D01*
X105746220Y-106792760D01*
X105754113Y-106798153D01*
X105887000Y-106825063D01*
X106281500Y-106825063D01*
X106281500Y-107427986D01*
X105895962Y-107685594D01*
X105636138Y-108074448D01*
X105620234Y-108154402D01*
X105495454Y-107797680D01*
X105105536Y-107361268D01*
X104578291Y-107107291D01*
X104562526Y-107104642D01*
X104330502Y-107225782D01*
X104330502Y-107118500D01*
X104501250Y-107118500D01*
X104660000Y-106959750D01*
X104660000Y-106235500D01*
X103910750Y-106235500D01*
X103752000Y-106394250D01*
X103752000Y-106609810D01*
X103848673Y-106843199D01*
X104027302Y-107021827D01*
X104121874Y-107061000D01*
X104076498Y-107061000D01*
X104076498Y-107225782D01*
X103844474Y-107104642D01*
X103828709Y-107107291D01*
X103301464Y-107361268D01*
X102911546Y-107797680D01*
X102786766Y-108154402D01*
X102770862Y-108074448D01*
X102511038Y-107685594D01*
X102122184Y-107425770D01*
X101663500Y-107334532D01*
X101204816Y-107425770D01*
X100815962Y-107685594D01*
X100556138Y-108074448D01*
X100464900Y-108533132D01*
X100322100Y-108533132D01*
X100230862Y-108074448D01*
X99971038Y-107685594D01*
X99582184Y-107425770D01*
X99123500Y-107334532D01*
X98664816Y-107425770D01*
X98275962Y-107685594D01*
X98016138Y-108074448D01*
X97924900Y-108533132D01*
X97782100Y-108533132D01*
X97690862Y-108074448D01*
X97431038Y-107685594D01*
X97042184Y-107425770D01*
X96583500Y-107334532D01*
X96124816Y-107425770D01*
X95735962Y-107685594D01*
X95476138Y-108074448D01*
X95384900Y-108533132D01*
X95242100Y-108533132D01*
X95150862Y-108074448D01*
X94891038Y-107685594D01*
X94502184Y-107425770D01*
X94043500Y-107334532D01*
X93584816Y-107425770D01*
X93195962Y-107685594D01*
X92936138Y-108074448D01*
X92844900Y-108533132D01*
X92702100Y-108533132D01*
X92610862Y-108074448D01*
X92351038Y-107685594D01*
X91962184Y-107425770D01*
X91503500Y-107334532D01*
X91044816Y-107425770D01*
X90655962Y-107685594D01*
X90396138Y-108074448D01*
X90304900Y-108533132D01*
X90162100Y-108533132D01*
X90070862Y-108074448D01*
X89811038Y-107685594D01*
X89422184Y-107425770D01*
X88963500Y-107334532D01*
X88504816Y-107425770D01*
X88115962Y-107685594D01*
X87856138Y-108074448D01*
X87764900Y-108533132D01*
X87622100Y-108533132D01*
X87530862Y-108074448D01*
X87271038Y-107685594D01*
X86882184Y-107425770D01*
X86423500Y-107334532D01*
X85964816Y-107425770D01*
X85575962Y-107685594D01*
X85316138Y-108074448D01*
X85224900Y-108533132D01*
X85088663Y-108533132D01*
X85088663Y-107696000D01*
X85065304Y-107571856D01*
X84991935Y-107457838D01*
X84879987Y-107381347D01*
X84747100Y-107354437D01*
X83019900Y-107354437D01*
X82895756Y-107377796D01*
X82781738Y-107451165D01*
X82705247Y-107563113D01*
X82678337Y-107696000D01*
X62327000Y-107696000D01*
X62327000Y-106152606D01*
X62872416Y-105607190D01*
X103752000Y-105607190D01*
X103752000Y-105822750D01*
X103910750Y-105981500D01*
X104660000Y-105981500D01*
X104660000Y-105257250D01*
X104501250Y-105098500D01*
X104260691Y-105098500D01*
X104027302Y-105195173D01*
X103848673Y-105373801D01*
X103752000Y-105607190D01*
X62872416Y-105607190D01*
X63452606Y-105027000D01*
X140319190Y-105027000D01*
X139948454Y-105180185D01*
X139948454Y-105180185D01*
G37*
X139948454Y-105180185D02*
X139282025Y-105845452D01*
X138920912Y-106715109D01*
X138920090Y-107656760D01*
X139279685Y-108527046D01*
X139944952Y-109193475D01*
X140814609Y-109554588D01*
X141756260Y-109555410D01*
X142626546Y-109195815D01*
X143292975Y-108530548D01*
X143373000Y-108337827D01*
X143373000Y-160519966D01*
X143295315Y-160331954D01*
X142630048Y-159665525D01*
X141760391Y-159304412D01*
X140818740Y-159303590D01*
X139948454Y-159663185D01*
X139282025Y-160328452D01*
X138920912Y-161198109D01*
X138920090Y-162139760D01*
X139279685Y-163010046D01*
X139944952Y-163676475D01*
X140418236Y-163873000D01*
X65258082Y-163873000D01*
X65728046Y-163678815D01*
X66311668Y-163096210D01*
X106453455Y-163096210D01*
X106533682Y-163347473D01*
X107088907Y-163548870D01*
X107678939Y-163522461D01*
X108101398Y-163347473D01*
X108181625Y-163096210D01*
X107317540Y-162232125D01*
X106453455Y-163096210D01*
X66311668Y-163096210D01*
X66394475Y-163013548D01*
X66601905Y-162514000D01*
X95694500Y-162514000D01*
X95816258Y-162491090D01*
X95928086Y-162419131D01*
X96003107Y-162309334D01*
X96029500Y-162179000D01*
X96029500Y-161823887D01*
X105821190Y-161823887D01*
X105847599Y-162413919D01*
X106022587Y-162836378D01*
X106273850Y-162916605D01*
X107137935Y-162052520D01*
X107497145Y-162052520D01*
X108361230Y-162916605D01*
X108612493Y-162836378D01*
X108813890Y-162281153D01*
X108792653Y-161806667D01*
X123140838Y-161806667D01*
X123282883Y-162150443D01*
X123545673Y-162413692D01*
X123889201Y-162556338D01*
X124261167Y-162556662D01*
X124436454Y-162484235D01*
X126192870Y-162484235D01*
X126242383Y-162709664D01*
X126707036Y-162869307D01*
X127197413Y-162838982D01*
X127509617Y-162709664D01*
X127559130Y-162484235D01*
X126876000Y-161801105D01*
X126192870Y-162484235D01*
X124436454Y-162484235D01*
X124604943Y-162414617D01*
X124868192Y-162151827D01*
X125010838Y-161808299D01*
X125011147Y-161452536D01*
X125628193Y-161452536D01*
X125658518Y-161942913D01*
X125787836Y-162255117D01*
X126013265Y-162304630D01*
X126696395Y-161621500D01*
X127055605Y-161621500D01*
X127738735Y-162304630D01*
X127964164Y-162255117D01*
X128123807Y-161790464D01*
X128093482Y-161300087D01*
X127964164Y-160987883D01*
X127738735Y-160938370D01*
X127055605Y-161621500D01*
X126696395Y-161621500D01*
X126013265Y-160938370D01*
X125787836Y-160987883D01*
X125628193Y-161452536D01*
X125011147Y-161452536D01*
X125011162Y-161436333D01*
X124869117Y-161092557D01*
X124606327Y-160829308D01*
X124436442Y-160758765D01*
X126192870Y-160758765D01*
X126876000Y-161441895D01*
X127430869Y-160887026D01*
X129863042Y-160887026D01*
X130035312Y-161302947D01*
X130429510Y-161734821D01*
X130958973Y-161982968D01*
X131191000Y-161862469D01*
X131191000Y-160655000D01*
X131445000Y-160655000D01*
X131445000Y-161862469D01*
X131677027Y-161982968D01*
X132206490Y-161734821D01*
X132588000Y-161316848D01*
X132969510Y-161734821D01*
X133498973Y-161982968D01*
X133731000Y-161862469D01*
X133731000Y-160655000D01*
X133985000Y-160655000D01*
X133985000Y-161862469D01*
X134217027Y-161982968D01*
X134746490Y-161734821D01*
X135140688Y-161302947D01*
X135312958Y-160887026D01*
X135191817Y-160655000D01*
X133985000Y-160655000D01*
X133731000Y-160655000D01*
X131445000Y-160655000D01*
X131191000Y-160655000D01*
X129984183Y-160655000D01*
X129863042Y-160887026D01*
X127430869Y-160887026D01*
X127559130Y-160758765D01*
X127509617Y-160533336D01*
X127044964Y-160373693D01*
X126554587Y-160404018D01*
X126242383Y-160533336D01*
X126192870Y-160758765D01*
X124436442Y-160758765D01*
X124262799Y-160686662D01*
X123890833Y-160686338D01*
X123547057Y-160828383D01*
X123283808Y-161091173D01*
X123141162Y-161434701D01*
X123140838Y-161806667D01*
X108792653Y-161806667D01*
X108787481Y-161691121D01*
X108612493Y-161268662D01*
X108361230Y-161188435D01*
X107497145Y-162052520D01*
X107137935Y-162052520D01*
X106273850Y-161188435D01*
X106022587Y-161268662D01*
X105821190Y-161823887D01*
X96029500Y-161823887D01*
X96029500Y-161008830D01*
X106453455Y-161008830D01*
X107317540Y-161872915D01*
X108181625Y-161008830D01*
X108101398Y-160757567D01*
X107546173Y-160556170D01*
X106956141Y-160582579D01*
X106533682Y-160757567D01*
X106453455Y-161008830D01*
X96029500Y-161008830D01*
X96029500Y-159480250D01*
X98469500Y-159480250D01*
X98469500Y-159720810D01*
X98566173Y-159954199D01*
X98744802Y-160132827D01*
X98978191Y-160229500D01*
X99218750Y-160229500D01*
X99377500Y-160070750D01*
X99377500Y-159321500D01*
X98628250Y-159321500D01*
X98469500Y-159480250D01*
X96029500Y-159480250D01*
X96029500Y-158668190D01*
X98469500Y-158668190D01*
X98469500Y-158908750D01*
X98628250Y-159067500D01*
X99377500Y-159067500D01*
X99377500Y-158318250D01*
X99631500Y-158318250D01*
X99631500Y-159067500D01*
X99651500Y-159067500D01*
X99651500Y-159321500D01*
X99631500Y-159321500D01*
X99631500Y-160070750D01*
X99790250Y-160229500D01*
X100030809Y-160229500D01*
X100176931Y-160168974D01*
X129863042Y-160168974D01*
X129984183Y-160401000D01*
X131191000Y-160401000D01*
X131191000Y-160381000D01*
X131445000Y-160381000D01*
X131445000Y-160401000D01*
X133731000Y-160401000D01*
X133731000Y-160381000D01*
X133985000Y-160381000D01*
X133985000Y-160401000D01*
X135191817Y-160401000D01*
X135312958Y-160168974D01*
X135140688Y-159753053D01*
X134746490Y-159321179D01*
X134287166Y-159105904D01*
X134340166Y-159095362D01*
X134729020Y-158835538D01*
X134988844Y-158446684D01*
X135080082Y-157988000D01*
X134988844Y-157529316D01*
X134729020Y-157140462D01*
X134340166Y-156880638D01*
X133881482Y-156789400D01*
X133834518Y-156789400D01*
X133375834Y-156880638D01*
X132986980Y-157140462D01*
X132727156Y-157529316D01*
X132635918Y-157988000D01*
X132727156Y-158446684D01*
X132986980Y-158835538D01*
X133375834Y-159095362D01*
X133428834Y-159105904D01*
X132969510Y-159321179D01*
X132588000Y-159739152D01*
X132206490Y-159321179D01*
X131933347Y-159193163D01*
X132181600Y-159193163D01*
X132305744Y-159169804D01*
X132419762Y-159096435D01*
X132496253Y-158984487D01*
X132523163Y-158851600D01*
X132523163Y-157124400D01*
X132499804Y-157000256D01*
X132426435Y-156886238D01*
X132314487Y-156809747D01*
X132181600Y-156782837D01*
X130454400Y-156782837D01*
X130330256Y-156806196D01*
X130216238Y-156879565D01*
X130139747Y-156991513D01*
X130112837Y-157124400D01*
X130112837Y-158851600D01*
X130136196Y-158975744D01*
X130209565Y-159089762D01*
X130321513Y-159166253D01*
X130454400Y-159193163D01*
X130702653Y-159193163D01*
X130429510Y-159321179D01*
X130035312Y-159753053D01*
X129863042Y-160168974D01*
X100176931Y-160168974D01*
X100264198Y-160132827D01*
X100442827Y-159954199D01*
X100474908Y-159876749D01*
X100740100Y-159929500D01*
X100768900Y-159929500D01*
X101050172Y-159873551D01*
X101288623Y-159714223D01*
X101447951Y-159475772D01*
X101503900Y-159194500D01*
X101447951Y-158913228D01*
X101288623Y-158674777D01*
X101050172Y-158515449D01*
X100768900Y-158459500D01*
X100740100Y-158459500D01*
X100474908Y-158512251D01*
X100442827Y-158434801D01*
X100264198Y-158256173D01*
X100030809Y-158159500D01*
X99790250Y-158159500D01*
X99631500Y-158318250D01*
X99377500Y-158318250D01*
X99218750Y-158159500D01*
X98978191Y-158159500D01*
X98744802Y-158256173D01*
X98566173Y-158434801D01*
X98469500Y-158668190D01*
X96029500Y-158668190D01*
X96029500Y-157543500D01*
X96006590Y-157421742D01*
X95934631Y-157309914D01*
X95824834Y-157234893D01*
X95694500Y-157208500D01*
X94188000Y-157208500D01*
X94188000Y-154049755D01*
X105790890Y-154049755D01*
X105887360Y-154283228D01*
X106065832Y-154462013D01*
X106299137Y-154558889D01*
X106551755Y-154559110D01*
X106785228Y-154462640D01*
X106798391Y-154449500D01*
X107767841Y-154449500D01*
X107780332Y-154462013D01*
X108013637Y-154558889D01*
X108266255Y-154559110D01*
X108499728Y-154462640D01*
X108678513Y-154284168D01*
X108705354Y-154219527D01*
X109670032Y-154219527D01*
X109918179Y-154748990D01*
X110350053Y-155143188D01*
X110475959Y-155195337D01*
X110261400Y-155195337D01*
X110137256Y-155218696D01*
X110023238Y-155292065D01*
X109946747Y-155404013D01*
X109919837Y-155536900D01*
X109919837Y-157264100D01*
X109943196Y-157388244D01*
X110016565Y-157502262D01*
X110128513Y-157578753D01*
X110261400Y-157605663D01*
X111988600Y-157605663D01*
X112112744Y-157582304D01*
X112226762Y-157508935D01*
X112303253Y-157396987D01*
X112330163Y-157264100D01*
X112330163Y-156377018D01*
X112466400Y-156377018D01*
X112466400Y-156423982D01*
X112557638Y-156882666D01*
X112817462Y-157271520D01*
X113206316Y-157531344D01*
X113665000Y-157622582D01*
X114123684Y-157531344D01*
X114512538Y-157271520D01*
X114772362Y-156882666D01*
X114863600Y-156423982D01*
X114863600Y-156377018D01*
X115006400Y-156377018D01*
X115006400Y-156423982D01*
X115097638Y-156882666D01*
X115357462Y-157271520D01*
X115746316Y-157531344D01*
X116205000Y-157622582D01*
X116663684Y-157531344D01*
X117052538Y-157271520D01*
X117312362Y-156882666D01*
X117403600Y-156423982D01*
X117403600Y-156377018D01*
X117546400Y-156377018D01*
X117546400Y-156423982D01*
X117637638Y-156882666D01*
X117897462Y-157271520D01*
X118286316Y-157531344D01*
X118745000Y-157622582D01*
X119203684Y-157531344D01*
X119592538Y-157271520D01*
X119852362Y-156882666D01*
X119943600Y-156423982D01*
X119943600Y-156377018D01*
X120086400Y-156377018D01*
X120086400Y-156423982D01*
X120177638Y-156882666D01*
X120437462Y-157271520D01*
X120826316Y-157531344D01*
X121285000Y-157622582D01*
X121743684Y-157531344D01*
X122132538Y-157271520D01*
X122175871Y-157206667D01*
X123140838Y-157206667D01*
X123282883Y-157550443D01*
X123545673Y-157813692D01*
X123889201Y-157956338D01*
X124261167Y-157956662D01*
X124436454Y-157884235D01*
X126192870Y-157884235D01*
X126242383Y-158109664D01*
X126707036Y-158269307D01*
X127197413Y-158238982D01*
X127509617Y-158109664D01*
X127559130Y-157884235D01*
X126876000Y-157201105D01*
X126192870Y-157884235D01*
X124436454Y-157884235D01*
X124604943Y-157814617D01*
X124868192Y-157551827D01*
X125010838Y-157208299D01*
X125011147Y-156852536D01*
X125628193Y-156852536D01*
X125658518Y-157342913D01*
X125787836Y-157655117D01*
X126013265Y-157704630D01*
X126696395Y-157021500D01*
X127055605Y-157021500D01*
X127738735Y-157704630D01*
X127964164Y-157655117D01*
X128123807Y-157190464D01*
X128093482Y-156700087D01*
X127964164Y-156387883D01*
X127738735Y-156338370D01*
X127055605Y-157021500D01*
X126696395Y-157021500D01*
X126013265Y-156338370D01*
X125787836Y-156387883D01*
X125628193Y-156852536D01*
X125011147Y-156852536D01*
X125011162Y-156836333D01*
X124869117Y-156492557D01*
X124606327Y-156229308D01*
X124436442Y-156158765D01*
X126192870Y-156158765D01*
X126876000Y-156841895D01*
X127559130Y-156158765D01*
X127509617Y-155933336D01*
X127044964Y-155773693D01*
X126554587Y-155804018D01*
X126242383Y-155933336D01*
X126192870Y-156158765D01*
X124436442Y-156158765D01*
X124262799Y-156086662D01*
X123890833Y-156086338D01*
X123547057Y-156228383D01*
X123283808Y-156491173D01*
X123141162Y-156834701D01*
X123140838Y-157206667D01*
X122175871Y-157206667D01*
X122392362Y-156882666D01*
X122483600Y-156423982D01*
X122483600Y-156377018D01*
X122392362Y-155918334D01*
X122132538Y-155529480D01*
X121743684Y-155269656D01*
X121285000Y-155178418D01*
X120826316Y-155269656D01*
X120437462Y-155529480D01*
X120177638Y-155918334D01*
X120086400Y-156377018D01*
X119943600Y-156377018D01*
X119852362Y-155918334D01*
X119592538Y-155529480D01*
X119203684Y-155269656D01*
X118745000Y-155178418D01*
X118286316Y-155269656D01*
X117897462Y-155529480D01*
X117637638Y-155918334D01*
X117546400Y-156377018D01*
X117403600Y-156377018D01*
X117312362Y-155918334D01*
X117052538Y-155529480D01*
X116663684Y-155269656D01*
X116205000Y-155178418D01*
X115746316Y-155269656D01*
X115357462Y-155529480D01*
X115097638Y-155918334D01*
X115006400Y-156377018D01*
X114863600Y-156377018D01*
X114772362Y-155918334D01*
X114512538Y-155529480D01*
X114123684Y-155269656D01*
X113665000Y-155178418D01*
X113206316Y-155269656D01*
X112817462Y-155529480D01*
X112557638Y-155918334D01*
X112466400Y-156377018D01*
X112330163Y-156377018D01*
X112330163Y-155536900D01*
X112306804Y-155412756D01*
X112233435Y-155298738D01*
X112121487Y-155222247D01*
X111988600Y-155195337D01*
X111774041Y-155195337D01*
X111899947Y-155143188D01*
X112331821Y-154748990D01*
X112547096Y-154289666D01*
X112557638Y-154342666D01*
X112817462Y-154731520D01*
X113206316Y-154991344D01*
X113665000Y-155082582D01*
X114123684Y-154991344D01*
X114512538Y-154731520D01*
X114772362Y-154342666D01*
X114863600Y-153883982D01*
X114863600Y-153837018D01*
X115006400Y-153837018D01*
X115006400Y-153883982D01*
X115097638Y-154342666D01*
X115357462Y-154731520D01*
X115746316Y-154991344D01*
X116205000Y-155082582D01*
X116663684Y-154991344D01*
X117052538Y-154731520D01*
X117312362Y-154342666D01*
X117403600Y-153883982D01*
X117403600Y-153837018D01*
X117546400Y-153837018D01*
X117546400Y-153883982D01*
X117637638Y-154342666D01*
X117897462Y-154731520D01*
X118286316Y-154991344D01*
X118745000Y-155082582D01*
X119203684Y-154991344D01*
X119592538Y-154731520D01*
X119852362Y-154342666D01*
X119943600Y-153883982D01*
X119943600Y-153837018D01*
X120086400Y-153837018D01*
X120086400Y-153883982D01*
X120177638Y-154342666D01*
X120437462Y-154731520D01*
X120826316Y-154991344D01*
X121285000Y-155082582D01*
X121743684Y-154991344D01*
X122132538Y-154731520D01*
X122392362Y-154342666D01*
X122483600Y-153883982D01*
X122483600Y-153837018D01*
X122392362Y-153378334D01*
X122132538Y-152989480D01*
X121743684Y-152729656D01*
X121285000Y-152638418D01*
X120826316Y-152729656D01*
X120437462Y-152989480D01*
X120177638Y-153378334D01*
X120086400Y-153837018D01*
X119943600Y-153837018D01*
X119852362Y-153378334D01*
X119592538Y-152989480D01*
X119203684Y-152729656D01*
X118745000Y-152638418D01*
X118286316Y-152729656D01*
X117897462Y-152989480D01*
X117637638Y-153378334D01*
X117546400Y-153837018D01*
X117403600Y-153837018D01*
X117312362Y-153378334D01*
X117052538Y-152989480D01*
X116663684Y-152729656D01*
X116205000Y-152638418D01*
X115746316Y-152729656D01*
X115357462Y-152989480D01*
X115097638Y-153378334D01*
X115006400Y-153837018D01*
X114863600Y-153837018D01*
X114772362Y-153378334D01*
X114512538Y-152989480D01*
X114123684Y-152729656D01*
X113665000Y-152638418D01*
X113206316Y-152729656D01*
X112817462Y-152989480D01*
X112557638Y-153378334D01*
X112547096Y-153431334D01*
X112331821Y-152972010D01*
X111899947Y-152577812D01*
X111484026Y-152405542D01*
X111252000Y-152526683D01*
X111252000Y-153733500D01*
X111272000Y-153733500D01*
X111272000Y-153987500D01*
X111252000Y-153987500D01*
X111252000Y-154007500D01*
X110998000Y-154007500D01*
X110998000Y-153987500D01*
X109790531Y-153987500D01*
X109670032Y-154219527D01*
X108705354Y-154219527D01*
X108775389Y-154050863D01*
X108775610Y-153798245D01*
X108679140Y-153564772D01*
X108615952Y-153501473D01*
X109670032Y-153501473D01*
X109790531Y-153733500D01*
X110998000Y-153733500D01*
X110998000Y-152526683D01*
X110765974Y-152405542D01*
X110350053Y-152577812D01*
X109918179Y-152972010D01*
X109670032Y-153501473D01*
X108615952Y-153501473D01*
X108500668Y-153385987D01*
X108267363Y-153289111D01*
X108014745Y-153288890D01*
X107781272Y-153385360D01*
X107768109Y-153398500D01*
X106798659Y-153398500D01*
X106786168Y-153385987D01*
X106552863Y-153289111D01*
X106300245Y-153288890D01*
X106066772Y-153385360D01*
X105887987Y-153563832D01*
X105791111Y-153797137D01*
X105790890Y-154049755D01*
X94188000Y-154049755D01*
X94188000Y-151789486D01*
X96795682Y-151789486D01*
X96960602Y-152188623D01*
X97265711Y-152494265D01*
X97664559Y-152659882D01*
X98096426Y-152660258D01*
X98495563Y-152495338D01*
X98801205Y-152190229D01*
X98966822Y-151791381D01*
X98967198Y-151359514D01*
X98836372Y-151042890D01*
X106126347Y-151042890D01*
X106126347Y-152742150D01*
X106149706Y-152866294D01*
X106223075Y-152980312D01*
X106335023Y-153056803D01*
X106467910Y-153083713D01*
X108167170Y-153083713D01*
X108291314Y-153060354D01*
X108405332Y-152986985D01*
X108481823Y-152875037D01*
X108508733Y-152742150D01*
X108508733Y-151352250D01*
X109045500Y-151352250D01*
X109045500Y-151642810D01*
X109142173Y-151876199D01*
X109320802Y-152054827D01*
X109554191Y-152151500D01*
X109646750Y-152151500D01*
X109805500Y-151992750D01*
X109805500Y-151193500D01*
X110055500Y-151193500D01*
X110055500Y-151992750D01*
X110214250Y-152151500D01*
X110306809Y-152151500D01*
X110540198Y-152054827D01*
X110718827Y-151876199D01*
X110815500Y-151642810D01*
X110815500Y-151352250D01*
X110656750Y-151193500D01*
X110055500Y-151193500D01*
X109805500Y-151193500D01*
X109204250Y-151193500D01*
X109045500Y-151352250D01*
X108508733Y-151352250D01*
X108508733Y-151042890D01*
X108485374Y-150918746D01*
X108412005Y-150804728D01*
X108300057Y-150728237D01*
X108167170Y-150701327D01*
X106467910Y-150701327D01*
X106343766Y-150724686D01*
X106229748Y-150798055D01*
X106153257Y-150910003D01*
X106126347Y-151042890D01*
X98836372Y-151042890D01*
X98802278Y-150960377D01*
X98497169Y-150654735D01*
X98100903Y-150490190D01*
X109045500Y-150490190D01*
X109045500Y-150780750D01*
X109204250Y-150939500D01*
X109805500Y-150939500D01*
X109805500Y-150140250D01*
X110055500Y-150140250D01*
X110055500Y-150939500D01*
X110656750Y-150939500D01*
X110815500Y-150780750D01*
X110815500Y-150616500D01*
X110838937Y-150616500D01*
X110838937Y-151516500D01*
X110862296Y-151640644D01*
X110935665Y-151754662D01*
X111047613Y-151831153D01*
X111180500Y-151858063D01*
X111680500Y-151858063D01*
X111804644Y-151834704D01*
X111918662Y-151761335D01*
X111995153Y-151649387D01*
X112019633Y-151528500D01*
X112022452Y-151528500D01*
X112098332Y-151604513D01*
X112331637Y-151701389D01*
X112584255Y-151701610D01*
X112817728Y-151605140D01*
X112996513Y-151426668D01*
X113093389Y-151193363D01*
X113093610Y-150940745D01*
X112997140Y-150707272D01*
X112818668Y-150528487D01*
X112585363Y-150431611D01*
X112332745Y-150431390D01*
X112099272Y-150527860D01*
X112022498Y-150604500D01*
X112019805Y-150604500D01*
X111998704Y-150492356D01*
X111925335Y-150378338D01*
X111813387Y-150301847D01*
X111680500Y-150274937D01*
X111180500Y-150274937D01*
X111056356Y-150298296D01*
X110942338Y-150371665D01*
X110865847Y-150483613D01*
X110838937Y-150616500D01*
X110815500Y-150616500D01*
X110815500Y-150490190D01*
X110718827Y-150256801D01*
X110540198Y-150078173D01*
X110306809Y-149981500D01*
X110214250Y-149981500D01*
X110055500Y-150140250D01*
X109805500Y-150140250D01*
X109646750Y-149981500D01*
X109554191Y-149981500D01*
X109320802Y-150078173D01*
X109142173Y-150256801D01*
X109045500Y-150490190D01*
X98100903Y-150490190D01*
X98098321Y-150489118D01*
X97666454Y-150488742D01*
X97267317Y-150653662D01*
X96961675Y-150958771D01*
X96796058Y-151357619D01*
X96795682Y-151789486D01*
X94188000Y-151789486D01*
X94188000Y-149604755D01*
X108013390Y-149604755D01*
X108109860Y-149838228D01*
X108288332Y-150017013D01*
X108521637Y-150113889D01*
X108774255Y-150114110D01*
X109007728Y-150017640D01*
X109186513Y-149839168D01*
X109283389Y-149605863D01*
X109283484Y-149497382D01*
X110435683Y-148345183D01*
X110475094Y-148286200D01*
X110526677Y-148209000D01*
X134286918Y-148209000D01*
X134378156Y-148667684D01*
X134637980Y-149056538D01*
X135026834Y-149316362D01*
X135485518Y-149407600D01*
X135532482Y-149407600D01*
X135991166Y-149316362D01*
X136380020Y-149056538D01*
X136639844Y-148667684D01*
X136731082Y-148209000D01*
X136639844Y-147750316D01*
X136380020Y-147361462D01*
X136355982Y-147345400D01*
X136843837Y-147345400D01*
X136843837Y-149072600D01*
X136867196Y-149196744D01*
X136940565Y-149310762D01*
X137052513Y-149387253D01*
X137185400Y-149414163D01*
X138912600Y-149414163D01*
X139036744Y-149390804D01*
X139150762Y-149317435D01*
X139227253Y-149205487D01*
X139254163Y-149072600D01*
X139254163Y-147345400D01*
X139230804Y-147221256D01*
X139157435Y-147107238D01*
X139045487Y-147030747D01*
X138912600Y-147003837D01*
X137185400Y-147003837D01*
X137061256Y-147027196D01*
X136947238Y-147100565D01*
X136870747Y-147212513D01*
X136843837Y-147345400D01*
X136355982Y-147345400D01*
X135991166Y-147101638D01*
X135532482Y-147010400D01*
X135485518Y-147010400D01*
X135026834Y-147101638D01*
X134637980Y-147361462D01*
X134378156Y-147750316D01*
X134286918Y-148209000D01*
X110526677Y-148209000D01*
X110535832Y-148195300D01*
X110571000Y-148018500D01*
X110571000Y-145573750D01*
X115245500Y-145573750D01*
X115245500Y-145789310D01*
X115342173Y-146022699D01*
X115520802Y-146201327D01*
X115754191Y-146298000D01*
X115994750Y-146298000D01*
X116153500Y-146139250D01*
X116153500Y-145415000D01*
X115404250Y-145415000D01*
X115245500Y-145573750D01*
X110571000Y-145573750D01*
X110571000Y-144786690D01*
X115245500Y-144786690D01*
X115245500Y-145002250D01*
X115404250Y-145161000D01*
X116153500Y-145161000D01*
X116153500Y-144436750D01*
X116407500Y-144436750D01*
X116407500Y-145161000D01*
X116427500Y-145161000D01*
X116427500Y-145415000D01*
X116407500Y-145415000D01*
X116407500Y-146139250D01*
X116566250Y-146298000D01*
X116806809Y-146298000D01*
X117040198Y-146201327D01*
X117218827Y-146022699D01*
X117239720Y-145972260D01*
X117247613Y-145977653D01*
X117380500Y-146004563D01*
X118180500Y-146004563D01*
X118304644Y-145981204D01*
X118418662Y-145907835D01*
X118495153Y-145795887D01*
X118522063Y-145663000D01*
X118522063Y-144913000D01*
X118498704Y-144788856D01*
X118425335Y-144674838D01*
X118313387Y-144598347D01*
X118242500Y-144583992D01*
X118242500Y-144212138D01*
X118267013Y-144187668D01*
X118363889Y-143954363D01*
X118364110Y-143701745D01*
X118275803Y-143488026D01*
X134054042Y-143488026D01*
X134226312Y-143903947D01*
X134620510Y-144335821D01*
X135079834Y-144551096D01*
X135026834Y-144561638D01*
X134637980Y-144821462D01*
X134378156Y-145210316D01*
X134286918Y-145669000D01*
X134378156Y-146127684D01*
X134637980Y-146516538D01*
X135026834Y-146776362D01*
X135485518Y-146867600D01*
X135532482Y-146867600D01*
X135991166Y-146776362D01*
X136380020Y-146516538D01*
X136639844Y-146127684D01*
X136731082Y-145669000D01*
X136826918Y-145669000D01*
X136918156Y-146127684D01*
X137177980Y-146516538D01*
X137566834Y-146776362D01*
X138025518Y-146867600D01*
X138072482Y-146867600D01*
X138531166Y-146776362D01*
X138920020Y-146516538D01*
X139179844Y-146127684D01*
X139271082Y-145669000D01*
X139179844Y-145210316D01*
X138920020Y-144821462D01*
X138531166Y-144561638D01*
X138072482Y-144470400D01*
X138025518Y-144470400D01*
X137566834Y-144561638D01*
X137177980Y-144821462D01*
X136918156Y-145210316D01*
X136826918Y-145669000D01*
X136731082Y-145669000D01*
X136639844Y-145210316D01*
X136380020Y-144821462D01*
X135991166Y-144561638D01*
X135938166Y-144551096D01*
X136397490Y-144335821D01*
X136791688Y-143903947D01*
X136920949Y-143591864D01*
X137177980Y-143976538D01*
X137566834Y-144236362D01*
X138025518Y-144327600D01*
X138072482Y-144327600D01*
X138531166Y-144236362D01*
X138920020Y-143976538D01*
X139179844Y-143587684D01*
X139271082Y-143129000D01*
X139179844Y-142670316D01*
X138920020Y-142281462D01*
X138531166Y-142021638D01*
X138072482Y-141930400D01*
X138025518Y-141930400D01*
X137566834Y-142021638D01*
X137177980Y-142281462D01*
X136920949Y-142666136D01*
X136791688Y-142354053D01*
X136397490Y-141922179D01*
X135868027Y-141674032D01*
X135636000Y-141794531D01*
X135636000Y-143002000D01*
X135656000Y-143002000D01*
X135656000Y-143256000D01*
X135636000Y-143256000D01*
X135636000Y-143276000D01*
X135382000Y-143276000D01*
X135382000Y-143256000D01*
X134175183Y-143256000D01*
X134054042Y-143488026D01*
X118275803Y-143488026D01*
X118267640Y-143468272D01*
X118089168Y-143289487D01*
X117855863Y-143192611D01*
X117603245Y-143192390D01*
X117369772Y-143288860D01*
X117190987Y-143467332D01*
X117094111Y-143700637D01*
X117093890Y-143953255D01*
X117190360Y-144186728D01*
X117318500Y-144315093D01*
X117318500Y-144583103D01*
X117256356Y-144594796D01*
X117240296Y-144605131D01*
X117218827Y-144553301D01*
X117040198Y-144374673D01*
X116806809Y-144278000D01*
X116566250Y-144278000D01*
X116407500Y-144436750D01*
X116153500Y-144436750D01*
X115994750Y-144278000D01*
X115754191Y-144278000D01*
X115520802Y-144374673D01*
X115342173Y-144553301D01*
X115245500Y-144786690D01*
X110571000Y-144786690D01*
X110571000Y-142769974D01*
X134054042Y-142769974D01*
X134175183Y-143002000D01*
X135382000Y-143002000D01*
X135382000Y-141794531D01*
X135149973Y-141674032D01*
X134620510Y-141922179D01*
X134226312Y-142354053D01*
X134054042Y-142769974D01*
X110571000Y-142769974D01*
X110571000Y-141596548D01*
X110647013Y-141520668D01*
X110743889Y-141287363D01*
X110744110Y-141034745D01*
X110647640Y-140801272D01*
X110469168Y-140622487D01*
X110235863Y-140525611D01*
X109983245Y-140525390D01*
X109749772Y-140621860D01*
X109570987Y-140800332D01*
X109474111Y-141033637D01*
X109473890Y-141286255D01*
X109570360Y-141519728D01*
X109647000Y-141596502D01*
X109647000Y-147827134D01*
X108630150Y-148843984D01*
X108522745Y-148843890D01*
X108289272Y-148940360D01*
X108110487Y-149118832D01*
X108013611Y-149352137D01*
X108013390Y-149604755D01*
X94188000Y-149604755D01*
X94188000Y-148082000D01*
X94165090Y-147960242D01*
X94093131Y-147848414D01*
X93983334Y-147773393D01*
X93853000Y-147747000D01*
X91330500Y-147747000D01*
X91330500Y-145383250D01*
X106101500Y-145383250D01*
X106101500Y-145598810D01*
X106198173Y-145832199D01*
X106376802Y-146010827D01*
X106610191Y-146107500D01*
X106850750Y-146107500D01*
X107009500Y-145948750D01*
X107009500Y-145224500D01*
X106260250Y-145224500D01*
X106101500Y-145383250D01*
X91330500Y-145383250D01*
X91330500Y-144270755D01*
X95122890Y-144270755D01*
X95219360Y-144504228D01*
X95397832Y-144683013D01*
X95631137Y-144779889D01*
X95883755Y-144780110D01*
X96117228Y-144683640D01*
X96204831Y-144596190D01*
X106101500Y-144596190D01*
X106101500Y-144811750D01*
X106260250Y-144970500D01*
X107009500Y-144970500D01*
X107009500Y-144246250D01*
X106850750Y-144087500D01*
X106610191Y-144087500D01*
X106376802Y-144184173D01*
X106198173Y-144362801D01*
X106101500Y-144596190D01*
X96204831Y-144596190D01*
X96296013Y-144505168D01*
X96392889Y-144271863D01*
X96392984Y-144163382D01*
X96647866Y-143908500D01*
X96655452Y-143908500D01*
X96731332Y-143984513D01*
X96964637Y-144081389D01*
X97217255Y-144081610D01*
X97450728Y-143985140D01*
X97629513Y-143806668D01*
X97726389Y-143573363D01*
X97726610Y-143320745D01*
X97630140Y-143087272D01*
X97451668Y-142908487D01*
X97218363Y-142811611D01*
X96965745Y-142811390D01*
X96732272Y-142907860D01*
X96655498Y-142984500D01*
X96456500Y-142984500D01*
X96279700Y-143019668D01*
X96210942Y-143065611D01*
X96129817Y-143119817D01*
X95739650Y-143509984D01*
X95632245Y-143509890D01*
X95398772Y-143606360D01*
X95219987Y-143784832D01*
X95123111Y-144018137D01*
X95122890Y-144270755D01*
X91330500Y-144270755D01*
X91330500Y-138911355D01*
X98323290Y-138911355D01*
X98419760Y-139144828D01*
X98598232Y-139323613D01*
X98610000Y-139328499D01*
X98610000Y-139369330D01*
X98583838Y-139386165D01*
X98507347Y-139498113D01*
X98480437Y-139631000D01*
X98480437Y-140531000D01*
X98503796Y-140655144D01*
X98577165Y-140769162D01*
X98610000Y-140791597D01*
X98610000Y-141083830D01*
X98583838Y-141100665D01*
X98507347Y-141212613D01*
X98480437Y-141345500D01*
X98480437Y-142245500D01*
X98503796Y-142369644D01*
X98577165Y-142483662D01*
X98689113Y-142560153D01*
X98822000Y-142587063D01*
X99322000Y-142587063D01*
X99446144Y-142563704D01*
X99560162Y-142490335D01*
X99636653Y-142378387D01*
X99663563Y-142245500D01*
X99663563Y-141345500D01*
X99980437Y-141345500D01*
X99980437Y-142245500D01*
X100003796Y-142369644D01*
X100077165Y-142483662D01*
X100189113Y-142560153D01*
X100322000Y-142587063D01*
X100822000Y-142587063D01*
X100946144Y-142563704D01*
X101015950Y-142518785D01*
X101112160Y-142751628D01*
X101290632Y-142930413D01*
X101523937Y-143027289D01*
X101632417Y-143027384D01*
X101781316Y-143176283D01*
X101851443Y-143223140D01*
X101931200Y-143276432D01*
X102108000Y-143311600D01*
X106273600Y-143311600D01*
X106450400Y-143276432D01*
X106600283Y-143176283D01*
X106620183Y-143146500D01*
X107386952Y-143146500D01*
X107462832Y-143222513D01*
X107555123Y-143260835D01*
X107475487Y-143340332D01*
X107378611Y-143573637D01*
X107378390Y-143826255D01*
X107474860Y-144059728D01*
X107502583Y-144087500D01*
X107422250Y-144087500D01*
X107263500Y-144246250D01*
X107263500Y-144970500D01*
X107283500Y-144970500D01*
X107283500Y-145224500D01*
X107263500Y-145224500D01*
X107263500Y-145948750D01*
X107422250Y-146107500D01*
X107662809Y-146107500D01*
X107896198Y-146010827D01*
X108074827Y-145832199D01*
X108095720Y-145781760D01*
X108103613Y-145787153D01*
X108236500Y-145814063D01*
X109036500Y-145814063D01*
X109160644Y-145790704D01*
X109274662Y-145717335D01*
X109351153Y-145605387D01*
X109378063Y-145472500D01*
X109378063Y-144722500D01*
X109354704Y-144598356D01*
X109281335Y-144484338D01*
X109169387Y-144407847D01*
X109098500Y-144393492D01*
X109098500Y-144323500D01*
X109063332Y-144146700D01*
X108963183Y-143996817D01*
X108648516Y-143682150D01*
X108648610Y-143574745D01*
X108552140Y-143341272D01*
X108373668Y-143162487D01*
X108281377Y-143124165D01*
X108361013Y-143044668D01*
X108457889Y-142811363D01*
X108458110Y-142558745D01*
X108361640Y-142325272D01*
X108183168Y-142146487D01*
X107949863Y-142049611D01*
X107697245Y-142049390D01*
X107463772Y-142145860D01*
X107386998Y-142222500D01*
X106426000Y-142222500D01*
X106249200Y-142257668D01*
X106149431Y-142324332D01*
X106099317Y-142357817D01*
X106069534Y-142387600D01*
X103039078Y-142387600D01*
X103047689Y-142366863D01*
X103047910Y-142114245D01*
X102951440Y-141880772D01*
X102874800Y-141803998D01*
X102874800Y-141427200D01*
X102839632Y-141250400D01*
X102820225Y-141221356D01*
X102739483Y-141100516D01*
X102539816Y-140900849D01*
X102539910Y-140793445D01*
X102443440Y-140559972D01*
X102264968Y-140381187D01*
X102031663Y-140284311D01*
X101779045Y-140284090D01*
X101545572Y-140380560D01*
X101366787Y-140559032D01*
X101269911Y-140792337D01*
X101269722Y-141008078D01*
X101140772Y-141061360D01*
X101077739Y-141124283D01*
X101066835Y-141107338D01*
X100954887Y-141030847D01*
X100822000Y-141003937D01*
X100322000Y-141003937D01*
X100197856Y-141027296D01*
X100083838Y-141100665D01*
X100007347Y-141212613D01*
X99980437Y-141345500D01*
X99663563Y-141345500D01*
X99640204Y-141221356D01*
X99566835Y-141107338D01*
X99534000Y-141084903D01*
X99534000Y-140792670D01*
X99560162Y-140775835D01*
X99636653Y-140663887D01*
X99663563Y-140531000D01*
X99663563Y-139761435D01*
X99839832Y-139938013D01*
X99980437Y-139996397D01*
X99980437Y-140531000D01*
X100003796Y-140655144D01*
X100077165Y-140769162D01*
X100189113Y-140845653D01*
X100322000Y-140872563D01*
X100822000Y-140872563D01*
X100946144Y-140849204D01*
X101060162Y-140775835D01*
X101136653Y-140663887D01*
X101163563Y-140531000D01*
X101163563Y-140486868D01*
X101189333Y-140448300D01*
X101224500Y-140271500D01*
X101189333Y-140094701D01*
X101163563Y-140056133D01*
X101163563Y-139807250D01*
X103574500Y-139807250D01*
X103574500Y-140047809D01*
X103671173Y-140281198D01*
X103849801Y-140459827D01*
X103900240Y-140480720D01*
X103894847Y-140488613D01*
X103867937Y-140621500D01*
X103867937Y-141421500D01*
X103891296Y-141545644D01*
X103964665Y-141659662D01*
X104076613Y-141736153D01*
X104209500Y-141763063D01*
X104959500Y-141763063D01*
X105083644Y-141739704D01*
X105197662Y-141666335D01*
X105274153Y-141554387D01*
X105288508Y-141483500D01*
X105930000Y-141483500D01*
X106106800Y-141448332D01*
X106252445Y-141351015D01*
X106361255Y-141351110D01*
X106594728Y-141254640D01*
X106773513Y-141076168D01*
X106870389Y-140842863D01*
X106870610Y-140590245D01*
X106774140Y-140356772D01*
X106687775Y-140270255D01*
X117855890Y-140270255D01*
X117952360Y-140503728D01*
X118130832Y-140682513D01*
X118364137Y-140779389D01*
X118616755Y-140779610D01*
X118625090Y-140776166D01*
X118669500Y-140785000D01*
X119310103Y-140785000D01*
X119321796Y-140847144D01*
X119395165Y-140961162D01*
X119507113Y-141037653D01*
X119640000Y-141064563D01*
X120390000Y-141064563D01*
X120514144Y-141041204D01*
X120628162Y-140967835D01*
X120704653Y-140855887D01*
X120731563Y-140723000D01*
X120731563Y-139923000D01*
X120708204Y-139798856D01*
X120697869Y-139782796D01*
X120749699Y-139761327D01*
X120928327Y-139582698D01*
X121025000Y-139349309D01*
X121025000Y-139108750D01*
X120866250Y-138950000D01*
X120142000Y-138950000D01*
X120142000Y-138970000D01*
X119888000Y-138970000D01*
X119888000Y-138950000D01*
X119163750Y-138950000D01*
X119005000Y-139108750D01*
X119005000Y-139349309D01*
X119101673Y-139582698D01*
X119280301Y-139761327D01*
X119330740Y-139782220D01*
X119325347Y-139790113D01*
X119310992Y-139861000D01*
X119060930Y-139861000D01*
X119029640Y-139785272D01*
X118851168Y-139606487D01*
X118617863Y-139509611D01*
X118365245Y-139509390D01*
X118131772Y-139605860D01*
X117952987Y-139784332D01*
X117856111Y-140017637D01*
X117855890Y-140270255D01*
X106687775Y-140270255D01*
X106595668Y-140177987D01*
X106362363Y-140081111D01*
X106109745Y-140080890D01*
X105876272Y-140177360D01*
X105697487Y-140355832D01*
X105612917Y-140559500D01*
X105289397Y-140559500D01*
X105277704Y-140497356D01*
X105267369Y-140481296D01*
X105319199Y-140459827D01*
X105497827Y-140281198D01*
X105594500Y-140047809D01*
X105594500Y-139807250D01*
X105435750Y-139648500D01*
X104711500Y-139648500D01*
X104711500Y-139668500D01*
X104457500Y-139668500D01*
X104457500Y-139648500D01*
X103733250Y-139648500D01*
X103574500Y-139807250D01*
X101163563Y-139807250D01*
X101163563Y-139631000D01*
X101140204Y-139506856D01*
X101066835Y-139392838D01*
X100954887Y-139316347D01*
X100835094Y-139292089D01*
X100835110Y-139274245D01*
X100738640Y-139040772D01*
X100693139Y-138995191D01*
X103574500Y-138995191D01*
X103574500Y-139235750D01*
X103733250Y-139394500D01*
X104457500Y-139394500D01*
X104457500Y-138645250D01*
X104711500Y-138645250D01*
X104711500Y-139394500D01*
X105435750Y-139394500D01*
X105594500Y-139235750D01*
X105594500Y-138995191D01*
X105497827Y-138761802D01*
X105319199Y-138583173D01*
X105085810Y-138486500D01*
X104870250Y-138486500D01*
X104711500Y-138645250D01*
X104457500Y-138645250D01*
X104298750Y-138486500D01*
X104083190Y-138486500D01*
X103849801Y-138583173D01*
X103671173Y-138761802D01*
X103574500Y-138995191D01*
X100693139Y-138995191D01*
X100560168Y-138861987D01*
X100326863Y-138765111D01*
X100074245Y-138764890D01*
X99840772Y-138861360D01*
X99661987Y-139039832D01*
X99565111Y-139273137D01*
X99565007Y-139391589D01*
X99534000Y-139370403D01*
X99534000Y-139055248D01*
X99593289Y-138912463D01*
X99593510Y-138659845D01*
X99497040Y-138426372D01*
X99367587Y-138296691D01*
X119005000Y-138296691D01*
X119005000Y-138537250D01*
X119163750Y-138696000D01*
X119888000Y-138696000D01*
X119888000Y-137946750D01*
X120142000Y-137946750D01*
X120142000Y-138696000D01*
X120866250Y-138696000D01*
X121025000Y-138537250D01*
X121025000Y-138296691D01*
X120973548Y-138172474D01*
X136298234Y-138172474D01*
X136373231Y-138549509D01*
X136586804Y-138869144D01*
X136974856Y-139257196D01*
X137294491Y-139470769D01*
X137671526Y-139545766D01*
X138048561Y-139470769D01*
X138368196Y-139257196D01*
X138581769Y-138937561D01*
X138656766Y-138560526D01*
X138581769Y-138183491D01*
X138513781Y-138081740D01*
X139021894Y-138081740D01*
X139398929Y-138006743D01*
X139718564Y-137793170D01*
X139932137Y-137473535D01*
X140007134Y-137096500D01*
X139932137Y-136719465D01*
X139718564Y-136399830D01*
X139398929Y-136186257D01*
X139021894Y-136111260D01*
X138857741Y-136111260D01*
X138881275Y-136070823D01*
X138949085Y-135569258D01*
X138819792Y-135079923D01*
X138763752Y-135000586D01*
X138535684Y-134947921D01*
X137657105Y-135826500D01*
X137671248Y-135840643D01*
X137491643Y-136020248D01*
X137477500Y-136006105D01*
X136598921Y-136884684D01*
X136651586Y-137112752D01*
X136730923Y-137168792D01*
X137008059Y-137242017D01*
X136906439Y-137262231D01*
X136586804Y-137475804D01*
X136373231Y-137795439D01*
X136298234Y-138172474D01*
X120973548Y-138172474D01*
X120928327Y-138063302D01*
X120749699Y-137884673D01*
X120516310Y-137788000D01*
X120300750Y-137788000D01*
X120142000Y-137946750D01*
X119888000Y-137946750D01*
X119729250Y-137788000D01*
X119513690Y-137788000D01*
X119280301Y-137884673D01*
X119101673Y-138063302D01*
X119005000Y-138296691D01*
X99367587Y-138296691D01*
X99318568Y-138247587D01*
X99085263Y-138150711D01*
X98832645Y-138150490D01*
X98599172Y-138246960D01*
X98420387Y-138425432D01*
X98323511Y-138658737D01*
X98323290Y-138911355D01*
X91330500Y-138911355D01*
X91330500Y-134981250D01*
X103574500Y-134981250D01*
X103574500Y-135221809D01*
X103671173Y-135455198D01*
X103849801Y-135633827D01*
X103900240Y-135654720D01*
X103894847Y-135662613D01*
X103867937Y-135795500D01*
X103867937Y-136595500D01*
X103891296Y-136719644D01*
X103964665Y-136833662D01*
X104076613Y-136910153D01*
X104209500Y-136937063D01*
X104959500Y-136937063D01*
X105083644Y-136913704D01*
X105097551Y-136904755D01*
X110870890Y-136904755D01*
X110967360Y-137138228D01*
X111145832Y-137317013D01*
X111379137Y-137413889D01*
X111631755Y-137414110D01*
X111865228Y-137317640D01*
X111942002Y-137241000D01*
X113355952Y-137241000D01*
X113431832Y-137317013D01*
X113665137Y-137413889D01*
X113917755Y-137414110D01*
X114151228Y-137317640D01*
X114330013Y-137139168D01*
X114426889Y-136905863D01*
X114427110Y-136653245D01*
X114330640Y-136419772D01*
X114152168Y-136240987D01*
X113918863Y-136144111D01*
X113666245Y-136143890D01*
X113432772Y-136240360D01*
X113355998Y-136317000D01*
X111942048Y-136317000D01*
X111866168Y-136240987D01*
X111632863Y-136144111D01*
X111380245Y-136143890D01*
X111146772Y-136240360D01*
X110967987Y-136418832D01*
X110871111Y-136652137D01*
X110870890Y-136904755D01*
X105097551Y-136904755D01*
X105197662Y-136840335D01*
X105274153Y-136728387D01*
X105288508Y-136657500D01*
X105612500Y-136657500D01*
X105789300Y-136622332D01*
X105939183Y-136522183D01*
X106190350Y-136271016D01*
X106297755Y-136271110D01*
X106531228Y-136174640D01*
X106710013Y-135996168D01*
X106772263Y-135846250D01*
X117354000Y-135846250D01*
X117354000Y-136086809D01*
X117450673Y-136320198D01*
X117629301Y-136498827D01*
X117862690Y-136595500D01*
X118078250Y-136595500D01*
X118237000Y-136436750D01*
X118237000Y-135687500D01*
X118491000Y-135687500D01*
X118491000Y-136436750D01*
X118649750Y-136595500D01*
X118865310Y-136595500D01*
X119098699Y-136498827D01*
X119157750Y-136439776D01*
X119216801Y-136498827D01*
X119450190Y-136595500D01*
X119665750Y-136595500D01*
X119824500Y-136436750D01*
X119824500Y-135687500D01*
X120078500Y-135687500D01*
X120078500Y-136436750D01*
X120237250Y-136595500D01*
X120452810Y-136595500D01*
X120686199Y-136498827D01*
X120864827Y-136320198D01*
X120961500Y-136086809D01*
X120961500Y-136083742D01*
X136005915Y-136083742D01*
X136135208Y-136573077D01*
X136191248Y-136652414D01*
X136419316Y-136705079D01*
X137297895Y-135826500D01*
X136586863Y-135115468D01*
X136328314Y-135144741D01*
X136073725Y-135582177D01*
X136005915Y-136083742D01*
X120961500Y-136083742D01*
X120961500Y-135846250D01*
X120802750Y-135687500D01*
X120078500Y-135687500D01*
X119824500Y-135687500D01*
X118491000Y-135687500D01*
X118237000Y-135687500D01*
X117512750Y-135687500D01*
X117354000Y-135846250D01*
X106772263Y-135846250D01*
X106806889Y-135762863D01*
X106807110Y-135510245D01*
X106710640Y-135276772D01*
X106532168Y-135097987D01*
X106298863Y-135001111D01*
X106046245Y-135000890D01*
X105812772Y-135097360D01*
X105633987Y-135275832D01*
X105537111Y-135509137D01*
X105537016Y-135617617D01*
X105421134Y-135733500D01*
X105289397Y-135733500D01*
X105277704Y-135671356D01*
X105267369Y-135655296D01*
X105319199Y-135633827D01*
X105497827Y-135455198D01*
X105594500Y-135221809D01*
X105594500Y-134981250D01*
X105435750Y-134822500D01*
X104711500Y-134822500D01*
X104711500Y-134842500D01*
X104457500Y-134842500D01*
X104457500Y-134822500D01*
X103733250Y-134822500D01*
X103574500Y-134981250D01*
X91330500Y-134981250D01*
X91330500Y-134620000D01*
X91307590Y-134498242D01*
X91235631Y-134386414D01*
X91125834Y-134311393D01*
X90995500Y-134285000D01*
X86689262Y-134285000D01*
X86573453Y-134169191D01*
X103574500Y-134169191D01*
X103574500Y-134409750D01*
X103733250Y-134568500D01*
X104457500Y-134568500D01*
X104457500Y-133819250D01*
X104711500Y-133819250D01*
X104711500Y-134568500D01*
X105435750Y-134568500D01*
X105594500Y-134409750D01*
X105594500Y-134169191D01*
X105497827Y-133935802D01*
X105319199Y-133757173D01*
X105253007Y-133729755D01*
X114299890Y-133729755D01*
X114396360Y-133963228D01*
X114574832Y-134142013D01*
X114808137Y-134238889D01*
X115060755Y-134239110D01*
X115294228Y-134142640D01*
X115371002Y-134066000D01*
X116276952Y-134066000D01*
X116352832Y-134142013D01*
X116586137Y-134238889D01*
X116838755Y-134239110D01*
X116916854Y-134206840D01*
X116999860Y-134407728D01*
X117178332Y-134586513D01*
X117411637Y-134683389D01*
X117567949Y-134683526D01*
X117450673Y-134800802D01*
X117354000Y-135034191D01*
X117354000Y-135274750D01*
X117512750Y-135433500D01*
X118237000Y-135433500D01*
X118237000Y-135413500D01*
X118491000Y-135413500D01*
X118491000Y-135433500D01*
X119824500Y-135433500D01*
X119824500Y-135413500D01*
X120078500Y-135413500D01*
X120078500Y-135433500D01*
X120802750Y-135433500D01*
X120961500Y-135274750D01*
X120961500Y-135034191D01*
X120920772Y-134935863D01*
X136766468Y-134935863D01*
X137477500Y-135646895D01*
X138356079Y-134768316D01*
X138303414Y-134540248D01*
X138224077Y-134484208D01*
X137734742Y-134354915D01*
X137233177Y-134422725D01*
X136795741Y-134677314D01*
X136766468Y-134935863D01*
X120920772Y-134935863D01*
X120864827Y-134800802D01*
X120686199Y-134622173D01*
X120635760Y-134601280D01*
X120641153Y-134593387D01*
X120668063Y-134460500D01*
X120668063Y-134313955D01*
X126626510Y-134313955D01*
X126722980Y-134547428D01*
X126901452Y-134726213D01*
X127134757Y-134823089D01*
X127387375Y-134823310D01*
X127620848Y-134726840D01*
X127799633Y-134548368D01*
X127896509Y-134315063D01*
X127896730Y-134062445D01*
X127800260Y-133828972D01*
X127731240Y-133759831D01*
X127731240Y-132924988D01*
X127807253Y-132849108D01*
X127890770Y-132647974D01*
X136298234Y-132647974D01*
X136373231Y-133025009D01*
X136586804Y-133344644D01*
X136974856Y-133732696D01*
X137294491Y-133946269D01*
X137671526Y-134021266D01*
X138048561Y-133946269D01*
X138368196Y-133732696D01*
X138581769Y-133413061D01*
X138656766Y-133036026D01*
X138581769Y-132658991D01*
X138513781Y-132557240D01*
X139021894Y-132557240D01*
X139398929Y-132482243D01*
X139718564Y-132268670D01*
X139932137Y-131949035D01*
X140007134Y-131572000D01*
X139932137Y-131194965D01*
X139718564Y-130875330D01*
X139398929Y-130661757D01*
X139021894Y-130586760D01*
X138857741Y-130586760D01*
X138881275Y-130546323D01*
X138949085Y-130044758D01*
X138819792Y-129555423D01*
X138763752Y-129476086D01*
X138535684Y-129423421D01*
X137657105Y-130302000D01*
X137671248Y-130316143D01*
X137491643Y-130495748D01*
X137477500Y-130481605D01*
X136598921Y-131360184D01*
X136651586Y-131588252D01*
X136730923Y-131644292D01*
X137008059Y-131717517D01*
X136906439Y-131737731D01*
X136586804Y-131951304D01*
X136373231Y-132270939D01*
X136298234Y-132647974D01*
X127890770Y-132647974D01*
X127904129Y-132615803D01*
X127904350Y-132363185D01*
X127807880Y-132129712D01*
X127629408Y-131950927D01*
X127396103Y-131854051D01*
X127143485Y-131853830D01*
X126910012Y-131950300D01*
X126731227Y-132128772D01*
X126634351Y-132362077D01*
X126634130Y-132614695D01*
X126730600Y-132848168D01*
X126807240Y-132924942D01*
X126807240Y-133744545D01*
X126723607Y-133828032D01*
X126626731Y-134061337D01*
X126626510Y-134313955D01*
X120668063Y-134313955D01*
X120668063Y-133660500D01*
X120644704Y-133536356D01*
X120571335Y-133422338D01*
X120459387Y-133345847D01*
X120326500Y-133318937D01*
X119576500Y-133318937D01*
X119452356Y-133342296D01*
X119338338Y-133415665D01*
X119261847Y-133527613D01*
X119247492Y-133598500D01*
X119068897Y-133598500D01*
X119057204Y-133536356D01*
X118983835Y-133422338D01*
X118871887Y-133345847D01*
X118739000Y-133318937D01*
X117989000Y-133318937D01*
X117864856Y-133342296D01*
X117750838Y-133415665D01*
X117733040Y-133441713D01*
X117665363Y-133413611D01*
X117412745Y-133413390D01*
X117334646Y-133445660D01*
X117251640Y-133244772D01*
X117073168Y-133065987D01*
X116839863Y-132969111D01*
X116587245Y-132968890D01*
X116353772Y-133065360D01*
X116276998Y-133142000D01*
X115371048Y-133142000D01*
X115295168Y-133065987D01*
X115061863Y-132969111D01*
X114809245Y-132968890D01*
X114575772Y-133065360D01*
X114396987Y-133243832D01*
X114300111Y-133477137D01*
X114299890Y-133729755D01*
X105253007Y-133729755D01*
X105085810Y-133660500D01*
X104870250Y-133660500D01*
X104711500Y-133819250D01*
X104457500Y-133819250D01*
X104298750Y-133660500D01*
X104083190Y-133660500D01*
X103849801Y-133757173D01*
X103671173Y-133935802D01*
X103574500Y-134169191D01*
X86573453Y-134169191D01*
X83530517Y-131126255D01*
X84137390Y-131126255D01*
X84233860Y-131359728D01*
X84412332Y-131538513D01*
X84645637Y-131635389D01*
X84898255Y-131635610D01*
X85131728Y-131539140D01*
X85208502Y-131462500D01*
X86558841Y-131462500D01*
X86571332Y-131475013D01*
X86804637Y-131571889D01*
X87057255Y-131572110D01*
X87290728Y-131475640D01*
X87469513Y-131297168D01*
X87566389Y-131063863D01*
X87566610Y-130811245D01*
X87470140Y-130577772D01*
X87291668Y-130398987D01*
X87058363Y-130302111D01*
X86805745Y-130301890D01*
X86572272Y-130398360D01*
X86431886Y-130538500D01*
X85208548Y-130538500D01*
X85132668Y-130462487D01*
X84899363Y-130365611D01*
X84646745Y-130365390D01*
X84413272Y-130461860D01*
X84234487Y-130640332D01*
X84137611Y-130873637D01*
X84137390Y-131126255D01*
X83530517Y-131126255D01*
X82215381Y-129811119D01*
X82108834Y-129739393D01*
X81978500Y-129713000D01*
X76090500Y-129713000D01*
X76090500Y-129475255D01*
X88074390Y-129475255D01*
X88170860Y-129708728D01*
X88349332Y-129887513D01*
X88582637Y-129984389D01*
X88835255Y-129984610D01*
X89068728Y-129888140D01*
X89145502Y-129811500D01*
X90622952Y-129811500D01*
X90698832Y-129887513D01*
X90932137Y-129984389D01*
X91184755Y-129984610D01*
X91418228Y-129888140D01*
X91597013Y-129709668D01*
X91664973Y-129546000D01*
X105505937Y-129546000D01*
X105505937Y-130296000D01*
X105529296Y-130420144D01*
X105602665Y-130534162D01*
X105714613Y-130610653D01*
X105785500Y-130625008D01*
X105785500Y-130822000D01*
X105820668Y-130998800D01*
X105858097Y-131054816D01*
X105920817Y-131148683D01*
X106171984Y-131399850D01*
X106171890Y-131507255D01*
X106268360Y-131740728D01*
X106446832Y-131919513D01*
X106680137Y-132016389D01*
X106932755Y-132016610D01*
X107166228Y-131920140D01*
X107345013Y-131741668D01*
X107441889Y-131508363D01*
X107442110Y-131255745D01*
X107345640Y-131022272D01*
X107254528Y-130931000D01*
X107461750Y-130931000D01*
X107620500Y-130772250D01*
X107620500Y-130048000D01*
X107874500Y-130048000D01*
X107874500Y-130772250D01*
X108033250Y-130931000D01*
X108273809Y-130931000D01*
X108507198Y-130834327D01*
X108685827Y-130655699D01*
X108782500Y-130422310D01*
X108782500Y-130206750D01*
X108623750Y-130048000D01*
X107874500Y-130048000D01*
X107620500Y-130048000D01*
X107600500Y-130048000D01*
X107600500Y-129794000D01*
X107620500Y-129794000D01*
X107620500Y-129069750D01*
X107874500Y-129069750D01*
X107874500Y-129794000D01*
X108623750Y-129794000D01*
X108782500Y-129635250D01*
X108782500Y-129546000D01*
X110522437Y-129546000D01*
X110522437Y-130296000D01*
X110545796Y-130420144D01*
X110619165Y-130534162D01*
X110731113Y-130610653D01*
X110802000Y-130625008D01*
X110802000Y-131139500D01*
X110837168Y-131316300D01*
X110923995Y-131446245D01*
X110937317Y-131466183D01*
X111061484Y-131590350D01*
X111061390Y-131697755D01*
X111157860Y-131931228D01*
X111336332Y-132110013D01*
X111569637Y-132206889D01*
X111822255Y-132207110D01*
X112055728Y-132110640D01*
X112234513Y-131932168D01*
X112331389Y-131698863D01*
X112331610Y-131446245D01*
X112235140Y-131212772D01*
X112056668Y-131033987D01*
X111823363Y-130937111D01*
X111726000Y-130937026D01*
X111726000Y-130625897D01*
X111788144Y-130614204D01*
X111804204Y-130603869D01*
X111825673Y-130655699D01*
X112004302Y-130834327D01*
X112237691Y-130931000D01*
X112478250Y-130931000D01*
X112637000Y-130772250D01*
X112637000Y-130048000D01*
X112891000Y-130048000D01*
X112891000Y-130772250D01*
X113049750Y-130931000D01*
X113290309Y-130931000D01*
X113523698Y-130834327D01*
X113702327Y-130655699D01*
X113799000Y-130422310D01*
X113799000Y-130206750D01*
X113640250Y-130048000D01*
X112891000Y-130048000D01*
X112637000Y-130048000D01*
X112617000Y-130048000D01*
X112617000Y-129794000D01*
X112637000Y-129794000D01*
X112637000Y-129069750D01*
X112891000Y-129069750D01*
X112891000Y-129794000D01*
X113640250Y-129794000D01*
X113799000Y-129635250D01*
X113799000Y-129419690D01*
X113702327Y-129186301D01*
X113523698Y-129007673D01*
X113290309Y-128911000D01*
X113049750Y-128911000D01*
X112891000Y-129069750D01*
X112637000Y-129069750D01*
X112478250Y-128911000D01*
X112237691Y-128911000D01*
X112004302Y-129007673D01*
X111825673Y-129186301D01*
X111804780Y-129236740D01*
X111796887Y-129231347D01*
X111664000Y-129204437D01*
X110864000Y-129204437D01*
X110739856Y-129227796D01*
X110625838Y-129301165D01*
X110549347Y-129413113D01*
X110522437Y-129546000D01*
X108782500Y-129546000D01*
X108782500Y-129419690D01*
X108685827Y-129186301D01*
X108507198Y-129007673D01*
X108273809Y-128911000D01*
X108033250Y-128911000D01*
X107874500Y-129069750D01*
X107620500Y-129069750D01*
X107461750Y-128911000D01*
X107221191Y-128911000D01*
X106987802Y-129007673D01*
X106809173Y-129186301D01*
X106788280Y-129236740D01*
X106780387Y-129231347D01*
X106647500Y-129204437D01*
X105847500Y-129204437D01*
X105723356Y-129227796D01*
X105609338Y-129301165D01*
X105532847Y-129413113D01*
X105505937Y-129546000D01*
X91664973Y-129546000D01*
X91693889Y-129476363D01*
X91694110Y-129223745D01*
X91597640Y-128990272D01*
X91419168Y-128811487D01*
X91185863Y-128714611D01*
X90933245Y-128714390D01*
X90699772Y-128810860D01*
X90622998Y-128887500D01*
X89145548Y-128887500D01*
X89069668Y-128811487D01*
X88836363Y-128714611D01*
X88583745Y-128714390D01*
X88350272Y-128810860D01*
X88171487Y-128989332D01*
X88074611Y-129222637D01*
X88074390Y-129475255D01*
X76090500Y-129475255D01*
X76090500Y-125412500D01*
X76067590Y-125290742D01*
X75995631Y-125178914D01*
X75885834Y-125103893D01*
X75755500Y-125077500D01*
X64262000Y-125077500D01*
X64140242Y-125100410D01*
X64028414Y-125172369D01*
X63953393Y-125282166D01*
X63927000Y-125412500D01*
X63927000Y-159303596D01*
X63920240Y-159303590D01*
X63049954Y-159663185D01*
X62383525Y-160328452D01*
X62327000Y-160464579D01*
X62327000Y-124587000D01*
X84899500Y-124587000D01*
X84899500Y-127952500D01*
X84908185Y-127998659D01*
X84935465Y-128041053D01*
X84977090Y-128069494D01*
X85026500Y-128079500D01*
X91694000Y-128079500D01*
X91740159Y-128070815D01*
X91782553Y-128043535D01*
X91810994Y-128001910D01*
X91821000Y-127952500D01*
X91821000Y-127895000D01*
X115475437Y-127895000D01*
X115475437Y-128645000D01*
X115498796Y-128769144D01*
X115572165Y-128883162D01*
X115684113Y-128959653D01*
X115755000Y-128974008D01*
X115755000Y-129152603D01*
X115692856Y-129164296D01*
X115578838Y-129237665D01*
X115502347Y-129349613D01*
X115475437Y-129482500D01*
X115475437Y-130232500D01*
X115498796Y-130356644D01*
X115572165Y-130470662D01*
X115684113Y-130547153D01*
X115755000Y-130561508D01*
X115755000Y-131885973D01*
X115666987Y-131973832D01*
X115570111Y-132207137D01*
X115569890Y-132459755D01*
X115666360Y-132693228D01*
X115844832Y-132872013D01*
X116078137Y-132968889D01*
X116330755Y-132969110D01*
X116564228Y-132872640D01*
X116743013Y-132694168D01*
X116839889Y-132460863D01*
X116840110Y-132208245D01*
X116743640Y-131974772D01*
X116679000Y-131910019D01*
X116679000Y-131585937D01*
X129017328Y-131585937D01*
X129085317Y-131826880D01*
X129604411Y-132011621D01*
X130154688Y-131983650D01*
X130533163Y-131826880D01*
X130601152Y-131585937D01*
X129809240Y-130794025D01*
X129017328Y-131585937D01*
X116679000Y-131585937D01*
X116679000Y-130562397D01*
X116741144Y-130550704D01*
X116757204Y-130540369D01*
X116778673Y-130592199D01*
X116957302Y-130770827D01*
X117190691Y-130867500D01*
X117431250Y-130867500D01*
X117590000Y-130708750D01*
X117590000Y-129984500D01*
X117844000Y-129984500D01*
X117844000Y-130708750D01*
X118002750Y-130867500D01*
X118243309Y-130867500D01*
X118476698Y-130770827D01*
X118655327Y-130592199D01*
X118730965Y-130409591D01*
X128412039Y-130409591D01*
X128440010Y-130959868D01*
X128596780Y-131338343D01*
X128837723Y-131406332D01*
X129629635Y-130614420D01*
X129988845Y-130614420D01*
X130780757Y-131406332D01*
X131021700Y-131338343D01*
X131206441Y-130819249D01*
X131193225Y-130559242D01*
X136005915Y-130559242D01*
X136135208Y-131048577D01*
X136191248Y-131127914D01*
X136419316Y-131180579D01*
X137297895Y-130302000D01*
X136586863Y-129590968D01*
X136328314Y-129620241D01*
X136073725Y-130057677D01*
X136005915Y-130559242D01*
X131193225Y-130559242D01*
X131178470Y-130268972D01*
X131021700Y-129890497D01*
X130780757Y-129822508D01*
X129988845Y-130614420D01*
X129629635Y-130614420D01*
X128837723Y-129822508D01*
X128596780Y-129890497D01*
X128412039Y-130409591D01*
X118730965Y-130409591D01*
X118752000Y-130358810D01*
X118752000Y-130143250D01*
X118593250Y-129984500D01*
X117844000Y-129984500D01*
X117590000Y-129984500D01*
X117570000Y-129984500D01*
X117570000Y-129730500D01*
X117590000Y-129730500D01*
X117590000Y-128397000D01*
X117844000Y-128397000D01*
X117844000Y-129730500D01*
X118593250Y-129730500D01*
X118752000Y-129571750D01*
X118752000Y-129356190D01*
X118655327Y-129122801D01*
X118596276Y-129063750D01*
X118614089Y-129045937D01*
X129017328Y-129045937D01*
X129085317Y-129286880D01*
X129234751Y-129340062D01*
X129085317Y-129401960D01*
X129017328Y-129642903D01*
X129809240Y-130434815D01*
X130601152Y-129642903D01*
X130535817Y-129411363D01*
X136766468Y-129411363D01*
X137477500Y-130122395D01*
X138356079Y-129243816D01*
X138303414Y-129015748D01*
X138224077Y-128959708D01*
X137734742Y-128830415D01*
X137233177Y-128898225D01*
X136795741Y-129152814D01*
X136766468Y-129411363D01*
X130535817Y-129411363D01*
X130533163Y-129401960D01*
X130383729Y-129348778D01*
X130533163Y-129286880D01*
X130601152Y-129045937D01*
X129809240Y-128254025D01*
X129017328Y-129045937D01*
X118614089Y-129045937D01*
X118655327Y-129004699D01*
X118752000Y-128771310D01*
X118752000Y-128555750D01*
X118593250Y-128397000D01*
X117844000Y-128397000D01*
X117590000Y-128397000D01*
X117570000Y-128397000D01*
X117570000Y-128143000D01*
X117590000Y-128143000D01*
X117590000Y-127418750D01*
X117844000Y-127418750D01*
X117844000Y-128143000D01*
X118593250Y-128143000D01*
X118752000Y-127984250D01*
X118752000Y-127869591D01*
X128412039Y-127869591D01*
X128440010Y-128419868D01*
X128596780Y-128798343D01*
X128837723Y-128866332D01*
X129629635Y-128074420D01*
X129988845Y-128074420D01*
X130780757Y-128866332D01*
X131021700Y-128798343D01*
X131206441Y-128279249D01*
X131178470Y-127728972D01*
X131021700Y-127350497D01*
X130938289Y-127326960D01*
X132405757Y-127326960D01*
X132405757Y-128826960D01*
X132429116Y-128951104D01*
X132502485Y-129065122D01*
X132614433Y-129141613D01*
X132747320Y-129168523D01*
X134247320Y-129168523D01*
X134371464Y-129145164D01*
X134485482Y-129071795D01*
X134561973Y-128959847D01*
X134588883Y-128826960D01*
X134588883Y-127633755D01*
X140906390Y-127633755D01*
X141002860Y-127867228D01*
X141079500Y-127944002D01*
X141079500Y-128341952D01*
X141003487Y-128417832D01*
X140906611Y-128651137D01*
X140906390Y-128903755D01*
X141002860Y-129137228D01*
X141181332Y-129316013D01*
X141414637Y-129412889D01*
X141667255Y-129413110D01*
X141900728Y-129316640D01*
X142079513Y-129138168D01*
X142176389Y-128904863D01*
X142176610Y-128652245D01*
X142080140Y-128418772D01*
X142003500Y-128341998D01*
X142003500Y-127944048D01*
X142079513Y-127868168D01*
X142176389Y-127634863D01*
X142176610Y-127382245D01*
X142080140Y-127148772D01*
X141901668Y-126969987D01*
X141668363Y-126873111D01*
X141415745Y-126872890D01*
X141182272Y-126969360D01*
X141003487Y-127147832D01*
X140906611Y-127381137D01*
X140906390Y-127633755D01*
X134588883Y-127633755D01*
X134588883Y-127326960D01*
X134565524Y-127202816D01*
X134492155Y-127088798D01*
X134380207Y-127012307D01*
X134247320Y-126985397D01*
X132747320Y-126985397D01*
X132623176Y-127008756D01*
X132509158Y-127082125D01*
X132432667Y-127194073D01*
X132405757Y-127326960D01*
X130938289Y-127326960D01*
X130780757Y-127282508D01*
X129988845Y-128074420D01*
X129629635Y-128074420D01*
X128837723Y-127282508D01*
X128596780Y-127350497D01*
X128412039Y-127869591D01*
X118752000Y-127869591D01*
X118752000Y-127768690D01*
X118655327Y-127535301D01*
X118476698Y-127356673D01*
X118243309Y-127260000D01*
X118002750Y-127260000D01*
X117844000Y-127418750D01*
X117590000Y-127418750D01*
X117431250Y-127260000D01*
X117190691Y-127260000D01*
X116957302Y-127356673D01*
X116778673Y-127535301D01*
X116757780Y-127585740D01*
X116749887Y-127580347D01*
X116617000Y-127553437D01*
X115817000Y-127553437D01*
X115692856Y-127576796D01*
X115578838Y-127650165D01*
X115502347Y-127762113D01*
X115475437Y-127895000D01*
X91821000Y-127895000D01*
X91821000Y-127102903D01*
X129017328Y-127102903D01*
X129809240Y-127894815D01*
X130601152Y-127102903D01*
X130533163Y-126861960D01*
X130014069Y-126677219D01*
X129463792Y-126705190D01*
X129085317Y-126861960D01*
X129017328Y-127102903D01*
X91821000Y-127102903D01*
X91821000Y-124784420D01*
X128717677Y-124784420D01*
X128717677Y-126284420D01*
X128741036Y-126408564D01*
X128814405Y-126522582D01*
X128926353Y-126599073D01*
X129059240Y-126625983D01*
X130559240Y-126625983D01*
X130683384Y-126602624D01*
X130797402Y-126529255D01*
X130873893Y-126417307D01*
X130900803Y-126284420D01*
X130900803Y-125751833D01*
X132412132Y-125751833D01*
X132576966Y-126150760D01*
X132881915Y-126456242D01*
X133280553Y-126621771D01*
X133712193Y-126622148D01*
X134111120Y-126457314D01*
X134416602Y-126152365D01*
X134582131Y-125753727D01*
X134582508Y-125322087D01*
X134417674Y-124923160D01*
X134112725Y-124617678D01*
X133714087Y-124452149D01*
X133282447Y-124451772D01*
X132883520Y-124616606D01*
X132578038Y-124921555D01*
X132412509Y-125320193D01*
X132412132Y-125751833D01*
X130900803Y-125751833D01*
X130900803Y-124784420D01*
X130877444Y-124660276D01*
X130804075Y-124546258D01*
X130692127Y-124469767D01*
X130559240Y-124442857D01*
X129059240Y-124442857D01*
X128935096Y-124466216D01*
X128821078Y-124539585D01*
X128744587Y-124651533D01*
X128717677Y-124784420D01*
X91821000Y-124784420D01*
X91821000Y-124587000D01*
X91812315Y-124540841D01*
X91785035Y-124498447D01*
X91743410Y-124470006D01*
X91694000Y-124460000D01*
X85026500Y-124460000D01*
X84980341Y-124468685D01*
X84937947Y-124495965D01*
X84909506Y-124537590D01*
X84899500Y-124587000D01*
X62327000Y-124587000D01*
X62327000Y-121960018D01*
X105100400Y-121960018D01*
X105100400Y-122006982D01*
X105191638Y-122465666D01*
X105451462Y-122854520D01*
X105840316Y-123114344D01*
X106299000Y-123205582D01*
X106757684Y-123114344D01*
X107146538Y-122854520D01*
X107406362Y-122465666D01*
X107497600Y-122006982D01*
X107497600Y-121960018D01*
X107640400Y-121960018D01*
X107640400Y-122006982D01*
X107731638Y-122465666D01*
X107991462Y-122854520D01*
X108380316Y-123114344D01*
X108839000Y-123205582D01*
X109297684Y-123114344D01*
X109686538Y-122854520D01*
X109946362Y-122465666D01*
X110037600Y-122006982D01*
X110037600Y-121960018D01*
X110180400Y-121960018D01*
X110180400Y-122006982D01*
X110271638Y-122465666D01*
X110531462Y-122854520D01*
X110920316Y-123114344D01*
X111379000Y-123205582D01*
X111837684Y-123114344D01*
X112226538Y-122854520D01*
X112486362Y-122465666D01*
X112577600Y-122006982D01*
X112577600Y-121960018D01*
X112486362Y-121501334D01*
X112226538Y-121112480D01*
X111837684Y-120852656D01*
X111379000Y-120761418D01*
X110920316Y-120852656D01*
X110531462Y-121112480D01*
X110271638Y-121501334D01*
X110180400Y-121960018D01*
X110037600Y-121960018D01*
X109946362Y-121501334D01*
X109686538Y-121112480D01*
X109297684Y-120852656D01*
X108839000Y-120761418D01*
X108380316Y-120852656D01*
X107991462Y-121112480D01*
X107731638Y-121501334D01*
X107640400Y-121960018D01*
X107497600Y-121960018D01*
X107406362Y-121501334D01*
X107146538Y-121112480D01*
X106757684Y-120852656D01*
X106299000Y-120761418D01*
X105840316Y-120852656D01*
X105451462Y-121112480D01*
X105191638Y-121501334D01*
X105100400Y-121960018D01*
X62327000Y-121960018D01*
X62327000Y-121093255D01*
X70738890Y-121093255D01*
X70835360Y-121326728D01*
X71013832Y-121505513D01*
X71247137Y-121602389D01*
X71499755Y-121602610D01*
X71733228Y-121506140D01*
X71912013Y-121327668D01*
X72008889Y-121094363D01*
X72009110Y-120841745D01*
X71963583Y-120731563D01*
X72103500Y-120731563D01*
X72227644Y-120708204D01*
X72243704Y-120697869D01*
X72265173Y-120749699D01*
X72443802Y-120928327D01*
X72677191Y-121025000D01*
X72917750Y-121025000D01*
X73076500Y-120866250D01*
X73076500Y-120142000D01*
X73330500Y-120142000D01*
X73330500Y-120866250D01*
X73489250Y-121025000D01*
X73729809Y-121025000D01*
X73963198Y-120928327D01*
X74141827Y-120749699D01*
X74238500Y-120516310D01*
X74238500Y-120300750D01*
X74079750Y-120142000D01*
X73330500Y-120142000D01*
X73076500Y-120142000D01*
X73056500Y-120142000D01*
X73056500Y-119888000D01*
X73076500Y-119888000D01*
X73076500Y-119163750D01*
X73330500Y-119163750D01*
X73330500Y-119888000D01*
X74079750Y-119888000D01*
X74238500Y-119729250D01*
X74238500Y-119513690D01*
X74141827Y-119280301D01*
X73963198Y-119101673D01*
X73729809Y-119005000D01*
X73489250Y-119005000D01*
X73330500Y-119163750D01*
X73076500Y-119163750D01*
X72917750Y-119005000D01*
X72677191Y-119005000D01*
X72443802Y-119101673D01*
X72265173Y-119280301D01*
X72244280Y-119330740D01*
X72236387Y-119325347D01*
X72103500Y-119298437D01*
X71303500Y-119298437D01*
X71179356Y-119321796D01*
X71065338Y-119395165D01*
X70988847Y-119507113D01*
X70961937Y-119640000D01*
X70961937Y-120145597D01*
X70947168Y-120167700D01*
X70912000Y-120344500D01*
X70912000Y-120531452D01*
X70835987Y-120607332D01*
X70739111Y-120840637D01*
X70738890Y-121093255D01*
X62327000Y-121093255D01*
X62327000Y-118785018D01*
X82811900Y-118785018D01*
X82811900Y-118831982D01*
X82903138Y-119290666D01*
X83162962Y-119679520D01*
X83551816Y-119939344D01*
X84010500Y-120030582D01*
X84469184Y-119939344D01*
X84858038Y-119679520D01*
X85117862Y-119290666D01*
X85209100Y-118831982D01*
X85209100Y-118785018D01*
X85351900Y-118785018D01*
X85351900Y-118831982D01*
X85443138Y-119290666D01*
X85702962Y-119679520D01*
X86091816Y-119939344D01*
X86550500Y-120030582D01*
X87009184Y-119939344D01*
X87398038Y-119679520D01*
X87657862Y-119290666D01*
X87749100Y-118831982D01*
X87749100Y-118785018D01*
X87891900Y-118785018D01*
X87891900Y-118831982D01*
X87983138Y-119290666D01*
X88242962Y-119679520D01*
X88631816Y-119939344D01*
X89090500Y-120030582D01*
X89549184Y-119939344D01*
X89938038Y-119679520D01*
X90197862Y-119290666D01*
X90289100Y-118831982D01*
X90289100Y-118785018D01*
X90431900Y-118785018D01*
X90431900Y-118831982D01*
X90523138Y-119290666D01*
X90782962Y-119679520D01*
X91171816Y-119939344D01*
X91630500Y-120030582D01*
X92089184Y-119939344D01*
X92478038Y-119679520D01*
X92737862Y-119290666D01*
X92748404Y-119237666D01*
X92963679Y-119696990D01*
X93395553Y-120091188D01*
X93811474Y-120263458D01*
X94043500Y-120142317D01*
X94043500Y-118935500D01*
X94297500Y-118935500D01*
X94297500Y-120142317D01*
X94529526Y-120263458D01*
X94945447Y-120091188D01*
X95377321Y-119696990D01*
X95507131Y-119420018D01*
X105100400Y-119420018D01*
X105100400Y-119466982D01*
X105191638Y-119925666D01*
X105451462Y-120314520D01*
X105840316Y-120574344D01*
X106299000Y-120665582D01*
X106757684Y-120574344D01*
X107146538Y-120314520D01*
X107406362Y-119925666D01*
X107497600Y-119466982D01*
X107497600Y-119420018D01*
X107640400Y-119420018D01*
X107640400Y-119466982D01*
X107731638Y-119925666D01*
X107991462Y-120314520D01*
X108380316Y-120574344D01*
X108839000Y-120665582D01*
X109297684Y-120574344D01*
X109686538Y-120314520D01*
X109946362Y-119925666D01*
X110037600Y-119466982D01*
X110037600Y-119420018D01*
X110180400Y-119420018D01*
X110180400Y-119466982D01*
X110271638Y-119925666D01*
X110531462Y-120314520D01*
X110920316Y-120574344D01*
X111379000Y-120665582D01*
X111837684Y-120574344D01*
X112226538Y-120314520D01*
X112486362Y-119925666D01*
X112577600Y-119466982D01*
X112577600Y-119420018D01*
X112720400Y-119420018D01*
X112720400Y-119466982D01*
X112811638Y-119925666D01*
X113071462Y-120314520D01*
X113460316Y-120574344D01*
X113919000Y-120665582D01*
X114377684Y-120574344D01*
X114766538Y-120314520D01*
X115026362Y-119925666D01*
X115117600Y-119466982D01*
X115117600Y-119420018D01*
X115026362Y-118961334D01*
X114766538Y-118572480D01*
X114377684Y-118312656D01*
X113919000Y-118221418D01*
X113460316Y-118312656D01*
X113071462Y-118572480D01*
X112811638Y-118961334D01*
X112720400Y-119420018D01*
X112577600Y-119420018D01*
X112486362Y-118961334D01*
X112226538Y-118572480D01*
X111837684Y-118312656D01*
X111379000Y-118221418D01*
X110920316Y-118312656D01*
X110531462Y-118572480D01*
X110271638Y-118961334D01*
X110180400Y-119420018D01*
X110037600Y-119420018D01*
X109946362Y-118961334D01*
X109686538Y-118572480D01*
X109297684Y-118312656D01*
X108839000Y-118221418D01*
X108380316Y-118312656D01*
X107991462Y-118572480D01*
X107731638Y-118961334D01*
X107640400Y-119420018D01*
X107497600Y-119420018D01*
X107406362Y-118961334D01*
X107146538Y-118572480D01*
X106757684Y-118312656D01*
X106299000Y-118221418D01*
X105840316Y-118312656D01*
X105451462Y-118572480D01*
X105191638Y-118961334D01*
X105100400Y-119420018D01*
X95507131Y-119420018D01*
X95625468Y-119167527D01*
X95504969Y-118935500D01*
X94297500Y-118935500D01*
X94043500Y-118935500D01*
X94023500Y-118935500D01*
X94023500Y-118681500D01*
X94043500Y-118681500D01*
X94043500Y-118661500D01*
X94297500Y-118661500D01*
X94297500Y-118681500D01*
X95504969Y-118681500D01*
X95625468Y-118449473D01*
X95377321Y-117920010D01*
X95236261Y-117791255D01*
X107187890Y-117791255D01*
X107284360Y-118024728D01*
X107462832Y-118203513D01*
X107696137Y-118300389D01*
X107948755Y-118300610D01*
X108182228Y-118204140D01*
X108259002Y-118127500D01*
X114743634Y-118127500D01*
X115253837Y-118637703D01*
X115253837Y-120307100D01*
X115277196Y-120431244D01*
X115350565Y-120545262D01*
X115462513Y-120621753D01*
X115595400Y-120648663D01*
X115809959Y-120648663D01*
X115684053Y-120700812D01*
X115252179Y-121095010D01*
X115036904Y-121554334D01*
X115026362Y-121501334D01*
X114766538Y-121112480D01*
X114377684Y-120852656D01*
X113919000Y-120761418D01*
X113460316Y-120852656D01*
X113071462Y-121112480D01*
X112811638Y-121501334D01*
X112720400Y-121960018D01*
X112720400Y-122006982D01*
X112811638Y-122465666D01*
X113071462Y-122854520D01*
X113460316Y-123114344D01*
X113919000Y-123205582D01*
X114377684Y-123114344D01*
X114766538Y-122854520D01*
X115026362Y-122465666D01*
X115036904Y-122412666D01*
X115252179Y-122871990D01*
X115684053Y-123266188D01*
X116099974Y-123438458D01*
X116332000Y-123317317D01*
X116332000Y-122110500D01*
X116586000Y-122110500D01*
X116586000Y-123317317D01*
X116818026Y-123438458D01*
X117233947Y-123266188D01*
X117665821Y-122871990D01*
X117913968Y-122342527D01*
X117793469Y-122110500D01*
X116586000Y-122110500D01*
X116332000Y-122110500D01*
X116312000Y-122110500D01*
X116312000Y-121856500D01*
X116332000Y-121856500D01*
X116332000Y-121836500D01*
X116586000Y-121836500D01*
X116586000Y-121856500D01*
X117793469Y-121856500D01*
X117913968Y-121624473D01*
X117665821Y-121095010D01*
X117473811Y-120919750D01*
X138709500Y-120919750D01*
X138709500Y-121360309D01*
X138806173Y-121593698D01*
X138984801Y-121772327D01*
X139218190Y-121869000D01*
X139858750Y-121869000D01*
X140017500Y-121710250D01*
X140017500Y-120761000D01*
X140271500Y-120761000D01*
X140271500Y-121710250D01*
X140430250Y-121869000D01*
X141070810Y-121869000D01*
X141304199Y-121772327D01*
X141482827Y-121593698D01*
X141579500Y-121360309D01*
X141579500Y-120919750D01*
X141420750Y-120761000D01*
X140271500Y-120761000D01*
X140017500Y-120761000D01*
X138868250Y-120761000D01*
X138709500Y-120919750D01*
X117473811Y-120919750D01*
X117233947Y-120700812D01*
X117108041Y-120648663D01*
X117322600Y-120648663D01*
X117446744Y-120625304D01*
X117560762Y-120551935D01*
X117637253Y-120439987D01*
X117664163Y-120307100D01*
X117664163Y-119907691D01*
X138709500Y-119907691D01*
X138709500Y-120348250D01*
X138868250Y-120507000D01*
X140017500Y-120507000D01*
X140017500Y-120487000D01*
X140271500Y-120487000D01*
X140271500Y-120507000D01*
X141420750Y-120507000D01*
X141579500Y-120348250D01*
X141579500Y-119907691D01*
X141482827Y-119674302D01*
X141304199Y-119495673D01*
X141200505Y-119452721D01*
X141259153Y-119366887D01*
X141286063Y-119234000D01*
X141286063Y-118034000D01*
X141262704Y-117909856D01*
X141189335Y-117795838D01*
X141077387Y-117719347D01*
X140944500Y-117692437D01*
X139344500Y-117692437D01*
X139220356Y-117715796D01*
X139106338Y-117789165D01*
X139029847Y-117901113D01*
X139002937Y-118034000D01*
X139002937Y-119234000D01*
X139026296Y-119358144D01*
X139087437Y-119453160D01*
X138984801Y-119495673D01*
X138806173Y-119674302D01*
X138709500Y-119907691D01*
X117664163Y-119907691D01*
X117664163Y-118579900D01*
X117640804Y-118455756D01*
X117567435Y-118341738D01*
X117455487Y-118265247D01*
X117322600Y-118238337D01*
X116161204Y-118238337D01*
X115261683Y-117338817D01*
X115211569Y-117305332D01*
X115111800Y-117238668D01*
X114935000Y-117203500D01*
X108259048Y-117203500D01*
X108183168Y-117127487D01*
X107949863Y-117030611D01*
X107697245Y-117030390D01*
X107463772Y-117126860D01*
X107284987Y-117305332D01*
X107188111Y-117538637D01*
X107187890Y-117791255D01*
X95236261Y-117791255D01*
X94945447Y-117525812D01*
X94819541Y-117473663D01*
X95034100Y-117473663D01*
X95158244Y-117450304D01*
X95272262Y-117376935D01*
X95348753Y-117264987D01*
X95375663Y-117132100D01*
X95375663Y-115404900D01*
X95352304Y-115280756D01*
X95278935Y-115166738D01*
X95231992Y-115134663D01*
X106278943Y-115134663D01*
X106377542Y-115401465D01*
X106987082Y-115627901D01*
X107636877Y-115603841D01*
X108125458Y-115401465D01*
X108224057Y-115134663D01*
X107251500Y-114162105D01*
X106278943Y-115134663D01*
X95231992Y-115134663D01*
X95166987Y-115090247D01*
X95034100Y-115063337D01*
X93306900Y-115063337D01*
X93182756Y-115086696D01*
X93068738Y-115160065D01*
X92992247Y-115272013D01*
X92965337Y-115404900D01*
X92965337Y-117132100D01*
X92988696Y-117256244D01*
X93062065Y-117370262D01*
X93174013Y-117446753D01*
X93306900Y-117473663D01*
X93521459Y-117473663D01*
X93395553Y-117525812D01*
X92963679Y-117920010D01*
X92748404Y-118379334D01*
X92737862Y-118326334D01*
X92478038Y-117937480D01*
X92089184Y-117677656D01*
X91630500Y-117586418D01*
X91171816Y-117677656D01*
X90782962Y-117937480D01*
X90523138Y-118326334D01*
X90431900Y-118785018D01*
X90289100Y-118785018D01*
X90197862Y-118326334D01*
X89938038Y-117937480D01*
X89549184Y-117677656D01*
X89090500Y-117586418D01*
X88631816Y-117677656D01*
X88242962Y-117937480D01*
X87983138Y-118326334D01*
X87891900Y-118785018D01*
X87749100Y-118785018D01*
X87657862Y-118326334D01*
X87398038Y-117937480D01*
X87009184Y-117677656D01*
X86550500Y-117586418D01*
X86091816Y-117677656D01*
X85702962Y-117937480D01*
X85443138Y-118326334D01*
X85351900Y-118785018D01*
X85209100Y-118785018D01*
X85117862Y-118326334D01*
X84858038Y-117937480D01*
X84469184Y-117677656D01*
X84010500Y-117586418D01*
X83551816Y-117677656D01*
X83162962Y-117937480D01*
X82903138Y-118326334D01*
X82811900Y-118785018D01*
X62327000Y-118785018D01*
X62327000Y-116245018D01*
X82811900Y-116245018D01*
X82811900Y-116291982D01*
X82903138Y-116750666D01*
X83162962Y-117139520D01*
X83551816Y-117399344D01*
X84010500Y-117490582D01*
X84469184Y-117399344D01*
X84858038Y-117139520D01*
X85117862Y-116750666D01*
X85209100Y-116291982D01*
X85209100Y-116245018D01*
X85351900Y-116245018D01*
X85351900Y-116291982D01*
X85443138Y-116750666D01*
X85702962Y-117139520D01*
X86091816Y-117399344D01*
X86550500Y-117490582D01*
X87009184Y-117399344D01*
X87398038Y-117139520D01*
X87657862Y-116750666D01*
X87749100Y-116291982D01*
X87749100Y-116245018D01*
X87891900Y-116245018D01*
X87891900Y-116291982D01*
X87983138Y-116750666D01*
X88242962Y-117139520D01*
X88631816Y-117399344D01*
X89090500Y-117490582D01*
X89549184Y-117399344D01*
X89938038Y-117139520D01*
X90197862Y-116750666D01*
X90289100Y-116291982D01*
X90289100Y-116245018D01*
X90431900Y-116245018D01*
X90431900Y-116291982D01*
X90523138Y-116750666D01*
X90782962Y-117139520D01*
X91171816Y-117399344D01*
X91630500Y-117490582D01*
X92089184Y-117399344D01*
X92478038Y-117139520D01*
X92737862Y-116750666D01*
X92829100Y-116291982D01*
X92829100Y-116245018D01*
X92737862Y-115786334D01*
X92478038Y-115397480D01*
X92089184Y-115137656D01*
X91630500Y-115046418D01*
X91171816Y-115137656D01*
X90782962Y-115397480D01*
X90523138Y-115786334D01*
X90431900Y-116245018D01*
X90289100Y-116245018D01*
X90197862Y-115786334D01*
X89938038Y-115397480D01*
X89549184Y-115137656D01*
X89090500Y-115046418D01*
X88631816Y-115137656D01*
X88242962Y-115397480D01*
X87983138Y-115786334D01*
X87891900Y-116245018D01*
X87749100Y-116245018D01*
X87657862Y-115786334D01*
X87398038Y-115397480D01*
X87009184Y-115137656D01*
X86550500Y-115046418D01*
X86091816Y-115137656D01*
X85702962Y-115397480D01*
X85443138Y-115786334D01*
X85351900Y-116245018D01*
X85209100Y-116245018D01*
X85117862Y-115786334D01*
X84858038Y-115397480D01*
X84469184Y-115137656D01*
X84010500Y-115046418D01*
X83551816Y-115137656D01*
X83162962Y-115397480D01*
X82903138Y-115786334D01*
X82811900Y-116245018D01*
X62327000Y-116245018D01*
X62327000Y-113718082D01*
X105606099Y-113718082D01*
X105630159Y-114367877D01*
X105832535Y-114856458D01*
X106099337Y-114955057D01*
X107071895Y-113982500D01*
X107431105Y-113982500D01*
X108403663Y-114955057D01*
X108670465Y-114856458D01*
X108896901Y-114246918D01*
X108872841Y-113597123D01*
X108670465Y-113108542D01*
X108403663Y-113009943D01*
X107431105Y-113982500D01*
X107071895Y-113982500D01*
X106099337Y-113009943D01*
X105832535Y-113108542D01*
X105606099Y-113718082D01*
X62327000Y-113718082D01*
X62327000Y-112830337D01*
X106278943Y-112830337D01*
X107251500Y-113802895D01*
X108071384Y-112983010D01*
X109720447Y-112983010D01*
X109720447Y-114981990D01*
X109743806Y-115106134D01*
X109817175Y-115220152D01*
X109929123Y-115296643D01*
X110062010Y-115323553D01*
X112060990Y-115323553D01*
X112185134Y-115300194D01*
X112299152Y-115226825D01*
X112356256Y-115143250D01*
X118549000Y-115143250D01*
X118549000Y-115235809D01*
X118645673Y-115469198D01*
X118824301Y-115647827D01*
X119057690Y-115744500D01*
X119348250Y-115744500D01*
X119507000Y-115585750D01*
X119507000Y-114984500D01*
X118707750Y-114984500D01*
X118549000Y-115143250D01*
X112356256Y-115143250D01*
X112375643Y-115114877D01*
X112402553Y-114981990D01*
X112402553Y-114483191D01*
X118549000Y-114483191D01*
X118549000Y-114575750D01*
X118707750Y-114734500D01*
X119507000Y-114734500D01*
X119507000Y-114133250D01*
X119348250Y-113974500D01*
X119057690Y-113974500D01*
X118824301Y-114071173D01*
X118645673Y-114249802D01*
X118549000Y-114483191D01*
X112402553Y-114483191D01*
X112402553Y-113109500D01*
X118842437Y-113109500D01*
X118842437Y-113609500D01*
X118865796Y-113733644D01*
X118939165Y-113847662D01*
X119051113Y-113924153D01*
X119184000Y-113951063D01*
X120084000Y-113951063D01*
X120208144Y-113927704D01*
X120322162Y-113854335D01*
X120388447Y-113757324D01*
X120388447Y-114048287D01*
X120210310Y-113974500D01*
X119919750Y-113974500D01*
X119761000Y-114133250D01*
X119761000Y-114734500D01*
X119781000Y-114734500D01*
X119781000Y-114984500D01*
X119761000Y-114984500D01*
X119761000Y-115585750D01*
X119919750Y-115744500D01*
X120210310Y-115744500D01*
X120443699Y-115647827D01*
X120622327Y-115469198D01*
X120710587Y-115256120D01*
X120730010Y-115260053D01*
X122728990Y-115260053D01*
X122853134Y-115236694D01*
X122967152Y-115163325D01*
X123043643Y-115051377D01*
X123070553Y-114918490D01*
X123070553Y-114183282D01*
X124204779Y-114183282D01*
X124407515Y-114673940D01*
X124782585Y-115049666D01*
X125272889Y-115253258D01*
X125803782Y-115253721D01*
X126294440Y-115050985D01*
X126670166Y-114675915D01*
X126873758Y-114185611D01*
X126874221Y-113654718D01*
X126671485Y-113164060D01*
X126296415Y-112788334D01*
X125806111Y-112584742D01*
X125275218Y-112584279D01*
X124784560Y-112787015D01*
X124408834Y-113162085D01*
X124205242Y-113652389D01*
X124204779Y-114183282D01*
X123070553Y-114183282D01*
X123070553Y-112919510D01*
X123047194Y-112795366D01*
X122973825Y-112681348D01*
X122861877Y-112604857D01*
X122728990Y-112577947D01*
X120730010Y-112577947D01*
X120605866Y-112601306D01*
X120491848Y-112674675D01*
X120415357Y-112786623D01*
X120388447Y-112919510D01*
X120388447Y-112963977D01*
X120328835Y-112871338D01*
X120230716Y-112804296D01*
X120268889Y-112712363D01*
X120269110Y-112459745D01*
X120172640Y-112226272D01*
X119994168Y-112047487D01*
X119760863Y-111950611D01*
X119508245Y-111950390D01*
X119274772Y-112046860D01*
X119095987Y-112225332D01*
X118999111Y-112458637D01*
X118998890Y-112711255D01*
X119037821Y-112805475D01*
X118945838Y-112864665D01*
X118869347Y-112976613D01*
X118842437Y-113109500D01*
X112402553Y-113109500D01*
X112402553Y-112983010D01*
X112379194Y-112858866D01*
X112305825Y-112744848D01*
X112193877Y-112668357D01*
X112060990Y-112641447D01*
X110062010Y-112641447D01*
X109937866Y-112664806D01*
X109823848Y-112738175D01*
X109747357Y-112850123D01*
X109720447Y-112983010D01*
X108071384Y-112983010D01*
X108224057Y-112830337D01*
X108125458Y-112563535D01*
X107515918Y-112337099D01*
X106866123Y-112361159D01*
X106377542Y-112563535D01*
X106278943Y-112830337D01*
X62327000Y-112830337D01*
X62327000Y-107696000D01*
X82678337Y-107696000D01*
X82678337Y-109728000D01*
X82701696Y-109852144D01*
X82775065Y-109966162D01*
X82887013Y-110042653D01*
X83019900Y-110069563D01*
X84747100Y-110069563D01*
X84871244Y-110046204D01*
X84985262Y-109972835D01*
X85061753Y-109860887D01*
X85088663Y-109728000D01*
X85088663Y-108533132D01*
X85224900Y-108533132D01*
X85224900Y-108890868D01*
X85316138Y-109349552D01*
X85575962Y-109738406D01*
X85964816Y-109998230D01*
X86423500Y-110089468D01*
X86882184Y-109998230D01*
X87271038Y-109738406D01*
X87530862Y-109349552D01*
X87622100Y-108890868D01*
X87622100Y-108533132D01*
X87764900Y-108533132D01*
X87764900Y-108890868D01*
X87856138Y-109349552D01*
X88115962Y-109738406D01*
X88504816Y-109998230D01*
X88963500Y-110089468D01*
X89422184Y-109998230D01*
X89811038Y-109738406D01*
X90070862Y-109349552D01*
X90162100Y-108890868D01*
X90162100Y-108533132D01*
X90304900Y-108533132D01*
X90304900Y-108890868D01*
X90396138Y-109349552D01*
X90655962Y-109738406D01*
X91044816Y-109998230D01*
X91503500Y-110089468D01*
X91962184Y-109998230D01*
X92351038Y-109738406D01*
X92610862Y-109349552D01*
X92702100Y-108890868D01*
X92702100Y-108533132D01*
X92844900Y-108533132D01*
X92844900Y-108890868D01*
X92936138Y-109349552D01*
X93195962Y-109738406D01*
X93584816Y-109998230D01*
X94043500Y-110089468D01*
X94502184Y-109998230D01*
X94891038Y-109738406D01*
X95150862Y-109349552D01*
X95242100Y-108890868D01*
X95242100Y-108533132D01*
X95384900Y-108533132D01*
X95384900Y-108890868D01*
X95476138Y-109349552D01*
X95735962Y-109738406D01*
X96124816Y-109998230D01*
X96583500Y-110089468D01*
X97042184Y-109998230D01*
X97431038Y-109738406D01*
X97690862Y-109349552D01*
X97782100Y-108890868D01*
X97782100Y-108533132D01*
X97924900Y-108533132D01*
X97924900Y-108890868D01*
X98016138Y-109349552D01*
X98275962Y-109738406D01*
X98664816Y-109998230D01*
X99123500Y-110089468D01*
X99582184Y-109998230D01*
X99971038Y-109738406D01*
X100230862Y-109349552D01*
X100322100Y-108890868D01*
X100322100Y-108533132D01*
X100464900Y-108533132D01*
X100464900Y-108890868D01*
X100556138Y-109349552D01*
X100815962Y-109738406D01*
X101204816Y-109998230D01*
X101663500Y-110089468D01*
X102122184Y-109998230D01*
X102511038Y-109738406D01*
X102770862Y-109349552D01*
X102786766Y-109269598D01*
X102911546Y-109626320D01*
X103301464Y-110062732D01*
X103828709Y-110316709D01*
X103844474Y-110319358D01*
X104076500Y-110198217D01*
X104076500Y-108839000D01*
X104056500Y-108839000D01*
X104056500Y-108585000D01*
X104076500Y-108585000D01*
X104076500Y-108565000D01*
X104330500Y-108565000D01*
X104330500Y-108585000D01*
X104350500Y-108585000D01*
X104350500Y-108839000D01*
X104330500Y-108839000D01*
X104330500Y-110198217D01*
X104562526Y-110319358D01*
X104578291Y-110316709D01*
X105105536Y-110062732D01*
X105495454Y-109626320D01*
X105620234Y-109269598D01*
X105636138Y-109349552D01*
X105895962Y-109738406D01*
X106284816Y-109998230D01*
X106743500Y-110089468D01*
X107202184Y-109998230D01*
X107312528Y-109924500D01*
X112363937Y-109924500D01*
X112363937Y-110674500D01*
X112387296Y-110798644D01*
X112460665Y-110912662D01*
X112572613Y-110989153D01*
X112643500Y-111003508D01*
X112643500Y-111057973D01*
X112555487Y-111145832D01*
X112458611Y-111379137D01*
X112458390Y-111631755D01*
X112554860Y-111865228D01*
X112733332Y-112044013D01*
X112966637Y-112140889D01*
X113219255Y-112141110D01*
X113452728Y-112044640D01*
X113631513Y-111866168D01*
X113728389Y-111632863D01*
X113728610Y-111380245D01*
X113632140Y-111146772D01*
X113567500Y-111082019D01*
X113567500Y-111004397D01*
X113629644Y-110992704D01*
X113645704Y-110982369D01*
X113667173Y-111034199D01*
X113845802Y-111212827D01*
X114079191Y-111309500D01*
X114319750Y-111309500D01*
X114478500Y-111150750D01*
X114478500Y-110426500D01*
X114732500Y-110426500D01*
X114732500Y-111150750D01*
X114891250Y-111309500D01*
X115131809Y-111309500D01*
X115365198Y-111212827D01*
X115543827Y-111034199D01*
X115640500Y-110800810D01*
X115640500Y-110585250D01*
X115481750Y-110426500D01*
X114732500Y-110426500D01*
X114478500Y-110426500D01*
X114458500Y-110426500D01*
X114458500Y-110172500D01*
X114478500Y-110172500D01*
X114478500Y-109448250D01*
X114732500Y-109448250D01*
X114732500Y-110172500D01*
X115481750Y-110172500D01*
X115640500Y-110013750D01*
X115640500Y-109798190D01*
X115543827Y-109564801D01*
X115365198Y-109386173D01*
X115131809Y-109289500D01*
X114891250Y-109289500D01*
X114732500Y-109448250D01*
X114478500Y-109448250D01*
X114319750Y-109289500D01*
X114079191Y-109289500D01*
X113845802Y-109386173D01*
X113667173Y-109564801D01*
X113646280Y-109615240D01*
X113638387Y-109609847D01*
X113505500Y-109582937D01*
X112705500Y-109582937D01*
X112581356Y-109606296D01*
X112467338Y-109679665D01*
X112390847Y-109791613D01*
X112363937Y-109924500D01*
X107312528Y-109924500D01*
X107591038Y-109738406D01*
X107850862Y-109349552D01*
X107942100Y-108890868D01*
X107942100Y-108533132D01*
X107850862Y-108074448D01*
X107591038Y-107685594D01*
X107205500Y-107427986D01*
X107205500Y-107102564D01*
X108034645Y-107102564D01*
X108214614Y-107538122D01*
X108547565Y-107871655D01*
X108982809Y-108052384D01*
X109454084Y-108052795D01*
X109889642Y-107872826D01*
X110223175Y-107539875D01*
X110403904Y-107104631D01*
X110404315Y-106633356D01*
X110224346Y-106197798D01*
X110045192Y-106018330D01*
X118188287Y-106018330D01*
X118188287Y-107717590D01*
X118211646Y-107841734D01*
X118285015Y-107955752D01*
X118396963Y-108032243D01*
X118529850Y-108059153D01*
X120229110Y-108059153D01*
X120353254Y-108035794D01*
X120467272Y-107962425D01*
X120543763Y-107850477D01*
X120570673Y-107717590D01*
X120570673Y-106553000D01*
X129896937Y-106553000D01*
X129896937Y-108585000D01*
X129920296Y-108709144D01*
X129993665Y-108823162D01*
X130105613Y-108899653D01*
X130238500Y-108926563D01*
X132270500Y-108926563D01*
X132394644Y-108903204D01*
X132508662Y-108829835D01*
X132585153Y-108717887D01*
X132595718Y-108665716D01*
X132929682Y-108975385D01*
X133411556Y-109174975D01*
X133667500Y-109055836D01*
X133667500Y-107696000D01*
X133921500Y-107696000D01*
X133921500Y-109055836D01*
X134177444Y-109174975D01*
X134659318Y-108975385D01*
X135131688Y-108537379D01*
X135400483Y-107951946D01*
X135281867Y-107696000D01*
X133921500Y-107696000D01*
X133667500Y-107696000D01*
X133647500Y-107696000D01*
X133647500Y-107442000D01*
X133667500Y-107442000D01*
X133667500Y-106082164D01*
X133921500Y-106082164D01*
X133921500Y-107442000D01*
X135281867Y-107442000D01*
X135400483Y-107186054D01*
X135131688Y-106600621D01*
X134659318Y-106162615D01*
X134177444Y-105963025D01*
X133921500Y-106082164D01*
X133667500Y-106082164D01*
X133411556Y-105963025D01*
X132929682Y-106162615D01*
X132596703Y-106471370D01*
X132588704Y-106428856D01*
X132515335Y-106314838D01*
X132403387Y-106238347D01*
X132270500Y-106211437D01*
X130238500Y-106211437D01*
X130114356Y-106234796D01*
X130000338Y-106308165D01*
X129923847Y-106420113D01*
X129896937Y-106553000D01*
X120570673Y-106553000D01*
X120570673Y-106018330D01*
X120547314Y-105894186D01*
X120473945Y-105780168D01*
X120361997Y-105703677D01*
X120229110Y-105676767D01*
X118529850Y-105676767D01*
X118405706Y-105700126D01*
X118291688Y-105773495D01*
X118215197Y-105885443D01*
X118188287Y-106018330D01*
X110045192Y-106018330D01*
X109891395Y-105864265D01*
X109456151Y-105683536D01*
X108984876Y-105683125D01*
X108549318Y-105863094D01*
X108215785Y-106196045D01*
X108035056Y-106631289D01*
X108034645Y-107102564D01*
X107205500Y-107102564D01*
X107205500Y-106697864D01*
X107315137Y-106743389D01*
X107567755Y-106743610D01*
X107801228Y-106647140D01*
X107980013Y-106468668D01*
X108076889Y-106235363D01*
X108077110Y-105982745D01*
X107980640Y-105749272D01*
X107802168Y-105570487D01*
X107568863Y-105473611D01*
X107316245Y-105473390D01*
X107082772Y-105569860D01*
X107011213Y-105641293D01*
X107005204Y-105609356D01*
X106931835Y-105495338D01*
X106819887Y-105418847D01*
X106687000Y-105391937D01*
X105887000Y-105391937D01*
X105762856Y-105415296D01*
X105746796Y-105425631D01*
X105725327Y-105373801D01*
X105546698Y-105195173D01*
X105313309Y-105098500D01*
X105072750Y-105098500D01*
X104914000Y-105257250D01*
X104914000Y-105981500D01*
X104934000Y-105981500D01*
X104934000Y-106235500D01*
X104914000Y-106235500D01*
X104914000Y-106959750D01*
X105072750Y-107118500D01*
X105313309Y-107118500D01*
X105546698Y-107021827D01*
X105725327Y-106843199D01*
X105746220Y-106792760D01*
X105754113Y-106798153D01*
X105887000Y-106825063D01*
X106281500Y-106825063D01*
X106281500Y-107427986D01*
X105895962Y-107685594D01*
X105636138Y-108074448D01*
X105620234Y-108154402D01*
X105495454Y-107797680D01*
X105105536Y-107361268D01*
X104578291Y-107107291D01*
X104562526Y-107104642D01*
X104330502Y-107225782D01*
X104330502Y-107118500D01*
X104501250Y-107118500D01*
X104660000Y-106959750D01*
X104660000Y-106235500D01*
X103910750Y-106235500D01*
X103752000Y-106394250D01*
X103752000Y-106609810D01*
X103848673Y-106843199D01*
X104027302Y-107021827D01*
X104121874Y-107061000D01*
X104076498Y-107061000D01*
X104076498Y-107225782D01*
X103844474Y-107104642D01*
X103828709Y-107107291D01*
X103301464Y-107361268D01*
X102911546Y-107797680D01*
X102786766Y-108154402D01*
X102770862Y-108074448D01*
X102511038Y-107685594D01*
X102122184Y-107425770D01*
X101663500Y-107334532D01*
X101204816Y-107425770D01*
X100815962Y-107685594D01*
X100556138Y-108074448D01*
X100464900Y-108533132D01*
X100322100Y-108533132D01*
X100230862Y-108074448D01*
X99971038Y-107685594D01*
X99582184Y-107425770D01*
X99123500Y-107334532D01*
X98664816Y-107425770D01*
X98275962Y-107685594D01*
X98016138Y-108074448D01*
X97924900Y-108533132D01*
X97782100Y-108533132D01*
X97690862Y-108074448D01*
X97431038Y-107685594D01*
X97042184Y-107425770D01*
X96583500Y-107334532D01*
X96124816Y-107425770D01*
X95735962Y-107685594D01*
X95476138Y-108074448D01*
X95384900Y-108533132D01*
X95242100Y-108533132D01*
X95150862Y-108074448D01*
X94891038Y-107685594D01*
X94502184Y-107425770D01*
X94043500Y-107334532D01*
X93584816Y-107425770D01*
X93195962Y-107685594D01*
X92936138Y-108074448D01*
X92844900Y-108533132D01*
X92702100Y-108533132D01*
X92610862Y-108074448D01*
X92351038Y-107685594D01*
X91962184Y-107425770D01*
X91503500Y-107334532D01*
X91044816Y-107425770D01*
X90655962Y-107685594D01*
X90396138Y-108074448D01*
X90304900Y-108533132D01*
X90162100Y-108533132D01*
X90070862Y-108074448D01*
X89811038Y-107685594D01*
X89422184Y-107425770D01*
X88963500Y-107334532D01*
X88504816Y-107425770D01*
X88115962Y-107685594D01*
X87856138Y-108074448D01*
X87764900Y-108533132D01*
X87622100Y-108533132D01*
X87530862Y-108074448D01*
X87271038Y-107685594D01*
X86882184Y-107425770D01*
X86423500Y-107334532D01*
X85964816Y-107425770D01*
X85575962Y-107685594D01*
X85316138Y-108074448D01*
X85224900Y-108533132D01*
X85088663Y-108533132D01*
X85088663Y-107696000D01*
X85065304Y-107571856D01*
X84991935Y-107457838D01*
X84879987Y-107381347D01*
X84747100Y-107354437D01*
X83019900Y-107354437D01*
X82895756Y-107377796D01*
X82781738Y-107451165D01*
X82705247Y-107563113D01*
X82678337Y-107696000D01*
X62327000Y-107696000D01*
X62327000Y-106152606D01*
X62872416Y-105607190D01*
X103752000Y-105607190D01*
X103752000Y-105822750D01*
X103910750Y-105981500D01*
X104660000Y-105981500D01*
X104660000Y-105257250D01*
X104501250Y-105098500D01*
X104260691Y-105098500D01*
X104027302Y-105195173D01*
X103848673Y-105373801D01*
X103752000Y-105607190D01*
X62872416Y-105607190D01*
X63452606Y-105027000D01*
X140319190Y-105027000D01*
X139948454Y-105180185D01*
M02*
