G04 #@! TF.FileFunction,Soldermask,Top*
%FSLAX46Y46*%
G04 Gerber Fmt 4.6, Leading zero omitted, Abs format (unit mm)*
G04 Created by KiCad (PCBNEW (2015-08-05 BZR 6055, Git fa29c62)-product) date 10/03/2016 14:30:23*
%MOMM*%
G01*
G04 APERTURE LIST*
%ADD10C,0.100000*%
%ADD11R,0.900000X1.300000*%
%ADD12R,1.300000X0.900000*%
%ADD13C,4.464000*%
%ADD14R,2.127200X2.127200*%
%ADD15O,2.127200X2.127200*%
%ADD16R,1.200000X1.150000*%
%ADD17O,2.200860X1.700480*%
%ADD18C,1.700480*%
%ADD19C,1.901140*%
%ADD20R,0.700000X1.900000*%
%ADD21R,1.900000X0.700000*%
%ADD22R,1.150000X1.200000*%
%ADD23C,2.099260*%
%ADD24R,2.099260X2.099260*%
%ADD25R,1.197560X1.197560*%
%ADD26R,1.700000X1.100000*%
%ADD27R,2.127200X2.432000*%
%ADD28O,2.127200X2.432000*%
%ADD29R,0.806400X1.060400*%
%ADD30R,1.200000X0.750000*%
%ADD31R,2.350000X2.350000*%
%ADD32R,0.750000X1.200000*%
%ADD33R,4.000000X4.000000*%
%ADD34R,0.650000X1.400000*%
%ADD35R,1.400000X0.650000*%
%ADD36R,1.000000X0.650000*%
%ADD37R,1.050000X1.750000*%
%ADD38R,1.200000X0.650000*%
%ADD39R,1.900000X1.900000*%
%ADD40C,1.900000*%
%ADD41R,1.200000X2.080000*%
%ADD42R,2.100000X1.900000*%
%ADD43R,1.800000X1.900000*%
%ADD44R,1.700000X1.700000*%
%ADD45R,1.900000X2.100000*%
%ADD46R,1.700000X1.800000*%
%ADD47R,2.432000X2.432000*%
%ADD48O,2.432000X2.432000*%
%ADD49R,1.300000X1.100000*%
%ADD50C,1.600000*%
%ADD51C,2.398980*%
%ADD52R,2.398980X2.398980*%
%ADD53R,2.000000X1.600000*%
%ADD54R,1.000000X1.500000*%
%ADD55R,1.900000X1.000000*%
%ADD56R,1.200000X1.200000*%
%ADD57O,1.200000X1.200000*%
G04 APERTURE END LIST*
D10*
D11*
X89205500Y-139192000D03*
X87705500Y-139192000D03*
D12*
X90487500Y-125488000D03*
X90487500Y-126988000D03*
X86360000Y-126988000D03*
X86360000Y-125488000D03*
D13*
X141287500Y-161671000D03*
X64389000Y-161671000D03*
X141287500Y-107188000D03*
D14*
X116459000Y-119443500D03*
D15*
X116459000Y-121983500D03*
X113919000Y-119443500D03*
X113919000Y-121983500D03*
X111379000Y-119443500D03*
X111379000Y-121983500D03*
X108839000Y-119443500D03*
X108839000Y-121983500D03*
X106299000Y-119443500D03*
X106299000Y-121983500D03*
D16*
X117971000Y-126301500D03*
X116471000Y-126301500D03*
D14*
X94170500Y-116268500D03*
D15*
X94170500Y-118808500D03*
X91630500Y-116268500D03*
X91630500Y-118808500D03*
X89090500Y-116268500D03*
X89090500Y-118808500D03*
X86550500Y-116268500D03*
X86550500Y-118808500D03*
X84010500Y-116268500D03*
X84010500Y-118808500D03*
D17*
X138747500Y-137096500D03*
D18*
X137654411Y-135649589D02*
X137300589Y-136003411D01*
X137300589Y-138189589D02*
X137654411Y-138543411D01*
D19*
X97881440Y-151574500D03*
X92999560Y-151574500D03*
D20*
X118268000Y-129904500D03*
X117768000Y-129904500D03*
X117268000Y-129904500D03*
X116768000Y-129904500D03*
X116268000Y-129904500D03*
X115768000Y-129904500D03*
X115268000Y-129904500D03*
X114768000Y-129904500D03*
X114268000Y-129904500D03*
X113768000Y-129904500D03*
X113268000Y-129904500D03*
X112768000Y-129904500D03*
X112268000Y-129904500D03*
X111768000Y-129904500D03*
X111268000Y-129904500D03*
X110768000Y-129904500D03*
X110268000Y-129904500D03*
X109768000Y-129904500D03*
X109268000Y-129904500D03*
X108768000Y-129904500D03*
X108268000Y-129904500D03*
X107768000Y-129904500D03*
X107268000Y-129904500D03*
X106768000Y-129904500D03*
X106268000Y-129904500D03*
D21*
X104568000Y-131604500D03*
X104568000Y-132104500D03*
X104568000Y-132604500D03*
X104568000Y-133104500D03*
X104568000Y-133604500D03*
X104568000Y-134104500D03*
X104568000Y-134604500D03*
X104568000Y-135104500D03*
X104568000Y-135604500D03*
X104568000Y-136104500D03*
X104568000Y-136604500D03*
X104568000Y-137104500D03*
X104568000Y-137604500D03*
X104568000Y-138104500D03*
X104568000Y-138604500D03*
X104568000Y-139104500D03*
X104568000Y-139604500D03*
X104568000Y-140104500D03*
X104568000Y-140604500D03*
X104568000Y-141104500D03*
X104568000Y-141604500D03*
X104568000Y-142104500D03*
X104568000Y-142604500D03*
X104568000Y-143104500D03*
X104568000Y-143604500D03*
D20*
X106268000Y-145304500D03*
X106768000Y-145304500D03*
X107268000Y-145304500D03*
X107768000Y-145304500D03*
X108268000Y-145304500D03*
X108768000Y-145304500D03*
X109268000Y-145304500D03*
X109768000Y-145304500D03*
X110268000Y-145304500D03*
X110768000Y-145304500D03*
X111268000Y-145304500D03*
X111768000Y-145304500D03*
X112268000Y-145304500D03*
X112768000Y-145304500D03*
X113268000Y-145304500D03*
X113768000Y-145304500D03*
X114268000Y-145304500D03*
X114768000Y-145304500D03*
X115268000Y-145304500D03*
X115768000Y-145304500D03*
X116268000Y-145304500D03*
X116768000Y-145304500D03*
X117268000Y-145304500D03*
X117768000Y-145304500D03*
X118268000Y-145304500D03*
D21*
X119968000Y-143604500D03*
X119968000Y-143104500D03*
X119968000Y-142604500D03*
X119968000Y-142104500D03*
X119968000Y-141604500D03*
X119968000Y-141104500D03*
X119968000Y-140604500D03*
X119968000Y-140104500D03*
X119968000Y-139604500D03*
X119968000Y-139104500D03*
X119968000Y-138604500D03*
X119968000Y-138104500D03*
X119968000Y-137604500D03*
X119968000Y-137104500D03*
X119968000Y-136604500D03*
X119968000Y-136104500D03*
X119968000Y-135604500D03*
X119968000Y-135104500D03*
X119968000Y-134604500D03*
X119968000Y-134104500D03*
X119968000Y-133604500D03*
X119968000Y-133104500D03*
X119968000Y-132604500D03*
X119968000Y-132104500D03*
X119968000Y-131604500D03*
D22*
X134683500Y-130822000D03*
X134683500Y-132322000D03*
X136140900Y-125425700D03*
X136140900Y-126925700D03*
X140204900Y-126925700D03*
X140204900Y-125425700D03*
D16*
X138922900Y-123762700D03*
X137422900Y-123762700D03*
D22*
X100869750Y-155428250D03*
X100869750Y-156928250D03*
X104870250Y-156928250D03*
X104870250Y-155428250D03*
D16*
X103524750Y-153765250D03*
X102024750Y-153765250D03*
X88443500Y-155130500D03*
X86943500Y-155130500D03*
X111303500Y-149479000D03*
X109803500Y-149479000D03*
D22*
X134683500Y-136346500D03*
X134683500Y-137846500D03*
X122364500Y-136576500D03*
X122364500Y-135076500D03*
X123952000Y-136576500D03*
X123952000Y-135076500D03*
D16*
X124978860Y-126220220D03*
X123478860Y-126220220D03*
X117971000Y-127889000D03*
X116471000Y-127889000D03*
X91515500Y-154813000D03*
X93015500Y-154813000D03*
X95960500Y-154876500D03*
X97460500Y-154876500D03*
X87070500Y-150050500D03*
X88570500Y-150050500D03*
X87070500Y-148463000D03*
X88570500Y-148463000D03*
X93674500Y-146558000D03*
X95174500Y-146558000D03*
X84506500Y-136588500D03*
X83006500Y-136588500D03*
X84506500Y-139890500D03*
X83006500Y-139890500D03*
X84506500Y-143192500D03*
X83006500Y-143192500D03*
X84506500Y-146558000D03*
X83006500Y-146558000D03*
X84506500Y-149796500D03*
X83006500Y-149796500D03*
X84506500Y-153035000D03*
X83006500Y-153035000D03*
D22*
X90741500Y-139243500D03*
X90741500Y-137743500D03*
D16*
X73324000Y-158813500D03*
X71824000Y-158813500D03*
X89205500Y-137604500D03*
X87705500Y-137604500D03*
D22*
X97282000Y-140156500D03*
X97282000Y-141656500D03*
D16*
X112065500Y-147574000D03*
X110565500Y-147574000D03*
D23*
X107317540Y-162052520D03*
D24*
X107317540Y-151892520D03*
D25*
X126079250Y-150539450D03*
X126079250Y-152038050D03*
X127666750Y-150539450D03*
X127666750Y-152038050D03*
X129254250Y-150539450D03*
X129254250Y-152038050D03*
X130841750Y-150539450D03*
X130841750Y-152038050D03*
D26*
X86550500Y-153477000D03*
X86550500Y-151577000D03*
X88646000Y-153477000D03*
X88646000Y-151577000D03*
D14*
X131318000Y-157988000D03*
D15*
X133858000Y-157988000D03*
X131318000Y-160528000D03*
X133858000Y-160528000D03*
D14*
X138049000Y-148209000D03*
D15*
X135509000Y-148209000D03*
X138049000Y-145669000D03*
X135509000Y-145669000D03*
X138049000Y-143129000D03*
X135509000Y-143129000D03*
D14*
X111125000Y-156400500D03*
D15*
X111125000Y-153860500D03*
X113665000Y-156400500D03*
X113665000Y-153860500D03*
X116205000Y-156400500D03*
X116205000Y-153860500D03*
X118745000Y-156400500D03*
X118745000Y-153860500D03*
X121285000Y-156400500D03*
X121285000Y-153860500D03*
D27*
X83883500Y-108712000D03*
D28*
X86423500Y-108712000D03*
X88963500Y-108712000D03*
X91503500Y-108712000D03*
X94043500Y-108712000D03*
X96583500Y-108712000D03*
X99123500Y-108712000D03*
X101663500Y-108712000D03*
X104203500Y-108712000D03*
X106743500Y-108712000D03*
D11*
X109930500Y-151066500D03*
X111430500Y-151066500D03*
D12*
X133032500Y-130822000D03*
X133032500Y-132322000D03*
X133096000Y-136346500D03*
X133096000Y-137846500D03*
X140716000Y-143077500D03*
X140716000Y-144577500D03*
D11*
X123542360Y-124569220D03*
X125042360Y-124569220D03*
D12*
X126015750Y-154832750D03*
X126015750Y-153332750D03*
X127666750Y-154832750D03*
X127666750Y-153332750D03*
X129317750Y-154832750D03*
X129317750Y-153332750D03*
X130968750Y-154832750D03*
X130968750Y-153332750D03*
D11*
X84506500Y-151447500D03*
X83006500Y-151447500D03*
X84506500Y-148145500D03*
X83006500Y-148145500D03*
X84506500Y-144843500D03*
X83006500Y-144843500D03*
X84506500Y-141541500D03*
X83006500Y-141541500D03*
X84506500Y-138239500D03*
X83006500Y-138239500D03*
X84506500Y-134937500D03*
X83006500Y-134937500D03*
D12*
X92392500Y-137870500D03*
X92392500Y-139370500D03*
D11*
X73324000Y-160528000D03*
X71824000Y-160528000D03*
X89205500Y-136017000D03*
X87705500Y-136017000D03*
D29*
X137512500Y-127191700D03*
X138833300Y-127191700D03*
X138172900Y-127191700D03*
X138833300Y-125159700D03*
X137512500Y-125159700D03*
X102177850Y-157194250D03*
X103498650Y-157194250D03*
X102838250Y-157194250D03*
X103498650Y-155162250D03*
X102177850Y-155162250D03*
D30*
X122145440Y-131332880D03*
X122145440Y-130682880D03*
X122145440Y-130032880D03*
X122145440Y-129382880D03*
D31*
X124170440Y-130357880D03*
D30*
X126195440Y-131332880D03*
X126195440Y-130682880D03*
X126195440Y-130032880D03*
X126195440Y-129382880D03*
D32*
X123195440Y-128332880D03*
X123845440Y-128332880D03*
X124495440Y-128332880D03*
X125145440Y-128332880D03*
X123195440Y-132382880D03*
X123845440Y-132382880D03*
X124495440Y-132382880D03*
X125145440Y-132382880D03*
D33*
X90233500Y-143764000D03*
D34*
X90233500Y-141264000D03*
X90733500Y-141264000D03*
X91233500Y-141264000D03*
X91733500Y-141264000D03*
X89733500Y-141264000D03*
X89233500Y-141264000D03*
X88733500Y-141264000D03*
X90233500Y-146364000D03*
X89733500Y-146364000D03*
X89233500Y-146364000D03*
X88733500Y-146364000D03*
X90733500Y-146364000D03*
X91233500Y-146364000D03*
X91733500Y-146364000D03*
D35*
X92733500Y-142264000D03*
X92733500Y-142764000D03*
X92733500Y-143264000D03*
X92733500Y-143764000D03*
X92733500Y-144264000D03*
X92733500Y-144764000D03*
X92733500Y-145264000D03*
X87733500Y-145264000D03*
X87733500Y-144764000D03*
X87733500Y-144264000D03*
X87733500Y-143764000D03*
X87733500Y-143264000D03*
X87733500Y-142764000D03*
X87733500Y-142264000D03*
D36*
X89105500Y-126988000D03*
X89105500Y-126488000D03*
X87805500Y-126488000D03*
X87805500Y-126988000D03*
X89105500Y-125988000D03*
X89105500Y-125488000D03*
X87805500Y-125988000D03*
X87805500Y-125488000D03*
D37*
X99790250Y-140938250D03*
D38*
X98690250Y-140288250D03*
X98690250Y-140938250D03*
X98690250Y-141588250D03*
X100890250Y-141588250D03*
X100890250Y-140938250D03*
X100890250Y-140288250D03*
D39*
X129809240Y-125534420D03*
D40*
X129809240Y-128074420D03*
X129809240Y-130614420D03*
D39*
X133497320Y-128076960D03*
D40*
X133497320Y-125536960D03*
D41*
X69118000Y-122387000D03*
X70218000Y-122387000D03*
X72418000Y-122387000D03*
X71318000Y-122387000D03*
X75718000Y-122387000D03*
X76818000Y-122387000D03*
X74618000Y-122387000D03*
X73518000Y-122387000D03*
D42*
X80368000Y-122477000D03*
D43*
X67618000Y-122477000D03*
D44*
X67058000Y-120807000D03*
D45*
X80658000Y-107627000D03*
D46*
X67058000Y-113467000D03*
D45*
X67168000Y-107627000D03*
X66876000Y-157262000D03*
X69676000Y-157262000D03*
X75176000Y-157262000D03*
X75176000Y-149062000D03*
X66576000Y-149062000D03*
X66876000Y-146340000D03*
X69676000Y-146340000D03*
X75176000Y-146340000D03*
X75176000Y-138140000D03*
X66576000Y-138140000D03*
X66876000Y-135418000D03*
X69676000Y-135418000D03*
X75176000Y-135418000D03*
X75176000Y-127218000D03*
X66576000Y-127218000D03*
D47*
X85200000Y-157800000D03*
D48*
X85200000Y-160340000D03*
D47*
X81600000Y-157800000D03*
D48*
X81600000Y-160340000D03*
D47*
X78000000Y-157800000D03*
D48*
X78000000Y-160340000D03*
D49*
X133842500Y-154817500D03*
X133842500Y-150617500D03*
X139842500Y-154817500D03*
X139842500Y-150617500D03*
D50*
X126876000Y-161621500D03*
X124076000Y-161621500D03*
X126876000Y-157021500D03*
X124076000Y-157021500D03*
D17*
X138747500Y-131572000D03*
D18*
X137654411Y-130125089D02*
X137300589Y-130478911D01*
X137300589Y-132665089D02*
X137654411Y-133018911D01*
D22*
X116903500Y-108470000D03*
X116903500Y-109970000D03*
X111569500Y-110097000D03*
X111569500Y-108597000D03*
D16*
X134759000Y-118237000D03*
X136259000Y-118237000D03*
D22*
X138239500Y-113804000D03*
X138239500Y-115304000D03*
X116395500Y-113359500D03*
X116395500Y-114859500D03*
X114808000Y-113359500D03*
X114808000Y-114859500D03*
X139985750Y-112224250D03*
X139985750Y-110724250D03*
D23*
X109219480Y-106867960D03*
D24*
X119379480Y-106867960D03*
D51*
X125539500Y-113919000D03*
D52*
X121729500Y-113919000D03*
D51*
X107251500Y-113982500D03*
D52*
X111061500Y-113982500D03*
D53*
X140144500Y-118634000D03*
X140144500Y-120634000D03*
D12*
X117983000Y-113359500D03*
X117983000Y-114859500D03*
D11*
X134759000Y-116586000D03*
X136259000Y-116586000D03*
D12*
X119634000Y-114859500D03*
X119634000Y-113359500D03*
X136620250Y-110851250D03*
X136620250Y-112351250D03*
X139954000Y-115304000D03*
X139954000Y-113804000D03*
X113157000Y-113359500D03*
X113157000Y-114859500D03*
X127571500Y-113653000D03*
X127571500Y-112153000D03*
D11*
X121741500Y-116014500D03*
X123241500Y-116014500D03*
D12*
X125857000Y-112002000D03*
X125857000Y-110502000D03*
X138334750Y-112351250D03*
X138334750Y-110851250D03*
X124142500Y-112002000D03*
X124142500Y-110502000D03*
X122428000Y-112002000D03*
X122428000Y-110502000D03*
D54*
X113109500Y-110520000D03*
X114109500Y-110520000D03*
X115109500Y-110520000D03*
X115109500Y-107920000D03*
X114109500Y-107920000D03*
X113109500Y-107920000D03*
D55*
X134648250Y-114834750D03*
X134648250Y-113634750D03*
X134648250Y-112334750D03*
X134648250Y-111034750D03*
X129448250Y-111034750D03*
X129448250Y-112234750D03*
X129448250Y-113534750D03*
X129448250Y-114834750D03*
D47*
X131254500Y-107569000D03*
D48*
X133794500Y-107569000D03*
D56*
X99504500Y-159194500D03*
D57*
X100754500Y-159194500D03*
M02*
