M48
;DRILL file {KiCad (2015-08-05 BZR 6055, Git fa29c62)-product} date 10/03/2016 14:30:29
;FORMAT={-:-/ absolute / inch / decimal}
FMAT,2
INCH,TZ
T1C0.016
T2C0.020
T3C0.028
T4C0.028
T5C0.031
T6C0.032
T7C0.039
T8C0.039
T9C0.040
T10C0.120
%
G90
G05
M72
T1
X2.81Y-4.7625
X2.8925Y-4.765
X2.9372Y-6.32
X2.9422Y-6.255
X3.2175Y-5.8975
X3.22Y-5.3775
X3.22Y-5.5075
X3.22Y-5.6375
X3.22Y-5.77
X3.2225Y-6.025
X3.3375Y-5.1575
X3.4075Y-4.97
X3.4225Y-5.155
X3.465Y-5.8
X3.4825Y-6.1575
X3.4925Y-5.0925
X3.5075Y-4.9125
X3.5275Y-5.845
X3.5575Y-5.375
X3.5625Y-4.97
X3.585Y-5.0925
X3.6725Y-5.56
X3.715Y-6.1025
X3.715Y-6.135
X3.7475Y-5.8175
X3.77Y-5.675
X3.785Y-5.5775
X3.8225Y-5.6475
X3.896Y-5.464
X3.93Y-6.08
X3.9449Y-5.4882
X3.9961Y-5.5748
X4.002Y-5.606
X4.012Y-5.548
X4.0137Y-6.2363
X4.032Y-5.6
X4.0488Y-6.2363
X4.0962Y-6.2363
X4.1225Y-6.065
X4.18Y-5.3025
X4.18Y-5.34
X4.18Y-5.5
X4.1825Y-5.54
X4.19Y-6.06
X4.205Y-5.1725
X4.215Y-5.66
X4.23Y-4.1775
X4.2425Y-5.175
X4.245Y-4.6325
X4.245Y-5.6175
X4.2525Y-5.6575
X4.2575Y-6.06
X4.2775Y-5.885
X4.3075Y-5.81
X4.335Y-5.5575
X4.39Y-5.385
X4.3975Y-5.18
X4.4275Y-5.9475
X4.43Y-5.885
X4.4375Y-5.18
X4.4525Y-4.39
X4.455Y-4.555
X4.48Y-5.385
X4.4925Y-4.39
X4.52Y-4.5575
X4.525Y-5.26
X4.5575Y-4.25
X4.575Y-5.21
X4.595Y-5.26
X4.6Y-5.6625
X4.6025Y-4.365
X4.625Y-5.3375
X4.6275Y-5.2775
X4.635Y-5.6625
X4.665Y-5.5175
X4.67Y-5.485
X4.68Y-5.05
X4.71Y-4.4325
X4.8875Y-4.4375
X4.8875Y-4.5675
X4.9158Y-6.0958
X4.9325Y-5.3775
X4.9604Y-4.9693
X4.9661Y-5.2122
X5.0103Y-5.283
X5.0106Y-5.2161
X5.0136Y-5.1447
X5.2Y-6.095
X5.245Y-4.37
X5.315Y-6.095
X5.3578Y-4.8986
X5.4399Y-4.9675
X5.465Y-6.095
X5.5149Y-4.8725
X5.5175Y-4.7494
X5.55Y-4.36
X5.5725Y-5.02
X5.5725Y-5.07
T2
X3.9175Y-6.2675
X3.9667Y-6.2675
X5.5175Y-4.6706
T3
X4.8849Y-6.1819
X4.8849Y-6.3631
X4.9951Y-6.1819
X4.9951Y-6.3631
T4
X4.2251Y-5.98
X4.2251Y-6.38
X4.3Y-4.2074
X4.7Y-4.2074
T5
X5.1106Y-4.9423
X5.1106Y-5.0423
X5.1106Y-5.1423
X5.2558Y-4.9424
X5.2558Y-5.0424
X5.4125Y-5.13
X5.4125Y-5.23
X5.4125Y-5.3475
X5.4125Y-5.4475
X5.4625Y-5.18
X5.4625Y-5.3975
T6
X3.6614Y-5.9675
X3.8536Y-5.9675
T7
X4.2225Y-4.4875
X4.9425Y-4.485
X5.1675Y-4.235
X5.2675Y-4.235
T8
X4.3725Y-4.4875
X4.7925Y-4.485
T9
X3.0709Y-6.2126
X3.0709Y-6.3126
X3.2126Y-6.2126
X3.2126Y-6.3126
X3.3025Y-4.28
X3.3075Y-4.5775
X3.3075Y-4.6775
X3.3543Y-6.2126
X3.3543Y-6.3126
X3.4025Y-4.28
X3.4075Y-4.5775
X3.4075Y-4.6775
X3.5025Y-4.28
X3.5075Y-4.5775
X3.5075Y-4.6775
X3.6025Y-4.28
X3.6075Y-4.5775
X3.6075Y-4.6775
X3.7025Y-4.28
X3.7075Y-4.5775
X3.7075Y-4.6775
X3.8025Y-4.28
X3.9025Y-4.28
X4.0025Y-4.28
X4.1025Y-4.28
X4.185Y-4.7025
X4.185Y-4.8025
X4.2025Y-4.28
X4.285Y-4.7025
X4.285Y-4.8025
X4.375Y-6.0575
X4.375Y-6.1575
X4.385Y-4.7025
X4.385Y-4.8025
X4.475Y-6.0575
X4.475Y-6.1575
X4.485Y-4.7025
X4.485Y-4.8025
X4.575Y-6.0575
X4.575Y-6.1575
X4.585Y-4.7025
X4.585Y-4.8025
X4.675Y-6.0575
X4.675Y-6.1575
X4.775Y-6.0575
X4.775Y-6.1575
X5.17Y-6.22
X5.17Y-6.32
X5.27Y-6.22
X5.27Y-6.32
X5.335Y-5.635
X5.335Y-5.735
X5.335Y-5.835
X5.435Y-5.635
X5.435Y-5.735
X5.435Y-5.835
T10
X2.535Y-6.365
X5.5625Y-4.22
X5.5625Y-6.365
T0
M30
